<?xml version="1.0" encoding="utf-8" standalone="no"?>
<!DOCTYPE svg PUBLIC "-//W3C//DTD SVG 1.1//EN"
  "http://www.w3.org/Graphics/SVG/1.1/DTD/svg11.dtd">
<svg xmlns:xlink="http://www.w3.org/1999/xlink" width="856.8pt" height="568.637812pt" viewBox="0 0 856.8 568.637812" xmlns="http://www.w3.org/2000/svg" version="1.1">
 <metadata>
  <rdf:RDF xmlns:dc="http://purl.org/dc/elements/1.1/" xmlns:cc="http://creativecommons.org/ns#" xmlns:rdf="http://www.w3.org/1999/02/22-rdf-syntax-ns#">
   <cc:Work>
    <dc:type rdf:resource="http://purl.org/dc/dcmitype/StillImage"/>
    <dc:date>2026-01-03T04:00:54.831090</dc:date>
    <dc:format>image/svg+xml</dc:format>
    <dc:creator>
     <cc:Agent>
      <dc:title>Matplotlib v3.10.8, https://matplotlib.org/</dc:title>
     </cc:Agent>
    </dc:creator>
   </cc:Work>
  </rdf:RDF>
 </metadata>
 <defs>
  <style type="text/css">*{stroke-linejoin: round; stroke-linecap: butt}</style>
 </defs>
 <g id="figure_1">
  <g id="patch_1">
   <path d="M 0 568.637812 
L 856.8 568.637812 
L 856.8 0 
L 0 0 
z
" style="fill: #ffffff"/>
  </g>
  <g id="axes_1">
   <g id="patch_2">
    <path d="M 737.821488 484.815543 
Q 737.821488 485.813032 737.821488 485.692486 
" clip-path="url(#p9259bf18c0)" style="fill: none; stroke: #666666; stroke-linecap: round"/>
    <path d="M 739.821488 481.692486 
L 737.821488 485.692486 
L 735.821488 481.692486 
z
" clip-path="url(#p9259bf18c0)" style="fill: #666666; stroke: #666666; stroke-linecap: round"/>
   </g>
   <g id="patch_3">
    <path d="M 729.165544 495.723592 
Q 409.062349 505.127896 90.076706 514.499367 
" clip-path="url(#p9259bf18c0)" style="fill: none; stroke: #666666; stroke-linecap: round"/>
    <path d="M 94.133714 516.38104 
L 90.076706 514.499367 
L 94.016249 512.382765 
z
" clip-path="url(#p9259bf18c0)" style="fill: #666666; stroke: #666666; stroke-linecap: round"/>
   </g>
   <g id="patch_4">
    <path d="M 88.961344 514.786573 
Q 428.401412 514.786573 766.723446 514.786573 
" clip-path="url(#p9259bf18c0)" style="fill: none; stroke: #666666; stroke-linecap: round"/>
    <path d="M 762.723446 512.786573 
L 766.723446 514.786573 
L 762.723446 516.786573 
z
" clip-path="url(#p9259bf18c0)" style="fill: #666666; stroke: #666666; stroke-linecap: round"/>
   </g>
   <g id="patch_5">
    <path d="M 88.922786 513.961986 
Q 383.278129 485.810447 676.520516 457.765349 
" clip-path="url(#p9259bf18c0)" style="fill: none; stroke: #666666; stroke-linecap: round"/>
    <path d="M 672.348277 456.155247 
L 676.520516 457.765349 
L 672.729092 460.137079 
z
" clip-path="url(#p9259bf18c0)" style="fill: #666666; stroke: #666666; stroke-linecap: round"/>
   </g>
   <g id="patch_6">
    <path d="M 85.106815 507.585626 
Q 144.762305 418.20215 203.797143 329.748614 
" clip-path="url(#p9259bf18c0)" style="fill: none; stroke: #666666; stroke-linecap: round"/>
    <path d="M 199.913099 331.965415 
L 203.797143 329.748614 
L 203.240158 334.185929 
z
" clip-path="url(#p9259bf18c0)" style="fill: #666666; stroke: #666666; stroke-linecap: round"/>
   </g>
   <g id="patch_7">
    <path d="M 771.690529 507.581647 
Q 654.018442 331.270292 536.967007 155.888879 
" clip-path="url(#p9259bf18c0)" style="fill: none; stroke: #666666; stroke-linecap: round"/>
    <path d="M 537.523993 160.326194 
L 536.967007 155.888879 
L 540.851051 158.10568 
z
" clip-path="url(#p9259bf18c0)" style="fill: #666666; stroke: #666666; stroke-linecap: round"/>
   </g>
   <g id="patch_8">
    <path d="M 686.25124 448.171185 
Q 686.25124 447.173697 686.25124 447.294242 
" clip-path="url(#p9259bf18c0)" style="fill: none; stroke: #666666; stroke-linecap: round"/>
    <path d="M 684.25124 451.294242 
L 686.25124 447.294242 
L 688.25124 451.294242 
z
" clip-path="url(#p9259bf18c0)" style="fill: #666666; stroke: #666666; stroke-linecap: round"/>
   </g>
   <g id="patch_9">
    <path d="M 526.73254 154.96208 
Q 525.093315 157.418177 524.074743 158.944332 
" clip-path="url(#p9259bf18c0)" style="fill: none; stroke: #666666; stroke-linecap: round"/>
    <path d="M 527.958786 156.727531 
L 524.074743 158.944332 
L 524.631728 154.507016 
z
" clip-path="url(#p9259bf18c0)" style="fill: #666666; stroke: #666666; stroke-linecap: round"/>
   </g>
   <g id="patch_10">
    <path d="M 523.20782 174.433228 
Q 602.44942 302.296185 681.102063 429.20881 
" clip-path="url(#p9259bf18c0)" style="fill: none; stroke: #666666; stroke-linecap: round"/>
    <path d="M 680.694951 424.755243 
L 681.102063 429.20881 
L 677.294942 426.86236 
z
" clip-path="url(#p9259bf18c0)" style="fill: #666666; stroke: #666666; stroke-linecap: round"/>
   </g>
   <g id="patch_11">
    <path d="M 517.222859 175.616388 
Q 512.201984 205.708054 507.365112 234.696931 
" clip-path="url(#p9259bf18c0)" style="fill: none; stroke: #666666; stroke-linecap: round"/>
    <path d="M 509.99615 231.08063 
L 507.365112 234.696931 
L 506.050694 230.42232 
z
" clip-path="url(#p9259bf18c0)" style="fill: #666666; stroke: #666666; stroke-linecap: round"/>
   </g>
   <g id="patch_12">
    <path d="M 513.841945 159.874523 
Q 486.417613 118.783885 459.613933 78.623187 
" clip-path="url(#p9259bf18c0)" style="fill: none; stroke: #666666; stroke-linecap: round"/>
    <path d="M 460.170918 83.060503 
L 459.613933 78.623187 
L 463.497976 80.839988 
z
" clip-path="url(#p9259bf18c0)" style="fill: #666666; stroke: #666666; stroke-linecap: round"/>
   </g>
   <g id="patch_13">
    <path d="M 681.443284 430.313545 
Q 679.804059 427.857448 678.785486 426.331293 
" clip-path="url(#p9259bf18c0)" style="fill: none; stroke: #666666; stroke-linecap: round"/>
    <path d="M 679.342472 430.768609 
L 678.785486 426.331293 
L 682.66953 428.548094 
z
" clip-path="url(#p9259bf18c0)" style="fill: #666666; stroke: #666666; stroke-linecap: round"/>
   </g>
   <g id="patch_14">
    <path d="M 664.708193 417.80739 
Q 460.632502 408.541563 257.673694 399.326448 
" clip-path="url(#p9259bf18c0)" style="fill: none; stroke: #666666; stroke-linecap: round"/>
    <path d="M 261.578863 401.505818 
L 257.673694 399.326448 
L 261.760291 397.509935 
z
" clip-path="url(#p9259bf18c0)" style="fill: #666666; stroke: #666666; stroke-linecap: round"/>
   </g>
   <g id="patch_15">
    <path d="M 668.552689 410.999209 
Q 608.897199 321.615732 549.862361 233.162196 
" clip-path="url(#p9259bf18c0)" style="fill: none; stroke: #666666; stroke-linecap: round"/>
    <path d="M 550.419347 237.599512 
L 549.862361 233.162196 
L 553.746405 235.378997 
z
" clip-path="url(#p9259bf18c0)" style="fill: #666666; stroke: #666666; stroke-linecap: round"/>
   </g>
   <g id="patch_16">
    <path d="M 539.625102 232.231214 
Q 537.985877 234.687311 536.967305 236.213466 
" clip-path="url(#p9259bf18c0)" style="fill: none; stroke: #666666; stroke-linecap: round"/>
    <path d="M 540.851348 233.996665 
L 536.967305 236.213466 
L 537.52429 231.77615 
z
" clip-path="url(#p9259bf18c0)" style="fill: #666666; stroke: #666666; stroke-linecap: round"/>
   </g>
   <g id="patch_17">
    <path d="M 526.73254 251.548498 
Q 525.093315 254.004594 524.074743 255.530749 
" clip-path="url(#p9259bf18c0)" style="fill: none; stroke: #666666; stroke-linecap: round"/>
    <path d="M 527.958786 253.313948 
L 524.074743 255.530749 
L 524.631728 251.093434 
z
" clip-path="url(#p9259bf18c0)" style="fill: #666666; stroke: #666666; stroke-linecap: round"/>
   </g>
   <g id="patch_18">
    <path d="M 513.839978 256.457993 
Q 512.200753 254.001897 511.182181 252.475742 
" clip-path="url(#p9259bf18c0)" style="fill: none; stroke: #666666; stroke-linecap: round"/>
    <path d="M 511.739166 256.913057 
L 511.182181 252.475742 
L 515.066224 254.692543 
z
" clip-path="url(#p9259bf18c0)" style="fill: #666666; stroke: #666666; stroke-linecap: round"/>
   </g>
   <g id="patch_19">
    <path d="M 518.647934 272.325425 
Q 518.647934 273.322913 518.647934 273.202367 
" clip-path="url(#p9259bf18c0)" style="fill: none; stroke: #666666; stroke-linecap: round"/>
    <path d="M 520.647934 269.202367 
L 518.647934 273.202367 
L 516.647934 269.202367 
z
" clip-path="url(#p9259bf18c0)" style="fill: #666666; stroke: #666666; stroke-linecap: round"/>
   </g>
   <g id="patch_20">
    <path d="M 247.904132 390.219334 
Q 247.904132 389.221846 247.904132 389.342392 
" clip-path="url(#p9259bf18c0)" style="fill: none; stroke: #666666; stroke-linecap: round"/>
    <path d="M 245.904132 393.342392 
L 247.904132 389.342392 
L 249.904132 393.342392 
z
" clip-path="url(#p9259bf18c0)" style="fill: #666666; stroke: #666666; stroke-linecap: round"/>
   </g>
   <g id="patch_21">
    <path d="M 500.946629 251.549677 
Q 486.415273 273.322411 472.50457 294.165204 
" clip-path="url(#p9259bf18c0)" style="fill: none; stroke: #666666; stroke-linecap: round"/>
    <path d="M 476.388613 291.948403 
L 472.50457 294.165204 
L 473.061555 289.727888 
z
" clip-path="url(#p9259bf18c0)" style="fill: #666666; stroke: #666666; stroke-linecap: round"/>
   </g>
   <g id="patch_22">
    <path d="M 462.26973 295.09256 
Q 460.630505 292.636464 459.611933 291.110309 
" clip-path="url(#p9259bf18c0)" style="fill: none; stroke: #666666; stroke-linecap: round"/>
    <path d="M 460.168918 295.547624 
L 459.611933 291.110309 
L 463.495976 293.32711 
z
" clip-path="url(#p9259bf18c0)" style="fill: #666666; stroke: #666666; stroke-linecap: round"/>
   </g>
   <g id="patch_23">
    <path d="M 475.189046 299.258085 
Q 492.864113 292.637324 509.492189 286.408748 
" clip-path="url(#p9259bf18c0)" style="fill: none; stroke: #666666; stroke-linecap: round"/>
    <path d="M 505.044797 285.938953 
L 509.492189 286.408748 
L 506.447918 289.684784 
z
" clip-path="url(#p9259bf18c0)" style="fill: #666666; stroke: #666666; stroke-linecap: round"/>
   </g>
   <g id="patch_24">
    <path d="M 446.344457 286.650386 
Q 351.047016 331.271262 256.762111 375.41804 
" clip-path="url(#p9259bf18c0)" style="fill: none; stroke: #666666; stroke-linecap: round"/>
    <path d="M 261.232766 375.533138 
L 256.762111 375.41804 
L 259.536583 371.910575 
z
" clip-path="url(#p9259bf18c0)" style="fill: #666666; stroke: #666666; stroke-linecap: round"/>
   </g>
   <g id="patch_25">
    <path d="M 449.376381 77.694125 
Q 434.845025 99.466859 420.934322 120.309652 
" clip-path="url(#p9259bf18c0)" style="fill: none; stroke: #666666; stroke-linecap: round"/>
    <path d="M 424.818365 118.092851 
L 420.934322 120.309652 
L 421.491307 115.872337 
z
" clip-path="url(#p9259bf18c0)" style="fill: #666666; stroke: #666666; stroke-linecap: round"/>
   </g>
   <g id="patch_26">
    <path d="M 454.185124 98.469873 
Q 454.185124 99.467361 454.185124 99.346816 
" clip-path="url(#p9259bf18c0)" style="fill: none; stroke: #666666; stroke-linecap: round"/>
    <path d="M 456.185124 95.346816 
L 454.185124 99.346816 
L 452.185124 95.346816 
z
" clip-path="url(#p9259bf18c0)" style="fill: #666666; stroke: #666666; stroke-linecap: round"/>
   </g>
   <g id="patch_27">
    <path d="M 446.439672 112.992028 
Q 434.845748 118.782527 424.252047 124.073473 
" clip-path="url(#p9259bf18c0)" style="fill: none; stroke: #666666; stroke-linecap: round"/>
    <path d="M 428.724183 124.075467 
L 424.252047 124.073473 
L 426.936924 120.496961 
z
" clip-path="url(#p9259bf18c0)" style="fill: #666666; stroke: #666666; stroke-linecap: round"/>
   </g>
   <g id="patch_28">
    <path d="M 410.699482 135.644797 
Q 409.060257 138.100893 408.041685 139.627048 
" clip-path="url(#p9259bf18c0)" style="fill: none; stroke: #666666; stroke-linecap: round"/>
    <path d="M 411.925728 137.410247 
L 408.041685 139.627048 
L 408.59867 135.189733 
z
" clip-path="url(#p9259bf18c0)" style="fill: #666666; stroke: #666666; stroke-linecap: round"/>
   </g>
   <g id="patch_29">
    <path d="M 397.806133 154.963259 
Q 325.257965 263.664193 253.33045 371.435185 
" clip-path="url(#p9259bf18c0)" style="fill: none; stroke: #666666; stroke-linecap: round"/>
    <path d="M 257.214494 369.218384 
L 253.33045 371.435185 
L 253.887436 366.99787 
z
" clip-path="url(#p9259bf18c0)" style="fill: #666666; stroke: #666666; stroke-linecap: round"/>
   </g>
   <g id="patch_30">
    <path d="M 214.034402 328.817632 
Q 215.673627 331.273728 216.6922 332.799883 
" clip-path="url(#p9259bf18c0)" style="fill: none; stroke: #666666; stroke-linecap: round"/>
    <path d="M 216.135214 328.362568 
L 216.6922 332.799883 
L 212.808156 330.583082 
z
" clip-path="url(#p9259bf18c0)" style="fill: #666666; stroke: #666666; stroke-linecap: round"/>
   </g>
   <g id="patch_31">
    <path d="M 226.926964 348.134915 
Q 228.566189 350.591012 229.584762 352.117167 
" clip-path="url(#p9259bf18c0)" style="fill: none; stroke: #666666; stroke-linecap: round"/>
    <path d="M 229.027776 347.679851 
L 229.584762 352.117167 
L 225.700718 349.900366 
z
" clip-path="url(#p9259bf18c0)" style="fill: #666666; stroke: #666666; stroke-linecap: round"/>
   </g>
   <g id="patch_32">
    <path d="M 239.819526 367.452199 
Q 241.458751 369.908295 242.477324 371.43445 
" clip-path="url(#p9259bf18c0)" style="fill: none; stroke: #666666; stroke-linecap: round"/>
    <path d="M 241.920338 366.997135 
L 242.477324 371.43445 
L 238.59328 369.217649 
z
" clip-path="url(#p9259bf18c0)" style="fill: #666666; stroke: #666666; stroke-linecap: round"/>
   </g>
   <g id="patch_33">
    <path d="M 256.549011 379.025886 
Q 402.616313 369.906857 547.567755 360.857491 
" clip-path="url(#p9259bf18c0)" style="fill: none; stroke: #666666; stroke-linecap: round"/>
    <path d="M 543.450909 359.110614 
L 547.567755 360.857491 
L 543.700145 363.102841 
z
" clip-path="url(#p9259bf18c0)" style="fill: #666666; stroke: #666666; stroke-linecap: round"/>
   </g>
   <g id="patch_34">
    <path d="M 458.99308 333.727127 
Q 460.632305 331.271031 461.650877 329.744876 
" clip-path="url(#p9259bf18c0)" style="fill: none; stroke: #666666; stroke-linecap: round"/>
    <path d="M 457.766834 331.961677 
L 461.650877 329.744876 
L 461.093892 334.182191 
z
" clip-path="url(#p9259bf18c0)" style="fill: #666666; stroke: #666666; stroke-linecap: round"/>
   </g>
   <g id="patch_35">
    <path d="M 475.039929 325.022323 
Q 512.20133 340.930883 548.334918 356.399443 
" clip-path="url(#p9259bf18c0)" style="fill: none; stroke: #666666; stroke-linecap: round"/>
    <path d="M 545.444799 352.986642 
L 548.334918 356.399443 
L 543.870606 356.663858 
z
" clip-path="url(#p9259bf18c0)" style="fill: #666666; stroke: #666666; stroke-linecap: round"/>
   </g>
   <g id="patch_36">
    <path d="M 553.448172 352.502055 
Q 537.986238 321.612661 523.02475 291.723043 
" clip-path="url(#p9259bf18c0)" style="fill: none; stroke: #666666; stroke-linecap: round"/>
    <path d="M 523.026746 296.195179 
L 523.02475 291.723043 
L 526.603656 294.404728 
z
" clip-path="url(#p9259bf18c0)" style="fill: #666666; stroke: #666666; stroke-linecap: round"/>
   </g>
   <g id="text_1">
    <g id="patch_37">
     <path d="M 410.173522 520.273917 
L 446.629303 520.273917 
Q 448.729303 520.273917 448.729303 518.173917 
L 448.729303 511.399229 
Q 448.729303 509.299229 446.629303 509.299229 
L 410.173522 509.299229 
Q 408.073522 509.299229 408.073522 511.399229 
L 408.073522 518.173917 
Q 408.073522 520.273917 410.173522 520.273917 
z
" clip-path="url(#p9259bf18c0)" style="fill: #ffffff; stroke: #ffffff; stroke-linejoin: miter"/>
    </g>
    <g clip-path="url(#p9259bf18c0)">
     <!-- regression -->
     <g transform="translate(410.173522 516.718135) scale(0.07 -0.07)">
      <defs>
       <path id="DejaVuSans-72" d="M 2631 2963 
Q 2534 3019 2420 3045 
Q 2306 3072 2169 3072 
Q 1681 3072 1420 2755 
Q 1159 2438 1159 1844 
L 1159 0 
L 581 0 
L 581 3500 
L 1159 3500 
L 1159 2956 
Q 1341 3275 1631 3429 
Q 1922 3584 2338 3584 
Q 2397 3584 2469 3576 
Q 2541 3569 2628 3553 
L 2631 2963 
z
" transform="scale(0.015625)"/>
       <path id="DejaVuSans-65" d="M 3597 1894 
L 3597 1613 
L 953 1613 
Q 991 1019 1311 708 
Q 1631 397 2203 397 
Q 2534 397 2845 478 
Q 3156 559 3463 722 
L 3463 178 
Q 3153 47 2828 -22 
Q 2503 -91 2169 -91 
Q 1331 -91 842 396 
Q 353 884 353 1716 
Q 353 2575 817 3079 
Q 1281 3584 2069 3584 
Q 2775 3584 3186 3129 
Q 3597 2675 3597 1894 
z
M 3022 2063 
Q 3016 2534 2758 2815 
Q 2500 3097 2075 3097 
Q 1594 3097 1305 2825 
Q 1016 2553 972 2059 
L 3022 2063 
z
" transform="scale(0.015625)"/>
       <path id="DejaVuSans-67" d="M 2906 1791 
Q 2906 2416 2648 2759 
Q 2391 3103 1925 3103 
Q 1463 3103 1205 2759 
Q 947 2416 947 1791 
Q 947 1169 1205 825 
Q 1463 481 1925 481 
Q 2391 481 2648 825 
Q 2906 1169 2906 1791 
z
M 3481 434 
Q 3481 -459 3084 -895 
Q 2688 -1331 1869 -1331 
Q 1566 -1331 1297 -1286 
Q 1028 -1241 775 -1147 
L 775 -588 
Q 1028 -725 1275 -790 
Q 1522 -856 1778 -856 
Q 2344 -856 2625 -561 
Q 2906 -266 2906 331 
L 2906 616 
Q 2728 306 2450 153 
Q 2172 0 1784 0 
Q 1141 0 747 490 
Q 353 981 353 1791 
Q 353 2603 747 3093 
Q 1141 3584 1784 3584 
Q 2172 3584 2450 3431 
Q 2728 3278 2906 2969 
L 2906 3500 
L 3481 3500 
L 3481 434 
z
" transform="scale(0.015625)"/>
       <path id="DejaVuSans-73" d="M 2834 3397 
L 2834 2853 
Q 2591 2978 2328 3040 
Q 2066 3103 1784 3103 
Q 1356 3103 1142 2972 
Q 928 2841 928 2578 
Q 928 2378 1081 2264 
Q 1234 2150 1697 2047 
L 1894 2003 
Q 2506 1872 2764 1633 
Q 3022 1394 3022 966 
Q 3022 478 2636 193 
Q 2250 -91 1575 -91 
Q 1294 -91 989 -36 
Q 684 19 347 128 
L 347 722 
Q 666 556 975 473 
Q 1284 391 1588 391 
Q 1994 391 2212 530 
Q 2431 669 2431 922 
Q 2431 1156 2273 1281 
Q 2116 1406 1581 1522 
L 1381 1569 
Q 847 1681 609 1914 
Q 372 2147 372 2553 
Q 372 3047 722 3315 
Q 1072 3584 1716 3584 
Q 2034 3584 2315 3537 
Q 2597 3491 2834 3397 
z
" transform="scale(0.015625)"/>
       <path id="DejaVuSans-69" d="M 603 3500 
L 1178 3500 
L 1178 0 
L 603 0 
L 603 3500 
z
M 603 4863 
L 1178 4863 
L 1178 4134 
L 603 4134 
L 603 4863 
z
" transform="scale(0.015625)"/>
       <path id="DejaVuSans-6f" d="M 1959 3097 
Q 1497 3097 1228 2736 
Q 959 2375 959 1747 
Q 959 1119 1226 758 
Q 1494 397 1959 397 
Q 2419 397 2687 759 
Q 2956 1122 2956 1747 
Q 2956 2369 2687 2733 
Q 2419 3097 1959 3097 
z
M 1959 3584 
Q 2709 3584 3137 3096 
Q 3566 2609 3566 1747 
Q 3566 888 3137 398 
Q 2709 -91 1959 -91 
Q 1206 -91 779 398 
Q 353 888 353 1747 
Q 353 2609 779 3096 
Q 1206 3584 1959 3584 
z
" transform="scale(0.015625)"/>
       <path id="DejaVuSans-6e" d="M 3513 2113 
L 3513 0 
L 2938 0 
L 2938 2094 
Q 2938 2591 2744 2837 
Q 2550 3084 2163 3084 
Q 1697 3084 1428 2787 
Q 1159 2491 1159 1978 
L 1159 0 
L 581 0 
L 581 3500 
L 1159 3500 
L 1159 2956 
Q 1366 3272 1645 3428 
Q 1925 3584 2291 3584 
Q 2894 3584 3203 3211 
Q 3513 2838 3513 2113 
z
" transform="scale(0.015625)"/>
      </defs>
      <use xlink:href="#DejaVuSans-72"/>
      <use xlink:href="#DejaVuSans-65" transform="translate(38.863281 0)"/>
      <use xlink:href="#DejaVuSans-67" transform="translate(100.386719 0)"/>
      <use xlink:href="#DejaVuSans-72" transform="translate(163.863281 0)"/>
      <use xlink:href="#DejaVuSans-65" transform="translate(202.726562 0)"/>
      <use xlink:href="#DejaVuSans-73" transform="translate(264.25 0)"/>
      <use xlink:href="#DejaVuSans-73" transform="translate(316.349609 0)"/>
      <use xlink:href="#DejaVuSans-69" transform="translate(368.449219 0)"/>
      <use xlink:href="#DejaVuSans-6f" transform="translate(396.232422 0)"/>
      <use xlink:href="#DejaVuSans-6e" transform="translate(457.414062 0)"/>
     </g>
    </g>
   </g>
   <g id="text_2">
    <g id="patch_38">
     <path d="M 368.766642 492.710678 
L 398.834445 489.835055 
Q 400.924907 489.635128 400.724979 487.544666 
L 400.080005 480.80075 
Q 399.880078 478.710289 397.789616 478.910216 
L 367.721813 481.785839 
Q 365.631351 481.985767 365.831279 484.076228 
L 366.476253 490.820144 
Q 366.67618 492.910605 368.766642 492.710678 
z
" clip-path="url(#p9259bf18c0)" style="fill: #ffffff; stroke: #ffffff; stroke-linejoin: miter"/>
    </g>
    <g clip-path="url(#p9259bf18c0)">
     <!-- anomaly -->
     <g transform="translate(368.428119 489.171048) rotate(-5.463035) scale(0.07 -0.07)">
      <defs>
       <path id="DejaVuSans-61" d="M 2194 1759 
Q 1497 1759 1228 1600 
Q 959 1441 959 1056 
Q 959 750 1161 570 
Q 1363 391 1709 391 
Q 2188 391 2477 730 
Q 2766 1069 2766 1631 
L 2766 1759 
L 2194 1759 
z
M 3341 1997 
L 3341 0 
L 2766 0 
L 2766 531 
Q 2569 213 2275 61 
Q 1981 -91 1556 -91 
Q 1019 -91 701 211 
Q 384 513 384 1019 
Q 384 1609 779 1909 
Q 1175 2209 1959 2209 
L 2766 2209 
L 2766 2266 
Q 2766 2663 2505 2880 
Q 2244 3097 1772 3097 
Q 1472 3097 1187 3025 
Q 903 2953 641 2809 
L 641 3341 
Q 956 3463 1253 3523 
Q 1550 3584 1831 3584 
Q 2591 3584 2966 3190 
Q 3341 2797 3341 1997 
z
" transform="scale(0.015625)"/>
       <path id="DejaVuSans-6d" d="M 3328 2828 
Q 3544 3216 3844 3400 
Q 4144 3584 4550 3584 
Q 5097 3584 5394 3201 
Q 5691 2819 5691 2113 
L 5691 0 
L 5113 0 
L 5113 2094 
Q 5113 2597 4934 2840 
Q 4756 3084 4391 3084 
Q 3944 3084 3684 2787 
Q 3425 2491 3425 1978 
L 3425 0 
L 2847 0 
L 2847 2094 
Q 2847 2600 2669 2842 
Q 2491 3084 2119 3084 
Q 1678 3084 1418 2786 
Q 1159 2488 1159 1978 
L 1159 0 
L 581 0 
L 581 3500 
L 1159 3500 
L 1159 2956 
Q 1356 3278 1631 3431 
Q 1906 3584 2284 3584 
Q 2666 3584 2933 3390 
Q 3200 3197 3328 2828 
z
" transform="scale(0.015625)"/>
       <path id="DejaVuSans-6c" d="M 603 4863 
L 1178 4863 
L 1178 0 
L 603 0 
L 603 4863 
z
" transform="scale(0.015625)"/>
       <path id="DejaVuSans-79" d="M 2059 -325 
Q 1816 -950 1584 -1140 
Q 1353 -1331 966 -1331 
L 506 -1331 
L 506 -850 
L 844 -850 
Q 1081 -850 1212 -737 
Q 1344 -625 1503 -206 
L 1606 56 
L 191 3500 
L 800 3500 
L 1894 763 
L 2988 3500 
L 3597 3500 
L 2059 -325 
z
" transform="scale(0.015625)"/>
      </defs>
      <use xlink:href="#DejaVuSans-61"/>
      <use xlink:href="#DejaVuSans-6e" transform="translate(61.279297 0)"/>
      <use xlink:href="#DejaVuSans-6f" transform="translate(124.658203 0)"/>
      <use xlink:href="#DejaVuSans-6d" transform="translate(185.839844 0)"/>
      <use xlink:href="#DejaVuSans-61" transform="translate(283.251953 0)"/>
      <use xlink:href="#DejaVuSans-6c" transform="translate(344.53125 0)"/>
      <use xlink:href="#DejaVuSans-79" transform="translate(372.314453 0)"/>
     </g>
    </g>
   </g>
   <g id="text_3">
    <g id="patch_39">
     <path d="M 147.987973 423.253858 
L 150.664994 419.242804 
Q 151.830764 417.496098 150.084058 416.330328 
L 144.449113 412.569505 
Q 142.702408 411.403735 141.536638 413.150441 
L 138.859617 417.161496 
Q 137.693847 418.908201 139.440553 420.073971 
L 145.075497 423.834794 
Q 146.822203 425.000564 147.987973 423.253858 
z
" clip-path="url(#p9259bf18c0)" style="fill: #ffffff; stroke: #ffffff; stroke-linejoin: miter"/>
    </g>
    <g clip-path="url(#p9259bf18c0)">
     <!-- rl -->
     <g transform="translate(145.0304 421.279942) rotate(-56.280429) scale(0.07 -0.07)">
      <use xlink:href="#DejaVuSans-72"/>
      <use xlink:href="#DejaVuSans-6c" transform="translate(41.113281 0)"/>
     </g>
    </g>
   </g>
   <g id="text_4">
    <g id="patch_40">
     <path d="M 590.591173 293.578694 
L 604.979157 316.794911 
Q 606.085393 318.579916 607.870398 317.47368 
L 613.628897 313.904916 
Q 615.413902 312.79868 614.307666 311.013675 
L 599.919682 287.797458 
Q 598.813446 286.012454 597.028441 287.11869 
L 591.269942 290.687454 
Q 589.484937 291.79369 590.591173 293.578694 
z
" clip-path="url(#p9259bf18c0)" style="fill: #ffffff; stroke: #ffffff; stroke-linejoin: miter"/>
    </g>
    <g clip-path="url(#p9259bf18c0)">
     <!-- PyCaret -->
     <g transform="translate(593.613595 291.705583) rotate(-301.78809) scale(0.07 -0.07)">
      <defs>
       <path id="DejaVuSans-50" d="M 1259 4147 
L 1259 2394 
L 2053 2394 
Q 2494 2394 2734 2622 
Q 2975 2850 2975 3272 
Q 2975 3691 2734 3919 
Q 2494 4147 2053 4147 
L 1259 4147 
z
M 628 4666 
L 2053 4666 
Q 2838 4666 3239 4311 
Q 3641 3956 3641 3272 
Q 3641 2581 3239 2228 
Q 2838 1875 2053 1875 
L 1259 1875 
L 1259 0 
L 628 0 
L 628 4666 
z
" transform="scale(0.015625)"/>
       <path id="DejaVuSans-43" d="M 4122 4306 
L 4122 3641 
Q 3803 3938 3442 4084 
Q 3081 4231 2675 4231 
Q 1875 4231 1450 3742 
Q 1025 3253 1025 2328 
Q 1025 1406 1450 917 
Q 1875 428 2675 428 
Q 3081 428 3442 575 
Q 3803 722 4122 1019 
L 4122 359 
Q 3791 134 3420 21 
Q 3050 -91 2638 -91 
Q 1578 -91 968 557 
Q 359 1206 359 2328 
Q 359 3453 968 4101 
Q 1578 4750 2638 4750 
Q 3056 4750 3426 4639 
Q 3797 4528 4122 4306 
z
" transform="scale(0.015625)"/>
       <path id="DejaVuSans-74" d="M 1172 4494 
L 1172 3500 
L 2356 3500 
L 2356 3053 
L 1172 3053 
L 1172 1153 
Q 1172 725 1289 603 
Q 1406 481 1766 481 
L 2356 481 
L 2356 0 
L 1766 0 
Q 1100 0 847 248 
Q 594 497 594 1153 
L 594 3053 
L 172 3053 
L 172 3500 
L 594 3500 
L 594 4494 
L 1172 4494 
z
" transform="scale(0.015625)"/>
      </defs>
      <use xlink:href="#DejaVuSans-50"/>
      <use xlink:href="#DejaVuSans-79" transform="translate(60.302734 0)"/>
      <use xlink:href="#DejaVuSans-43" transform="translate(119.482422 0)"/>
      <use xlink:href="#DejaVuSans-61" transform="translate(189.306641 0)"/>
      <use xlink:href="#DejaVuSans-72" transform="translate(250.585938 0)"/>
      <use xlink:href="#DejaVuSans-65" transform="translate(289.449219 0)"/>
      <use xlink:href="#DejaVuSans-74" transform="translate(350.972656 0)"/>
     </g>
    </g>
   </g>
   <g id="text_5">
    <g id="patch_41">
     <path d="M 513.965678 228.479688 
L 521.263328 184.742606 
Q 521.60894 182.671241 519.537576 182.325629 
L 512.855267 181.210668 
Q 510.783902 180.865055 510.438289 182.93642 
L 503.14064 226.673502 
Q 502.795027 228.744866 504.866392 229.090479 
L 511.548701 230.20544 
Q 513.620066 230.551053 513.965678 228.479688 
z
" clip-path="url(#p9259bf18c0)" style="fill: #ffffff; stroke: #ffffff; stroke-linejoin: miter"/>
    </g>
    <g clip-path="url(#p9259bf18c0)">
     <!-- Auto-sklearn -->
     <g transform="translate(510.458383 227.894487) rotate(-80.527308) scale(0.07 -0.07)">
      <defs>
       <path id="DejaVuSans-41" d="M 2188 4044 
L 1331 1722 
L 3047 1722 
L 2188 4044 
z
M 1831 4666 
L 2547 4666 
L 4325 0 
L 3669 0 
L 3244 1197 
L 1141 1197 
L 716 0 
L 50 0 
L 1831 4666 
z
" transform="scale(0.015625)"/>
       <path id="DejaVuSans-75" d="M 544 1381 
L 544 3500 
L 1119 3500 
L 1119 1403 
Q 1119 906 1312 657 
Q 1506 409 1894 409 
Q 2359 409 2629 706 
Q 2900 1003 2900 1516 
L 2900 3500 
L 3475 3500 
L 3475 0 
L 2900 0 
L 2900 538 
Q 2691 219 2414 64 
Q 2138 -91 1772 -91 
Q 1169 -91 856 284 
Q 544 659 544 1381 
z
M 1991 3584 
L 1991 3584 
z
" transform="scale(0.015625)"/>
       <path id="DejaVuSans-2d" d="M 313 2009 
L 1997 2009 
L 1997 1497 
L 313 1497 
L 313 2009 
z
" transform="scale(0.015625)"/>
       <path id="DejaVuSans-6b" d="M 581 4863 
L 1159 4863 
L 1159 1991 
L 2875 3500 
L 3609 3500 
L 1753 1863 
L 3688 0 
L 2938 0 
L 1159 1709 
L 1159 0 
L 581 0 
L 581 4863 
z
" transform="scale(0.015625)"/>
      </defs>
      <use xlink:href="#DejaVuSans-41"/>
      <use xlink:href="#DejaVuSans-75" transform="translate(68.408203 0)"/>
      <use xlink:href="#DejaVuSans-74" transform="translate(131.787109 0)"/>
      <use xlink:href="#DejaVuSans-6f" transform="translate(170.996094 0)"/>
      <use xlink:href="#DejaVuSans-2d" transform="translate(234.052734 0)"/>
      <use xlink:href="#DejaVuSans-73" transform="translate(270.136719 0)"/>
      <use xlink:href="#DejaVuSans-6b" transform="translate(322.236328 0)"/>
      <use xlink:href="#DejaVuSans-6c" transform="translate(380.146484 0)"/>
      <use xlink:href="#DejaVuSans-65" transform="translate(407.929688 0)"/>
      <use xlink:href="#DejaVuSans-61" transform="translate(469.453125 0)"/>
      <use xlink:href="#DejaVuSans-72" transform="translate(530.732422 0)"/>
      <use xlink:href="#DejaVuSans-6e" transform="translate(570.095703 0)"/>
     </g>
    </g>
   </g>
   <g id="text_6">
    <g id="patch_42">
     <path d="M 477.338505 115.065221 
L 486.368365 128.594911 
Q 487.534135 130.341617 489.28084 129.175847 
L 494.915785 125.415024 
Q 496.662491 124.249254 495.496721 122.502548 
L 486.466861 108.972858 
Q 485.301091 107.226153 483.554385 108.391923 
L 477.91944 112.152745 
Q 476.172735 113.318515 477.338505 115.065221 
z
" clip-path="url(#p9259bf18c0)" style="fill: #ffffff; stroke: #ffffff; stroke-linejoin: miter"/>
    </g>
    <g clip-path="url(#p9259bf18c0)">
     <!-- Both -->
     <g transform="translate(480.296077 113.091305) rotate(-303.719571) scale(0.07 -0.07)">
      <defs>
       <path id="DejaVuSans-42" d="M 1259 2228 
L 1259 519 
L 2272 519 
Q 2781 519 3026 730 
Q 3272 941 3272 1375 
Q 3272 1813 3026 2020 
Q 2781 2228 2272 2228 
L 1259 2228 
z
M 1259 4147 
L 1259 2741 
L 2194 2741 
Q 2656 2741 2882 2914 
Q 3109 3088 3109 3444 
Q 3109 3797 2882 3972 
Q 2656 4147 2194 4147 
L 1259 4147 
z
M 628 4666 
L 2241 4666 
Q 2963 4666 3353 4366 
Q 3744 4066 3744 3513 
Q 3744 3084 3544 2831 
Q 3344 2578 2956 2516 
Q 3422 2416 3680 2098 
Q 3938 1781 3938 1306 
Q 3938 681 3513 340 
Q 3088 0 2303 0 
L 628 0 
L 628 4666 
z
" transform="scale(0.015625)"/>
       <path id="DejaVuSans-68" d="M 3513 2113 
L 3513 0 
L 2938 0 
L 2938 2094 
Q 2938 2591 2744 2837 
Q 2550 3084 2163 3084 
Q 1697 3084 1428 2787 
Q 1159 2491 1159 1978 
L 1159 0 
L 581 0 
L 581 4863 
L 1159 4863 
L 1159 2956 
Q 1366 3272 1645 3428 
Q 1925 3584 2291 3584 
Q 2894 3584 3203 3211 
Q 3513 2838 3513 2113 
z
" transform="scale(0.015625)"/>
      </defs>
      <use xlink:href="#DejaVuSans-42"/>
      <use xlink:href="#DejaVuSans-6f" transform="translate(68.603516 0)"/>
      <use xlink:href="#DejaVuSans-74" transform="translate(129.785156 0)"/>
      <use xlink:href="#DejaVuSans-68" transform="translate(168.994141 0)"/>
     </g>
    </g>
   </g>
   <g id="text_7">
    <g id="patch_43">
     <path d="M 453.208347 413.697475 
L 467.558876 414.349044 
Q 469.656714 414.444294 469.751964 412.346456 
L 470.059245 405.57874 
Q 470.154495 403.480902 468.056656 403.385652 
L 453.706128 402.734082 
Q 451.608289 402.638832 451.513039 404.736671 
L 451.205759 411.504386 
Q 451.110509 413.602225 453.208347 413.697475 
z
" clip-path="url(#p9259bf18c0)" style="fill: #ffffff; stroke: #ffffff; stroke-linejoin: miter"/>
    </g>
    <g clip-path="url(#p9259bf18c0)">
     <!-- true -->
     <g transform="translate(453.369627 410.145353) rotate(-357.400335) scale(0.07 -0.07)">
      <use xlink:href="#DejaVuSans-74"/>
      <use xlink:href="#DejaVuSans-72" transform="translate(39.208984 0)"/>
      <use xlink:href="#DejaVuSans-75" transform="translate(80.322266 0)"/>
      <use xlink:href="#DejaVuSans-65" transform="translate(143.701172 0)"/>
     </g>
    </g>
   </g>
   <g id="text_8">
    <g id="patch_44">
     <path d="M 599.710925 317.736499 
L 608.955117 331.587328 
Q 610.120887 333.334033 611.867592 332.168263 
L 617.502537 328.407441 
Q 619.249243 327.241671 618.083473 325.494965 
L 608.839281 311.644136 
Q 607.673511 309.897431 605.926805 311.063201 
L 600.29186 314.824023 
Q 598.545155 315.989793 599.710925 317.736499 
z
" clip-path="url(#p9259bf18c0)" style="fill: #ffffff; stroke: #ffffff; stroke-linejoin: miter"/>
    </g>
    <g clip-path="url(#p9259bf18c0)">
     <!-- false -->
     <g transform="translate(602.668498 315.762583) rotate(-303.719571) scale(0.07 -0.07)">
      <defs>
       <path id="DejaVuSans-66" d="M 2375 4863 
L 2375 4384 
L 1825 4384 
Q 1516 4384 1395 4259 
Q 1275 4134 1275 3809 
L 1275 3500 
L 2222 3500 
L 2222 3053 
L 1275 3053 
L 1275 0 
L 697 0 
L 697 3053 
L 147 3053 
L 147 3500 
L 697 3500 
L 697 3744 
Q 697 4328 969 4595 
Q 1241 4863 1831 4863 
L 2375 4863 
z
" transform="scale(0.015625)"/>
      </defs>
      <use xlink:href="#DejaVuSans-66"/>
      <use xlink:href="#DejaVuSans-61" transform="translate(35.205078 0)"/>
      <use xlink:href="#DejaVuSans-6c" transform="translate(96.484375 0)"/>
      <use xlink:href="#DejaVuSans-73" transform="translate(124.267578 0)"/>
      <use xlink:href="#DejaVuSans-65" transform="translate(176.367188 0)"/>
     </g>
    </g>
   </g>
   <g id="text_9">
    <g id="patch_45">
     <path d="M 503.649277 251.073799 
L 511.623873 263.022357 
Q 512.789643 264.769063 514.536348 263.603293 
L 520.171293 259.84247 
Q 521.917999 258.6767 520.752229 256.929994 
L 512.777633 244.981437 
Q 511.611863 243.234731 509.865158 244.400501 
L 504.230213 248.161324 
Q 502.483507 249.327094 503.649277 251.073799 
z
" clip-path="url(#p9259bf18c0)" style="fill: #ffffff; stroke: #ffffff; stroke-linejoin: miter"/>
    </g>
    <g clip-path="url(#p9259bf18c0)">
     <!-- true -->
     <g transform="translate(506.60685 249.099884) rotate(-303.719571) scale(0.07 -0.07)">
      <use xlink:href="#DejaVuSans-74"/>
      <use xlink:href="#DejaVuSans-72" transform="translate(39.208984 0)"/>
      <use xlink:href="#DejaVuSans-75" transform="translate(80.322266 0)"/>
      <use xlink:href="#DejaVuSans-65" transform="translate(143.701172 0)"/>
     </g>
    </g>
   </g>
   <g id="text_10">
    <g id="patch_46">
     <path d="M 513.16059 264.996741 
L 513.16059 281.649085 
Q 513.16059 283.749085 515.26059 283.749085 
L 522.035278 283.749085 
Q 524.135278 283.749085 524.135278 281.649085 
L 524.135278 264.996741 
Q 524.135278 262.896741 522.035278 262.896741 
L 515.26059 262.896741 
Q 513.16059 262.896741 513.16059 264.996741 
z
" clip-path="url(#p9259bf18c0)" style="fill: #ffffff; stroke: #ffffff; stroke-linejoin: miter"/>
    </g>
    <g clip-path="url(#p9259bf18c0)">
     <!-- false -->
     <g transform="translate(516.716371 264.996741) rotate(-270) scale(0.07 -0.07)">
      <use xlink:href="#DejaVuSans-66"/>
      <use xlink:href="#DejaVuSans-61" transform="translate(35.205078 0)"/>
      <use xlink:href="#DejaVuSans-6c" transform="translate(96.484375 0)"/>
      <use xlink:href="#DejaVuSans-73" transform="translate(124.267578 0)"/>
      <use xlink:href="#DejaVuSans-65" transform="translate(176.367188 0)"/>
     </g>
    </g>
   </g>
   <g id="text_11">
    <g id="patch_47">
     <path d="M 452.079029 289.708366 
L 460.053625 301.656924 
Q 461.219395 303.40363 462.9661 302.23786 
L 468.601045 298.477037 
Q 470.347751 297.311267 469.181981 295.564561 
L 461.207385 283.616004 
Q 460.041615 281.869298 458.29491 283.035068 
L 452.659965 286.795891 
Q 450.913259 287.961661 452.079029 289.708366 
z
" clip-path="url(#p9259bf18c0)" style="fill: #ffffff; stroke: #ffffff; stroke-linejoin: miter"/>
    </g>
    <g clip-path="url(#p9259bf18c0)">
     <!-- true -->
     <g transform="translate(455.036602 287.734451) rotate(-303.719571) scale(0.07 -0.07)">
      <use xlink:href="#DejaVuSans-74"/>
      <use xlink:href="#DejaVuSans-72" transform="translate(39.208984 0)"/>
      <use xlink:href="#DejaVuSans-75" transform="translate(80.322266 0)"/>
      <use xlink:href="#DejaVuSans-65" transform="translate(143.701172 0)"/>
     </g>
    </g>
   </g>
   <g id="text_12">
    <g id="patch_48">
     <path d="M 486.991856 300.696646 
L 502.586074 294.855334 
Q 504.552635 294.118696 503.815997 292.152134 
L 501.43957 285.807925 
Q 500.702932 283.841364 498.736371 284.578002 
L 483.142153 290.419314 
Q 481.175592 291.155953 481.91223 293.122514 
L 484.288656 299.466723 
Q 485.025295 301.433285 486.991856 300.696646 
z
" clip-path="url(#p9259bf18c0)" style="fill: #ffffff; stroke: #ffffff; stroke-linejoin: miter"/>
    </g>
    <g clip-path="url(#p9259bf18c0)">
     <!-- false -->
     <g transform="translate(485.744558 297.366807) rotate(-20.535042) scale(0.07 -0.07)">
      <use xlink:href="#DejaVuSans-66"/>
      <use xlink:href="#DejaVuSans-61" transform="translate(35.205078 0)"/>
      <use xlink:href="#DejaVuSans-6c" transform="translate(96.484375 0)"/>
      <use xlink:href="#DejaVuSans-73" transform="translate(124.267578 0)"/>
      <use xlink:href="#DejaVuSans-65" transform="translate(176.367188 0)"/>
     </g>
    </g>
   </g>
   <g id="PathCollection_1">
    <defs>
     <path id="C0_0_2f6ea270c7" d="M 0 22.36068 
C 5.930122 22.36068 11.618159 20.004617 15.811388 15.811388 
C 20.004617 11.618159 22.36068 5.930122 22.36068 -0 
C 22.36068 -5.930122 20.004617 -11.618159 15.811388 -15.811388 
C 11.618159 -20.004617 5.930122 -22.36068 0 -22.36068 
C -5.930122 -22.36068 -11.618159 -20.004617 -15.811388 -15.811388 
C -20.004617 -11.618159 -22.36068 -5.930122 -22.36068 0 
C -22.36068 5.930122 -20.004617 11.618159 -15.811388 15.811388 
C -11.618159 20.004617 -5.930122 22.36068 0 22.36068 
z
"/>
    </defs>
    <g clip-path="url(#p9259bf18c0)">
     <use xlink:href="#C0_0_2f6ea270c7" x="737.821488" y="476.152006" style="fill: #e8f5e9; stroke: #e8f5e9"/>
    </g>
    <g clip-path="url(#p9259bf18c0)">
     <use xlink:href="#C0_0_2f6ea270c7" x="737.821488" y="495.469289" style="fill: #e3f2fd; stroke: #e3f2fd"/>
    </g>
    <g clip-path="url(#p9259bf18c0)">
     <use xlink:href="#C0_0_2f6ea270c7" x="80.300826" y="514.786573" style="fill: #fff3e0; stroke: #fff3e0"/>
    </g>
    <g clip-path="url(#p9259bf18c0)">
     <use xlink:href="#C0_0_2f6ea270c7" x="776.499174" y="514.786573" style="fill: #e8f5e9; stroke: #e8f5e9"/>
    </g>
    <g clip-path="url(#p9259bf18c0)">
     <use xlink:href="#C0_0_2f6ea270c7" x="686.25124" y="456.834722" style="fill: #e8f5e9; stroke: #e8f5e9"/>
    </g>
    <g clip-path="url(#p9259bf18c0)">
     <use xlink:href="#C0_0_2f6ea270c7" x="531.540496" y="147.758186" style="fill: #ffebee; stroke: #ffebee"/>
    </g>
    <g clip-path="url(#p9259bf18c0)">
     <use xlink:href="#C0_0_2f6ea270c7" x="518.647934" y="167.07547" style="fill: #fff3e0; stroke: #fff3e0"/>
    </g>
    <g clip-path="url(#p9259bf18c0)">
     <use xlink:href="#C0_0_2f6ea270c7" x="686.25124" y="437.517439" style="fill: #e8f5e9; stroke: #e8f5e9"/>
    </g>
    <g clip-path="url(#p9259bf18c0)">
     <use xlink:href="#C0_0_2f6ea270c7" x="673.358678" y="418.200155" style="fill: #fff3e0; stroke: #fff3e0"/>
    </g>
    <g clip-path="url(#p9259bf18c0)">
     <use xlink:href="#C0_0_2f6ea270c7" x="544.433058" y="225.02732" style="fill: #e3f2fd; stroke: #e3f2fd"/>
    </g>
    <g clip-path="url(#p9259bf18c0)">
     <use xlink:href="#C0_0_2f6ea270c7" x="531.540496" y="244.344604" style="fill: #ffebee; stroke: #ffebee"/>
    </g>
    <g clip-path="url(#p9259bf18c0)">
     <use xlink:href="#C0_0_2f6ea270c7" x="518.647934" y="263.661887" style="fill: #fff3e0; stroke: #fff3e0"/>
    </g>
    <g clip-path="url(#p9259bf18c0)">
     <use xlink:href="#C0_0_2f6ea270c7" x="247.904132" y="398.882872" style="fill: #e3f2fd; stroke: #e3f2fd"/>
    </g>
    <g clip-path="url(#p9259bf18c0)">
     <use xlink:href="#C0_0_2f6ea270c7" x="505.755372" y="244.344604" style="fill: #e8f5e9; stroke: #e8f5e9"/>
    </g>
    <g clip-path="url(#p9259bf18c0)">
     <use xlink:href="#C0_0_2f6ea270c7" x="467.077686" y="302.296454" style="fill: #fff3e0; stroke: #fff3e0"/>
    </g>
    <g clip-path="url(#p9259bf18c0)">
     <use xlink:href="#C0_0_2f6ea270c7" x="454.185124" y="282.979171" style="fill: #e3f2fd; stroke: #e3f2fd"/>
    </g>
    <g clip-path="url(#p9259bf18c0)">
     <use xlink:href="#C0_0_2f6ea270c7" x="454.185124" y="70.489052" style="fill: #f3e5f5; stroke: #f3e5f5"/>
    </g>
    <g clip-path="url(#p9259bf18c0)">
     <use xlink:href="#C0_0_2f6ea270c7" x="454.185124" y="89.806336" style="fill: #e8f5e9; stroke: #e8f5e9"/>
    </g>
    <g clip-path="url(#p9259bf18c0)">
     <use xlink:href="#C0_0_2f6ea270c7" x="454.185124" y="109.123619" style="fill: #e8f5e9; stroke: #e8f5e9"/>
    </g>
    <g clip-path="url(#p9259bf18c0)">
     <use xlink:href="#C0_0_2f6ea270c7" x="415.507438" y="128.440903" style="fill: #e3f2fd; stroke: #e3f2fd"/>
    </g>
    <g clip-path="url(#p9259bf18c0)">
     <use xlink:href="#C0_0_2f6ea270c7" x="402.614876" y="147.758186" style="fill: #ffebee; stroke: #ffebee"/>
    </g>
    <g clip-path="url(#p9259bf18c0)">
     <use xlink:href="#C0_0_2f6ea270c7" x="209.226446" y="321.613738" style="fill: #e3f2fd; stroke: #e3f2fd"/>
    </g>
    <g clip-path="url(#p9259bf18c0)">
     <use xlink:href="#C0_0_2f6ea270c7" x="222.119008" y="340.931021" style="fill: #e8f5e9; stroke: #e8f5e9"/>
    </g>
    <g clip-path="url(#p9259bf18c0)">
     <use xlink:href="#C0_0_2f6ea270c7" x="235.01157" y="360.248305" style="fill: #e3f2fd; stroke: #e3f2fd"/>
    </g>
    <g clip-path="url(#p9259bf18c0)">
     <use xlink:href="#C0_0_2f6ea270c7" x="247.904132" y="379.565588" style="fill: #f3e5f5; stroke: #f3e5f5"/>
    </g>
    <g clip-path="url(#p9259bf18c0)">
     <use xlink:href="#C0_0_2f6ea270c7" x="454.185124" y="340.931021" style="fill: #e8f5e9; stroke: #e8f5e9"/>
    </g>
    <g clip-path="url(#p9259bf18c0)">
     <use xlink:href="#C0_0_2f6ea270c7" x="467.077686" y="321.613738" style="fill: #e3f2fd; stroke: #e3f2fd"/>
    </g>
    <g clip-path="url(#p9259bf18c0)">
     <use xlink:href="#C0_0_2f6ea270c7" x="557.32562" y="360.248305" style="fill: #eceff1; stroke: #eceff1"/>
    </g>
    <g clip-path="url(#p9259bf18c0)">
     <use xlink:href="#C0_0_2f6ea270c7" x="518.647934" y="282.979171" style="fill: #eceff1; stroke: #eceff1"/>
    </g>
   </g>
   <g id="text_13">
    <g clip-path="url(#p9259bf18c0)">
     <!-- load_data -->
     <g transform="translate(718.262113 478.248256) scale(0.08 -0.08)">
      <defs>
       <path id="DejaVuSans-64" d="M 2906 2969 
L 2906 4863 
L 3481 4863 
L 3481 0 
L 2906 0 
L 2906 525 
Q 2725 213 2448 61 
Q 2172 -91 1784 -91 
Q 1150 -91 751 415 
Q 353 922 353 1747 
Q 353 2572 751 3078 
Q 1150 3584 1784 3584 
Q 2172 3584 2448 3432 
Q 2725 3281 2906 2969 
z
M 947 1747 
Q 947 1113 1208 752 
Q 1469 391 1925 391 
Q 2381 391 2643 752 
Q 2906 1113 2906 1747 
Q 2906 2381 2643 2742 
Q 2381 3103 1925 3103 
Q 1469 3103 1208 2742 
Q 947 2381 947 1747 
z
" transform="scale(0.015625)"/>
       <path id="DejaVuSans-5f" d="M 3263 -1063 
L 3263 -1509 
L -63 -1509 
L -63 -1063 
L 3263 -1063 
z
" transform="scale(0.015625)"/>
      </defs>
      <use xlink:href="#DejaVuSans-6c"/>
      <use xlink:href="#DejaVuSans-6f" transform="translate(27.783203 0)"/>
      <use xlink:href="#DejaVuSans-61" transform="translate(88.964844 0)"/>
      <use xlink:href="#DejaVuSans-64" transform="translate(150.244141 0)"/>
      <use xlink:href="#DejaVuSans-5f" transform="translate(213.720703 0)"/>
      <use xlink:href="#DejaVuSans-64" transform="translate(263.720703 0)"/>
      <use xlink:href="#DejaVuSans-61" transform="translate(327.197266 0)"/>
      <use xlink:href="#DejaVuSans-74" transform="translate(388.476562 0)"/>
      <use xlink:href="#DejaVuSans-61" transform="translate(427.685547 0)"/>
     </g>
    </g>
   </g>
   <g id="text_14">
    <g clip-path="url(#p9259bf18c0)">
     <!-- analyze_task -->
     <g transform="translate(711.925238 497.565539) scale(0.08 -0.08)">
      <defs>
       <path id="DejaVuSans-7a" d="M 353 3500 
L 3084 3500 
L 3084 2975 
L 922 459 
L 3084 459 
L 3084 0 
L 275 0 
L 275 525 
L 2438 3041 
L 353 3041 
L 353 3500 
z
" transform="scale(0.015625)"/>
      </defs>
      <use xlink:href="#DejaVuSans-61"/>
      <use xlink:href="#DejaVuSans-6e" transform="translate(61.279297 0)"/>
      <use xlink:href="#DejaVuSans-61" transform="translate(124.658203 0)"/>
      <use xlink:href="#DejaVuSans-6c" transform="translate(185.9375 0)"/>
      <use xlink:href="#DejaVuSans-79" transform="translate(213.720703 0)"/>
      <use xlink:href="#DejaVuSans-7a" transform="translate(272.900391 0)"/>
      <use xlink:href="#DejaVuSans-65" transform="translate(325.390625 0)"/>
      <use xlink:href="#DejaVuSans-5f" transform="translate(386.914062 0)"/>
      <use xlink:href="#DejaVuSans-74" transform="translate(436.914062 0)"/>
      <use xlink:href="#DejaVuSans-61" transform="translate(476.123047 0)"/>
      <use xlink:href="#DejaVuSans-73" transform="translate(537.402344 0)"/>
      <use xlink:href="#DejaVuSans-6b" transform="translate(589.501953 0)"/>
     </g>
    </g>
   </g>
   <g id="text_15">
    <g clip-path="url(#p9259bf18c0)">
     <!-- route_task -->
     <g transform="translate(59.315201 516.882823) scale(0.08 -0.08)">
      <use xlink:href="#DejaVuSans-72"/>
      <use xlink:href="#DejaVuSans-6f" transform="translate(38.863281 0)"/>
      <use xlink:href="#DejaVuSans-75" transform="translate(100.044922 0)"/>
      <use xlink:href="#DejaVuSans-74" transform="translate(163.423828 0)"/>
      <use xlink:href="#DejaVuSans-65" transform="translate(202.632812 0)"/>
      <use xlink:href="#DejaVuSans-5f" transform="translate(264.15625 0)"/>
      <use xlink:href="#DejaVuSans-74" transform="translate(314.15625 0)"/>
      <use xlink:href="#DejaVuSans-61" transform="translate(353.365234 0)"/>
      <use xlink:href="#DejaVuSans-73" transform="translate(414.644531 0)"/>
      <use xlink:href="#DejaVuSans-6b" transform="translate(466.744141 0)"/>
     </g>
    </g>
   </g>
   <g id="text_16">
    <g clip-path="url(#p9259bf18c0)">
     <!-- preprocess_supervised -->
     <g transform="translate(730.747924 516.882823) scale(0.08 -0.08)">
      <defs>
       <path id="DejaVuSans-70" d="M 1159 525 
L 1159 -1331 
L 581 -1331 
L 581 3500 
L 1159 3500 
L 1159 2969 
Q 1341 3281 1617 3432 
Q 1894 3584 2278 3584 
Q 2916 3584 3314 3078 
Q 3713 2572 3713 1747 
Q 3713 922 3314 415 
Q 2916 -91 2278 -91 
Q 1894 -91 1617 61 
Q 1341 213 1159 525 
z
M 3116 1747 
Q 3116 2381 2855 2742 
Q 2594 3103 2138 3103 
Q 1681 3103 1420 2742 
Q 1159 2381 1159 1747 
Q 1159 1113 1420 752 
Q 1681 391 2138 391 
Q 2594 391 2855 752 
Q 3116 1113 3116 1747 
z
" transform="scale(0.015625)"/>
       <path id="DejaVuSans-63" d="M 3122 3366 
L 3122 2828 
Q 2878 2963 2633 3030 
Q 2388 3097 2138 3097 
Q 1578 3097 1268 2742 
Q 959 2388 959 1747 
Q 959 1106 1268 751 
Q 1578 397 2138 397 
Q 2388 397 2633 464 
Q 2878 531 3122 666 
L 3122 134 
Q 2881 22 2623 -34 
Q 2366 -91 2075 -91 
Q 1284 -91 818 406 
Q 353 903 353 1747 
Q 353 2603 823 3093 
Q 1294 3584 2113 3584 
Q 2378 3584 2631 3529 
Q 2884 3475 3122 3366 
z
" transform="scale(0.015625)"/>
       <path id="DejaVuSans-76" d="M 191 3500 
L 800 3500 
L 1894 563 
L 2988 3500 
L 3597 3500 
L 2284 0 
L 1503 0 
L 191 3500 
z
" transform="scale(0.015625)"/>
      </defs>
      <use xlink:href="#DejaVuSans-70"/>
      <use xlink:href="#DejaVuSans-72" transform="translate(63.476562 0)"/>
      <use xlink:href="#DejaVuSans-65" transform="translate(102.339844 0)"/>
      <use xlink:href="#DejaVuSans-70" transform="translate(163.863281 0)"/>
      <use xlink:href="#DejaVuSans-72" transform="translate(227.339844 0)"/>
      <use xlink:href="#DejaVuSans-6f" transform="translate(266.203125 0)"/>
      <use xlink:href="#DejaVuSans-63" transform="translate(327.384766 0)"/>
      <use xlink:href="#DejaVuSans-65" transform="translate(382.365234 0)"/>
      <use xlink:href="#DejaVuSans-73" transform="translate(443.888672 0)"/>
      <use xlink:href="#DejaVuSans-73" transform="translate(495.988281 0)"/>
      <use xlink:href="#DejaVuSans-5f" transform="translate(548.087891 0)"/>
      <use xlink:href="#DejaVuSans-73" transform="translate(598.087891 0)"/>
      <use xlink:href="#DejaVuSans-75" transform="translate(650.1875 0)"/>
      <use xlink:href="#DejaVuSans-70" transform="translate(713.566406 0)"/>
      <use xlink:href="#DejaVuSans-65" transform="translate(777.042969 0)"/>
      <use xlink:href="#DejaVuSans-72" transform="translate(838.566406 0)"/>
      <use xlink:href="#DejaVuSans-76" transform="translate(879.679688 0)"/>
      <use xlink:href="#DejaVuSans-69" transform="translate(938.859375 0)"/>
      <use xlink:href="#DejaVuSans-73" transform="translate(966.642578 0)"/>
      <use xlink:href="#DejaVuSans-65" transform="translate(1018.742188 0)"/>
      <use xlink:href="#DejaVuSans-64" transform="translate(1080.265625 0)"/>
     </g>
    </g>
   </g>
   <g id="text_17">
    <g clip-path="url(#p9259bf18c0)">
     <!-- preprocess_unsupervised -->
     <g transform="translate(635.42999 458.930972) scale(0.08 -0.08)">
      <use xlink:href="#DejaVuSans-70"/>
      <use xlink:href="#DejaVuSans-72" transform="translate(63.476562 0)"/>
      <use xlink:href="#DejaVuSans-65" transform="translate(102.339844 0)"/>
      <use xlink:href="#DejaVuSans-70" transform="translate(163.863281 0)"/>
      <use xlink:href="#DejaVuSans-72" transform="translate(227.339844 0)"/>
      <use xlink:href="#DejaVuSans-6f" transform="translate(266.203125 0)"/>
      <use xlink:href="#DejaVuSans-63" transform="translate(327.384766 0)"/>
      <use xlink:href="#DejaVuSans-65" transform="translate(382.365234 0)"/>
      <use xlink:href="#DejaVuSans-73" transform="translate(443.888672 0)"/>
      <use xlink:href="#DejaVuSans-73" transform="translate(495.988281 0)"/>
      <use xlink:href="#DejaVuSans-5f" transform="translate(548.087891 0)"/>
      <use xlink:href="#DejaVuSans-75" transform="translate(598.087891 0)"/>
      <use xlink:href="#DejaVuSans-6e" transform="translate(661.466797 0)"/>
      <use xlink:href="#DejaVuSans-73" transform="translate(724.845703 0)"/>
      <use xlink:href="#DejaVuSans-75" transform="translate(776.945312 0)"/>
      <use xlink:href="#DejaVuSans-70" transform="translate(840.324219 0)"/>
      <use xlink:href="#DejaVuSans-65" transform="translate(903.800781 0)"/>
      <use xlink:href="#DejaVuSans-72" transform="translate(965.324219 0)"/>
      <use xlink:href="#DejaVuSans-76" transform="translate(1006.4375 0)"/>
      <use xlink:href="#DejaVuSans-69" transform="translate(1065.617188 0)"/>
      <use xlink:href="#DejaVuSans-73" transform="translate(1093.400391 0)"/>
      <use xlink:href="#DejaVuSans-65" transform="translate(1145.5 0)"/>
      <use xlink:href="#DejaVuSans-64" transform="translate(1207.023438 0)"/>
     </g>
    </g>
   </g>
   <g id="text_18">
    <g clip-path="url(#p9259bf18c0)">
     <!-- select_framework -->
     <g transform="translate(496.114871 149.854436) scale(0.08 -0.08)">
      <defs>
       <path id="DejaVuSans-77" d="M 269 3500 
L 844 3500 
L 1563 769 
L 2278 3500 
L 2956 3500 
L 3675 769 
L 4391 3500 
L 4966 3500 
L 4050 0 
L 3372 0 
L 2619 2869 
L 1863 0 
L 1184 0 
L 269 3500 
z
" transform="scale(0.015625)"/>
      </defs>
      <use xlink:href="#DejaVuSans-73"/>
      <use xlink:href="#DejaVuSans-65" transform="translate(52.099609 0)"/>
      <use xlink:href="#DejaVuSans-6c" transform="translate(113.623047 0)"/>
      <use xlink:href="#DejaVuSans-65" transform="translate(141.40625 0)"/>
      <use xlink:href="#DejaVuSans-63" transform="translate(202.929688 0)"/>
      <use xlink:href="#DejaVuSans-74" transform="translate(257.910156 0)"/>
      <use xlink:href="#DejaVuSans-5f" transform="translate(297.119141 0)"/>
      <use xlink:href="#DejaVuSans-66" transform="translate(347.119141 0)"/>
      <use xlink:href="#DejaVuSans-72" transform="translate(382.324219 0)"/>
      <use xlink:href="#DejaVuSans-61" transform="translate(423.4375 0)"/>
      <use xlink:href="#DejaVuSans-6d" transform="translate(484.716797 0)"/>
      <use xlink:href="#DejaVuSans-65" transform="translate(582.128906 0)"/>
      <use xlink:href="#DejaVuSans-77" transform="translate(643.652344 0)"/>
      <use xlink:href="#DejaVuSans-6f" transform="translate(725.439453 0)"/>
      <use xlink:href="#DejaVuSans-72" transform="translate(786.621094 0)"/>
      <use xlink:href="#DejaVuSans-6b" transform="translate(827.734375 0)"/>
     </g>
    </g>
   </g>
   <g id="text_19">
    <g clip-path="url(#p9259bf18c0)">
     <!-- route_framework -->
     <g transform="translate(484.541059 169.17172) scale(0.08 -0.08)">
      <use xlink:href="#DejaVuSans-72"/>
      <use xlink:href="#DejaVuSans-6f" transform="translate(38.863281 0)"/>
      <use xlink:href="#DejaVuSans-75" transform="translate(100.044922 0)"/>
      <use xlink:href="#DejaVuSans-74" transform="translate(163.423828 0)"/>
      <use xlink:href="#DejaVuSans-65" transform="translate(202.632812 0)"/>
      <use xlink:href="#DejaVuSans-5f" transform="translate(264.15625 0)"/>
      <use xlink:href="#DejaVuSans-66" transform="translate(314.15625 0)"/>
      <use xlink:href="#DejaVuSans-72" transform="translate(349.361328 0)"/>
      <use xlink:href="#DejaVuSans-61" transform="translate(390.474609 0)"/>
      <use xlink:href="#DejaVuSans-6d" transform="translate(451.753906 0)"/>
      <use xlink:href="#DejaVuSans-65" transform="translate(549.166016 0)"/>
      <use xlink:href="#DejaVuSans-77" transform="translate(610.689453 0)"/>
      <use xlink:href="#DejaVuSans-6f" transform="translate(692.476562 0)"/>
      <use xlink:href="#DejaVuSans-72" transform="translate(753.658203 0)"/>
      <use xlink:href="#DejaVuSans-6b" transform="translate(794.771484 0)"/>
     </g>
    </g>
   </g>
   <g id="text_20">
    <g clip-path="url(#p9259bf18c0)">
     <!-- run_pycaret -->
     <g transform="translate(662.395615 439.502439) scale(0.08 -0.08)">
      <use xlink:href="#DejaVuSans-72"/>
      <use xlink:href="#DejaVuSans-75" transform="translate(41.113281 0)"/>
      <use xlink:href="#DejaVuSans-6e" transform="translate(104.492188 0)"/>
      <use xlink:href="#DejaVuSans-5f" transform="translate(167.871094 0)"/>
      <use xlink:href="#DejaVuSans-70" transform="translate(217.871094 0)"/>
      <use xlink:href="#DejaVuSans-79" transform="translate(281.347656 0)"/>
      <use xlink:href="#DejaVuSans-63" transform="translate(340.527344 0)"/>
      <use xlink:href="#DejaVuSans-61" transform="translate(395.507812 0)"/>
      <use xlink:href="#DejaVuSans-72" transform="translate(456.787109 0)"/>
      <use xlink:href="#DejaVuSans-65" transform="translate(495.650391 0)"/>
      <use xlink:href="#DejaVuSans-74" transform="translate(557.173828 0)"/>
     </g>
    </g>
   </g>
   <g id="text_21">
    <g clip-path="url(#p9259bf18c0)">
     <!-- check_pycaret -->
     <g transform="translate(644.506178 420.296405) scale(0.08 -0.08)">
      <use xlink:href="#DejaVuSans-63"/>
      <use xlink:href="#DejaVuSans-68" transform="translate(54.980469 0)"/>
      <use xlink:href="#DejaVuSans-65" transform="translate(118.359375 0)"/>
      <use xlink:href="#DejaVuSans-63" transform="translate(179.882812 0)"/>
      <use xlink:href="#DejaVuSans-6b" transform="translate(234.863281 0)"/>
      <use xlink:href="#DejaVuSans-5f" transform="translate(292.773438 0)"/>
      <use xlink:href="#DejaVuSans-70" transform="translate(342.773438 0)"/>
      <use xlink:href="#DejaVuSans-79" transform="translate(406.25 0)"/>
      <use xlink:href="#DejaVuSans-63" transform="translate(465.429688 0)"/>
      <use xlink:href="#DejaVuSans-61" transform="translate(520.410156 0)"/>
      <use xlink:href="#DejaVuSans-72" transform="translate(581.689453 0)"/>
      <use xlink:href="#DejaVuSans-65" transform="translate(620.552734 0)"/>
      <use xlink:href="#DejaVuSans-74" transform="translate(682.076172 0)"/>
     </g>
    </g>
   </g>
   <g id="text_22">
    <g clip-path="url(#p9259bf18c0)">
     <!-- pycaret_fallback -->
     <g transform="translate(511.703683 227.12357) scale(0.08 -0.08)">
      <defs>
       <path id="DejaVuSans-62" d="M 3116 1747 
Q 3116 2381 2855 2742 
Q 2594 3103 2138 3103 
Q 1681 3103 1420 2742 
Q 1159 2381 1159 1747 
Q 1159 1113 1420 752 
Q 1681 391 2138 391 
Q 2594 391 2855 752 
Q 3116 1113 3116 1747 
z
M 1159 2969 
Q 1341 3281 1617 3432 
Q 1894 3584 2278 3584 
Q 2916 3584 3314 3078 
Q 3713 2572 3713 1747 
Q 3713 922 3314 415 
Q 2916 -91 2278 -91 
Q 1894 -91 1617 61 
Q 1341 213 1159 525 
L 1159 0 
L 581 0 
L 581 4863 
L 1159 4863 
L 1159 2969 
z
" transform="scale(0.015625)"/>
      </defs>
      <use xlink:href="#DejaVuSans-70"/>
      <use xlink:href="#DejaVuSans-79" transform="translate(63.476562 0)"/>
      <use xlink:href="#DejaVuSans-63" transform="translate(122.65625 0)"/>
      <use xlink:href="#DejaVuSans-61" transform="translate(177.636719 0)"/>
      <use xlink:href="#DejaVuSans-72" transform="translate(238.916016 0)"/>
      <use xlink:href="#DejaVuSans-65" transform="translate(277.779297 0)"/>
      <use xlink:href="#DejaVuSans-74" transform="translate(339.302734 0)"/>
      <use xlink:href="#DejaVuSans-5f" transform="translate(378.511719 0)"/>
      <use xlink:href="#DejaVuSans-66" transform="translate(428.511719 0)"/>
      <use xlink:href="#DejaVuSans-61" transform="translate(463.716797 0)"/>
      <use xlink:href="#DejaVuSans-6c" transform="translate(524.996094 0)"/>
      <use xlink:href="#DejaVuSans-6c" transform="translate(552.779297 0)"/>
      <use xlink:href="#DejaVuSans-62" transform="translate(580.5625 0)"/>
      <use xlink:href="#DejaVuSans-61" transform="translate(644.039062 0)"/>
      <use xlink:href="#DejaVuSans-63" transform="translate(705.318359 0)"/>
      <use xlink:href="#DejaVuSans-6b" transform="translate(760.298828 0)"/>
     </g>
    </g>
   </g>
   <g id="text_23">
    <g clip-path="url(#p9259bf18c0)">
     <!-- suggest_alternative -->
     <g transform="translate(492.069246 246.440854) scale(0.08 -0.08)">
      <use xlink:href="#DejaVuSans-73"/>
      <use xlink:href="#DejaVuSans-75" transform="translate(52.099609 0)"/>
      <use xlink:href="#DejaVuSans-67" transform="translate(115.478516 0)"/>
      <use xlink:href="#DejaVuSans-67" transform="translate(178.955078 0)"/>
      <use xlink:href="#DejaVuSans-65" transform="translate(242.431641 0)"/>
      <use xlink:href="#DejaVuSans-73" transform="translate(303.955078 0)"/>
      <use xlink:href="#DejaVuSans-74" transform="translate(356.054688 0)"/>
      <use xlink:href="#DejaVuSans-5f" transform="translate(395.263672 0)"/>
      <use xlink:href="#DejaVuSans-61" transform="translate(445.263672 0)"/>
      <use xlink:href="#DejaVuSans-6c" transform="translate(506.542969 0)"/>
      <use xlink:href="#DejaVuSans-74" transform="translate(534.326172 0)"/>
      <use xlink:href="#DejaVuSans-65" transform="translate(573.535156 0)"/>
      <use xlink:href="#DejaVuSans-72" transform="translate(635.058594 0)"/>
      <use xlink:href="#DejaVuSans-6e" transform="translate(674.421875 0)"/>
      <use xlink:href="#DejaVuSans-61" transform="translate(737.800781 0)"/>
      <use xlink:href="#DejaVuSans-74" transform="translate(799.080078 0)"/>
      <use xlink:href="#DejaVuSans-69" transform="translate(838.289062 0)"/>
      <use xlink:href="#DejaVuSans-76" transform="translate(866.072266 0)"/>
      <use xlink:href="#DejaVuSans-65" transform="translate(925.251953 0)"/>
     </g>
    </g>
   </g>
   <g id="text_24">
    <g clip-path="url(#p9259bf18c0)">
     <!-- route_alternative -->
     <g transform="translate(484.421059 265.758137) scale(0.08 -0.08)">
      <use xlink:href="#DejaVuSans-72"/>
      <use xlink:href="#DejaVuSans-6f" transform="translate(38.863281 0)"/>
      <use xlink:href="#DejaVuSans-75" transform="translate(100.044922 0)"/>
      <use xlink:href="#DejaVuSans-74" transform="translate(163.423828 0)"/>
      <use xlink:href="#DejaVuSans-65" transform="translate(202.632812 0)"/>
      <use xlink:href="#DejaVuSans-5f" transform="translate(264.15625 0)"/>
      <use xlink:href="#DejaVuSans-61" transform="translate(314.15625 0)"/>
      <use xlink:href="#DejaVuSans-6c" transform="translate(375.435547 0)"/>
      <use xlink:href="#DejaVuSans-74" transform="translate(403.21875 0)"/>
      <use xlink:href="#DejaVuSans-65" transform="translate(442.427734 0)"/>
      <use xlink:href="#DejaVuSans-72" transform="translate(503.951172 0)"/>
      <use xlink:href="#DejaVuSans-6e" transform="translate(543.314453 0)"/>
      <use xlink:href="#DejaVuSans-61" transform="translate(606.693359 0)"/>
      <use xlink:href="#DejaVuSans-74" transform="translate(667.972656 0)"/>
      <use xlink:href="#DejaVuSans-69" transform="translate(707.181641 0)"/>
      <use xlink:href="#DejaVuSans-76" transform="translate(734.964844 0)"/>
      <use xlink:href="#DejaVuSans-65" transform="translate(794.144531 0)"/>
     </g>
    </g>
   </g>
   <g id="text_25">
    <g clip-path="url(#p9259bf18c0)">
     <!-- analyze_pycaret -->
     <g transform="translate(215.286007 400.979122) scale(0.08 -0.08)">
      <use xlink:href="#DejaVuSans-61"/>
      <use xlink:href="#DejaVuSans-6e" transform="translate(61.279297 0)"/>
      <use xlink:href="#DejaVuSans-61" transform="translate(124.658203 0)"/>
      <use xlink:href="#DejaVuSans-6c" transform="translate(185.9375 0)"/>
      <use xlink:href="#DejaVuSans-79" transform="translate(213.720703 0)"/>
      <use xlink:href="#DejaVuSans-7a" transform="translate(272.900391 0)"/>
      <use xlink:href="#DejaVuSans-65" transform="translate(325.390625 0)"/>
      <use xlink:href="#DejaVuSans-5f" transform="translate(386.914062 0)"/>
      <use xlink:href="#DejaVuSans-70" transform="translate(436.914062 0)"/>
      <use xlink:href="#DejaVuSans-79" transform="translate(500.390625 0)"/>
      <use xlink:href="#DejaVuSans-63" transform="translate(559.570312 0)"/>
      <use xlink:href="#DejaVuSans-61" transform="translate(614.550781 0)"/>
      <use xlink:href="#DejaVuSans-72" transform="translate(675.830078 0)"/>
      <use xlink:href="#DejaVuSans-65" transform="translate(714.693359 0)"/>
      <use xlink:href="#DejaVuSans-74" transform="translate(776.216797 0)"/>
     </g>
    </g>
   </g>
   <g id="text_26">
    <g clip-path="url(#p9259bf18c0)">
     <!-- run_autosklearn -->
     <g transform="translate(473.505997 246.440854) scale(0.08 -0.08)">
      <use xlink:href="#DejaVuSans-72"/>
      <use xlink:href="#DejaVuSans-75" transform="translate(41.113281 0)"/>
      <use xlink:href="#DejaVuSans-6e" transform="translate(104.492188 0)"/>
      <use xlink:href="#DejaVuSans-5f" transform="translate(167.871094 0)"/>
      <use xlink:href="#DejaVuSans-61" transform="translate(217.871094 0)"/>
      <use xlink:href="#DejaVuSans-75" transform="translate(279.150391 0)"/>
      <use xlink:href="#DejaVuSans-74" transform="translate(342.529297 0)"/>
      <use xlink:href="#DejaVuSans-6f" transform="translate(381.738281 0)"/>
      <use xlink:href="#DejaVuSans-73" transform="translate(442.919922 0)"/>
      <use xlink:href="#DejaVuSans-6b" transform="translate(495.019531 0)"/>
      <use xlink:href="#DejaVuSans-6c" transform="translate(552.929688 0)"/>
      <use xlink:href="#DejaVuSans-65" transform="translate(580.712891 0)"/>
      <use xlink:href="#DejaVuSans-61" transform="translate(642.236328 0)"/>
      <use xlink:href="#DejaVuSans-72" transform="translate(703.515625 0)"/>
      <use xlink:href="#DejaVuSans-6e" transform="translate(742.878906 0)"/>
     </g>
    </g>
   </g>
   <g id="text_27">
    <g clip-path="url(#p9259bf18c0)">
     <!-- check_autosklearn -->
     <g transform="translate(429.831436 304.392704) scale(0.08 -0.08)">
      <use xlink:href="#DejaVuSans-63"/>
      <use xlink:href="#DejaVuSans-68" transform="translate(54.980469 0)"/>
      <use xlink:href="#DejaVuSans-65" transform="translate(118.359375 0)"/>
      <use xlink:href="#DejaVuSans-63" transform="translate(179.882812 0)"/>
      <use xlink:href="#DejaVuSans-6b" transform="translate(234.863281 0)"/>
      <use xlink:href="#DejaVuSans-5f" transform="translate(292.773438 0)"/>
      <use xlink:href="#DejaVuSans-61" transform="translate(342.773438 0)"/>
      <use xlink:href="#DejaVuSans-75" transform="translate(404.052734 0)"/>
      <use xlink:href="#DejaVuSans-74" transform="translate(467.431641 0)"/>
      <use xlink:href="#DejaVuSans-6f" transform="translate(506.640625 0)"/>
      <use xlink:href="#DejaVuSans-73" transform="translate(567.822266 0)"/>
      <use xlink:href="#DejaVuSans-6b" transform="translate(619.921875 0)"/>
      <use xlink:href="#DejaVuSans-6c" transform="translate(677.832031 0)"/>
      <use xlink:href="#DejaVuSans-65" transform="translate(705.615234 0)"/>
      <use xlink:href="#DejaVuSans-61" transform="translate(767.138672 0)"/>
      <use xlink:href="#DejaVuSans-72" transform="translate(828.417969 0)"/>
      <use xlink:href="#DejaVuSans-6e" transform="translate(867.78125 0)"/>
     </g>
    </g>
   </g>
   <g id="text_28">
    <g clip-path="url(#p9259bf18c0)">
     <!-- analyze_autosklearn -->
     <g transform="translate(413.173249 285.075421) scale(0.08 -0.08)">
      <use xlink:href="#DejaVuSans-61"/>
      <use xlink:href="#DejaVuSans-6e" transform="translate(61.279297 0)"/>
      <use xlink:href="#DejaVuSans-61" transform="translate(124.658203 0)"/>
      <use xlink:href="#DejaVuSans-6c" transform="translate(185.9375 0)"/>
      <use xlink:href="#DejaVuSans-79" transform="translate(213.720703 0)"/>
      <use xlink:href="#DejaVuSans-7a" transform="translate(272.900391 0)"/>
      <use xlink:href="#DejaVuSans-65" transform="translate(325.390625 0)"/>
      <use xlink:href="#DejaVuSans-5f" transform="translate(386.914062 0)"/>
      <use xlink:href="#DejaVuSans-61" transform="translate(436.914062 0)"/>
      <use xlink:href="#DejaVuSans-75" transform="translate(498.193359 0)"/>
      <use xlink:href="#DejaVuSans-74" transform="translate(561.572266 0)"/>
      <use xlink:href="#DejaVuSans-6f" transform="translate(600.78125 0)"/>
      <use xlink:href="#DejaVuSans-73" transform="translate(661.962891 0)"/>
      <use xlink:href="#DejaVuSans-6b" transform="translate(714.0625 0)"/>
      <use xlink:href="#DejaVuSans-6c" transform="translate(771.972656 0)"/>
      <use xlink:href="#DejaVuSans-65" transform="translate(799.755859 0)"/>
      <use xlink:href="#DejaVuSans-61" transform="translate(861.279297 0)"/>
      <use xlink:href="#DejaVuSans-72" transform="translate(922.558594 0)"/>
      <use xlink:href="#DejaVuSans-6e" transform="translate(961.921875 0)"/>
     </g>
    </g>
   </g>
   <g id="text_29">
    <g clip-path="url(#p9259bf18c0)">
     <!-- run_both_frameworks -->
     <g transform="translate(410.756374 72.585302) scale(0.08 -0.08)">
      <use xlink:href="#DejaVuSans-72"/>
      <use xlink:href="#DejaVuSans-75" transform="translate(41.113281 0)"/>
      <use xlink:href="#DejaVuSans-6e" transform="translate(104.492188 0)"/>
      <use xlink:href="#DejaVuSans-5f" transform="translate(167.871094 0)"/>
      <use xlink:href="#DejaVuSans-62" transform="translate(217.871094 0)"/>
      <use xlink:href="#DejaVuSans-6f" transform="translate(281.347656 0)"/>
      <use xlink:href="#DejaVuSans-74" transform="translate(342.529297 0)"/>
      <use xlink:href="#DejaVuSans-68" transform="translate(381.738281 0)"/>
      <use xlink:href="#DejaVuSans-5f" transform="translate(445.117188 0)"/>
      <use xlink:href="#DejaVuSans-66" transform="translate(495.117188 0)"/>
      <use xlink:href="#DejaVuSans-72" transform="translate(530.322266 0)"/>
      <use xlink:href="#DejaVuSans-61" transform="translate(571.435547 0)"/>
      <use xlink:href="#DejaVuSans-6d" transform="translate(632.714844 0)"/>
      <use xlink:href="#DejaVuSans-65" transform="translate(730.126953 0)"/>
      <use xlink:href="#DejaVuSans-77" transform="translate(791.650391 0)"/>
      <use xlink:href="#DejaVuSans-6f" transform="translate(873.4375 0)"/>
      <use xlink:href="#DejaVuSans-72" transform="translate(934.619141 0)"/>
      <use xlink:href="#DejaVuSans-6b" transform="translate(975.732422 0)"/>
      <use xlink:href="#DejaVuSans-73" transform="translate(1033.642578 0)"/>
     </g>
    </g>
   </g>
   <g id="text_30">
    <g clip-path="url(#p9259bf18c0)">
     <!-- pycaret_parallel -->
     <g transform="translate(422.162624 91.902586) scale(0.08 -0.08)">
      <use xlink:href="#DejaVuSans-70"/>
      <use xlink:href="#DejaVuSans-79" transform="translate(63.476562 0)"/>
      <use xlink:href="#DejaVuSans-63" transform="translate(122.65625 0)"/>
      <use xlink:href="#DejaVuSans-61" transform="translate(177.636719 0)"/>
      <use xlink:href="#DejaVuSans-72" transform="translate(238.916016 0)"/>
      <use xlink:href="#DejaVuSans-65" transform="translate(277.779297 0)"/>
      <use xlink:href="#DejaVuSans-74" transform="translate(339.302734 0)"/>
      <use xlink:href="#DejaVuSans-5f" transform="translate(378.511719 0)"/>
      <use xlink:href="#DejaVuSans-70" transform="translate(428.511719 0)"/>
      <use xlink:href="#DejaVuSans-61" transform="translate(491.988281 0)"/>
      <use xlink:href="#DejaVuSans-72" transform="translate(553.267578 0)"/>
      <use xlink:href="#DejaVuSans-61" transform="translate(594.380859 0)"/>
      <use xlink:href="#DejaVuSans-6c" transform="translate(655.660156 0)"/>
      <use xlink:href="#DejaVuSans-6c" transform="translate(683.443359 0)"/>
      <use xlink:href="#DejaVuSans-65" transform="translate(711.226562 0)"/>
      <use xlink:href="#DejaVuSans-6c" transform="translate(772.75 0)"/>
     </g>
    </g>
   </g>
   <g id="text_31">
    <g clip-path="url(#p9259bf18c0)">
     <!-- autosklearn_parallel -->
     <g transform="translate(413.768874 111.219869) scale(0.08 -0.08)">
      <use xlink:href="#DejaVuSans-61"/>
      <use xlink:href="#DejaVuSans-75" transform="translate(61.279297 0)"/>
      <use xlink:href="#DejaVuSans-74" transform="translate(124.658203 0)"/>
      <use xlink:href="#DejaVuSans-6f" transform="translate(163.867188 0)"/>
      <use xlink:href="#DejaVuSans-73" transform="translate(225.048828 0)"/>
      <use xlink:href="#DejaVuSans-6b" transform="translate(277.148438 0)"/>
      <use xlink:href="#DejaVuSans-6c" transform="translate(335.058594 0)"/>
      <use xlink:href="#DejaVuSans-65" transform="translate(362.841797 0)"/>
      <use xlink:href="#DejaVuSans-61" transform="translate(424.365234 0)"/>
      <use xlink:href="#DejaVuSans-72" transform="translate(485.644531 0)"/>
      <use xlink:href="#DejaVuSans-6e" transform="translate(525.007812 0)"/>
      <use xlink:href="#DejaVuSans-5f" transform="translate(588.386719 0)"/>
      <use xlink:href="#DejaVuSans-70" transform="translate(638.386719 0)"/>
      <use xlink:href="#DejaVuSans-61" transform="translate(701.863281 0)"/>
      <use xlink:href="#DejaVuSans-72" transform="translate(763.142578 0)"/>
      <use xlink:href="#DejaVuSans-61" transform="translate(804.255859 0)"/>
      <use xlink:href="#DejaVuSans-6c" transform="translate(865.535156 0)"/>
      <use xlink:href="#DejaVuSans-6c" transform="translate(893.318359 0)"/>
      <use xlink:href="#DejaVuSans-65" transform="translate(921.101562 0)"/>
      <use xlink:href="#DejaVuSans-6c" transform="translate(982.625 0)"/>
     </g>
    </g>
   </g>
   <g id="text_32">
    <g clip-path="url(#p9259bf18c0)">
     <!-- compare_frameworks -->
     <g transform="translate(372.333688 130.537153) scale(0.08 -0.08)">
      <use xlink:href="#DejaVuSans-63"/>
      <use xlink:href="#DejaVuSans-6f" transform="translate(54.980469 0)"/>
      <use xlink:href="#DejaVuSans-6d" transform="translate(116.162109 0)"/>
      <use xlink:href="#DejaVuSans-70" transform="translate(213.574219 0)"/>
      <use xlink:href="#DejaVuSans-61" transform="translate(277.050781 0)"/>
      <use xlink:href="#DejaVuSans-72" transform="translate(338.330078 0)"/>
      <use xlink:href="#DejaVuSans-65" transform="translate(377.193359 0)"/>
      <use xlink:href="#DejaVuSans-5f" transform="translate(438.716797 0)"/>
      <use xlink:href="#DejaVuSans-66" transform="translate(488.716797 0)"/>
      <use xlink:href="#DejaVuSans-72" transform="translate(523.921875 0)"/>
      <use xlink:href="#DejaVuSans-61" transform="translate(565.035156 0)"/>
      <use xlink:href="#DejaVuSans-6d" transform="translate(626.314453 0)"/>
      <use xlink:href="#DejaVuSans-65" transform="translate(723.726562 0)"/>
      <use xlink:href="#DejaVuSans-77" transform="translate(785.25 0)"/>
      <use xlink:href="#DejaVuSans-6f" transform="translate(867.037109 0)"/>
      <use xlink:href="#DejaVuSans-72" transform="translate(928.21875 0)"/>
      <use xlink:href="#DejaVuSans-6b" transform="translate(969.332031 0)"/>
      <use xlink:href="#DejaVuSans-73" transform="translate(1027.242188 0)"/>
     </g>
    </g>
   </g>
   <g id="text_33">
    <g clip-path="url(#p9259bf18c0)">
     <!-- select_best -->
     <g transform="translate(380.077376 149.854436) scale(0.08 -0.08)">
      <use xlink:href="#DejaVuSans-73"/>
      <use xlink:href="#DejaVuSans-65" transform="translate(52.099609 0)"/>
      <use xlink:href="#DejaVuSans-6c" transform="translate(113.623047 0)"/>
      <use xlink:href="#DejaVuSans-65" transform="translate(141.40625 0)"/>
      <use xlink:href="#DejaVuSans-63" transform="translate(202.929688 0)"/>
      <use xlink:href="#DejaVuSans-74" transform="translate(257.910156 0)"/>
      <use xlink:href="#DejaVuSans-5f" transform="translate(297.119141 0)"/>
      <use xlink:href="#DejaVuSans-62" transform="translate(347.119141 0)"/>
      <use xlink:href="#DejaVuSans-65" transform="translate(410.595703 0)"/>
      <use xlink:href="#DejaVuSans-73" transform="translate(472.119141 0)"/>
      <use xlink:href="#DejaVuSans-74" transform="translate(524.21875 0)"/>
     </g>
    </g>
   </g>
   <g id="text_34">
    <g clip-path="url(#p9259bf18c0)">
     <!-- setup_rl_env -->
     <g transform="translate(183.919571 323.709988) scale(0.08 -0.08)">
      <use xlink:href="#DejaVuSans-73"/>
      <use xlink:href="#DejaVuSans-65" transform="translate(52.099609 0)"/>
      <use xlink:href="#DejaVuSans-74" transform="translate(113.623047 0)"/>
      <use xlink:href="#DejaVuSans-75" transform="translate(152.832031 0)"/>
      <use xlink:href="#DejaVuSans-70" transform="translate(216.210938 0)"/>
      <use xlink:href="#DejaVuSans-5f" transform="translate(279.6875 0)"/>
      <use xlink:href="#DejaVuSans-72" transform="translate(329.6875 0)"/>
      <use xlink:href="#DejaVuSans-6c" transform="translate(370.800781 0)"/>
      <use xlink:href="#DejaVuSans-5f" transform="translate(398.583984 0)"/>
      <use xlink:href="#DejaVuSans-65" transform="translate(448.583984 0)"/>
      <use xlink:href="#DejaVuSans-6e" transform="translate(510.107422 0)"/>
      <use xlink:href="#DejaVuSans-76" transform="translate(573.486328 0)"/>
     </g>
    </g>
   </g>
   <g id="text_35">
    <g clip-path="url(#p9259bf18c0)">
     <!-- run_rl_training -->
     <g transform="translate(193.153383 343.027271) scale(0.08 -0.08)">
      <use xlink:href="#DejaVuSans-72"/>
      <use xlink:href="#DejaVuSans-75" transform="translate(41.113281 0)"/>
      <use xlink:href="#DejaVuSans-6e" transform="translate(104.492188 0)"/>
      <use xlink:href="#DejaVuSans-5f" transform="translate(167.871094 0)"/>
      <use xlink:href="#DejaVuSans-72" transform="translate(217.871094 0)"/>
      <use xlink:href="#DejaVuSans-6c" transform="translate(258.984375 0)"/>
      <use xlink:href="#DejaVuSans-5f" transform="translate(286.767578 0)"/>
      <use xlink:href="#DejaVuSans-74" transform="translate(336.767578 0)"/>
      <use xlink:href="#DejaVuSans-72" transform="translate(375.976562 0)"/>
      <use xlink:href="#DejaVuSans-61" transform="translate(417.089844 0)"/>
      <use xlink:href="#DejaVuSans-69" transform="translate(478.369141 0)"/>
      <use xlink:href="#DejaVuSans-6e" transform="translate(506.152344 0)"/>
      <use xlink:href="#DejaVuSans-69" transform="translate(569.53125 0)"/>
      <use xlink:href="#DejaVuSans-6e" transform="translate(597.314453 0)"/>
      <use xlink:href="#DejaVuSans-67" transform="translate(660.693359 0)"/>
     </g>
    </g>
   </g>
   <g id="text_36">
    <g clip-path="url(#p9259bf18c0)">
     <!-- analyze_rl -->
     <g transform="translate(214.77907 362.344555) scale(0.08 -0.08)">
      <use xlink:href="#DejaVuSans-61"/>
      <use xlink:href="#DejaVuSans-6e" transform="translate(61.279297 0)"/>
      <use xlink:href="#DejaVuSans-61" transform="translate(124.658203 0)"/>
      <use xlink:href="#DejaVuSans-6c" transform="translate(185.9375 0)"/>
      <use xlink:href="#DejaVuSans-79" transform="translate(213.720703 0)"/>
      <use xlink:href="#DejaVuSans-7a" transform="translate(272.900391 0)"/>
      <use xlink:href="#DejaVuSans-65" transform="translate(325.390625 0)"/>
      <use xlink:href="#DejaVuSans-5f" transform="translate(386.914062 0)"/>
      <use xlink:href="#DejaVuSans-72" transform="translate(436.914062 0)"/>
      <use xlink:href="#DejaVuSans-6c" transform="translate(478.027344 0)"/>
     </g>
    </g>
   </g>
   <g id="text_37">
    <g clip-path="url(#p9259bf18c0)">
     <!-- finalize_model -->
     <g transform="translate(219.159757 381.661838) scale(0.08 -0.08)">
      <use xlink:href="#DejaVuSans-66"/>
      <use xlink:href="#DejaVuSans-69" transform="translate(35.205078 0)"/>
      <use xlink:href="#DejaVuSans-6e" transform="translate(62.988281 0)"/>
      <use xlink:href="#DejaVuSans-61" transform="translate(126.367188 0)"/>
      <use xlink:href="#DejaVuSans-6c" transform="translate(187.646484 0)"/>
      <use xlink:href="#DejaVuSans-69" transform="translate(215.429688 0)"/>
      <use xlink:href="#DejaVuSans-7a" transform="translate(243.212891 0)"/>
      <use xlink:href="#DejaVuSans-65" transform="translate(295.703125 0)"/>
      <use xlink:href="#DejaVuSans-5f" transform="translate(357.226562 0)"/>
      <use xlink:href="#DejaVuSans-6d" transform="translate(407.226562 0)"/>
      <use xlink:href="#DejaVuSans-6f" transform="translate(504.638672 0)"/>
      <use xlink:href="#DejaVuSans-64" transform="translate(565.820312 0)"/>
      <use xlink:href="#DejaVuSans-65" transform="translate(629.296875 0)"/>
      <use xlink:href="#DejaVuSans-6c" transform="translate(690.820312 0)"/>
     </g>
    </g>
   </g>
   <g id="text_38">
    <g clip-path="url(#p9259bf18c0)">
     <!-- save_model -->
     <g transform="translate(430.365749 343.027271) scale(0.08 -0.08)">
      <use xlink:href="#DejaVuSans-73"/>
      <use xlink:href="#DejaVuSans-61" transform="translate(52.099609 0)"/>
      <use xlink:href="#DejaVuSans-76" transform="translate(113.378906 0)"/>
      <use xlink:href="#DejaVuSans-65" transform="translate(172.558594 0)"/>
      <use xlink:href="#DejaVuSans-5f" transform="translate(234.082031 0)"/>
      <use xlink:href="#DejaVuSans-6d" transform="translate(284.082031 0)"/>
      <use xlink:href="#DejaVuSans-6f" transform="translate(381.494141 0)"/>
      <use xlink:href="#DejaVuSans-64" transform="translate(442.675781 0)"/>
      <use xlink:href="#DejaVuSans-65" transform="translate(506.152344 0)"/>
      <use xlink:href="#DejaVuSans-6c" transform="translate(567.675781 0)"/>
     </g>
    </g>
   </g>
   <g id="text_39">
    <g clip-path="url(#p9259bf18c0)">
     <!-- generate_report -->
     <g transform="translate(434.740811 323.598738) scale(0.08 -0.08)">
      <use xlink:href="#DejaVuSans-67"/>
      <use xlink:href="#DejaVuSans-65" transform="translate(63.476562 0)"/>
      <use xlink:href="#DejaVuSans-6e" transform="translate(125 0)"/>
      <use xlink:href="#DejaVuSans-65" transform="translate(188.378906 0)"/>
      <use xlink:href="#DejaVuSans-72" transform="translate(249.902344 0)"/>
      <use xlink:href="#DejaVuSans-61" transform="translate(291.015625 0)"/>
      <use xlink:href="#DejaVuSans-74" transform="translate(352.294922 0)"/>
      <use xlink:href="#DejaVuSans-65" transform="translate(391.503906 0)"/>
      <use xlink:href="#DejaVuSans-5f" transform="translate(453.027344 0)"/>
      <use xlink:href="#DejaVuSans-72" transform="translate(503.027344 0)"/>
      <use xlink:href="#DejaVuSans-65" transform="translate(541.890625 0)"/>
      <use xlink:href="#DejaVuSans-70" transform="translate(603.414062 0)"/>
      <use xlink:href="#DejaVuSans-6f" transform="translate(666.890625 0)"/>
      <use xlink:href="#DejaVuSans-72" transform="translate(728.072266 0)"/>
      <use xlink:href="#DejaVuSans-74" transform="translate(769.185547 0)"/>
     </g>
    </g>
   </g>
   <g id="text_40">
    <g clip-path="url(#p9259bf18c0)">
     <!-- complete -->
     <g transform="translate(538.641245 362.455805) scale(0.08 -0.08)">
      <use xlink:href="#DejaVuSans-63"/>
      <use xlink:href="#DejaVuSans-6f" transform="translate(54.980469 0)"/>
      <use xlink:href="#DejaVuSans-6d" transform="translate(116.162109 0)"/>
      <use xlink:href="#DejaVuSans-70" transform="translate(213.574219 0)"/>
      <use xlink:href="#DejaVuSans-6c" transform="translate(277.050781 0)"/>
      <use xlink:href="#DejaVuSans-65" transform="translate(304.833984 0)"/>
      <use xlink:href="#DejaVuSans-74" transform="translate(366.357422 0)"/>
      <use xlink:href="#DejaVuSans-65" transform="translate(405.566406 0)"/>
     </g>
    </g>
   </g>
   <g id="text_41">
    <g clip-path="url(#p9259bf18c0)">
     <!-- complete_failed -->
     <g transform="translate(486.881059 285.075421) scale(0.08 -0.08)">
      <use xlink:href="#DejaVuSans-63"/>
      <use xlink:href="#DejaVuSans-6f" transform="translate(54.980469 0)"/>
      <use xlink:href="#DejaVuSans-6d" transform="translate(116.162109 0)"/>
      <use xlink:href="#DejaVuSans-70" transform="translate(213.574219 0)"/>
      <use xlink:href="#DejaVuSans-6c" transform="translate(277.050781 0)"/>
      <use xlink:href="#DejaVuSans-65" transform="translate(304.833984 0)"/>
      <use xlink:href="#DejaVuSans-74" transform="translate(366.357422 0)"/>
      <use xlink:href="#DejaVuSans-65" transform="translate(405.566406 0)"/>
      <use xlink:href="#DejaVuSans-5f" transform="translate(467.089844 0)"/>
      <use xlink:href="#DejaVuSans-66" transform="translate(517.089844 0)"/>
      <use xlink:href="#DejaVuSans-61" transform="translate(552.294922 0)"/>
      <use xlink:href="#DejaVuSans-69" transform="translate(613.574219 0)"/>
      <use xlink:href="#DejaVuSans-6c" transform="translate(641.357422 0)"/>
      <use xlink:href="#DejaVuSans-65" transform="translate(669.140625 0)"/>
      <use xlink:href="#DejaVuSans-64" transform="translate(730.664062 0)"/>
     </g>
    </g>
   </g>
   <g id="text_42">
    <!-- automl -->
    <g transform="translate(400.844062 17.837812) scale(0.14 -0.14)">
     <defs>
      <path id="DejaVuSans-Bold-61" d="M 2106 1575 
Q 1756 1575 1579 1456 
Q 1403 1338 1403 1106 
Q 1403 894 1545 773 
Q 1688 653 1941 653 
Q 2256 653 2472 879 
Q 2688 1106 2688 1447 
L 2688 1575 
L 2106 1575 
z
M 3816 1997 
L 3816 0 
L 2688 0 
L 2688 519 
Q 2463 200 2181 54 
Q 1900 -91 1497 -91 
Q 953 -91 614 226 
Q 275 544 275 1050 
Q 275 1666 698 1953 
Q 1122 2241 2028 2241 
L 2688 2241 
L 2688 2328 
Q 2688 2594 2478 2717 
Q 2269 2841 1825 2841 
Q 1466 2841 1156 2769 
Q 847 2697 581 2553 
L 581 3406 
Q 941 3494 1303 3539 
Q 1666 3584 2028 3584 
Q 2975 3584 3395 3211 
Q 3816 2838 3816 1997 
z
" transform="scale(0.015625)"/>
      <path id="DejaVuSans-Bold-75" d="M 500 1363 
L 500 3500 
L 1625 3500 
L 1625 3150 
Q 1625 2866 1622 2436 
Q 1619 2006 1619 1863 
Q 1619 1441 1641 1255 
Q 1663 1069 1716 984 
Q 1784 875 1895 815 
Q 2006 756 2150 756 
Q 2500 756 2700 1025 
Q 2900 1294 2900 1772 
L 2900 3500 
L 4019 3500 
L 4019 0 
L 2900 0 
L 2900 506 
Q 2647 200 2364 54 
Q 2081 -91 1741 -91 
Q 1134 -91 817 281 
Q 500 653 500 1363 
z
" transform="scale(0.015625)"/>
      <path id="DejaVuSans-Bold-74" d="M 1759 4494 
L 1759 3500 
L 2913 3500 
L 2913 2700 
L 1759 2700 
L 1759 1216 
Q 1759 972 1856 886 
Q 1953 800 2241 800 
L 2816 800 
L 2816 0 
L 1856 0 
Q 1194 0 917 276 
Q 641 553 641 1216 
L 641 2700 
L 84 2700 
L 84 3500 
L 641 3500 
L 641 4494 
L 1759 4494 
z
" transform="scale(0.015625)"/>
      <path id="DejaVuSans-Bold-6f" d="M 2203 2784 
Q 1831 2784 1636 2517 
Q 1441 2250 1441 1747 
Q 1441 1244 1636 976 
Q 1831 709 2203 709 
Q 2569 709 2762 976 
Q 2956 1244 2956 1747 
Q 2956 2250 2762 2517 
Q 2569 2784 2203 2784 
z
M 2203 3584 
Q 3106 3584 3614 3096 
Q 4122 2609 4122 1747 
Q 4122 884 3614 396 
Q 3106 -91 2203 -91 
Q 1297 -91 786 396 
Q 275 884 275 1747 
Q 275 2609 786 3096 
Q 1297 3584 2203 3584 
z
" transform="scale(0.015625)"/>
      <path id="DejaVuSans-Bold-6d" d="M 3781 2919 
Q 3994 3244 4286 3414 
Q 4578 3584 4928 3584 
Q 5531 3584 5847 3212 
Q 6163 2841 6163 2131 
L 6163 0 
L 5038 0 
L 5038 1825 
Q 5041 1866 5042 1909 
Q 5044 1953 5044 2034 
Q 5044 2406 4934 2573 
Q 4825 2741 4581 2741 
Q 4263 2741 4089 2478 
Q 3916 2216 3909 1719 
L 3909 0 
L 2784 0 
L 2784 1825 
Q 2784 2406 2684 2573 
Q 2584 2741 2328 2741 
Q 2006 2741 1831 2477 
Q 1656 2213 1656 1722 
L 1656 0 
L 531 0 
L 531 3500 
L 1656 3500 
L 1656 2988 
Q 1863 3284 2130 3434 
Q 2397 3584 2719 3584 
Q 3081 3584 3359 3409 
Q 3638 3234 3781 2919 
z
" transform="scale(0.015625)"/>
      <path id="DejaVuSans-Bold-6c" d="M 538 4863 
L 1656 4863 
L 1656 0 
L 538 0 
L 538 4863 
z
" transform="scale(0.015625)"/>
     </defs>
     <use xlink:href="#DejaVuSans-Bold-61"/>
     <use xlink:href="#DejaVuSans-Bold-75" transform="translate(67.480469 0)"/>
     <use xlink:href="#DejaVuSans-Bold-74" transform="translate(138.671875 0)"/>
     <use xlink:href="#DejaVuSans-Bold-6f" transform="translate(186.474609 0)"/>
     <use xlink:href="#DejaVuSans-Bold-6d" transform="translate(255.175781 0)"/>
     <use xlink:href="#DejaVuSans-Bold-6c" transform="translate(359.375 0)"/>
    </g>
   </g>
  </g>
 </g>
 <defs>
  <clipPath id="p9259bf18c0">
   <rect x="7.2" y="23.837812" width="842.4" height="537.6"/>
  </clipPath>
 </defs>
</svg>
