<?xml version="1.0" encoding="utf-8" standalone="no"?>
<!DOCTYPE svg PUBLIC "-//W3C//DTD SVG 1.1//EN"
  "http://www.w3.org/Graphics/SVG/1.1/DTD/svg11.dtd">
<svg xmlns:xlink="http://www.w3.org/1999/xlink" width="856.8pt" height="568.637812pt" viewBox="0 0 856.8 568.637812" xmlns="http://www.w3.org/2000/svg" version="1.1">
 <metadata>
  <rdf:RDF xmlns:dc="http://purl.org/dc/elements/1.1/" xmlns:cc="http://creativecommons.org/ns#" xmlns:rdf="http://www.w3.org/1999/02/22-rdf-syntax-ns#">
   <cc:Work>
    <dc:type rdf:resource="http://purl.org/dc/dcmitype/StillImage"/>
    <dc:date>2026-01-03T04:00:59.013633</dc:date>
    <dc:format>image/svg+xml</dc:format>
    <dc:creator>
     <cc:Agent>
      <dc:title>Matplotlib v3.10.8, https://matplotlib.org/</dc:title>
     </cc:Agent>
    </dc:creator>
   </cc:Work>
  </rdf:RDF>
 </metadata>
 <defs>
  <style type="text/css">*{stroke-linejoin: round; stroke-linecap: butt}</style>
 </defs>
 <g id="figure_1">
  <g id="patch_1">
   <path d="M 0 568.637812 
L 856.8 568.637812 
L 856.8 0 
L 0 0 
z
" style="fill: #ffffff"/>
  </g>
  <g id="axes_1">
   <g id="patch_2">
    <path d="M 536.617965 455.508826 
Q 486.414248 431.479696 437.219002 407.933253 
" clip-path="url(#p22e0f1c540)" style="fill: none; stroke: #666666; stroke-linecap: round"/>
    <path d="M 439.96356 411.464174 
L 437.219002 407.933253 
L 441.690473 407.856159 
z
" clip-path="url(#p22e0f1c540)" style="fill: #666666; stroke: #666666; stroke-linecap: round"/>
   </g>
   <g id="patch_3">
    <path d="M 420.148473 406.345159 
Q 254.351142 459.24915 89.618934 511.813274 
" clip-path="url(#p22e0f1c540)" style="fill: none; stroke: #666666; stroke-linecap: round"/>
    <path d="M 94.037613 512.502674 
L 89.618934 511.813274 
L 92.821662 508.691971 
z
" clip-path="url(#p22e0f1c540)" style="fill: #666666; stroke: #666666; stroke-linecap: round"/>
   </g>
   <g id="patch_4">
    <path d="M 88.961344 514.786573 
Q 428.401412 514.786573 766.723446 514.786573 
" clip-path="url(#p22e0f1c540)" style="fill: none; stroke: #666666; stroke-linecap: round"/>
    <path d="M 762.723446 512.786573 
L 766.723446 514.786573 
L 762.723446 516.786573 
z
" clip-path="url(#p22e0f1c540)" style="fill: #666666; stroke: #666666; stroke-linecap: round"/>
   </g>
   <g id="patch_5">
    <path d="M 85.249441 507.68087 
Q 138.31779 431.480164 190.747189 356.196924 
" clip-path="url(#p22e0f1c540)" style="fill: none; stroke: #666666; stroke-linecap: round"/>
    <path d="M 186.820001 358.336363 
L 190.747189 356.196924 
L 190.102427 360.622338 
z
" clip-path="url(#p22e0f1c540)" style="fill: #666666; stroke: #666666; stroke-linecap: round"/>
   </g>
   <g id="patch_6">
    <path d="M 201.284269 341.066757 
Q 215.672512 320.406717 229.421805 300.664141 
" clip-path="url(#p22e0f1c540)" style="fill: none; stroke: #666666; stroke-linecap: round"/>
    <path d="M 225.494618 302.80358 
L 229.421805 300.664141 
L 228.777043 305.089555 
z
" clip-path="url(#p22e0f1c540)" style="fill: #666666; stroke: #666666; stroke-linecap: round"/>
   </g>
   <g id="patch_7">
    <path d="M 239.961955 285.529567 
Q 254.350198 264.869526 268.099491 245.126951 
" clip-path="url(#p22e0f1c540)" style="fill: none; stroke: #666666; stroke-linecap: round"/>
    <path d="M 264.172304 247.26639 
L 268.099491 245.126951 
L 267.454729 249.552365 
z
" clip-path="url(#p22e0f1c540)" style="fill: #666666; stroke: #666666; stroke-linecap: round"/>
   </g>
   <g id="patch_8">
    <path d="M 278.637871 229.99492 
Q 331.706219 153.794214 384.135618 78.510974 
" clip-path="url(#p22e0f1c540)" style="fill: none; stroke: #666666; stroke-linecap: round"/>
    <path d="M 380.208431 80.650412 
L 384.135618 78.510974 
L 383.490856 82.936387 
z
" clip-path="url(#p22e0f1c540)" style="fill: #666666; stroke: #666666; stroke-linecap: round"/>
   </g>
   <g id="patch_9">
    <path d="M 394.672699 77.597297 
Q 467.079191 181.565593 538.846733 284.616423 
" clip-path="url(#p22e0f1c540)" style="fill: none; stroke: #666666; stroke-linecap: round"/>
    <path d="M 538.201971 280.19101 
L 538.846733 284.616423 
L 534.919545 282.476985 
z
" clip-path="url(#p22e0f1c540)" style="fill: #666666; stroke: #666666; stroke-linecap: round"/>
   </g>
   <g id="patch_10">
    <path d="M 538.176026 298.62745 
Q 486.41533 348.17615 435.462272 396.951727 
" clip-path="url(#p22e0f1c540)" style="fill: none; stroke: #666666; stroke-linecap: round"/>
    <path d="M 439.734773 395.630462 
L 435.462272 396.951727 
L 436.968761 392.740968 
z
" clip-path="url(#p22e0f1c540)" style="fill: #666666; stroke: #666666; stroke-linecap: round"/>
   </g>
   <g id="patch_11">
    <path d="M 549.383443 299.746058 
Q 583.112261 348.177182 616.20213 395.69084 
" clip-path="url(#p22e0f1c540)" style="fill: none; stroke: #666666; stroke-linecap: round"/>
    <path d="M 615.557368 391.265426 
L 616.20213 395.69084 
L 612.274942 393.551401 
z
" clip-path="url(#p22e0f1c540)" style="fill: #666666; stroke: #666666; stroke-linecap: round"/>
   </g>
   <g id="patch_12">
    <path d="M 628.825672 408.764572 
Q 699.143866 459.249429 768.553853 509.08224 
" clip-path="url(#p22e0f1c540)" style="fill: none; stroke: #666666; stroke-linecap: round"/>
    <path d="M 766.470972 505.124766 
L 768.553853 509.08224 
L 764.138145 508.374061 
z
" clip-path="url(#p22e0f1c540)" style="fill: #666666; stroke: #666666; stroke-linecap: round"/>
   </g>
   <g id="patch_13">
    <path d="M 771.550559 507.68087 
Q 718.48221 431.480164 666.052811 356.196924 
" clip-path="url(#p22e0f1c540)" style="fill: none; stroke: #666666; stroke-linecap: round"/>
    <path d="M 666.697573 360.622338 
L 666.052811 356.196924 
L 669.979999 358.336363 
z
" clip-path="url(#p22e0f1c540)" style="fill: #666666; stroke: #666666; stroke-linecap: round"/>
   </g>
   <g id="text_1">
    <g id="patch_14">
     <path d="M 407.047584 520.37126 
L 449.75524 520.37126 
Q 451.85524 520.37126 451.85524 518.27126 
L 451.85524 511.301885 
Q 451.85524 509.201885 449.75524 509.201885 
L 407.047584 509.201885 
Q 404.947584 509.201885 404.947584 511.301885 
L 404.947584 518.27126 
Q 404.947584 520.37126 407.047584 520.37126 
z
" clip-path="url(#p22e0f1c540)" style="fill: #ffffff; stroke: #ffffff; stroke-linejoin: miter"/>
    </g>
    <g clip-path="url(#p22e0f1c540)">
     <!-- high_quality -->
     <g transform="translate(407.047584 516.620792) scale(0.07 -0.07)">
      <defs>
       <path id="DejaVuSans-68" d="M 3513 2113 
L 3513 0 
L 2938 0 
L 2938 2094 
Q 2938 2591 2744 2837 
Q 2550 3084 2163 3084 
Q 1697 3084 1428 2787 
Q 1159 2491 1159 1978 
L 1159 0 
L 581 0 
L 581 4863 
L 1159 4863 
L 1159 2956 
Q 1366 3272 1645 3428 
Q 1925 3584 2291 3584 
Q 2894 3584 3203 3211 
Q 3513 2838 3513 2113 
z
" transform="scale(0.015625)"/>
       <path id="DejaVuSans-69" d="M 603 3500 
L 1178 3500 
L 1178 0 
L 603 0 
L 603 3500 
z
M 603 4863 
L 1178 4863 
L 1178 4134 
L 603 4134 
L 603 4863 
z
" transform="scale(0.015625)"/>
       <path id="DejaVuSans-67" d="M 2906 1791 
Q 2906 2416 2648 2759 
Q 2391 3103 1925 3103 
Q 1463 3103 1205 2759 
Q 947 2416 947 1791 
Q 947 1169 1205 825 
Q 1463 481 1925 481 
Q 2391 481 2648 825 
Q 2906 1169 2906 1791 
z
M 3481 434 
Q 3481 -459 3084 -895 
Q 2688 -1331 1869 -1331 
Q 1566 -1331 1297 -1286 
Q 1028 -1241 775 -1147 
L 775 -588 
Q 1028 -725 1275 -790 
Q 1522 -856 1778 -856 
Q 2344 -856 2625 -561 
Q 2906 -266 2906 331 
L 2906 616 
Q 2728 306 2450 153 
Q 2172 0 1784 0 
Q 1141 0 747 490 
Q 353 981 353 1791 
Q 353 2603 747 3093 
Q 1141 3584 1784 3584 
Q 2172 3584 2450 3431 
Q 2728 3278 2906 2969 
L 2906 3500 
L 3481 3500 
L 3481 434 
z
" transform="scale(0.015625)"/>
       <path id="DejaVuSans-5f" d="M 3263 -1063 
L 3263 -1509 
L -63 -1509 
L -63 -1063 
L 3263 -1063 
z
" transform="scale(0.015625)"/>
       <path id="DejaVuSans-71" d="M 947 1747 
Q 947 1113 1208 752 
Q 1469 391 1925 391 
Q 2381 391 2643 752 
Q 2906 1113 2906 1747 
Q 2906 2381 2643 2742 
Q 2381 3103 1925 3103 
Q 1469 3103 1208 2742 
Q 947 2381 947 1747 
z
M 2906 525 
Q 2725 213 2448 61 
Q 2172 -91 1784 -91 
Q 1150 -91 751 415 
Q 353 922 353 1747 
Q 353 2572 751 3078 
Q 1150 3584 1784 3584 
Q 2172 3584 2448 3432 
Q 2725 3281 2906 2969 
L 2906 3500 
L 3481 3500 
L 3481 -1331 
L 2906 -1331 
L 2906 525 
z
" transform="scale(0.015625)"/>
       <path id="DejaVuSans-75" d="M 544 1381 
L 544 3500 
L 1119 3500 
L 1119 1403 
Q 1119 906 1312 657 
Q 1506 409 1894 409 
Q 2359 409 2629 706 
Q 2900 1003 2900 1516 
L 2900 3500 
L 3475 3500 
L 3475 0 
L 2900 0 
L 2900 538 
Q 2691 219 2414 64 
Q 2138 -91 1772 -91 
Q 1169 -91 856 284 
Q 544 659 544 1381 
z
M 1991 3584 
L 1991 3584 
z
" transform="scale(0.015625)"/>
       <path id="DejaVuSans-61" d="M 2194 1759 
Q 1497 1759 1228 1600 
Q 959 1441 959 1056 
Q 959 750 1161 570 
Q 1363 391 1709 391 
Q 2188 391 2477 730 
Q 2766 1069 2766 1631 
L 2766 1759 
L 2194 1759 
z
M 3341 1997 
L 3341 0 
L 2766 0 
L 2766 531 
Q 2569 213 2275 61 
Q 1981 -91 1556 -91 
Q 1019 -91 701 211 
Q 384 513 384 1019 
Q 384 1609 779 1909 
Q 1175 2209 1959 2209 
L 2766 2209 
L 2766 2266 
Q 2766 2663 2505 2880 
Q 2244 3097 1772 3097 
Q 1472 3097 1187 3025 
Q 903 2953 641 2809 
L 641 3341 
Q 956 3463 1253 3523 
Q 1550 3584 1831 3584 
Q 2591 3584 2966 3190 
Q 3341 2797 3341 1997 
z
" transform="scale(0.015625)"/>
       <path id="DejaVuSans-6c" d="M 603 4863 
L 1178 4863 
L 1178 0 
L 603 0 
L 603 4863 
z
" transform="scale(0.015625)"/>
       <path id="DejaVuSans-74" d="M 1172 4494 
L 1172 3500 
L 2356 3500 
L 2356 3053 
L 1172 3053 
L 1172 1153 
Q 1172 725 1289 603 
Q 1406 481 1766 481 
L 2356 481 
L 2356 0 
L 1766 0 
Q 1100 0 847 248 
Q 594 497 594 1153 
L 594 3053 
L 172 3053 
L 172 3500 
L 594 3500 
L 594 4494 
L 1172 4494 
z
" transform="scale(0.015625)"/>
       <path id="DejaVuSans-79" d="M 2059 -325 
Q 1816 -950 1584 -1140 
Q 1353 -1331 966 -1331 
L 506 -1331 
L 506 -850 
L 844 -850 
Q 1081 -850 1212 -737 
Q 1344 -625 1503 -206 
L 1606 56 
L 191 3500 
L 800 3500 
L 1894 763 
L 2988 3500 
L 3597 3500 
L 2059 -325 
z
" transform="scale(0.015625)"/>
      </defs>
      <use xlink:href="#DejaVuSans-68"/>
      <use xlink:href="#DejaVuSans-69" transform="translate(63.378906 0)"/>
      <use xlink:href="#DejaVuSans-67" transform="translate(91.162109 0)"/>
      <use xlink:href="#DejaVuSans-68" transform="translate(154.638672 0)"/>
      <use xlink:href="#DejaVuSans-5f" transform="translate(218.017578 0)"/>
      <use xlink:href="#DejaVuSans-71" transform="translate(268.017578 0)"/>
      <use xlink:href="#DejaVuSans-75" transform="translate(331.494141 0)"/>
      <use xlink:href="#DejaVuSans-61" transform="translate(394.873047 0)"/>
      <use xlink:href="#DejaVuSans-6c" transform="translate(456.152344 0)"/>
      <use xlink:href="#DejaVuSans-69" transform="translate(483.935547 0)"/>
      <use xlink:href="#DejaVuSans-74" transform="translate(511.71875 0)"/>
      <use xlink:href="#DejaVuSans-79" transform="translate(550.927734 0)"/>
     </g>
    </g>
   </g>
   <g id="text_2">
    <g id="patch_15">
     <path d="M 135.782749 444.721979 
L 149.858729 424.510315 
Q 151.058866 422.787041 149.335593 421.586904 
L 143.776241 417.715213 
Q 142.052967 416.515076 140.85283 418.238349 
L 126.77685 438.450014 
Q 125.576713 440.173287 127.299986 441.373424 
L 132.859338 445.245116 
Q 134.582612 446.445253 135.782749 444.721979 
z
" clip-path="url(#p22e0f1c540)" style="fill: #ffffff; stroke: #ffffff; stroke-linejoin: miter"/>
    </g>
    <g clip-path="url(#p22e0f1c540)">
     <!-- default -->
     <g transform="translate(132.864852 442.689872) rotate(-55.145544) scale(0.07 -0.07)">
      <defs>
       <path id="DejaVuSans-64" d="M 2906 2969 
L 2906 4863 
L 3481 4863 
L 3481 0 
L 2906 0 
L 2906 525 
Q 2725 213 2448 61 
Q 2172 -91 1784 -91 
Q 1150 -91 751 415 
Q 353 922 353 1747 
Q 353 2572 751 3078 
Q 1150 3584 1784 3584 
Q 2172 3584 2448 3432 
Q 2725 3281 2906 2969 
z
M 947 1747 
Q 947 1113 1208 752 
Q 1469 391 1925 391 
Q 2381 391 2643 752 
Q 2906 1113 2906 1747 
Q 2906 2381 2643 2742 
Q 2381 3103 1925 3103 
Q 1469 3103 1208 2742 
Q 947 2381 947 1747 
z
" transform="scale(0.015625)"/>
       <path id="DejaVuSans-65" d="M 3597 1894 
L 3597 1613 
L 953 1613 
Q 991 1019 1311 708 
Q 1631 397 2203 397 
Q 2534 397 2845 478 
Q 3156 559 3463 722 
L 3463 178 
Q 3153 47 2828 -22 
Q 2503 -91 2169 -91 
Q 1331 -91 842 396 
Q 353 884 353 1716 
Q 353 2575 817 3079 
Q 1281 3584 2069 3584 
Q 2775 3584 3186 3129 
Q 3597 2675 3597 1894 
z
M 3022 2063 
Q 3016 2534 2758 2815 
Q 2500 3097 2075 3097 
Q 1594 3097 1305 2825 
Q 1016 2553 972 2059 
L 3022 2063 
z
" transform="scale(0.015625)"/>
       <path id="DejaVuSans-66" d="M 2375 4863 
L 2375 4384 
L 1825 4384 
Q 1516 4384 1395 4259 
Q 1275 4134 1275 3809 
L 1275 3500 
L 2222 3500 
L 2222 3053 
L 1275 3053 
L 1275 0 
L 697 0 
L 697 3053 
L 147 3053 
L 147 3500 
L 697 3500 
L 697 3744 
Q 697 4328 969 4595 
Q 1241 4863 1831 4863 
L 2375 4863 
z
" transform="scale(0.015625)"/>
      </defs>
      <use xlink:href="#DejaVuSans-64"/>
      <use xlink:href="#DejaVuSans-65" transform="translate(63.476562 0)"/>
      <use xlink:href="#DejaVuSans-66" transform="translate(125 0)"/>
      <use xlink:href="#DejaVuSans-61" transform="translate(160.205078 0)"/>
      <use xlink:href="#DejaVuSans-75" transform="translate(221.484375 0)"/>
      <use xlink:href="#DejaVuSans-6c" transform="translate(284.863281 0)"/>
      <use xlink:href="#DejaVuSans-74" transform="translate(312.646484 0)"/>
     </g>
    </g>
   </g>
   <g id="text_3">
    <g id="patch_16">
     <path d="M 484.144671 357.94604 
L 496.275018 346.334085 
Q 497.792002 344.881929 496.339846 343.364944 
L 491.65513 338.471089 
Q 490.202973 336.954104 488.685989 338.40626 
L 476.555642 350.018216 
Q 475.038658 351.470372 476.490814 352.987356 
L 481.17553 357.881212 
Q 482.627687 359.398197 484.144671 357.94604 
z
" clip-path="url(#p22e0f1c540)" style="fill: #ffffff; stroke: #ffffff; stroke-linejoin: miter"/>
    </g>
    <g clip-path="url(#p22e0f1c540)">
     <!-- retry -->
     <g transform="translate(481.685838 355.377438) rotate(-43.749199) scale(0.07 -0.07)">
      <defs>
       <path id="DejaVuSans-72" d="M 2631 2963 
Q 2534 3019 2420 3045 
Q 2306 3072 2169 3072 
Q 1681 3072 1420 2755 
Q 1159 2438 1159 1844 
L 1159 0 
L 581 0 
L 581 3500 
L 1159 3500 
L 1159 2956 
Q 1341 3275 1631 3429 
Q 1922 3584 2338 3584 
Q 2397 3584 2469 3576 
Q 2541 3569 2628 3553 
L 2631 2963 
z
" transform="scale(0.015625)"/>
      </defs>
      <use xlink:href="#DejaVuSans-72"/>
      <use xlink:href="#DejaVuSans-65" transform="translate(38.863281 0)"/>
      <use xlink:href="#DejaVuSans-74" transform="translate(100.386719 0)"/>
      <use xlink:href="#DejaVuSans-72" transform="translate(139.595703 0)"/>
      <use xlink:href="#DejaVuSans-79" transform="translate(180.708984 0)"/>
     </g>
    </g>
   </g>
   <g id="text_4">
    <g id="patch_17">
     <path d="M 571.571322 341.207332 
L 585.647302 361.418996 
Q 586.847439 363.14227 588.570712 361.942133 
L 594.130064 358.070441 
Q 595.853338 356.870304 594.653201 355.147031 
L 580.577221 334.935367 
Q 579.377084 333.212093 577.65381 334.41223 
L 572.094458 338.283922 
Q 570.371185 339.484059 571.571322 341.207332 
z
" clip-path="url(#p22e0f1c540)" style="fill: #ffffff; stroke: #ffffff; stroke-linejoin: miter"/>
    </g>
    <g clip-path="url(#p22e0f1c540)">
     <!-- default -->
     <g transform="translate(574.489218 339.175225) rotate(-304.854456) scale(0.07 -0.07)">
      <use xlink:href="#DejaVuSans-64"/>
      <use xlink:href="#DejaVuSans-65" transform="translate(63.476562 0)"/>
      <use xlink:href="#DejaVuSans-66" transform="translate(125 0)"/>
      <use xlink:href="#DejaVuSans-61" transform="translate(160.205078 0)"/>
      <use xlink:href="#DejaVuSans-75" transform="translate(221.484375 0)"/>
      <use xlink:href="#DejaVuSans-6c" transform="translate(284.863281 0)"/>
      <use xlink:href="#DejaVuSans-74" transform="translate(312.646484 0)"/>
     </g>
    </g>
   </g>
   <g id="PathCollection_1">
    <defs>
     <path id="C0_0_16f3eefcb7" d="M 0 22.36068 
C 5.930122 22.36068 11.618159 20.004617 15.811388 15.811388 
C 20.004617 11.618159 22.36068 5.930122 22.36068 -0 
C 22.36068 -5.930122 20.004617 -11.618159 15.811388 -15.811388 
C 11.618159 -20.004617 5.930122 -22.36068 0 -22.36068 
C -5.930122 -22.36068 -11.618159 -20.004617 -15.811388 -15.811388 
C -20.004617 -11.618159 -22.36068 -5.930122 -22.36068 0 
C -22.36068 5.930122 -20.004617 11.618159 -15.811388 15.811388 
C -11.618159 20.004617 -5.930122 22.36068 0 22.36068 
z
"/>
    </defs>
    <g clip-path="url(#p22e0f1c540)">
     <use xlink:href="#C0_0_16f3eefcb7" x="544.433058" y="459.249383" style="fill: #eceff1; stroke: #eceff1"/>
    </g>
    <g clip-path="url(#p22e0f1c540)">
     <use xlink:href="#C0_0_16f3eefcb7" x="428.4" y="403.712193" style="fill: #e3f2fd; stroke: #e3f2fd"/>
    </g>
    <g clip-path="url(#p22e0f1c540)">
     <use xlink:href="#C0_0_16f3eefcb7" x="80.300826" y="514.786573" style="fill: #fff3e0; stroke: #fff3e0"/>
    </g>
    <g clip-path="url(#p22e0f1c540)">
     <use xlink:href="#C0_0_16f3eefcb7" x="196.333884" y="348.175003" style="fill: #e3f2fd; stroke: #e3f2fd"/>
    </g>
    <g clip-path="url(#p22e0f1c540)">
     <use xlink:href="#C0_0_16f3eefcb7" x="235.01157" y="292.637813" style="fill: #e3f2fd; stroke: #e3f2fd"/>
    </g>
    <g clip-path="url(#p22e0f1c540)">
     <use xlink:href="#C0_0_16f3eefcb7" x="273.689256" y="237.100622" style="fill: #e3f2fd; stroke: #e3f2fd"/>
    </g>
    <g clip-path="url(#p22e0f1c540)">
     <use xlink:href="#C0_0_16f3eefcb7" x="389.722314" y="70.489052" style="fill: #eceff1; stroke: #eceff1"/>
    </g>
    <g clip-path="url(#p22e0f1c540)">
     <use xlink:href="#C0_0_16f3eefcb7" x="544.433058" y="292.637813" style="fill: #fff3e0; stroke: #fff3e0"/>
    </g>
    <g clip-path="url(#p22e0f1c540)">
     <use xlink:href="#C0_0_16f3eefcb7" x="621.78843" y="403.712193" style="fill: #ffebee; stroke: #ffebee"/>
    </g>
    <g clip-path="url(#p22e0f1c540)">
     <use xlink:href="#C0_0_16f3eefcb7" x="776.499174" y="514.786573" style="fill: #e3f2fd; stroke: #e3f2fd"/>
    </g>
    <g clip-path="url(#p22e0f1c540)">
     <use xlink:href="#C0_0_16f3eefcb7" x="660.466116" y="348.175003" style="fill: #eceff1; stroke: #eceff1"/>
    </g>
   </g>
   <g id="text_5">
    <g clip-path="url(#p22e0f1c540)">
     <!-- init -->
     <g transform="translate(538.107433 461.456883) scale(0.08 -0.08)">
      <defs>
       <path id="DejaVuSans-6e" d="M 3513 2113 
L 3513 0 
L 2938 0 
L 2938 2094 
Q 2938 2591 2744 2837 
Q 2550 3084 2163 3084 
Q 1697 3084 1428 2787 
Q 1159 2491 1159 1978 
L 1159 0 
L 581 0 
L 581 3500 
L 1159 3500 
L 1159 2956 
Q 1366 3272 1645 3428 
Q 1925 3584 2291 3584 
Q 2894 3584 3203 3211 
Q 3513 2838 3513 2113 
z
" transform="scale(0.015625)"/>
      </defs>
      <use xlink:href="#DejaVuSans-69"/>
      <use xlink:href="#DejaVuSans-6e" transform="translate(27.783203 0)"/>
      <use xlink:href="#DejaVuSans-69" transform="translate(91.162109 0)"/>
      <use xlink:href="#DejaVuSans-74" transform="translate(118.945312 0)"/>
     </g>
    </g>
   </g>
   <g id="text_6">
    <g clip-path="url(#p22e0f1c540)">
     <!-- assess_quality -->
     <g transform="translate(399.46875 405.808443) scale(0.08 -0.08)">
      <defs>
       <path id="DejaVuSans-73" d="M 2834 3397 
L 2834 2853 
Q 2591 2978 2328 3040 
Q 2066 3103 1784 3103 
Q 1356 3103 1142 2972 
Q 928 2841 928 2578 
Q 928 2378 1081 2264 
Q 1234 2150 1697 2047 
L 1894 2003 
Q 2506 1872 2764 1633 
Q 3022 1394 3022 966 
Q 3022 478 2636 193 
Q 2250 -91 1575 -91 
Q 1294 -91 989 -36 
Q 684 19 347 128 
L 347 722 
Q 666 556 975 473 
Q 1284 391 1588 391 
Q 1994 391 2212 530 
Q 2431 669 2431 922 
Q 2431 1156 2273 1281 
Q 2116 1406 1581 1522 
L 1381 1569 
Q 847 1681 609 1914 
Q 372 2147 372 2553 
Q 372 3047 722 3315 
Q 1072 3584 1716 3584 
Q 2034 3584 2315 3537 
Q 2597 3491 2834 3397 
z
" transform="scale(0.015625)"/>
      </defs>
      <use xlink:href="#DejaVuSans-61"/>
      <use xlink:href="#DejaVuSans-73" transform="translate(61.279297 0)"/>
      <use xlink:href="#DejaVuSans-73" transform="translate(113.378906 0)"/>
      <use xlink:href="#DejaVuSans-65" transform="translate(165.478516 0)"/>
      <use xlink:href="#DejaVuSans-73" transform="translate(227.001953 0)"/>
      <use xlink:href="#DejaVuSans-73" transform="translate(279.101562 0)"/>
      <use xlink:href="#DejaVuSans-5f" transform="translate(331.201172 0)"/>
      <use xlink:href="#DejaVuSans-71" transform="translate(381.201172 0)"/>
      <use xlink:href="#DejaVuSans-75" transform="translate(444.677734 0)"/>
      <use xlink:href="#DejaVuSans-61" transform="translate(508.056641 0)"/>
      <use xlink:href="#DejaVuSans-6c" transform="translate(569.335938 0)"/>
      <use xlink:href="#DejaVuSans-69" transform="translate(597.119141 0)"/>
      <use xlink:href="#DejaVuSans-74" transform="translate(624.902344 0)"/>
      <use xlink:href="#DejaVuSans-79" transform="translate(664.111328 0)"/>
     </g>
    </g>
   </g>
   <g id="text_7">
    <g clip-path="url(#p22e0f1c540)">
     <!-- check_quality -->
     <g transform="translate(52.905826 516.882823) scale(0.08 -0.08)">
      <defs>
       <path id="DejaVuSans-63" d="M 3122 3366 
L 3122 2828 
Q 2878 2963 2633 3030 
Q 2388 3097 2138 3097 
Q 1578 3097 1268 2742 
Q 959 2388 959 1747 
Q 959 1106 1268 751 
Q 1578 397 2138 397 
Q 2388 397 2633 464 
Q 2878 531 3122 666 
L 3122 134 
Q 2881 22 2623 -34 
Q 2366 -91 2075 -91 
Q 1284 -91 818 406 
Q 353 903 353 1747 
Q 353 2603 823 3093 
Q 1294 3584 2113 3584 
Q 2378 3584 2631 3529 
Q 2884 3475 3122 3366 
z
" transform="scale(0.015625)"/>
       <path id="DejaVuSans-6b" d="M 581 4863 
L 1159 4863 
L 1159 1991 
L 2875 3500 
L 3609 3500 
L 1753 1863 
L 3688 0 
L 2938 0 
L 1159 1709 
L 1159 0 
L 581 0 
L 581 4863 
z
" transform="scale(0.015625)"/>
      </defs>
      <use xlink:href="#DejaVuSans-63"/>
      <use xlink:href="#DejaVuSans-68" transform="translate(54.980469 0)"/>
      <use xlink:href="#DejaVuSans-65" transform="translate(118.359375 0)"/>
      <use xlink:href="#DejaVuSans-63" transform="translate(179.882812 0)"/>
      <use xlink:href="#DejaVuSans-6b" transform="translate(234.863281 0)"/>
      <use xlink:href="#DejaVuSans-5f" transform="translate(292.773438 0)"/>
      <use xlink:href="#DejaVuSans-71" transform="translate(342.773438 0)"/>
      <use xlink:href="#DejaVuSans-75" transform="translate(406.25 0)"/>
      <use xlink:href="#DejaVuSans-61" transform="translate(469.628906 0)"/>
      <use xlink:href="#DejaVuSans-6c" transform="translate(530.908203 0)"/>
      <use xlink:href="#DejaVuSans-69" transform="translate(558.691406 0)"/>
      <use xlink:href="#DejaVuSans-74" transform="translate(586.474609 0)"/>
      <use xlink:href="#DejaVuSans-79" transform="translate(625.683594 0)"/>
     </g>
    </g>
   </g>
   <g id="text_8">
    <g clip-path="url(#p22e0f1c540)">
     <!-- plan_cleaning -->
     <g transform="translate(168.753259 350.271253) scale(0.08 -0.08)">
      <defs>
       <path id="DejaVuSans-70" d="M 1159 525 
L 1159 -1331 
L 581 -1331 
L 581 3500 
L 1159 3500 
L 1159 2969 
Q 1341 3281 1617 3432 
Q 1894 3584 2278 3584 
Q 2916 3584 3314 3078 
Q 3713 2572 3713 1747 
Q 3713 922 3314 415 
Q 2916 -91 2278 -91 
Q 1894 -91 1617 61 
Q 1341 213 1159 525 
z
M 3116 1747 
Q 3116 2381 2855 2742 
Q 2594 3103 2138 3103 
Q 1681 3103 1420 2742 
Q 1159 2381 1159 1747 
Q 1159 1113 1420 752 
Q 1681 391 2138 391 
Q 2594 391 2855 752 
Q 3116 1113 3116 1747 
z
" transform="scale(0.015625)"/>
      </defs>
      <use xlink:href="#DejaVuSans-70"/>
      <use xlink:href="#DejaVuSans-6c" transform="translate(63.476562 0)"/>
      <use xlink:href="#DejaVuSans-61" transform="translate(91.259766 0)"/>
      <use xlink:href="#DejaVuSans-6e" transform="translate(152.539062 0)"/>
      <use xlink:href="#DejaVuSans-5f" transform="translate(215.917969 0)"/>
      <use xlink:href="#DejaVuSans-63" transform="translate(265.917969 0)"/>
      <use xlink:href="#DejaVuSans-6c" transform="translate(320.898438 0)"/>
      <use xlink:href="#DejaVuSans-65" transform="translate(348.681641 0)"/>
      <use xlink:href="#DejaVuSans-61" transform="translate(410.205078 0)"/>
      <use xlink:href="#DejaVuSans-6e" transform="translate(471.484375 0)"/>
      <use xlink:href="#DejaVuSans-69" transform="translate(534.863281 0)"/>
      <use xlink:href="#DejaVuSans-6e" transform="translate(562.646484 0)"/>
      <use xlink:href="#DejaVuSans-67" transform="translate(626.025391 0)"/>
     </g>
    </g>
   </g>
   <g id="text_9">
    <g clip-path="url(#p22e0f1c540)">
     <!-- execute_cleaning -->
     <g transform="translate(200.20907 294.734063) scale(0.08 -0.08)">
      <defs>
       <path id="DejaVuSans-78" d="M 3513 3500 
L 2247 1797 
L 3578 0 
L 2900 0 
L 1881 1375 
L 863 0 
L 184 0 
L 1544 1831 
L 300 3500 
L 978 3500 
L 1906 2253 
L 2834 3500 
L 3513 3500 
z
" transform="scale(0.015625)"/>
      </defs>
      <use xlink:href="#DejaVuSans-65"/>
      <use xlink:href="#DejaVuSans-78" transform="translate(59.773438 0)"/>
      <use xlink:href="#DejaVuSans-65" transform="translate(115.828125 0)"/>
      <use xlink:href="#DejaVuSans-63" transform="translate(177.351562 0)"/>
      <use xlink:href="#DejaVuSans-75" transform="translate(232.332031 0)"/>
      <use xlink:href="#DejaVuSans-74" transform="translate(295.710938 0)"/>
      <use xlink:href="#DejaVuSans-65" transform="translate(334.919922 0)"/>
      <use xlink:href="#DejaVuSans-5f" transform="translate(396.443359 0)"/>
      <use xlink:href="#DejaVuSans-63" transform="translate(446.443359 0)"/>
      <use xlink:href="#DejaVuSans-6c" transform="translate(501.423828 0)"/>
      <use xlink:href="#DejaVuSans-65" transform="translate(529.207031 0)"/>
      <use xlink:href="#DejaVuSans-61" transform="translate(590.730469 0)"/>
      <use xlink:href="#DejaVuSans-6e" transform="translate(652.009766 0)"/>
      <use xlink:href="#DejaVuSans-69" transform="translate(715.388672 0)"/>
      <use xlink:href="#DejaVuSans-6e" transform="translate(743.171875 0)"/>
      <use xlink:href="#DejaVuSans-67" transform="translate(806.550781 0)"/>
     </g>
    </g>
   </g>
   <g id="text_10">
    <g clip-path="url(#p22e0f1c540)">
     <!-- validate_cleaning -->
     <g transform="translate(238.684256 239.196872) scale(0.08 -0.08)">
      <defs>
       <path id="DejaVuSans-76" d="M 191 3500 
L 800 3500 
L 1894 563 
L 2988 3500 
L 3597 3500 
L 2284 0 
L 1503 0 
L 191 3500 
z
" transform="scale(0.015625)"/>
      </defs>
      <use xlink:href="#DejaVuSans-76"/>
      <use xlink:href="#DejaVuSans-61" transform="translate(59.179688 0)"/>
      <use xlink:href="#DejaVuSans-6c" transform="translate(120.458984 0)"/>
      <use xlink:href="#DejaVuSans-69" transform="translate(148.242188 0)"/>
      <use xlink:href="#DejaVuSans-64" transform="translate(176.025391 0)"/>
      <use xlink:href="#DejaVuSans-61" transform="translate(239.501953 0)"/>
      <use xlink:href="#DejaVuSans-74" transform="translate(300.78125 0)"/>
      <use xlink:href="#DejaVuSans-65" transform="translate(339.990234 0)"/>
      <use xlink:href="#DejaVuSans-5f" transform="translate(401.513672 0)"/>
      <use xlink:href="#DejaVuSans-63" transform="translate(451.513672 0)"/>
      <use xlink:href="#DejaVuSans-6c" transform="translate(506.494141 0)"/>
      <use xlink:href="#DejaVuSans-65" transform="translate(534.277344 0)"/>
      <use xlink:href="#DejaVuSans-61" transform="translate(595.800781 0)"/>
      <use xlink:href="#DejaVuSans-6e" transform="translate(657.080078 0)"/>
      <use xlink:href="#DejaVuSans-69" transform="translate(720.458984 0)"/>
      <use xlink:href="#DejaVuSans-6e" transform="translate(748.242188 0)"/>
      <use xlink:href="#DejaVuSans-67" transform="translate(811.621094 0)"/>
     </g>
    </g>
   </g>
   <g id="text_11">
    <g clip-path="url(#p22e0f1c540)">
     <!-- update_iteration -->
     <g transform="translate(356.729814 72.585302) scale(0.08 -0.08)">
      <defs>
       <path id="DejaVuSans-6f" d="M 1959 3097 
Q 1497 3097 1228 2736 
Q 959 2375 959 1747 
Q 959 1119 1226 758 
Q 1494 397 1959 397 
Q 2419 397 2687 759 
Q 2956 1122 2956 1747 
Q 2956 2369 2687 2733 
Q 2419 3097 1959 3097 
z
M 1959 3584 
Q 2709 3584 3137 3096 
Q 3566 2609 3566 1747 
Q 3566 888 3137 398 
Q 2709 -91 1959 -91 
Q 1206 -91 779 398 
Q 353 888 353 1747 
Q 353 2609 779 3096 
Q 1206 3584 1959 3584 
z
" transform="scale(0.015625)"/>
      </defs>
      <use xlink:href="#DejaVuSans-75"/>
      <use xlink:href="#DejaVuSans-70" transform="translate(63.378906 0)"/>
      <use xlink:href="#DejaVuSans-64" transform="translate(126.855469 0)"/>
      <use xlink:href="#DejaVuSans-61" transform="translate(190.332031 0)"/>
      <use xlink:href="#DejaVuSans-74" transform="translate(251.611328 0)"/>
      <use xlink:href="#DejaVuSans-65" transform="translate(290.820312 0)"/>
      <use xlink:href="#DejaVuSans-5f" transform="translate(352.34375 0)"/>
      <use xlink:href="#DejaVuSans-69" transform="translate(402.34375 0)"/>
      <use xlink:href="#DejaVuSans-74" transform="translate(430.126953 0)"/>
      <use xlink:href="#DejaVuSans-65" transform="translate(469.335938 0)"/>
      <use xlink:href="#DejaVuSans-72" transform="translate(530.859375 0)"/>
      <use xlink:href="#DejaVuSans-61" transform="translate(571.972656 0)"/>
      <use xlink:href="#DejaVuSans-74" transform="translate(633.251953 0)"/>
      <use xlink:href="#DejaVuSans-69" transform="translate(672.460938 0)"/>
      <use xlink:href="#DejaVuSans-6f" transform="translate(700.244141 0)"/>
      <use xlink:href="#DejaVuSans-6e" transform="translate(761.425781 0)"/>
     </g>
    </g>
   </g>
   <g id="text_12">
    <g clip-path="url(#p22e0f1c540)">
     <!-- retry_check -->
     <g transform="translate(521.126183 294.734063) scale(0.08 -0.08)">
      <use xlink:href="#DejaVuSans-72"/>
      <use xlink:href="#DejaVuSans-65" transform="translate(38.863281 0)"/>
      <use xlink:href="#DejaVuSans-74" transform="translate(100.386719 0)"/>
      <use xlink:href="#DejaVuSans-72" transform="translate(139.595703 0)"/>
      <use xlink:href="#DejaVuSans-79" transform="translate(180.708984 0)"/>
      <use xlink:href="#DejaVuSans-5f" transform="translate(239.888672 0)"/>
      <use xlink:href="#DejaVuSans-63" transform="translate(289.888672 0)"/>
      <use xlink:href="#DejaVuSans-68" transform="translate(344.869141 0)"/>
      <use xlink:href="#DejaVuSans-65" transform="translate(408.248047 0)"/>
      <use xlink:href="#DejaVuSans-63" transform="translate(469.771484 0)"/>
      <use xlink:href="#DejaVuSans-6b" transform="translate(524.751953 0)"/>
     </g>
    </g>
   </g>
   <g id="text_13">
    <g clip-path="url(#p22e0f1c540)">
     <!-- human_review -->
     <g transform="translate(592.609055 405.808443) scale(0.08 -0.08)">
      <defs>
       <path id="DejaVuSans-6d" d="M 3328 2828 
Q 3544 3216 3844 3400 
Q 4144 3584 4550 3584 
Q 5097 3584 5394 3201 
Q 5691 2819 5691 2113 
L 5691 0 
L 5113 0 
L 5113 2094 
Q 5113 2597 4934 2840 
Q 4756 3084 4391 3084 
Q 3944 3084 3684 2787 
Q 3425 2491 3425 1978 
L 3425 0 
L 2847 0 
L 2847 2094 
Q 2847 2600 2669 2842 
Q 2491 3084 2119 3084 
Q 1678 3084 1418 2786 
Q 1159 2488 1159 1978 
L 1159 0 
L 581 0 
L 581 3500 
L 1159 3500 
L 1159 2956 
Q 1356 3278 1631 3431 
Q 1906 3584 2284 3584 
Q 2666 3584 2933 3390 
Q 3200 3197 3328 2828 
z
" transform="scale(0.015625)"/>
       <path id="DejaVuSans-77" d="M 269 3500 
L 844 3500 
L 1563 769 
L 2278 3500 
L 2956 3500 
L 3675 769 
L 4391 3500 
L 4966 3500 
L 4050 0 
L 3372 0 
L 2619 2869 
L 1863 0 
L 1184 0 
L 269 3500 
z
" transform="scale(0.015625)"/>
      </defs>
      <use xlink:href="#DejaVuSans-68"/>
      <use xlink:href="#DejaVuSans-75" transform="translate(63.378906 0)"/>
      <use xlink:href="#DejaVuSans-6d" transform="translate(126.757812 0)"/>
      <use xlink:href="#DejaVuSans-61" transform="translate(224.169922 0)"/>
      <use xlink:href="#DejaVuSans-6e" transform="translate(285.449219 0)"/>
      <use xlink:href="#DejaVuSans-5f" transform="translate(348.828125 0)"/>
      <use xlink:href="#DejaVuSans-72" transform="translate(398.828125 0)"/>
      <use xlink:href="#DejaVuSans-65" transform="translate(437.691406 0)"/>
      <use xlink:href="#DejaVuSans-76" transform="translate(499.214844 0)"/>
      <use xlink:href="#DejaVuSans-69" transform="translate(558.394531 0)"/>
      <use xlink:href="#DejaVuSans-65" transform="translate(586.177734 0)"/>
      <use xlink:href="#DejaVuSans-77" transform="translate(647.701172 0)"/>
     </g>
    </g>
   </g>
   <g id="text_14">
    <g clip-path="url(#p22e0f1c540)">
     <!-- document_changes -->
     <g transform="translate(737.512299 516.882823) scale(0.08 -0.08)">
      <use xlink:href="#DejaVuSans-64"/>
      <use xlink:href="#DejaVuSans-6f" transform="translate(63.476562 0)"/>
      <use xlink:href="#DejaVuSans-63" transform="translate(124.658203 0)"/>
      <use xlink:href="#DejaVuSans-75" transform="translate(179.638672 0)"/>
      <use xlink:href="#DejaVuSans-6d" transform="translate(243.017578 0)"/>
      <use xlink:href="#DejaVuSans-65" transform="translate(340.429688 0)"/>
      <use xlink:href="#DejaVuSans-6e" transform="translate(401.953125 0)"/>
      <use xlink:href="#DejaVuSans-74" transform="translate(465.332031 0)"/>
      <use xlink:href="#DejaVuSans-5f" transform="translate(504.541016 0)"/>
      <use xlink:href="#DejaVuSans-63" transform="translate(554.541016 0)"/>
      <use xlink:href="#DejaVuSans-68" transform="translate(609.521484 0)"/>
      <use xlink:href="#DejaVuSans-61" transform="translate(672.900391 0)"/>
      <use xlink:href="#DejaVuSans-6e" transform="translate(734.179688 0)"/>
      <use xlink:href="#DejaVuSans-67" transform="translate(797.558594 0)"/>
      <use xlink:href="#DejaVuSans-65" transform="translate(861.035156 0)"/>
      <use xlink:href="#DejaVuSans-73" transform="translate(922.558594 0)"/>
     </g>
    </g>
   </g>
   <g id="text_15">
    <g clip-path="url(#p22e0f1c540)">
     <!-- complete -->
     <g transform="translate(641.781741 350.382503) scale(0.08 -0.08)">
      <use xlink:href="#DejaVuSans-63"/>
      <use xlink:href="#DejaVuSans-6f" transform="translate(54.980469 0)"/>
      <use xlink:href="#DejaVuSans-6d" transform="translate(116.162109 0)"/>
      <use xlink:href="#DejaVuSans-70" transform="translate(213.574219 0)"/>
      <use xlink:href="#DejaVuSans-6c" transform="translate(277.050781 0)"/>
      <use xlink:href="#DejaVuSans-65" transform="translate(304.833984 0)"/>
      <use xlink:href="#DejaVuSans-74" transform="translate(366.357422 0)"/>
      <use xlink:href="#DejaVuSans-65" transform="translate(405.566406 0)"/>
     </g>
    </g>
   </g>
   <g id="text_16">
    <!-- data_cleaning -->
    <g transform="translate(373.698281 17.837812) scale(0.14 -0.14)">
     <defs>
      <path id="DejaVuSans-Bold-64" d="M 2919 2988 
L 2919 4863 
L 4044 4863 
L 4044 0 
L 2919 0 
L 2919 506 
Q 2688 197 2409 53 
Q 2131 -91 1766 -91 
Q 1119 -91 703 423 
Q 288 938 288 1747 
Q 288 2556 703 3070 
Q 1119 3584 1766 3584 
Q 2128 3584 2408 3439 
Q 2688 3294 2919 2988 
z
M 2181 722 
Q 2541 722 2730 984 
Q 2919 1247 2919 1747 
Q 2919 2247 2730 2509 
Q 2541 2772 2181 2772 
Q 1825 2772 1636 2509 
Q 1447 2247 1447 1747 
Q 1447 1247 1636 984 
Q 1825 722 2181 722 
z
" transform="scale(0.015625)"/>
      <path id="DejaVuSans-Bold-61" d="M 2106 1575 
Q 1756 1575 1579 1456 
Q 1403 1338 1403 1106 
Q 1403 894 1545 773 
Q 1688 653 1941 653 
Q 2256 653 2472 879 
Q 2688 1106 2688 1447 
L 2688 1575 
L 2106 1575 
z
M 3816 1997 
L 3816 0 
L 2688 0 
L 2688 519 
Q 2463 200 2181 54 
Q 1900 -91 1497 -91 
Q 953 -91 614 226 
Q 275 544 275 1050 
Q 275 1666 698 1953 
Q 1122 2241 2028 2241 
L 2688 2241 
L 2688 2328 
Q 2688 2594 2478 2717 
Q 2269 2841 1825 2841 
Q 1466 2841 1156 2769 
Q 847 2697 581 2553 
L 581 3406 
Q 941 3494 1303 3539 
Q 1666 3584 2028 3584 
Q 2975 3584 3395 3211 
Q 3816 2838 3816 1997 
z
" transform="scale(0.015625)"/>
      <path id="DejaVuSans-Bold-74" d="M 1759 4494 
L 1759 3500 
L 2913 3500 
L 2913 2700 
L 1759 2700 
L 1759 1216 
Q 1759 972 1856 886 
Q 1953 800 2241 800 
L 2816 800 
L 2816 0 
L 1856 0 
Q 1194 0 917 276 
Q 641 553 641 1216 
L 641 2700 
L 84 2700 
L 84 3500 
L 641 3500 
L 641 4494 
L 1759 4494 
z
" transform="scale(0.015625)"/>
      <path id="DejaVuSans-Bold-5f" d="M 3200 -916 
L 3200 -1509 
L 0 -1509 
L 0 -916 
L 3200 -916 
z
" transform="scale(0.015625)"/>
      <path id="DejaVuSans-Bold-63" d="M 3366 3391 
L 3366 2478 
Q 3138 2634 2908 2709 
Q 2678 2784 2431 2784 
Q 1963 2784 1702 2511 
Q 1441 2238 1441 1747 
Q 1441 1256 1702 982 
Q 1963 709 2431 709 
Q 2694 709 2930 787 
Q 3166 866 3366 1019 
L 3366 103 
Q 3103 6 2833 -42 
Q 2563 -91 2291 -91 
Q 1344 -91 809 395 
Q 275 881 275 1747 
Q 275 2613 809 3098 
Q 1344 3584 2291 3584 
Q 2566 3584 2833 3536 
Q 3100 3488 3366 3391 
z
" transform="scale(0.015625)"/>
      <path id="DejaVuSans-Bold-6c" d="M 538 4863 
L 1656 4863 
L 1656 0 
L 538 0 
L 538 4863 
z
" transform="scale(0.015625)"/>
      <path id="DejaVuSans-Bold-65" d="M 4031 1759 
L 4031 1441 
L 1416 1441 
Q 1456 1047 1700 850 
Q 1944 653 2381 653 
Q 2734 653 3104 758 
Q 3475 863 3866 1075 
L 3866 213 
Q 3469 63 3072 -14 
Q 2675 -91 2278 -91 
Q 1328 -91 801 392 
Q 275 875 275 1747 
Q 275 2603 792 3093 
Q 1309 3584 2216 3584 
Q 3041 3584 3536 3087 
Q 4031 2591 4031 1759 
z
M 2881 2131 
Q 2881 2450 2695 2645 
Q 2509 2841 2209 2841 
Q 1884 2841 1681 2658 
Q 1478 2475 1428 2131 
L 2881 2131 
z
" transform="scale(0.015625)"/>
      <path id="DejaVuSans-Bold-6e" d="M 4056 2131 
L 4056 0 
L 2931 0 
L 2931 347 
L 2931 1631 
Q 2931 2084 2911 2256 
Q 2891 2428 2841 2509 
Q 2775 2619 2662 2680 
Q 2550 2741 2406 2741 
Q 2056 2741 1856 2470 
Q 1656 2200 1656 1722 
L 1656 0 
L 538 0 
L 538 3500 
L 1656 3500 
L 1656 2988 
Q 1909 3294 2193 3439 
Q 2478 3584 2822 3584 
Q 3428 3584 3742 3212 
Q 4056 2841 4056 2131 
z
" transform="scale(0.015625)"/>
      <path id="DejaVuSans-Bold-69" d="M 538 3500 
L 1656 3500 
L 1656 0 
L 538 0 
L 538 3500 
z
M 538 4863 
L 1656 4863 
L 1656 3950 
L 538 3950 
L 538 4863 
z
" transform="scale(0.015625)"/>
      <path id="DejaVuSans-Bold-67" d="M 2919 594 
Q 2688 288 2409 144 
Q 2131 0 1766 0 
Q 1125 0 706 504 
Q 288 1009 288 1791 
Q 288 2575 706 3076 
Q 1125 3578 1766 3578 
Q 2131 3578 2409 3434 
Q 2688 3291 2919 2981 
L 2919 3500 
L 4044 3500 
L 4044 353 
Q 4044 -491 3511 -936 
Q 2978 -1381 1966 -1381 
Q 1638 -1381 1331 -1331 
Q 1025 -1281 716 -1178 
L 716 -306 
Q 1009 -475 1290 -558 
Q 1572 -641 1856 -641 
Q 2406 -641 2662 -400 
Q 2919 -159 2919 353 
L 2919 594 
z
M 2181 2772 
Q 1834 2772 1640 2515 
Q 1447 2259 1447 1791 
Q 1447 1309 1634 1061 
Q 1822 813 2181 813 
Q 2531 813 2725 1069 
Q 2919 1325 2919 1791 
Q 2919 2259 2725 2515 
Q 2531 2772 2181 2772 
z
" transform="scale(0.015625)"/>
     </defs>
     <use xlink:href="#DejaVuSans-Bold-64"/>
     <use xlink:href="#DejaVuSans-Bold-61" transform="translate(71.582031 0)"/>
     <use xlink:href="#DejaVuSans-Bold-74" transform="translate(139.0625 0)"/>
     <use xlink:href="#DejaVuSans-Bold-61" transform="translate(186.865234 0)"/>
     <use xlink:href="#DejaVuSans-Bold-5f" transform="translate(254.345703 0)"/>
     <use xlink:href="#DejaVuSans-Bold-63" transform="translate(304.345703 0)"/>
     <use xlink:href="#DejaVuSans-Bold-6c" transform="translate(363.623047 0)"/>
     <use xlink:href="#DejaVuSans-Bold-65" transform="translate(397.900391 0)"/>
     <use xlink:href="#DejaVuSans-Bold-61" transform="translate(465.722656 0)"/>
     <use xlink:href="#DejaVuSans-Bold-6e" transform="translate(533.203125 0)"/>
     <use xlink:href="#DejaVuSans-Bold-69" transform="translate(604.394531 0)"/>
     <use xlink:href="#DejaVuSans-Bold-6e" transform="translate(638.671875 0)"/>
     <use xlink:href="#DejaVuSans-Bold-67" transform="translate(709.863281 0)"/>
    </g>
   </g>
  </g>
 </g>
 <defs>
  <clipPath id="p22e0f1c540">
   <rect x="7.2" y="23.837812" width="842.4" height="537.6"/>
  </clipPath>
 </defs>
</svg>
