<?xml version="1.0" encoding="utf-8" standalone="no"?>
<!DOCTYPE svg PUBLIC "-//W3C//DTD SVG 1.1//EN"
  "http://www.w3.org/Graphics/SVG/1.1/DTD/svg11.dtd">
<svg xmlns:xlink="http://www.w3.org/1999/xlink" width="856.8pt" height="568.637812pt" viewBox="0 0 856.8 568.637812" xmlns="http://www.w3.org/2000/svg" version="1.1">
 <metadata>
  <rdf:RDF xmlns:dc="http://purl.org/dc/elements/1.1/" xmlns:cc="http://creativecommons.org/ns#" xmlns:rdf="http://www.w3.org/1999/02/22-rdf-syntax-ns#">
   <cc:Work>
    <dc:type rdf:resource="http://purl.org/dc/dcmitype/StillImage"/>
    <dc:date>2026-01-03T04:01:03.242752</dc:date>
    <dc:format>image/svg+xml</dc:format>
    <dc:creator>
     <cc:Agent>
      <dc:title>Matplotlib v3.10.8, https://matplotlib.org/</dc:title>
     </cc:Agent>
    </dc:creator>
   </cc:Work>
  </rdf:RDF>
 </metadata>
 <defs>
  <style type="text/css">*{stroke-linejoin: round; stroke-linecap: butt}</style>
 </defs>
 <g id="figure_1">
  <g id="patch_1">
   <path d="M 0 568.637812 
L 856.8 568.637812 
L 856.8 0 
L 0 0 
z
" style="fill: #ffffff"/>
  </g>
  <g id="axes_1">
   <g id="patch_2">
    <path d="M 118.978512 484.815543 
Q 118.978512 485.813032 118.978512 485.692486 
" clip-path="url(#pfa341144d4)" style="fill: none; stroke: #666666; stroke-linecap: round"/>
    <path d="M 120.978512 481.692486 
L 118.978512 485.692486 
L 116.978512 481.692486 
z
" clip-path="url(#pfa341144d4)" style="fill: #666666; stroke: #666666; stroke-linecap: round"/>
   </g>
   <g id="patch_3">
    <path d="M 111.23306 499.337698 
Q 99.639136 505.128197 89.045436 510.419143 
" clip-path="url(#pfa341144d4)" style="fill: none; stroke: #666666; stroke-linecap: round"/>
    <path d="M 93.517571 510.421137 
L 89.045436 510.419143 
L 91.730313 506.842631 
z
" clip-path="url(#pfa341144d4)" style="fill: #666666; stroke: #666666; stroke-linecap: round"/>
   </g>
   <g id="patch_4">
    <path d="M 88.961344 514.786573 
Q 428.401412 514.786573 766.723446 514.786573 
" clip-path="url(#pfa341144d4)" style="fill: none; stroke: #666666; stroke-linecap: round"/>
    <path d="M 762.723446 512.786573 
L 766.723446 514.786573 
L 762.723446 516.786573 
z
" clip-path="url(#pfa341144d4)" style="fill: #666666; stroke: #666666; stroke-linecap: round"/>
   </g>
   <g id="patch_5">
    <path d="M 85.106815 507.585626 
Q 112.531148 466.494988 139.334827 426.33429 
" clip-path="url(#pfa341144d4)" style="fill: none; stroke: #666666; stroke-linecap: round"/>
    <path d="M 135.450784 428.551091 
L 139.334827 426.33429 
L 138.777842 430.771606 
z
" clip-path="url(#pfa341144d4)" style="fill: #666666; stroke: #666666; stroke-linecap: round"/>
   </g>
   <g id="patch_6">
    <path d="M 144.763636 426.863693 
Q 144.763636 427.861181 144.763636 427.740635 
" clip-path="url(#pfa341144d4)" style="fill: none; stroke: #666666; stroke-linecap: round"/>
    <path d="M 146.763636 423.740635 
L 144.763636 427.740635 
L 142.763636 423.740635 
z
" clip-path="url(#pfa341144d4)" style="fill: #666666; stroke: #666666; stroke-linecap: round"/>
   </g>
   <g id="patch_7">
    <path d="M 151.6915 442.707544 
Q 157.654602 447.174885 162.722918 450.971884 
" clip-path="url(#pfa341144d4)" style="fill: none; stroke: #666666; stroke-linecap: round"/>
    <path d="M 160.720777 446.972955 
L 162.722918 450.971884 
L 158.32249 450.17424 
z
" clip-path="url(#pfa341144d4)" style="fill: #666666; stroke: #666666; stroke-linecap: round"/>
   </g>
   <g id="patch_8">
    <path d="M 165.740804 449.630828 
Q 157.655427 437.516284 150.190703 426.33168 
" clip-path="url(#pfa341144d4)" style="fill: none; stroke: #666666; stroke-linecap: round"/>
    <path d="M 150.747688 430.768995 
L 150.190703 426.33168 
L 154.074746 428.548481 
z
" clip-path="url(#pfa341144d4)" style="fill: #666666; stroke: #666666; stroke-linecap: round"/>
   </g>
   <g id="patch_9">
    <path d="M 179.17072 457.659309 
Q 473.526063 485.810848 766.76845 513.855946 
" clip-path="url(#pfa341144d4)" style="fill: none; stroke: #666666; stroke-linecap: round"/>
    <path d="M 762.977025 511.484217 
L 766.76845 513.855946 
L 762.596211 515.466048 
z
" clip-path="url(#pfa341144d4)" style="fill: #666666; stroke: #666666; stroke-linecap: round"/>
   </g>
   <g id="patch_10">
    <path d="M 771.693185 507.585626 
Q 744.268852 466.494988 717.465173 426.33429 
" clip-path="url(#pfa341144d4)" style="fill: none; stroke: #666666; stroke-linecap: round"/>
    <path d="M 718.022158 430.771606 
L 717.465173 426.33429 
L 721.349216 428.551091 
z
" clip-path="url(#pfa341144d4)" style="fill: #666666; stroke: #666666; stroke-linecap: round"/>
   </g>
   <g id="patch_11">
    <path d="M 188.249278 430.313545 
Q 209.226522 398.882759 229.583112 368.381914 
" clip-path="url(#pfa341144d4)" style="fill: none; stroke: #666666; stroke-linecap: round"/>
    <path d="M 225.699069 370.598715 
L 229.583112 368.381914 
L 229.026127 372.819229 
z
" clip-path="url(#pfa341144d4)" style="fill: #666666; stroke: #666666; stroke-linecap: round"/>
   </g>
   <g id="patch_12">
    <path d="M 239.819526 367.452199 
Q 241.458751 369.908295 242.477324 371.43445 
" clip-path="url(#pfa341144d4)" style="fill: none; stroke: #666666; stroke-linecap: round"/>
    <path d="M 241.920338 366.997135 
L 242.477324 371.43445 
L 238.59328 369.217649 
z
" clip-path="url(#pfa341144d4)" style="fill: #666666; stroke: #666666; stroke-linecap: round"/>
   </g>
   <g id="patch_13">
    <path d="M 252.712088 386.769482 
Q 254.351313 389.225579 255.369886 390.751734 
" clip-path="url(#pfa341144d4)" style="fill: none; stroke: #666666; stroke-linecap: round"/>
    <path d="M 254.8129 386.314418 
L 255.369886 390.751734 
L 251.485842 388.534933 
z
" clip-path="url(#pfa341144d4)" style="fill: #666666; stroke: #666666; stroke-linecap: round"/>
   </g>
   <g id="patch_14">
    <path d="M 269.448163 399.253236 
Q 486.415048 408.54145 702.264922 417.781846 
" clip-path="url(#pfa341144d4)" style="fill: none; stroke: #666666; stroke-linecap: round"/>
    <path d="M 698.354123 415.612595 
L 702.264922 417.781846 
L 698.183042 419.608935 
z
" clip-path="url(#pfa341144d4)" style="fill: #666666; stroke: #666666; stroke-linecap: round"/>
   </g>
   <g id="patch_15">
    <path d="M 707.227621 410.995082 
Q 692.696265 389.222348 678.785562 368.379555 
" clip-path="url(#pfa341144d4)" style="fill: none; stroke: #666666; stroke-linecap: round"/>
    <path d="M 679.342547 372.816871 
L 678.785562 368.379555 
L 682.669605 370.596357 
z
" clip-path="url(#pfa341144d4)" style="fill: #666666; stroke: #666666; stroke-linecap: round"/>
   </g>
   <g id="patch_16">
    <path d="M 668.550722 353.044411 
Q 666.911497 350.588314 665.892924 349.062159 
" clip-path="url(#pfa341144d4)" style="fill: none; stroke: #666666; stroke-linecap: round"/>
    <path d="M 666.44991 353.499475 
L 665.892924 349.062159 
L 669.776968 351.27896 
z
" clip-path="url(#pfa341144d4)" style="fill: #666666; stroke: #666666; stroke-linecap: round"/>
   </g>
   <g id="patch_17">
    <path d="M 651.846615 341.79201 
Q 467.07685 360.248388 283.419582 378.59364 
" clip-path="url(#pfa341144d4)" style="fill: none; stroke: #666666; stroke-linecap: round"/>
    <path d="M 287.598563 380.186161 
L 283.419582 378.59364 
L 287.200987 376.205969 
z
" clip-path="url(#pfa341144d4)" style="fill: #666666; stroke: #666666; stroke-linecap: round"/>
   </g>
   <g id="patch_18">
    <path d="M 655.660127 333.730075 
Q 570.218538 205.71057 485.397601 78.621007 
" clip-path="url(#pfa341144d4)" style="fill: none; stroke: #666666; stroke-linecap: round"/>
    <path d="M 485.954587 83.058322 
L 485.397601 78.621007 
L 489.281645 80.837808 
z
" clip-path="url(#pfa341144d4)" style="fill: #666666; stroke: #666666; stroke-linecap: round"/>
   </g>
   <g id="patch_19">
    <path d="M 655.412253 333.899561 
Q 570.219708 215.370802 485.679687 97.749904 
" clip-path="url(#pfa341144d4)" style="fill: none; stroke: #666666; stroke-linecap: round"/>
    <path d="M 486.390201 102.165237 
L 485.679687 97.749904 
L 489.638262 99.830693 
z
" clip-path="url(#pfa341144d4)" style="fill: #666666; stroke: #666666; stroke-linecap: round"/>
   </g>
   <g id="patch_20">
    <path d="M 475.161505 77.694125 
Q 460.630149 99.466859 446.719446 120.309652 
" clip-path="url(#pfa341144d4)" style="fill: none; stroke: #666666; stroke-linecap: round"/>
    <path d="M 450.603489 118.092851 
L 446.719446 120.309652 
L 447.276431 115.872337 
z
" clip-path="url(#pfa341144d4)" style="fill: #666666; stroke: #666666; stroke-linecap: round"/>
   </g>
   <g id="patch_21">
    <path d="M 479.970248 98.469873 
Q 479.970248 99.467361 479.970248 99.346816 
" clip-path="url(#pfa341144d4)" style="fill: none; stroke: #666666; stroke-linecap: round"/>
    <path d="M 481.970248 95.346816 
L 479.970248 99.346816 
L 477.970248 95.346816 
z
" clip-path="url(#pfa341144d4)" style="fill: #666666; stroke: #666666; stroke-linecap: round"/>
   </g>
   <g id="patch_22">
    <path d="M 472.224796 112.992028 
Q 460.630872 118.782527 450.037171 124.073473 
" clip-path="url(#pfa341144d4)" style="fill: none; stroke: #666666; stroke-linecap: round"/>
    <path d="M 454.509307 124.075467 
L 450.037171 124.073473 
L 452.722048 120.496961 
z
" clip-path="url(#pfa341144d4)" style="fill: #666666; stroke: #666666; stroke-linecap: round"/>
   </g>
   <g id="patch_23">
    <path d="M 436.487163 135.640965 
Q 357.491575 254.002247 279.11664 371.433588 
" clip-path="url(#pfa341144d4)" style="fill: none; stroke: #666666; stroke-linecap: round"/>
    <path d="M 283.000684 369.216787 
L 279.11664 371.433588 
L 279.673625 366.996273 
z
" clip-path="url(#pfa341144d4)" style="fill: #666666; stroke: #666666; stroke-linecap: round"/>
   </g>
   <g id="patch_24">
    <path d="M 280.128062 373.777124 
Q 305.919066 350.591097 330.878627 328.152535 
" clip-path="url(#pfa341144d4)" style="fill: none; stroke: #666666; stroke-linecap: round"/>
    <path d="M 326.566862 329.339414 
L 330.878627 328.152535 
L 329.241072 332.314075 
z
" clip-path="url(#pfa341144d4)" style="fill: #666666; stroke: #666666; stroke-linecap: round"/>
   </g>
   <g id="patch_25">
    <path d="M 441.292562 156.421724 
Q 441.292562 157.419212 441.292562 157.298666 
" clip-path="url(#pfa341144d4)" style="fill: none; stroke: #666666; stroke-linecap: round"/>
    <path d="M 443.292562 153.298666 
L 441.292562 157.298666 
L 439.292562 153.298666 
z
" clip-path="url(#pfa341144d4)" style="fill: #666666; stroke: #666666; stroke-linecap: round"/>
   </g>
   <g id="patch_26">
    <path d="M 436.484606 174.279364 
Q 434.845381 176.73546 433.826809 178.261615 
" clip-path="url(#pfa341144d4)" style="fill: none; stroke: #666666; stroke-linecap: round"/>
    <path d="M 437.710852 176.044814 
L 433.826809 178.261615 
L 434.383794 173.8243 
z
" clip-path="url(#pfa341144d4)" style="fill: #666666; stroke: #666666; stroke-linecap: round"/>
   </g>
   <g id="patch_27">
    <path d="M 423.594011 193.5937 
Q 383.275833 254.003546 343.578307 313.483451 
" clip-path="url(#pfa341144d4)" style="fill: none; stroke: #666666; stroke-linecap: round"/>
    <path d="M 347.46235 311.26665 
L 343.578307 313.483451 
L 344.135292 309.046136 
z
" clip-path="url(#pfa341144d4)" style="fill: #666666; stroke: #666666; stroke-linecap: round"/>
   </g>
   <g id="patch_28">
    <path d="M 343.470327 314.783597 
Q 383.274631 263.663687 422.392053 213.425929 
" clip-path="url(#pfa341144d4)" style="fill: none; stroke: #666666; stroke-linecap: round"/>
    <path d="M 418.356543 215.353275 
L 422.392053 213.425929 
L 421.512624 217.810744 
z
" clip-path="url(#pfa341144d4)" style="fill: #666666; stroke: #666666; stroke-linecap: round"/>
   </g>
   <g id="patch_29">
    <path d="M 432.277447 213.456286 
Q 447.739382 244.345681 462.70087 274.235298 
" clip-path="url(#pfa341144d4)" style="fill: none; stroke: #666666; stroke-linecap: round"/>
    <path d="M 462.698874 269.763163 
L 462.70087 274.235298 
L 459.121964 271.553614 
z
" clip-path="url(#pfa341144d4)" style="fill: #666666; stroke: #666666; stroke-linecap: round"/>
   </g>
   <g id="patch_30">
    <path d="M 428.4 214.373574 
Q 428.4 215.371062 428.4 215.250517 
" clip-path="url(#pfa341144d4)" style="fill: none; stroke: #666666; stroke-linecap: round"/>
    <path d="M 430.4 211.250517 
L 428.4 215.250517 
L 426.4 211.250517 
z
" clip-path="url(#pfa341144d4)" style="fill: #666666; stroke: #666666; stroke-linecap: round"/>
   </g>
   <g id="patch_31">
    <path d="M 431.920589 213.62253 
Q 441.292376 234.685544 450.209664 254.727074 
" clip-path="url(#pfa341144d4)" style="fill: none; stroke: #666666; stroke-linecap: round"/>
    <path d="M 450.410883 250.259468 
L 450.209664 254.727074 
L 446.75631 251.885535 
z
" clip-path="url(#pfa341144d4)" style="fill: #666666; stroke: #666666; stroke-linecap: round"/>
   </g>
   <g id="patch_32">
    <path d="M 428.4 233.690858 
Q 428.4 234.688346 428.4 234.5678 
" clip-path="url(#pfa341144d4)" style="fill: none; stroke: #666666; stroke-linecap: round"/>
    <path d="M 430.4 230.5678 
L 428.4 234.5678 
L 426.4 230.5678 
z
" clip-path="url(#pfa341144d4)" style="fill: #666666; stroke: #666666; stroke-linecap: round"/>
   </g>
   <g id="patch_33">
    <path d="M 424.879411 252.257097 
Q 415.507624 273.320111 406.590336 293.361641 
" clip-path="url(#pfa341144d4)" style="fill: none; stroke: #666666; stroke-linecap: round"/>
    <path d="M 410.04369 290.520102 
L 406.590336 293.361641 
L 406.389117 288.894035 
z
" clip-path="url(#pfa341144d4)" style="fill: #666666; stroke: #666666; stroke-linecap: round"/>
   </g>
   <g id="patch_34">
    <path d="M 394.31702 304.783036 
Q 370.380754 311.95591 347.515468 318.807849 
" clip-path="url(#pfa341144d4)" style="fill: none; stroke: #666666; stroke-linecap: round"/>
    <path d="M 351.921233 319.575462 
L 347.515468 318.807849 
L 350.773018 315.743804 
z
" clip-path="url(#pfa341144d4)" style="fill: #666666; stroke: #666666; stroke-linecap: round"/>
   </g>
   <g id="patch_35">
    <path d="M 410.912732 299.809873 
Q 434.848998 292.636998 457.714284 285.78506 
" clip-path="url(#pfa341144d4)" style="fill: none; stroke: #666666; stroke-linecap: round"/>
    <path d="M 453.308519 285.017447 
L 457.714284 285.78506 
L 454.456734 288.849104 
z
" clip-path="url(#pfa341144d4)" style="fill: #666666; stroke: #666666; stroke-linecap: round"/>
   </g>
   <g id="patch_36">
    <path d="M 462.26973 275.775277 
Q 460.630505 273.31918 459.611933 271.793025 
" clip-path="url(#pfa341144d4)" style="fill: none; stroke: #666666; stroke-linecap: round"/>
    <path d="M 460.168918 276.230341 
L 459.611933 271.793025 
L 463.495976 274.009826 
z
" clip-path="url(#pfa341144d4)" style="fill: #666666; stroke: #666666; stroke-linecap: round"/>
   </g>
   <g id="text_1">
    <g id="patch_37">
     <path d="M 416.086334 520.273917 
L 440.71649 520.273917 
Q 442.81649 520.273917 442.81649 518.173917 
L 442.81649 511.399229 
Q 442.81649 509.299229 440.71649 509.299229 
L 416.086334 509.299229 
Q 413.986334 509.299229 413.986334 511.399229 
L 413.986334 518.173917 
Q 413.986334 520.273917 416.086334 520.273917 
z
" clip-path="url(#pfa341144d4)" style="fill: #ffffff; stroke: #ffffff; stroke-linejoin: miter"/>
    </g>
    <g clip-path="url(#pfa341144d4)">
     <!-- default -->
     <g transform="translate(416.086334 516.718135) scale(0.07 -0.07)">
      <defs>
       <path id="DejaVuSans-64" d="M 2906 2969 
L 2906 4863 
L 3481 4863 
L 3481 0 
L 2906 0 
L 2906 525 
Q 2725 213 2448 61 
Q 2172 -91 1784 -91 
Q 1150 -91 751 415 
Q 353 922 353 1747 
Q 353 2572 751 3078 
Q 1150 3584 1784 3584 
Q 2172 3584 2448 3432 
Q 2725 3281 2906 2969 
z
M 947 1747 
Q 947 1113 1208 752 
Q 1469 391 1925 391 
Q 2381 391 2643 752 
Q 2906 1113 2906 1747 
Q 2906 2381 2643 2742 
Q 2381 3103 1925 3103 
Q 1469 3103 1208 2742 
Q 947 2381 947 1747 
z
" transform="scale(0.015625)"/>
       <path id="DejaVuSans-65" d="M 3597 1894 
L 3597 1613 
L 953 1613 
Q 991 1019 1311 708 
Q 1631 397 2203 397 
Q 2534 397 2845 478 
Q 3156 559 3463 722 
L 3463 178 
Q 3153 47 2828 -22 
Q 2503 -91 2169 -91 
Q 1331 -91 842 396 
Q 353 884 353 1716 
Q 353 2575 817 3079 
Q 1281 3584 2069 3584 
Q 2775 3584 3186 3129 
Q 3597 2675 3597 1894 
z
M 3022 2063 
Q 3016 2534 2758 2815 
Q 2500 3097 2075 3097 
Q 1594 3097 1305 2825 
Q 1016 2553 972 2059 
L 3022 2063 
z
" transform="scale(0.015625)"/>
       <path id="DejaVuSans-66" d="M 2375 4863 
L 2375 4384 
L 1825 4384 
Q 1516 4384 1395 4259 
Q 1275 4134 1275 3809 
L 1275 3500 
L 2222 3500 
L 2222 3053 
L 1275 3053 
L 1275 0 
L 697 0 
L 697 3053 
L 147 3053 
L 147 3500 
L 697 3500 
L 697 3744 
Q 697 4328 969 4595 
Q 1241 4863 1831 4863 
L 2375 4863 
z
" transform="scale(0.015625)"/>
       <path id="DejaVuSans-61" d="M 2194 1759 
Q 1497 1759 1228 1600 
Q 959 1441 959 1056 
Q 959 750 1161 570 
Q 1363 391 1709 391 
Q 2188 391 2477 730 
Q 2766 1069 2766 1631 
L 2766 1759 
L 2194 1759 
z
M 3341 1997 
L 3341 0 
L 2766 0 
L 2766 531 
Q 2569 213 2275 61 
Q 1981 -91 1556 -91 
Q 1019 -91 701 211 
Q 384 513 384 1019 
Q 384 1609 779 1909 
Q 1175 2209 1959 2209 
L 2766 2209 
L 2766 2266 
Q 2766 2663 2505 2880 
Q 2244 3097 1772 3097 
Q 1472 3097 1187 3025 
Q 903 2953 641 2809 
L 641 3341 
Q 956 3463 1253 3523 
Q 1550 3584 1831 3584 
Q 2591 3584 2966 3190 
Q 3341 2797 3341 1997 
z
" transform="scale(0.015625)"/>
       <path id="DejaVuSans-75" d="M 544 1381 
L 544 3500 
L 1119 3500 
L 1119 1403 
Q 1119 906 1312 657 
Q 1506 409 1894 409 
Q 2359 409 2629 706 
Q 2900 1003 2900 1516 
L 2900 3500 
L 3475 3500 
L 3475 0 
L 2900 0 
L 2900 538 
Q 2691 219 2414 64 
Q 2138 -91 1772 -91 
Q 1169 -91 856 284 
Q 544 659 544 1381 
z
M 1991 3584 
L 1991 3584 
z
" transform="scale(0.015625)"/>
       <path id="DejaVuSans-6c" d="M 603 4863 
L 1178 4863 
L 1178 0 
L 603 0 
L 603 4863 
z
" transform="scale(0.015625)"/>
       <path id="DejaVuSans-74" d="M 1172 4494 
L 1172 3500 
L 2356 3500 
L 2356 3053 
L 1172 3053 
L 1172 1153 
Q 1172 725 1289 603 
Q 1406 481 1766 481 
L 2356 481 
L 2356 0 
L 1766 0 
Q 1100 0 847 248 
Q 594 497 594 1153 
L 594 3053 
L 172 3053 
L 172 3500 
L 594 3500 
L 594 4494 
L 1172 4494 
z
" transform="scale(0.015625)"/>
      </defs>
      <use xlink:href="#DejaVuSans-64"/>
      <use xlink:href="#DejaVuSans-65" transform="translate(63.476562 0)"/>
      <use xlink:href="#DejaVuSans-66" transform="translate(125 0)"/>
      <use xlink:href="#DejaVuSans-61" transform="translate(160.205078 0)"/>
      <use xlink:href="#DejaVuSans-75" transform="translate(221.484375 0)"/>
      <use xlink:href="#DejaVuSans-6c" transform="translate(284.863281 0)"/>
      <use xlink:href="#DejaVuSans-74" transform="translate(312.646484 0)"/>
     </g>
    </g>
   </g>
   <g id="text_2">
    <g id="patch_38">
     <path d="M 112.47323 476.466584 
L 121.717422 462.615754 
Q 122.883192 460.869049 121.136486 459.703279 
L 115.501541 455.942456 
Q 113.754836 454.776686 112.589066 456.523392 
L 103.344874 470.374221 
Q 102.179104 472.120927 103.925809 473.286697 
L 109.560754 477.047519 
Q 111.30746 478.213289 112.47323 476.466584 
z
" clip-path="url(#pfa341144d4)" style="fill: #ffffff; stroke: #ffffff; stroke-linejoin: miter"/>
    </g>
    <g clip-path="url(#pfa341144d4)">
     <!-- false -->
     <g transform="translate(109.515657 474.492668) rotate(-56.280429) scale(0.07 -0.07)">
      <defs>
       <path id="DejaVuSans-73" d="M 2834 3397 
L 2834 2853 
Q 2591 2978 2328 3040 
Q 2066 3103 1784 3103 
Q 1356 3103 1142 2972 
Q 928 2841 928 2578 
Q 928 2378 1081 2264 
Q 1234 2150 1697 2047 
L 1894 2003 
Q 2506 1872 2764 1633 
Q 3022 1394 3022 966 
Q 3022 478 2636 193 
Q 2250 -91 1575 -91 
Q 1294 -91 989 -36 
Q 684 19 347 128 
L 347 722 
Q 666 556 975 473 
Q 1284 391 1588 391 
Q 1994 391 2212 530 
Q 2431 669 2431 922 
Q 2431 1156 2273 1281 
Q 2116 1406 1581 1522 
L 1381 1569 
Q 847 1681 609 1914 
Q 372 2147 372 2553 
Q 372 3047 722 3315 
Q 1072 3584 1716 3584 
Q 2034 3584 2315 3537 
Q 2597 3491 2834 3397 
z
" transform="scale(0.015625)"/>
      </defs>
      <use xlink:href="#DejaVuSans-66"/>
      <use xlink:href="#DejaVuSans-61" transform="translate(35.205078 0)"/>
      <use xlink:href="#DejaVuSans-6c" transform="translate(96.484375 0)"/>
      <use xlink:href="#DejaVuSans-73" transform="translate(124.267578 0)"/>
      <use xlink:href="#DejaVuSans-65" transform="translate(176.367188 0)"/>
     </g>
    </g>
   </g>
   <g id="text_3">
    <g id="patch_39">
     <path d="M 149.103952 434.588186 
L 157.078547 446.536744 
Q 158.244317 448.283449 159.991023 447.117679 
L 165.625967 443.356857 
Q 167.372673 442.191087 166.206903 440.444381 
L 158.232308 428.495823 
Q 157.066538 426.749118 155.319832 427.914888 
L 149.684887 431.67571 
Q 147.938182 432.84148 149.103952 434.588186 
z
" clip-path="url(#pfa341144d4)" style="fill: #ffffff; stroke: #ffffff; stroke-linejoin: miter"/>
    </g>
    <g clip-path="url(#pfa341144d4)">
     <!-- true -->
     <g transform="translate(152.061524 432.61427) rotate(-303.719571) scale(0.07 -0.07)">
      <defs>
       <path id="DejaVuSans-72" d="M 2631 2963 
Q 2534 3019 2420 3045 
Q 2306 3072 2169 3072 
Q 1681 3072 1420 2755 
Q 1159 2438 1159 1844 
L 1159 0 
L 581 0 
L 581 3500 
L 1159 3500 
L 1159 2956 
Q 1341 3275 1631 3429 
Q 1922 3584 2338 3584 
Q 2397 3584 2469 3576 
Q 2541 3569 2628 3553 
L 2631 2963 
z
" transform="scale(0.015625)"/>
      </defs>
      <use xlink:href="#DejaVuSans-74"/>
      <use xlink:href="#DejaVuSans-72" transform="translate(39.208984 0)"/>
      <use xlink:href="#DejaVuSans-75" transform="translate(80.322266 0)"/>
      <use xlink:href="#DejaVuSans-65" transform="translate(143.701172 0)"/>
     </g>
    </g>
   </g>
   <g id="text_4">
    <g id="patch_40">
     <path d="M 460.744507 490.100828 
L 485.262789 492.445706 
Q 487.353251 492.645634 487.553178 490.555172 
L 488.198152 483.811257 
Q 488.39808 481.720795 486.307618 481.520868 
L 461.789336 479.17599 
Q 459.698875 478.976062 459.498948 481.066524 
L 458.853973 487.810439 
Q 458.654046 489.900901 460.744507 490.100828 
z
" clip-path="url(#pfa341144d4)" style="fill: #ffffff; stroke: #ffffff; stroke-linejoin: miter"/>
    </g>
    <g clip-path="url(#pfa341144d4)">
     <!-- default -->
     <g transform="translate(461.08303 486.561198) rotate(-354.536965) scale(0.07 -0.07)">
      <use xlink:href="#DejaVuSans-64"/>
      <use xlink:href="#DejaVuSans-65" transform="translate(63.476562 0)"/>
      <use xlink:href="#DejaVuSans-66" transform="translate(125 0)"/>
      <use xlink:href="#DejaVuSans-61" transform="translate(160.205078 0)"/>
      <use xlink:href="#DejaVuSans-75" transform="translate(221.484375 0)"/>
      <use xlink:href="#DejaVuSans-6c" transform="translate(284.863281 0)"/>
      <use xlink:href="#DejaVuSans-74" transform="translate(312.646484 0)"/>
     </g>
    </g>
   </g>
   <g id="text_5">
    <g id="patch_41">
     <path d="M 455.368162 366.932603 
L 479.876354 364.484516 
Q 481.965955 364.275789 481.757228 362.186188 
L 481.083866 355.445047 
Q 480.875139 353.355446 478.785537 353.564173 
L 454.277346 356.01226 
Q 452.187744 356.220988 452.396472 358.310589 
L 453.069834 365.051729 
Q 453.278561 367.14133 455.368162 366.932603 
z
" clip-path="url(#pfa341144d4)" style="fill: #ffffff; stroke: #ffffff; stroke-linejoin: miter"/>
    </g>
    <g clip-path="url(#pfa341144d4)">
     <!-- default -->
     <g transform="translate(455.014739 363.394429) rotate(-5.704269) scale(0.07 -0.07)">
      <use xlink:href="#DejaVuSans-64"/>
      <use xlink:href="#DejaVuSans-65" transform="translate(63.476562 0)"/>
      <use xlink:href="#DejaVuSans-66" transform="translate(125 0)"/>
      <use xlink:href="#DejaVuSans-61" transform="translate(160.205078 0)"/>
      <use xlink:href="#DejaVuSans-75" transform="translate(221.484375 0)"/>
      <use xlink:href="#DejaVuSans-6c" transform="translate(284.863281 0)"/>
      <use xlink:href="#DejaVuSans-74" transform="translate(312.646484 0)"/>
     </g>
    </g>
   </g>
   <g id="text_6">
    <g id="patch_42">
     <path d="M 557.669139 196.792273 
L 573.639581 220.72123 
Q 574.805351 222.467935 576.552056 221.302165 
L 582.187001 217.541343 
Q 583.933707 216.375573 582.767937 214.628867 
L 566.797495 190.699911 
Q 565.631725 188.953205 563.885019 190.118975 
L 558.250074 193.879798 
Q 556.503369 195.045568 557.669139 196.792273 
z
" clip-path="url(#pfa341144d4)" style="fill: #ffffff; stroke: #ffffff; stroke-linejoin: miter"/>
    </g>
    <g clip-path="url(#pfa341144d4)">
     <!-- medium -->
     <g transform="translate(560.626712 194.818357) rotate(-303.719571) scale(0.07 -0.07)">
      <defs>
       <path id="DejaVuSans-6d" d="M 3328 2828 
Q 3544 3216 3844 3400 
Q 4144 3584 4550 3584 
Q 5097 3584 5394 3201 
Q 5691 2819 5691 2113 
L 5691 0 
L 5113 0 
L 5113 2094 
Q 5113 2597 4934 2840 
Q 4756 3084 4391 3084 
Q 3944 3084 3684 2787 
Q 3425 2491 3425 1978 
L 3425 0 
L 2847 0 
L 2847 2094 
Q 2847 2600 2669 2842 
Q 2491 3084 2119 3084 
Q 1678 3084 1418 2786 
Q 1159 2488 1159 1978 
L 1159 0 
L 581 0 
L 581 3500 
L 1159 3500 
L 1159 2956 
Q 1356 3278 1631 3431 
Q 1906 3584 2284 3584 
Q 2666 3584 2933 3390 
Q 3200 3197 3328 2828 
z
" transform="scale(0.015625)"/>
       <path id="DejaVuSans-69" d="M 603 3500 
L 1178 3500 
L 1178 0 
L 603 0 
L 603 3500 
z
M 603 4863 
L 1178 4863 
L 1178 4134 
L 603 4134 
L 603 4863 
z
" transform="scale(0.015625)"/>
      </defs>
      <use xlink:href="#DejaVuSans-6d"/>
      <use xlink:href="#DejaVuSans-65" transform="translate(97.412109 0)"/>
      <use xlink:href="#DejaVuSans-64" transform="translate(158.935547 0)"/>
      <use xlink:href="#DejaVuSans-69" transform="translate(222.412109 0)"/>
      <use xlink:href="#DejaVuSans-75" transform="translate(250.195312 0)"/>
      <use xlink:href="#DejaVuSans-6d" transform="translate(313.574219 0)"/>
     </g>
    </g>
   </g>
   <g id="text_7">
    <g id="patch_43">
     <path d="M 562.275946 213.720607 
L 569.251855 223.42622 
Q 570.477491 225.131453 572.182723 223.905817 
L 577.683874 219.951865 
Q 579.389106 218.726229 578.16347 217.020997 
L 571.18756 207.315383 
Q 569.961925 205.610151 568.256692 206.835787 
L 562.755542 210.789739 
Q 561.05031 212.015374 562.275946 213.720607 
z
" clip-path="url(#pfa341144d4)" style="fill: #ffffff; stroke: #ffffff; stroke-linejoin: miter"/>
    </g>
    <g clip-path="url(#pfa341144d4)">
     <!-- low -->
     <g transform="translate(565.163295 211.645324) rotate(-305.706691) scale(0.07 -0.07)">
      <defs>
       <path id="DejaVuSans-6f" d="M 1959 3097 
Q 1497 3097 1228 2736 
Q 959 2375 959 1747 
Q 959 1119 1226 758 
Q 1494 397 1959 397 
Q 2419 397 2687 759 
Q 2956 1122 2956 1747 
Q 2956 2369 2687 2733 
Q 2419 3097 1959 3097 
z
M 1959 3584 
Q 2709 3584 3137 3096 
Q 3566 2609 3566 1747 
Q 3566 888 3137 398 
Q 2709 -91 1959 -91 
Q 1206 -91 779 398 
Q 353 888 353 1747 
Q 353 2609 779 3096 
Q 1206 3584 1959 3584 
z
" transform="scale(0.015625)"/>
       <path id="DejaVuSans-77" d="M 269 3500 
L 844 3500 
L 1563 769 
L 2278 3500 
L 2956 3500 
L 3675 769 
L 4391 3500 
L 4966 3500 
L 4050 0 
L 3372 0 
L 2619 2869 
L 1863 0 
L 1184 0 
L 269 3500 
z
" transform="scale(0.015625)"/>
      </defs>
      <use xlink:href="#DejaVuSans-6c"/>
      <use xlink:href="#DejaVuSans-6f" transform="translate(27.783203 0)"/>
      <use xlink:href="#DejaVuSans-77" transform="translate(88.964844 0)"/>
     </g>
    </g>
   </g>
   <g id="text_8">
    <g id="patch_44">
     <path d="M 437.320062 235.789404 
L 448.344834 257.814367 
Q 449.284821 259.692245 451.162699 258.752258 
L 457.220811 255.719822 
Q 459.098689 254.779835 458.158702 252.901957 
L 447.13393 230.876994 
Q 446.193943 228.999116 444.316065 229.939103 
L 438.257953 232.97154 
Q 436.380075 233.911526 437.320062 235.789404 
z
" clip-path="url(#pfa341144d4)" style="fill: #ffffff; stroke: #ffffff; stroke-linejoin: miter"/>
    </g>
    <g clip-path="url(#pfa341144d4)">
     <!-- default -->
     <g transform="translate(440.49974 234.197791) rotate(-296.590624) scale(0.07 -0.07)">
      <use xlink:href="#DejaVuSans-64"/>
      <use xlink:href="#DejaVuSans-65" transform="translate(63.476562 0)"/>
      <use xlink:href="#DejaVuSans-66" transform="translate(125 0)"/>
      <use xlink:href="#DejaVuSans-61" transform="translate(160.205078 0)"/>
      <use xlink:href="#DejaVuSans-75" transform="translate(221.484375 0)"/>
      <use xlink:href="#DejaVuSans-6c" transform="translate(284.863281 0)"/>
      <use xlink:href="#DejaVuSans-74" transform="translate(312.646484 0)"/>
     </g>
    </g>
   </g>
   <g id="text_9">
    <g id="patch_45">
     <path d="M 422.912656 199.834891 
L 422.912656 230.907234 
Q 422.912656 233.007234 425.012656 233.007234 
L 431.787344 233.007234 
Q 433.887344 233.007234 433.887344 230.907234 
L 433.887344 199.834891 
Q 433.887344 197.734891 431.787344 197.734891 
L 425.012656 197.734891 
Q 422.912656 197.734891 422.912656 199.834891 
z
" clip-path="url(#pfa341144d4)" style="fill: #ffffff; stroke: #ffffff; stroke-linejoin: miter"/>
    </g>
    <g clip-path="url(#pfa341144d4)">
     <!-- revisions -->
     <g transform="translate(426.468437 199.834891) rotate(-270) scale(0.07 -0.07)">
      <defs>
       <path id="DejaVuSans-76" d="M 191 3500 
L 800 3500 
L 1894 563 
L 2988 3500 
L 3597 3500 
L 2284 0 
L 1503 0 
L 191 3500 
z
" transform="scale(0.015625)"/>
       <path id="DejaVuSans-6e" d="M 3513 2113 
L 3513 0 
L 2938 0 
L 2938 2094 
Q 2938 2591 2744 2837 
Q 2550 3084 2163 3084 
Q 1697 3084 1428 2787 
Q 1159 2491 1159 1978 
L 1159 0 
L 581 0 
L 581 3500 
L 1159 3500 
L 1159 2956 
Q 1366 3272 1645 3428 
Q 1925 3584 2291 3584 
Q 2894 3584 3203 3211 
Q 3513 2838 3513 2113 
z
" transform="scale(0.015625)"/>
      </defs>
      <use xlink:href="#DejaVuSans-72"/>
      <use xlink:href="#DejaVuSans-65" transform="translate(38.863281 0)"/>
      <use xlink:href="#DejaVuSans-76" transform="translate(100.386719 0)"/>
      <use xlink:href="#DejaVuSans-69" transform="translate(159.566406 0)"/>
      <use xlink:href="#DejaVuSans-73" transform="translate(187.349609 0)"/>
      <use xlink:href="#DejaVuSans-69" transform="translate(239.449219 0)"/>
      <use xlink:href="#DejaVuSans-6f" transform="translate(267.232422 0)"/>
      <use xlink:href="#DejaVuSans-6e" transform="translate(328.414062 0)"/>
      <use xlink:href="#DejaVuSans-73" transform="translate(391.792969 0)"/>
     </g>
    </g>
   </g>
   <g id="text_10">
    <g id="patch_46">
     <path d="M 433.415276 230.480268 
L 439.142527 243.352217 
Q 439.996212 245.270868 441.914863 244.417182 
L 448.104511 241.663157 
Q 450.023162 240.809472 449.169476 238.890821 
L 443.442225 226.018872 
Q 442.58854 224.100221 440.669889 224.953907 
L 434.480241 227.707931 
Q 432.56159 228.561617 433.415276 230.480268 
z
" clip-path="url(#pfa341144d4)" style="fill: #ffffff; stroke: #ffffff; stroke-linejoin: miter"/>
    </g>
    <g clip-path="url(#pfa341144d4)">
     <!-- skip -->
     <g transform="translate(436.663992 229.034783) rotate(-293.986217) scale(0.07 -0.07)">
      <defs>
       <path id="DejaVuSans-6b" d="M 581 4863 
L 1159 4863 
L 1159 1991 
L 2875 3500 
L 3609 3500 
L 1753 1863 
L 3688 0 
L 2938 0 
L 1159 1709 
L 1159 0 
L 581 0 
L 581 4863 
z
" transform="scale(0.015625)"/>
       <path id="DejaVuSans-70" d="M 1159 525 
L 1159 -1331 
L 581 -1331 
L 581 3500 
L 1159 3500 
L 1159 2969 
Q 1341 3281 1617 3432 
Q 1894 3584 2278 3584 
Q 2916 3584 3314 3078 
Q 3713 2572 3713 1747 
Q 3713 922 3314 415 
Q 2916 -91 2278 -91 
Q 1894 -91 1617 61 
Q 1341 213 1159 525 
z
M 3116 1747 
Q 3116 2381 2855 2742 
Q 2594 3103 2138 3103 
Q 1681 3103 1420 2742 
Q 1159 2381 1159 1747 
Q 1159 1113 1420 752 
Q 1681 391 2138 391 
Q 2594 391 2855 752 
Q 3116 1113 3116 1747 
z
" transform="scale(0.015625)"/>
      </defs>
      <use xlink:href="#DejaVuSans-73"/>
      <use xlink:href="#DejaVuSans-6b" transform="translate(52.099609 0)"/>
      <use xlink:href="#DejaVuSans-69" transform="translate(110.009766 0)"/>
      <use xlink:href="#DejaVuSans-70" transform="translate(137.792969 0)"/>
     </g>
    </g>
   </g>
   <g id="text_11">
    <g id="patch_47">
     <path d="M 365.075547 319.274126 
L 378.836287 315.150506 
Q 380.847908 314.547693 380.245094 312.536073 
L 378.300394 306.046502 
Q 377.69758 304.034881 375.68596 304.637695 
L 361.92522 308.761314 
Q 359.9136 309.364128 360.516413 311.375748 
L 362.461114 317.865319 
Q 363.063927 319.876939 365.075547 319.274126 
z
" clip-path="url(#pfa341144d4)" style="fill: #ffffff; stroke: #ffffff; stroke-linejoin: miter"/>
    </g>
    <g clip-path="url(#pfa341144d4)">
     <!-- true -->
     <g transform="translate(364.054846 315.867992) rotate(-16.681662) scale(0.07 -0.07)">
      <use xlink:href="#DejaVuSans-74"/>
      <use xlink:href="#DejaVuSans-72" transform="translate(39.208984 0)"/>
      <use xlink:href="#DejaVuSans-75" transform="translate(80.322266 0)"/>
      <use xlink:href="#DejaVuSans-65" transform="translate(143.701172 0)"/>
     </g>
    </g>
   </g>
   <g id="text_12">
    <g id="patch_48">
     <path d="M 424.627371 301.428496 
L 448.220953 294.358312 
Q 450.232573 293.755499 449.62976 291.743878 
L 447.685059 285.254308 
Q 447.082246 283.242687 445.070625 283.845501 
L 421.477044 290.915684 
Q 419.465423 291.518498 420.068237 293.530118 
L 422.012938 300.019689 
Q 422.615751 302.031309 424.627371 301.428496 
z
" clip-path="url(#pfa341144d4)" style="fill: #ffffff; stroke: #ffffff; stroke-linejoin: miter"/>
    </g>
    <g clip-path="url(#pfa341144d4)">
     <!-- default -->
     <g transform="translate(423.60667 298.022362) rotate(-16.681662) scale(0.07 -0.07)">
      <use xlink:href="#DejaVuSans-64"/>
      <use xlink:href="#DejaVuSans-65" transform="translate(63.476562 0)"/>
      <use xlink:href="#DejaVuSans-66" transform="translate(125 0)"/>
      <use xlink:href="#DejaVuSans-61" transform="translate(160.205078 0)"/>
      <use xlink:href="#DejaVuSans-75" transform="translate(221.484375 0)"/>
      <use xlink:href="#DejaVuSans-6c" transform="translate(284.863281 0)"/>
      <use xlink:href="#DejaVuSans-74" transform="translate(312.646484 0)"/>
     </g>
    </g>
   </g>
   <g id="PathCollection_1">
    <defs>
     <path id="C0_0_44c8538ebe" d="M 0 22.36068 
C 5.930122 22.36068 11.618159 20.004617 15.811388 15.811388 
C 20.004617 11.618159 22.36068 5.930122 22.36068 -0 
C 22.36068 -5.930122 20.004617 -11.618159 15.811388 -15.811388 
C 11.618159 -20.004617 5.930122 -22.36068 0 -22.36068 
C -5.930122 -22.36068 -11.618159 -20.004617 -15.811388 -15.811388 
C -20.004617 -11.618159 -22.36068 -5.930122 -22.36068 0 
C -22.36068 5.930122 -20.004617 11.618159 -15.811388 15.811388 
C -11.618159 20.004617 -5.930122 22.36068 0 22.36068 
z
"/>
    </defs>
    <g clip-path="url(#pfa341144d4)">
     <use xlink:href="#C0_0_44c8538ebe" x="118.978512" y="476.152006" style="fill: #e8f5e9; stroke: #e8f5e9"/>
    </g>
    <g clip-path="url(#pfa341144d4)">
     <use xlink:href="#C0_0_44c8538ebe" x="118.978512" y="495.469289" style="fill: #e8f5e9; stroke: #e8f5e9"/>
    </g>
    <g clip-path="url(#pfa341144d4)">
     <use xlink:href="#C0_0_44c8538ebe" x="80.300826" y="514.786573" style="fill: #fff3e0; stroke: #fff3e0"/>
    </g>
    <g clip-path="url(#pfa341144d4)">
     <use xlink:href="#C0_0_44c8538ebe" x="144.763636" y="418.200155" style="fill: #e3f2fd; stroke: #e3f2fd"/>
    </g>
    <g clip-path="url(#pfa341144d4)">
     <use xlink:href="#C0_0_44c8538ebe" x="144.763636" y="437.517439" style="fill: #e8f5e9; stroke: #e8f5e9"/>
    </g>
    <g clip-path="url(#pfa341144d4)">
     <use xlink:href="#C0_0_44c8538ebe" x="170.54876" y="456.834722" style="fill: #fff3e0; stroke: #fff3e0"/>
    </g>
    <g clip-path="url(#pfa341144d4)">
     <use xlink:href="#C0_0_44c8538ebe" x="776.499174" y="514.786573" style="fill: #f3e5f5; stroke: #f3e5f5"/>
    </g>
    <g clip-path="url(#pfa341144d4)">
     <use xlink:href="#C0_0_44c8538ebe" x="183.441322" y="437.517439" style="fill: #e8f5e9; stroke: #e8f5e9"/>
    </g>
    <g clip-path="url(#pfa341144d4)">
     <use xlink:href="#C0_0_44c8538ebe" x="235.01157" y="360.248305" style="fill: #e8f5e9; stroke: #e8f5e9"/>
    </g>
    <g clip-path="url(#pfa341144d4)">
     <use xlink:href="#C0_0_44c8538ebe" x="247.904132" y="379.565588" style="fill: #e8f5e9; stroke: #e8f5e9"/>
    </g>
    <g clip-path="url(#pfa341144d4)">
     <use xlink:href="#C0_0_44c8538ebe" x="260.796694" y="398.882872" style="fill: #e8f5e9; stroke: #e8f5e9"/>
    </g>
    <g clip-path="url(#pfa341144d4)">
     <use xlink:href="#C0_0_44c8538ebe" x="712.036364" y="418.200155" style="fill: #eceff1; stroke: #eceff1"/>
    </g>
    <g clip-path="url(#pfa341144d4)">
     <use xlink:href="#C0_0_44c8538ebe" x="673.358678" y="360.248305" style="fill: #e3f2fd; stroke: #e3f2fd"/>
    </g>
    <g clip-path="url(#pfa341144d4)">
     <use xlink:href="#C0_0_44c8538ebe" x="660.466116" y="340.931021" style="fill: #fff3e0; stroke: #fff3e0"/>
    </g>
    <g clip-path="url(#pfa341144d4)">
     <use xlink:href="#C0_0_44c8538ebe" x="479.970248" y="70.489052" style="fill: #e3f2fd; stroke: #e3f2fd"/>
    </g>
    <g clip-path="url(#pfa341144d4)">
     <use xlink:href="#C0_0_44c8538ebe" x="479.970248" y="89.806336" style="fill: #ffebee; stroke: #ffebee"/>
    </g>
    <g clip-path="url(#pfa341144d4)">
     <use xlink:href="#C0_0_44c8538ebe" x="479.970248" y="109.123619" style="fill: #e3f2fd; stroke: #e3f2fd"/>
    </g>
    <g clip-path="url(#pfa341144d4)">
     <use xlink:href="#C0_0_44c8538ebe" x="441.292562" y="128.440903" style="fill: #eceff1; stroke: #eceff1"/>
    </g>
    <g clip-path="url(#pfa341144d4)">
     <use xlink:href="#C0_0_44c8538ebe" x="273.689256" y="379.565588" style="fill: #f3e5f5; stroke: #f3e5f5"/>
    </g>
    <g clip-path="url(#pfa341144d4)">
     <use xlink:href="#C0_0_44c8538ebe" x="441.292562" y="147.758186" style="fill: #e8f5e9; stroke: #e8f5e9"/>
    </g>
    <g clip-path="url(#pfa341144d4)">
     <use xlink:href="#C0_0_44c8538ebe" x="441.292562" y="167.07547" style="fill: #e8f5e9; stroke: #e8f5e9"/>
    </g>
    <g clip-path="url(#pfa341144d4)">
     <use xlink:href="#C0_0_44c8538ebe" x="428.4" y="186.392753" style="fill: #e8f5e9; stroke: #e8f5e9"/>
    </g>
    <g clip-path="url(#pfa341144d4)">
     <use xlink:href="#C0_0_44c8538ebe" x="338.152066" y="321.613738" style="fill: #ffebee; stroke: #ffebee"/>
    </g>
    <g clip-path="url(#pfa341144d4)">
     <use xlink:href="#C0_0_44c8538ebe" x="428.4" y="205.710037" style="fill: #fff3e0; stroke: #fff3e0"/>
    </g>
    <g clip-path="url(#pfa341144d4)">
     <use xlink:href="#C0_0_44c8538ebe" x="428.4" y="225.02732" style="fill: #e3f2fd; stroke: #e3f2fd"/>
    </g>
    <g clip-path="url(#pfa341144d4)">
     <use xlink:href="#C0_0_44c8538ebe" x="428.4" y="244.344604" style="fill: #eceff1; stroke: #eceff1"/>
    </g>
    <g clip-path="url(#pfa341144d4)">
     <use xlink:href="#C0_0_44c8538ebe" x="402.614876" y="302.296454" style="fill: #fff3e0; stroke: #fff3e0"/>
    </g>
    <g clip-path="url(#pfa341144d4)">
     <use xlink:href="#C0_0_44c8538ebe" x="467.077686" y="282.979171" style="fill: #e3f2fd; stroke: #e3f2fd"/>
    </g>
    <g clip-path="url(#pfa341144d4)">
     <use xlink:href="#C0_0_44c8538ebe" x="454.185124" y="263.661887" style="fill: #eceff1; stroke: #eceff1"/>
    </g>
   </g>
   <g id="text_13">
    <g clip-path="url(#pfa341144d4)">
     <!-- load_data -->
     <g transform="translate(99.419137 478.248256) scale(0.08 -0.08)">
      <defs>
       <path id="DejaVuSans-5f" d="M 3263 -1063 
L 3263 -1509 
L -63 -1509 
L -63 -1063 
L 3263 -1063 
z
" transform="scale(0.015625)"/>
      </defs>
      <use xlink:href="#DejaVuSans-6c"/>
      <use xlink:href="#DejaVuSans-6f" transform="translate(27.783203 0)"/>
      <use xlink:href="#DejaVuSans-61" transform="translate(88.964844 0)"/>
      <use xlink:href="#DejaVuSans-64" transform="translate(150.244141 0)"/>
      <use xlink:href="#DejaVuSans-5f" transform="translate(213.720703 0)"/>
      <use xlink:href="#DejaVuSans-64" transform="translate(263.720703 0)"/>
      <use xlink:href="#DejaVuSans-61" transform="translate(327.197266 0)"/>
      <use xlink:href="#DejaVuSans-74" transform="translate(388.476562 0)"/>
      <use xlink:href="#DejaVuSans-61" transform="translate(427.685547 0)"/>
     </g>
    </g>
   </g>
   <g id="text_14">
    <g clip-path="url(#pfa341144d4)">
     <!-- validate -->
     <g transform="translate(102.917262 497.676789) scale(0.08 -0.08)">
      <use xlink:href="#DejaVuSans-76"/>
      <use xlink:href="#DejaVuSans-61" transform="translate(59.179688 0)"/>
      <use xlink:href="#DejaVuSans-6c" transform="translate(120.458984 0)"/>
      <use xlink:href="#DejaVuSans-69" transform="translate(148.242188 0)"/>
      <use xlink:href="#DejaVuSans-64" transform="translate(176.025391 0)"/>
      <use xlink:href="#DejaVuSans-61" transform="translate(239.501953 0)"/>
      <use xlink:href="#DejaVuSans-74" transform="translate(300.78125 0)"/>
      <use xlink:href="#DejaVuSans-65" transform="translate(339.990234 0)"/>
     </g>
    </g>
   </g>
   <g id="text_15">
    <g clip-path="url(#pfa341144d4)">
     <!-- check_quality -->
     <g transform="translate(52.905826 516.882823) scale(0.08 -0.08)">
      <defs>
       <path id="DejaVuSans-63" d="M 3122 3366 
L 3122 2828 
Q 2878 2963 2633 3030 
Q 2388 3097 2138 3097 
Q 1578 3097 1268 2742 
Q 959 2388 959 1747 
Q 959 1106 1268 751 
Q 1578 397 2138 397 
Q 2388 397 2633 464 
Q 2878 531 3122 666 
L 3122 134 
Q 2881 22 2623 -34 
Q 2366 -91 2075 -91 
Q 1284 -91 818 406 
Q 353 903 353 1747 
Q 353 2603 823 3093 
Q 1294 3584 2113 3584 
Q 2378 3584 2631 3529 
Q 2884 3475 3122 3366 
z
" transform="scale(0.015625)"/>
       <path id="DejaVuSans-68" d="M 3513 2113 
L 3513 0 
L 2938 0 
L 2938 2094 
Q 2938 2591 2744 2837 
Q 2550 3084 2163 3084 
Q 1697 3084 1428 2787 
Q 1159 2491 1159 1978 
L 1159 0 
L 581 0 
L 581 4863 
L 1159 4863 
L 1159 2956 
Q 1366 3272 1645 3428 
Q 1925 3584 2291 3584 
Q 2894 3584 3203 3211 
Q 3513 2838 3513 2113 
z
" transform="scale(0.015625)"/>
       <path id="DejaVuSans-71" d="M 947 1747 
Q 947 1113 1208 752 
Q 1469 391 1925 391 
Q 2381 391 2643 752 
Q 2906 1113 2906 1747 
Q 2906 2381 2643 2742 
Q 2381 3103 1925 3103 
Q 1469 3103 1208 2742 
Q 947 2381 947 1747 
z
M 2906 525 
Q 2725 213 2448 61 
Q 2172 -91 1784 -91 
Q 1150 -91 751 415 
Q 353 922 353 1747 
Q 353 2572 751 3078 
Q 1150 3584 1784 3584 
Q 2172 3584 2448 3432 
Q 2725 3281 2906 2969 
L 2906 3500 
L 3481 3500 
L 3481 -1331 
L 2906 -1331 
L 2906 525 
z
" transform="scale(0.015625)"/>
       <path id="DejaVuSans-79" d="M 2059 -325 
Q 1816 -950 1584 -1140 
Q 1353 -1331 966 -1331 
L 506 -1331 
L 506 -850 
L 844 -850 
Q 1081 -850 1212 -737 
Q 1344 -625 1503 -206 
L 1606 56 
L 191 3500 
L 800 3500 
L 1894 763 
L 2988 3500 
L 3597 3500 
L 2059 -325 
z
" transform="scale(0.015625)"/>
      </defs>
      <use xlink:href="#DejaVuSans-63"/>
      <use xlink:href="#DejaVuSans-68" transform="translate(54.980469 0)"/>
      <use xlink:href="#DejaVuSans-65" transform="translate(118.359375 0)"/>
      <use xlink:href="#DejaVuSans-63" transform="translate(179.882812 0)"/>
      <use xlink:href="#DejaVuSans-6b" transform="translate(234.863281 0)"/>
      <use xlink:href="#DejaVuSans-5f" transform="translate(292.773438 0)"/>
      <use xlink:href="#DejaVuSans-71" transform="translate(342.773438 0)"/>
      <use xlink:href="#DejaVuSans-75" transform="translate(406.25 0)"/>
      <use xlink:href="#DejaVuSans-61" transform="translate(469.628906 0)"/>
      <use xlink:href="#DejaVuSans-6c" transform="translate(530.908203 0)"/>
      <use xlink:href="#DejaVuSans-69" transform="translate(558.691406 0)"/>
      <use xlink:href="#DejaVuSans-74" transform="translate(586.474609 0)"/>
      <use xlink:href="#DejaVuSans-79" transform="translate(625.683594 0)"/>
     </g>
    </g>
   </g>
   <g id="text_16">
    <g clip-path="url(#pfa341144d4)">
     <!-- data_cleanup -->
     <g transform="translate(117.921136 420.296405) scale(0.08 -0.08)">
      <use xlink:href="#DejaVuSans-64"/>
      <use xlink:href="#DejaVuSans-61" transform="translate(63.476562 0)"/>
      <use xlink:href="#DejaVuSans-74" transform="translate(124.755859 0)"/>
      <use xlink:href="#DejaVuSans-61" transform="translate(163.964844 0)"/>
      <use xlink:href="#DejaVuSans-5f" transform="translate(225.244141 0)"/>
      <use xlink:href="#DejaVuSans-63" transform="translate(275.244141 0)"/>
      <use xlink:href="#DejaVuSans-6c" transform="translate(330.224609 0)"/>
      <use xlink:href="#DejaVuSans-65" transform="translate(358.007812 0)"/>
      <use xlink:href="#DejaVuSans-61" transform="translate(419.53125 0)"/>
      <use xlink:href="#DejaVuSans-6e" transform="translate(480.810547 0)"/>
      <use xlink:href="#DejaVuSans-75" transform="translate(544.189453 0)"/>
      <use xlink:href="#DejaVuSans-70" transform="translate(607.568359 0)"/>
     </g>
    </g>
   </g>
   <g id="text_17">
    <g clip-path="url(#pfa341144d4)">
     <!-- validate_cleanup -->
     <g transform="translate(110.869886 439.613689) scale(0.08 -0.08)">
      <use xlink:href="#DejaVuSans-76"/>
      <use xlink:href="#DejaVuSans-61" transform="translate(59.179688 0)"/>
      <use xlink:href="#DejaVuSans-6c" transform="translate(120.458984 0)"/>
      <use xlink:href="#DejaVuSans-69" transform="translate(148.242188 0)"/>
      <use xlink:href="#DejaVuSans-64" transform="translate(176.025391 0)"/>
      <use xlink:href="#DejaVuSans-61" transform="translate(239.501953 0)"/>
      <use xlink:href="#DejaVuSans-74" transform="translate(300.78125 0)"/>
      <use xlink:href="#DejaVuSans-65" transform="translate(339.990234 0)"/>
      <use xlink:href="#DejaVuSans-5f" transform="translate(401.513672 0)"/>
      <use xlink:href="#DejaVuSans-63" transform="translate(451.513672 0)"/>
      <use xlink:href="#DejaVuSans-6c" transform="translate(506.494141 0)"/>
      <use xlink:href="#DejaVuSans-65" transform="translate(534.277344 0)"/>
      <use xlink:href="#DejaVuSans-61" transform="translate(595.800781 0)"/>
      <use xlink:href="#DejaVuSans-6e" transform="translate(657.080078 0)"/>
      <use xlink:href="#DejaVuSans-75" transform="translate(720.458984 0)"/>
      <use xlink:href="#DejaVuSans-70" transform="translate(783.837891 0)"/>
     </g>
    </g>
   </g>
   <g id="text_18">
    <g clip-path="url(#pfa341144d4)">
     <!-- cleanup_loop_check -->
     <g transform="translate(130.459385 458.930972) scale(0.08 -0.08)">
      <use xlink:href="#DejaVuSans-63"/>
      <use xlink:href="#DejaVuSans-6c" transform="translate(54.980469 0)"/>
      <use xlink:href="#DejaVuSans-65" transform="translate(82.763672 0)"/>
      <use xlink:href="#DejaVuSans-61" transform="translate(144.287109 0)"/>
      <use xlink:href="#DejaVuSans-6e" transform="translate(205.566406 0)"/>
      <use xlink:href="#DejaVuSans-75" transform="translate(268.945312 0)"/>
      <use xlink:href="#DejaVuSans-70" transform="translate(332.324219 0)"/>
      <use xlink:href="#DejaVuSans-5f" transform="translate(395.800781 0)"/>
      <use xlink:href="#DejaVuSans-6c" transform="translate(445.800781 0)"/>
      <use xlink:href="#DejaVuSans-6f" transform="translate(473.583984 0)"/>
      <use xlink:href="#DejaVuSans-6f" transform="translate(534.765625 0)"/>
      <use xlink:href="#DejaVuSans-70" transform="translate(595.947266 0)"/>
      <use xlink:href="#DejaVuSans-5f" transform="translate(659.423828 0)"/>
      <use xlink:href="#DejaVuSans-63" transform="translate(709.423828 0)"/>
      <use xlink:href="#DejaVuSans-68" transform="translate(764.404297 0)"/>
      <use xlink:href="#DejaVuSans-65" transform="translate(827.783203 0)"/>
      <use xlink:href="#DejaVuSans-63" transform="translate(889.306641 0)"/>
      <use xlink:href="#DejaVuSans-6b" transform="translate(944.287109 0)"/>
     </g>
    </g>
   </g>
   <g id="text_19">
    <g clip-path="url(#pfa341144d4)">
     <!-- parallel_stats -->
     <g transform="translate(749.862924 516.882823) scale(0.08 -0.08)">
      <use xlink:href="#DejaVuSans-70"/>
      <use xlink:href="#DejaVuSans-61" transform="translate(63.476562 0)"/>
      <use xlink:href="#DejaVuSans-72" transform="translate(124.755859 0)"/>
      <use xlink:href="#DejaVuSans-61" transform="translate(165.869141 0)"/>
      <use xlink:href="#DejaVuSans-6c" transform="translate(227.148438 0)"/>
      <use xlink:href="#DejaVuSans-6c" transform="translate(254.931641 0)"/>
      <use xlink:href="#DejaVuSans-65" transform="translate(282.714844 0)"/>
      <use xlink:href="#DejaVuSans-6c" transform="translate(344.238281 0)"/>
      <use xlink:href="#DejaVuSans-5f" transform="translate(372.021484 0)"/>
      <use xlink:href="#DejaVuSans-73" transform="translate(422.021484 0)"/>
      <use xlink:href="#DejaVuSans-74" transform="translate(474.121094 0)"/>
      <use xlink:href="#DejaVuSans-61" transform="translate(513.330078 0)"/>
      <use xlink:href="#DejaVuSans-74" transform="translate(574.609375 0)"/>
      <use xlink:href="#DejaVuSans-73" transform="translate(613.818359 0)"/>
     </g>
    </g>
   </g>
   <g id="text_20">
    <g clip-path="url(#pfa341144d4)">
     <!-- basic_stats -->
     <g transform="translate(161.301322 439.613689) scale(0.08 -0.08)">
      <defs>
       <path id="DejaVuSans-62" d="M 3116 1747 
Q 3116 2381 2855 2742 
Q 2594 3103 2138 3103 
Q 1681 3103 1420 2742 
Q 1159 2381 1159 1747 
Q 1159 1113 1420 752 
Q 1681 391 2138 391 
Q 2594 391 2855 752 
Q 3116 1113 3116 1747 
z
M 1159 2969 
Q 1341 3281 1617 3432 
Q 1894 3584 2278 3584 
Q 2916 3584 3314 3078 
Q 3713 2572 3713 1747 
Q 3713 922 3314 415 
Q 2916 -91 2278 -91 
Q 1894 -91 1617 61 
Q 1341 213 1159 525 
L 1159 0 
L 581 0 
L 581 4863 
L 1159 4863 
L 1159 2969 
z
" transform="scale(0.015625)"/>
      </defs>
      <use xlink:href="#DejaVuSans-62"/>
      <use xlink:href="#DejaVuSans-61" transform="translate(63.476562 0)"/>
      <use xlink:href="#DejaVuSans-73" transform="translate(124.755859 0)"/>
      <use xlink:href="#DejaVuSans-69" transform="translate(176.855469 0)"/>
      <use xlink:href="#DejaVuSans-63" transform="translate(204.638672 0)"/>
      <use xlink:href="#DejaVuSans-5f" transform="translate(259.619141 0)"/>
      <use xlink:href="#DejaVuSans-73" transform="translate(309.619141 0)"/>
      <use xlink:href="#DejaVuSans-74" transform="translate(361.71875 0)"/>
      <use xlink:href="#DejaVuSans-61" transform="translate(400.927734 0)"/>
      <use xlink:href="#DejaVuSans-74" transform="translate(462.207031 0)"/>
      <use xlink:href="#DejaVuSans-73" transform="translate(501.416016 0)"/>
     </g>
    </g>
   </g>
   <g id="text_21">
    <g clip-path="url(#pfa341144d4)">
     <!-- correlations -->
     <g transform="translate(211.46657 362.455805) scale(0.08 -0.08)">
      <use xlink:href="#DejaVuSans-63"/>
      <use xlink:href="#DejaVuSans-6f" transform="translate(54.980469 0)"/>
      <use xlink:href="#DejaVuSans-72" transform="translate(116.162109 0)"/>
      <use xlink:href="#DejaVuSans-72" transform="translate(155.525391 0)"/>
      <use xlink:href="#DejaVuSans-65" transform="translate(194.388672 0)"/>
      <use xlink:href="#DejaVuSans-6c" transform="translate(255.912109 0)"/>
      <use xlink:href="#DejaVuSans-61" transform="translate(283.695312 0)"/>
      <use xlink:href="#DejaVuSans-74" transform="translate(344.974609 0)"/>
      <use xlink:href="#DejaVuSans-69" transform="translate(384.183594 0)"/>
      <use xlink:href="#DejaVuSans-6f" transform="translate(411.966797 0)"/>
      <use xlink:href="#DejaVuSans-6e" transform="translate(473.148438 0)"/>
      <use xlink:href="#DejaVuSans-73" transform="translate(536.527344 0)"/>
     </g>
    </g>
   </g>
   <g id="text_22">
    <g clip-path="url(#pfa341144d4)">
     <!-- distributions -->
     <g transform="translate(223.026007 381.773088) scale(0.08 -0.08)">
      <use xlink:href="#DejaVuSans-64"/>
      <use xlink:href="#DejaVuSans-69" transform="translate(63.476562 0)"/>
      <use xlink:href="#DejaVuSans-73" transform="translate(91.259766 0)"/>
      <use xlink:href="#DejaVuSans-74" transform="translate(143.359375 0)"/>
      <use xlink:href="#DejaVuSans-72" transform="translate(182.568359 0)"/>
      <use xlink:href="#DejaVuSans-69" transform="translate(223.681641 0)"/>
      <use xlink:href="#DejaVuSans-62" transform="translate(251.464844 0)"/>
      <use xlink:href="#DejaVuSans-75" transform="translate(314.941406 0)"/>
      <use xlink:href="#DejaVuSans-74" transform="translate(378.320312 0)"/>
      <use xlink:href="#DejaVuSans-69" transform="translate(417.529297 0)"/>
      <use xlink:href="#DejaVuSans-6f" transform="translate(445.3125 0)"/>
      <use xlink:href="#DejaVuSans-6e" transform="translate(506.494141 0)"/>
      <use xlink:href="#DejaVuSans-73" transform="translate(569.873047 0)"/>
     </g>
    </g>
   </g>
   <g id="text_23">
    <g clip-path="url(#pfa341144d4)">
     <!-- anomaly_detection -->
     <g transform="translate(222.645444 400.979122) scale(0.08 -0.08)">
      <use xlink:href="#DejaVuSans-61"/>
      <use xlink:href="#DejaVuSans-6e" transform="translate(61.279297 0)"/>
      <use xlink:href="#DejaVuSans-6f" transform="translate(124.658203 0)"/>
      <use xlink:href="#DejaVuSans-6d" transform="translate(185.839844 0)"/>
      <use xlink:href="#DejaVuSans-61" transform="translate(283.251953 0)"/>
      <use xlink:href="#DejaVuSans-6c" transform="translate(344.53125 0)"/>
      <use xlink:href="#DejaVuSans-79" transform="translate(372.314453 0)"/>
      <use xlink:href="#DejaVuSans-5f" transform="translate(431.494141 0)"/>
      <use xlink:href="#DejaVuSans-64" transform="translate(481.494141 0)"/>
      <use xlink:href="#DejaVuSans-65" transform="translate(544.970703 0)"/>
      <use xlink:href="#DejaVuSans-74" transform="translate(606.494141 0)"/>
      <use xlink:href="#DejaVuSans-65" transform="translate(645.703125 0)"/>
      <use xlink:href="#DejaVuSans-63" transform="translate(707.226562 0)"/>
      <use xlink:href="#DejaVuSans-74" transform="translate(762.207031 0)"/>
      <use xlink:href="#DejaVuSans-69" transform="translate(801.416016 0)"/>
      <use xlink:href="#DejaVuSans-6f" transform="translate(829.199219 0)"/>
      <use xlink:href="#DejaVuSans-6e" transform="translate(890.380859 0)"/>
     </g>
    </g>
   </g>
   <g id="text_24">
    <g clip-path="url(#pfa341144d4)">
     <!-- aggregate_stats -->
     <g transform="translate(679.715739 420.185155) scale(0.08 -0.08)">
      <defs>
       <path id="DejaVuSans-67" d="M 2906 1791 
Q 2906 2416 2648 2759 
Q 2391 3103 1925 3103 
Q 1463 3103 1205 2759 
Q 947 2416 947 1791 
Q 947 1169 1205 825 
Q 1463 481 1925 481 
Q 2391 481 2648 825 
Q 2906 1169 2906 1791 
z
M 3481 434 
Q 3481 -459 3084 -895 
Q 2688 -1331 1869 -1331 
Q 1566 -1331 1297 -1286 
Q 1028 -1241 775 -1147 
L 775 -588 
Q 1028 -725 1275 -790 
Q 1522 -856 1778 -856 
Q 2344 -856 2625 -561 
Q 2906 -266 2906 331 
L 2906 616 
Q 2728 306 2450 153 
Q 2172 0 1784 0 
Q 1141 0 747 490 
Q 353 981 353 1791 
Q 353 2603 747 3093 
Q 1141 3584 1784 3584 
Q 2172 3584 2450 3431 
Q 2728 3278 2906 2969 
L 2906 3500 
L 3481 3500 
L 3481 434 
z
" transform="scale(0.015625)"/>
      </defs>
      <use xlink:href="#DejaVuSans-61"/>
      <use xlink:href="#DejaVuSans-67" transform="translate(61.279297 0)"/>
      <use xlink:href="#DejaVuSans-67" transform="translate(124.755859 0)"/>
      <use xlink:href="#DejaVuSans-72" transform="translate(188.232422 0)"/>
      <use xlink:href="#DejaVuSans-65" transform="translate(227.095703 0)"/>
      <use xlink:href="#DejaVuSans-67" transform="translate(288.619141 0)"/>
      <use xlink:href="#DejaVuSans-61" transform="translate(352.095703 0)"/>
      <use xlink:href="#DejaVuSans-74" transform="translate(413.375 0)"/>
      <use xlink:href="#DejaVuSans-65" transform="translate(452.583984 0)"/>
      <use xlink:href="#DejaVuSans-5f" transform="translate(514.107422 0)"/>
      <use xlink:href="#DejaVuSans-73" transform="translate(564.107422 0)"/>
      <use xlink:href="#DejaVuSans-74" transform="translate(616.207031 0)"/>
      <use xlink:href="#DejaVuSans-61" transform="translate(655.416016 0)"/>
      <use xlink:href="#DejaVuSans-74" transform="translate(716.695312 0)"/>
      <use xlink:href="#DejaVuSans-73" transform="translate(755.904297 0)"/>
     </g>
    </g>
   </g>
   <g id="text_25">
    <g clip-path="url(#pfa341144d4)">
     <!-- analyze -->
     <g transform="translate(657.881803 362.455805) scale(0.08 -0.08)">
      <defs>
       <path id="DejaVuSans-7a" d="M 353 3500 
L 3084 3500 
L 3084 2975 
L 922 459 
L 3084 459 
L 3084 0 
L 275 0 
L 275 525 
L 2438 3041 
L 353 3041 
L 353 3500 
z
" transform="scale(0.015625)"/>
      </defs>
      <use xlink:href="#DejaVuSans-61"/>
      <use xlink:href="#DejaVuSans-6e" transform="translate(61.279297 0)"/>
      <use xlink:href="#DejaVuSans-61" transform="translate(124.658203 0)"/>
      <use xlink:href="#DejaVuSans-6c" transform="translate(185.9375 0)"/>
      <use xlink:href="#DejaVuSans-79" transform="translate(213.720703 0)"/>
      <use xlink:href="#DejaVuSans-7a" transform="translate(272.900391 0)"/>
      <use xlink:href="#DejaVuSans-65" transform="translate(325.390625 0)"/>
     </g>
    </g>
   </g>
   <g id="text_26">
    <g clip-path="url(#pfa341144d4)">
     <!-- check_confidence -->
     <g transform="translate(624.857366 343.027271) scale(0.08 -0.08)">
      <use xlink:href="#DejaVuSans-63"/>
      <use xlink:href="#DejaVuSans-68" transform="translate(54.980469 0)"/>
      <use xlink:href="#DejaVuSans-65" transform="translate(118.359375 0)"/>
      <use xlink:href="#DejaVuSans-63" transform="translate(179.882812 0)"/>
      <use xlink:href="#DejaVuSans-6b" transform="translate(234.863281 0)"/>
      <use xlink:href="#DejaVuSans-5f" transform="translate(292.773438 0)"/>
      <use xlink:href="#DejaVuSans-63" transform="translate(342.773438 0)"/>
      <use xlink:href="#DejaVuSans-6f" transform="translate(397.753906 0)"/>
      <use xlink:href="#DejaVuSans-6e" transform="translate(458.935547 0)"/>
      <use xlink:href="#DejaVuSans-66" transform="translate(522.314453 0)"/>
      <use xlink:href="#DejaVuSans-69" transform="translate(557.519531 0)"/>
      <use xlink:href="#DejaVuSans-64" transform="translate(585.302734 0)"/>
      <use xlink:href="#DejaVuSans-65" transform="translate(648.779297 0)"/>
      <use xlink:href="#DejaVuSans-6e" transform="translate(710.302734 0)"/>
      <use xlink:href="#DejaVuSans-63" transform="translate(773.681641 0)"/>
      <use xlink:href="#DejaVuSans-65" transform="translate(828.662109 0)"/>
     </g>
    </g>
   </g>
   <g id="text_27">
    <g clip-path="url(#pfa341144d4)">
     <!-- deep_dive -->
     <g transform="translate(459.489623 72.585302) scale(0.08 -0.08)">
      <use xlink:href="#DejaVuSans-64"/>
      <use xlink:href="#DejaVuSans-65" transform="translate(63.476562 0)"/>
      <use xlink:href="#DejaVuSans-65" transform="translate(125 0)"/>
      <use xlink:href="#DejaVuSans-70" transform="translate(186.523438 0)"/>
      <use xlink:href="#DejaVuSans-5f" transform="translate(250 0)"/>
      <use xlink:href="#DejaVuSans-64" transform="translate(300 0)"/>
      <use xlink:href="#DejaVuSans-69" transform="translate(363.476562 0)"/>
      <use xlink:href="#DejaVuSans-76" transform="translate(391.259766 0)"/>
      <use xlink:href="#DejaVuSans-65" transform="translate(450.439453 0)"/>
     </g>
    </g>
   </g>
   <g id="text_28">
    <g clip-path="url(#pfa341144d4)">
     <!-- human_assist -->
     <g transform="translate(452.635873 91.902586) scale(0.08 -0.08)">
      <use xlink:href="#DejaVuSans-68"/>
      <use xlink:href="#DejaVuSans-75" transform="translate(63.378906 0)"/>
      <use xlink:href="#DejaVuSans-6d" transform="translate(126.757812 0)"/>
      <use xlink:href="#DejaVuSans-61" transform="translate(224.169922 0)"/>
      <use xlink:href="#DejaVuSans-6e" transform="translate(285.449219 0)"/>
      <use xlink:href="#DejaVuSans-5f" transform="translate(348.828125 0)"/>
      <use xlink:href="#DejaVuSans-61" transform="translate(398.828125 0)"/>
      <use xlink:href="#DejaVuSans-73" transform="translate(460.107422 0)"/>
      <use xlink:href="#DejaVuSans-73" transform="translate(512.207031 0)"/>
      <use xlink:href="#DejaVuSans-69" transform="translate(564.306641 0)"/>
      <use xlink:href="#DejaVuSans-73" transform="translate(592.089844 0)"/>
      <use xlink:href="#DejaVuSans-74" transform="translate(644.189453 0)"/>
     </g>
    </g>
   </g>
   <g id="text_29">
    <g clip-path="url(#pfa341144d4)">
     <!-- refine_analysis -->
     <g transform="translate(450.243998 111.219869) scale(0.08 -0.08)">
      <use xlink:href="#DejaVuSans-72"/>
      <use xlink:href="#DejaVuSans-65" transform="translate(38.863281 0)"/>
      <use xlink:href="#DejaVuSans-66" transform="translate(100.386719 0)"/>
      <use xlink:href="#DejaVuSans-69" transform="translate(135.591797 0)"/>
      <use xlink:href="#DejaVuSans-6e" transform="translate(163.375 0)"/>
      <use xlink:href="#DejaVuSans-65" transform="translate(226.753906 0)"/>
      <use xlink:href="#DejaVuSans-5f" transform="translate(288.277344 0)"/>
      <use xlink:href="#DejaVuSans-61" transform="translate(338.277344 0)"/>
      <use xlink:href="#DejaVuSans-6e" transform="translate(399.556641 0)"/>
      <use xlink:href="#DejaVuSans-61" transform="translate(462.935547 0)"/>
      <use xlink:href="#DejaVuSans-6c" transform="translate(524.214844 0)"/>
      <use xlink:href="#DejaVuSans-79" transform="translate(551.998047 0)"/>
      <use xlink:href="#DejaVuSans-73" transform="translate(611.177734 0)"/>
      <use xlink:href="#DejaVuSans-69" transform="translate(663.277344 0)"/>
      <use xlink:href="#DejaVuSans-73" transform="translate(691.060547 0)"/>
     </g>
    </g>
   </g>
   <g id="text_30">
    <g clip-path="url(#pfa341144d4)">
     <!-- merge_insights -->
     <g transform="translate(410.792562 130.537153) scale(0.08 -0.08)">
      <use xlink:href="#DejaVuSans-6d"/>
      <use xlink:href="#DejaVuSans-65" transform="translate(97.412109 0)"/>
      <use xlink:href="#DejaVuSans-72" transform="translate(158.935547 0)"/>
      <use xlink:href="#DejaVuSans-67" transform="translate(198.298828 0)"/>
      <use xlink:href="#DejaVuSans-65" transform="translate(261.775391 0)"/>
      <use xlink:href="#DejaVuSans-5f" transform="translate(323.298828 0)"/>
      <use xlink:href="#DejaVuSans-69" transform="translate(373.298828 0)"/>
      <use xlink:href="#DejaVuSans-6e" transform="translate(401.082031 0)"/>
      <use xlink:href="#DejaVuSans-73" transform="translate(464.460938 0)"/>
      <use xlink:href="#DejaVuSans-69" transform="translate(516.560547 0)"/>
      <use xlink:href="#DejaVuSans-67" transform="translate(544.34375 0)"/>
      <use xlink:href="#DejaVuSans-68" transform="translate(607.820312 0)"/>
      <use xlink:href="#DejaVuSans-74" transform="translate(671.199219 0)"/>
      <use xlink:href="#DejaVuSans-73" transform="translate(710.408203 0)"/>
     </g>
    </g>
   </g>
   <g id="text_31">
    <g clip-path="url(#pfa341144d4)">
     <!-- visualize -->
     <g transform="translate(256.357381 381.773088) scale(0.08 -0.08)">
      <use xlink:href="#DejaVuSans-76"/>
      <use xlink:href="#DejaVuSans-69" transform="translate(59.179688 0)"/>
      <use xlink:href="#DejaVuSans-73" transform="translate(86.962891 0)"/>
      <use xlink:href="#DejaVuSans-75" transform="translate(139.0625 0)"/>
      <use xlink:href="#DejaVuSans-61" transform="translate(202.441406 0)"/>
      <use xlink:href="#DejaVuSans-6c" transform="translate(263.720703 0)"/>
      <use xlink:href="#DejaVuSans-69" transform="translate(291.503906 0)"/>
      <use xlink:href="#DejaVuSans-7a" transform="translate(319.287109 0)"/>
      <use xlink:href="#DejaVuSans-65" transform="translate(371.777344 0)"/>
     </g>
    </g>
   </g>
   <g id="text_32">
    <g clip-path="url(#pfa341144d4)">
     <!-- summary_charts -->
     <g transform="translate(407.936312 149.854436) scale(0.08 -0.08)">
      <use xlink:href="#DejaVuSans-73"/>
      <use xlink:href="#DejaVuSans-75" transform="translate(52.099609 0)"/>
      <use xlink:href="#DejaVuSans-6d" transform="translate(115.478516 0)"/>
      <use xlink:href="#DejaVuSans-6d" transform="translate(212.890625 0)"/>
      <use xlink:href="#DejaVuSans-61" transform="translate(310.302734 0)"/>
      <use xlink:href="#DejaVuSans-72" transform="translate(371.582031 0)"/>
      <use xlink:href="#DejaVuSans-79" transform="translate(412.695312 0)"/>
      <use xlink:href="#DejaVuSans-5f" transform="translate(471.875 0)"/>
      <use xlink:href="#DejaVuSans-63" transform="translate(521.875 0)"/>
      <use xlink:href="#DejaVuSans-68" transform="translate(576.855469 0)"/>
      <use xlink:href="#DejaVuSans-61" transform="translate(640.234375 0)"/>
      <use xlink:href="#DejaVuSans-72" transform="translate(701.513672 0)"/>
      <use xlink:href="#DejaVuSans-74" transform="translate(742.626953 0)"/>
      <use xlink:href="#DejaVuSans-73" transform="translate(781.835938 0)"/>
     </g>
    </g>
   </g>
   <g id="text_33">
    <g clip-path="url(#pfa341144d4)">
     <!-- correlation_heatmap -->
     <g transform="translate(399.928812 169.17172) scale(0.08 -0.08)">
      <use xlink:href="#DejaVuSans-63"/>
      <use xlink:href="#DejaVuSans-6f" transform="translate(54.980469 0)"/>
      <use xlink:href="#DejaVuSans-72" transform="translate(116.162109 0)"/>
      <use xlink:href="#DejaVuSans-72" transform="translate(155.525391 0)"/>
      <use xlink:href="#DejaVuSans-65" transform="translate(194.388672 0)"/>
      <use xlink:href="#DejaVuSans-6c" transform="translate(255.912109 0)"/>
      <use xlink:href="#DejaVuSans-61" transform="translate(283.695312 0)"/>
      <use xlink:href="#DejaVuSans-74" transform="translate(344.974609 0)"/>
      <use xlink:href="#DejaVuSans-69" transform="translate(384.183594 0)"/>
      <use xlink:href="#DejaVuSans-6f" transform="translate(411.966797 0)"/>
      <use xlink:href="#DejaVuSans-6e" transform="translate(473.148438 0)"/>
      <use xlink:href="#DejaVuSans-5f" transform="translate(536.527344 0)"/>
      <use xlink:href="#DejaVuSans-68" transform="translate(586.527344 0)"/>
      <use xlink:href="#DejaVuSans-65" transform="translate(649.90625 0)"/>
      <use xlink:href="#DejaVuSans-61" transform="translate(711.429688 0)"/>
      <use xlink:href="#DejaVuSans-74" transform="translate(772.708984 0)"/>
      <use xlink:href="#DejaVuSans-6d" transform="translate(811.917969 0)"/>
      <use xlink:href="#DejaVuSans-61" transform="translate(909.330078 0)"/>
      <use xlink:href="#DejaVuSans-70" transform="translate(970.609375 0)"/>
     </g>
    </g>
   </g>
   <g id="text_34">
    <g clip-path="url(#pfa341144d4)">
     <!-- anomaly_plots -->
     <g transform="translate(399.39 188.489003) scale(0.08 -0.08)">
      <use xlink:href="#DejaVuSans-61"/>
      <use xlink:href="#DejaVuSans-6e" transform="translate(61.279297 0)"/>
      <use xlink:href="#DejaVuSans-6f" transform="translate(124.658203 0)"/>
      <use xlink:href="#DejaVuSans-6d" transform="translate(185.839844 0)"/>
      <use xlink:href="#DejaVuSans-61" transform="translate(283.251953 0)"/>
      <use xlink:href="#DejaVuSans-6c" transform="translate(344.53125 0)"/>
      <use xlink:href="#DejaVuSans-79" transform="translate(372.314453 0)"/>
      <use xlink:href="#DejaVuSans-5f" transform="translate(431.494141 0)"/>
      <use xlink:href="#DejaVuSans-70" transform="translate(481.494141 0)"/>
      <use xlink:href="#DejaVuSans-6c" transform="translate(544.970703 0)"/>
      <use xlink:href="#DejaVuSans-6f" transform="translate(572.753906 0)"/>
      <use xlink:href="#DejaVuSans-74" transform="translate(633.935547 0)"/>
      <use xlink:href="#DejaVuSans-73" transform="translate(673.144531 0)"/>
     </g>
    </g>
   </g>
   <g id="text_35">
    <g clip-path="url(#pfa341144d4)">
     <!-- review -->
     <g transform="translate(324.925191 323.821238) scale(0.08 -0.08)">
      <use xlink:href="#DejaVuSans-72"/>
      <use xlink:href="#DejaVuSans-65" transform="translate(38.863281 0)"/>
      <use xlink:href="#DejaVuSans-76" transform="translate(100.386719 0)"/>
      <use xlink:href="#DejaVuSans-69" transform="translate(159.566406 0)"/>
      <use xlink:href="#DejaVuSans-65" transform="translate(187.349609 0)"/>
      <use xlink:href="#DejaVuSans-77" transform="translate(248.873047 0)"/>
     </g>
    </g>
   </g>
   <g id="text_36">
    <g clip-path="url(#pfa341144d4)">
     <!-- check_approval -->
     <g transform="translate(397.226875 207.806287) scale(0.08 -0.08)">
      <use xlink:href="#DejaVuSans-63"/>
      <use xlink:href="#DejaVuSans-68" transform="translate(54.980469 0)"/>
      <use xlink:href="#DejaVuSans-65" transform="translate(118.359375 0)"/>
      <use xlink:href="#DejaVuSans-63" transform="translate(179.882812 0)"/>
      <use xlink:href="#DejaVuSans-6b" transform="translate(234.863281 0)"/>
      <use xlink:href="#DejaVuSans-5f" transform="translate(292.773438 0)"/>
      <use xlink:href="#DejaVuSans-61" transform="translate(342.773438 0)"/>
      <use xlink:href="#DejaVuSans-70" transform="translate(404.052734 0)"/>
      <use xlink:href="#DejaVuSans-70" transform="translate(467.529297 0)"/>
      <use xlink:href="#DejaVuSans-72" transform="translate(531.005859 0)"/>
      <use xlink:href="#DejaVuSans-6f" transform="translate(569.869141 0)"/>
      <use xlink:href="#DejaVuSans-76" transform="translate(631.050781 0)"/>
      <use xlink:href="#DejaVuSans-61" transform="translate(690.230469 0)"/>
      <use xlink:href="#DejaVuSans-6c" transform="translate(751.509766 0)"/>
     </g>
    </g>
   </g>
   <g id="text_37">
    <g clip-path="url(#pfa341144d4)">
     <!-- revision_loop -->
     <g transform="translate(402.1825 227.12357) scale(0.08 -0.08)">
      <use xlink:href="#DejaVuSans-72"/>
      <use xlink:href="#DejaVuSans-65" transform="translate(38.863281 0)"/>
      <use xlink:href="#DejaVuSans-76" transform="translate(100.386719 0)"/>
      <use xlink:href="#DejaVuSans-69" transform="translate(159.566406 0)"/>
      <use xlink:href="#DejaVuSans-73" transform="translate(187.349609 0)"/>
      <use xlink:href="#DejaVuSans-69" transform="translate(239.449219 0)"/>
      <use xlink:href="#DejaVuSans-6f" transform="translate(267.232422 0)"/>
      <use xlink:href="#DejaVuSans-6e" transform="translate(328.414062 0)"/>
      <use xlink:href="#DejaVuSans-5f" transform="translate(391.792969 0)"/>
      <use xlink:href="#DejaVuSans-6c" transform="translate(441.792969 0)"/>
      <use xlink:href="#DejaVuSans-6f" transform="translate(469.576172 0)"/>
      <use xlink:href="#DejaVuSans-6f" transform="translate(530.757812 0)"/>
      <use xlink:href="#DejaVuSans-70" transform="translate(591.939453 0)"/>
     </g>
    </g>
   </g>
   <g id="text_38">
    <g clip-path="url(#pfa341144d4)">
     <!-- increment_revision -->
     <g transform="translate(390.40625 246.440854) scale(0.08 -0.08)">
      <use xlink:href="#DejaVuSans-69"/>
      <use xlink:href="#DejaVuSans-6e" transform="translate(27.783203 0)"/>
      <use xlink:href="#DejaVuSans-63" transform="translate(91.162109 0)"/>
      <use xlink:href="#DejaVuSans-72" transform="translate(146.142578 0)"/>
      <use xlink:href="#DejaVuSans-65" transform="translate(185.005859 0)"/>
      <use xlink:href="#DejaVuSans-6d" transform="translate(246.529297 0)"/>
      <use xlink:href="#DejaVuSans-65" transform="translate(343.941406 0)"/>
      <use xlink:href="#DejaVuSans-6e" transform="translate(405.464844 0)"/>
      <use xlink:href="#DejaVuSans-74" transform="translate(468.84375 0)"/>
      <use xlink:href="#DejaVuSans-5f" transform="translate(508.052734 0)"/>
      <use xlink:href="#DejaVuSans-72" transform="translate(558.052734 0)"/>
      <use xlink:href="#DejaVuSans-65" transform="translate(596.916016 0)"/>
      <use xlink:href="#DejaVuSans-76" transform="translate(658.439453 0)"/>
      <use xlink:href="#DejaVuSans-69" transform="translate(717.619141 0)"/>
      <use xlink:href="#DejaVuSans-73" transform="translate(745.402344 0)"/>
      <use xlink:href="#DejaVuSans-69" transform="translate(797.501953 0)"/>
      <use xlink:href="#DejaVuSans-6f" transform="translate(825.285156 0)"/>
      <use xlink:href="#DejaVuSans-6e" transform="translate(886.466797 0)"/>
     </g>
    </g>
   </g>
   <g id="text_39">
    <g clip-path="url(#pfa341144d4)">
     <!-- revision_limit_check -->
     <g transform="translate(362.433626 304.392704) scale(0.08 -0.08)">
      <use xlink:href="#DejaVuSans-72"/>
      <use xlink:href="#DejaVuSans-65" transform="translate(38.863281 0)"/>
      <use xlink:href="#DejaVuSans-76" transform="translate(100.386719 0)"/>
      <use xlink:href="#DejaVuSans-69" transform="translate(159.566406 0)"/>
      <use xlink:href="#DejaVuSans-73" transform="translate(187.349609 0)"/>
      <use xlink:href="#DejaVuSans-69" transform="translate(239.449219 0)"/>
      <use xlink:href="#DejaVuSans-6f" transform="translate(267.232422 0)"/>
      <use xlink:href="#DejaVuSans-6e" transform="translate(328.414062 0)"/>
      <use xlink:href="#DejaVuSans-5f" transform="translate(391.792969 0)"/>
      <use xlink:href="#DejaVuSans-6c" transform="translate(441.792969 0)"/>
      <use xlink:href="#DejaVuSans-69" transform="translate(469.576172 0)"/>
      <use xlink:href="#DejaVuSans-6d" transform="translate(497.359375 0)"/>
      <use xlink:href="#DejaVuSans-69" transform="translate(594.771484 0)"/>
      <use xlink:href="#DejaVuSans-74" transform="translate(622.554688 0)"/>
      <use xlink:href="#DejaVuSans-5f" transform="translate(661.763672 0)"/>
      <use xlink:href="#DejaVuSans-63" transform="translate(711.763672 0)"/>
      <use xlink:href="#DejaVuSans-68" transform="translate(766.744141 0)"/>
      <use xlink:href="#DejaVuSans-65" transform="translate(830.123047 0)"/>
      <use xlink:href="#DejaVuSans-63" transform="translate(891.646484 0)"/>
      <use xlink:href="#DejaVuSans-6b" transform="translate(946.626953 0)"/>
     </g>
    </g>
   </g>
   <g id="text_40">
    <g clip-path="url(#pfa341144d4)">
     <!-- report -->
     <g transform="translate(454.862686 285.186671) scale(0.08 -0.08)">
      <use xlink:href="#DejaVuSans-72"/>
      <use xlink:href="#DejaVuSans-65" transform="translate(38.863281 0)"/>
      <use xlink:href="#DejaVuSans-70" transform="translate(100.386719 0)"/>
      <use xlink:href="#DejaVuSans-6f" transform="translate(163.863281 0)"/>
      <use xlink:href="#DejaVuSans-72" transform="translate(225.044922 0)"/>
      <use xlink:href="#DejaVuSans-74" transform="translate(266.158203 0)"/>
     </g>
    </g>
   </g>
   <g id="text_41">
    <g clip-path="url(#pfa341144d4)">
     <!-- end -->
     <g transform="translate(446.649499 265.869387) scale(0.08 -0.08)">
      <use xlink:href="#DejaVuSans-65"/>
      <use xlink:href="#DejaVuSans-6e" transform="translate(61.523438 0)"/>
      <use xlink:href="#DejaVuSans-64" transform="translate(124.902344 0)"/>
     </g>
    </g>
   </g>
   <g id="text_42">
    <!-- eda_pipeline -->
    <g transform="translate(378.718594 17.837812) scale(0.14 -0.14)">
     <defs>
      <path id="DejaVuSans-Bold-65" d="M 4031 1759 
L 4031 1441 
L 1416 1441 
Q 1456 1047 1700 850 
Q 1944 653 2381 653 
Q 2734 653 3104 758 
Q 3475 863 3866 1075 
L 3866 213 
Q 3469 63 3072 -14 
Q 2675 -91 2278 -91 
Q 1328 -91 801 392 
Q 275 875 275 1747 
Q 275 2603 792 3093 
Q 1309 3584 2216 3584 
Q 3041 3584 3536 3087 
Q 4031 2591 4031 1759 
z
M 2881 2131 
Q 2881 2450 2695 2645 
Q 2509 2841 2209 2841 
Q 1884 2841 1681 2658 
Q 1478 2475 1428 2131 
L 2881 2131 
z
" transform="scale(0.015625)"/>
      <path id="DejaVuSans-Bold-64" d="M 2919 2988 
L 2919 4863 
L 4044 4863 
L 4044 0 
L 2919 0 
L 2919 506 
Q 2688 197 2409 53 
Q 2131 -91 1766 -91 
Q 1119 -91 703 423 
Q 288 938 288 1747 
Q 288 2556 703 3070 
Q 1119 3584 1766 3584 
Q 2128 3584 2408 3439 
Q 2688 3294 2919 2988 
z
M 2181 722 
Q 2541 722 2730 984 
Q 2919 1247 2919 1747 
Q 2919 2247 2730 2509 
Q 2541 2772 2181 2772 
Q 1825 2772 1636 2509 
Q 1447 2247 1447 1747 
Q 1447 1247 1636 984 
Q 1825 722 2181 722 
z
" transform="scale(0.015625)"/>
      <path id="DejaVuSans-Bold-61" d="M 2106 1575 
Q 1756 1575 1579 1456 
Q 1403 1338 1403 1106 
Q 1403 894 1545 773 
Q 1688 653 1941 653 
Q 2256 653 2472 879 
Q 2688 1106 2688 1447 
L 2688 1575 
L 2106 1575 
z
M 3816 1997 
L 3816 0 
L 2688 0 
L 2688 519 
Q 2463 200 2181 54 
Q 1900 -91 1497 -91 
Q 953 -91 614 226 
Q 275 544 275 1050 
Q 275 1666 698 1953 
Q 1122 2241 2028 2241 
L 2688 2241 
L 2688 2328 
Q 2688 2594 2478 2717 
Q 2269 2841 1825 2841 
Q 1466 2841 1156 2769 
Q 847 2697 581 2553 
L 581 3406 
Q 941 3494 1303 3539 
Q 1666 3584 2028 3584 
Q 2975 3584 3395 3211 
Q 3816 2838 3816 1997 
z
" transform="scale(0.015625)"/>
      <path id="DejaVuSans-Bold-5f" d="M 3200 -916 
L 3200 -1509 
L 0 -1509 
L 0 -916 
L 3200 -916 
z
" transform="scale(0.015625)"/>
      <path id="DejaVuSans-Bold-70" d="M 1656 506 
L 1656 -1331 
L 538 -1331 
L 538 3500 
L 1656 3500 
L 1656 2988 
Q 1888 3294 2169 3439 
Q 2450 3584 2816 3584 
Q 3463 3584 3878 3070 
Q 4294 2556 4294 1747 
Q 4294 938 3878 423 
Q 3463 -91 2816 -91 
Q 2450 -91 2169 54 
Q 1888 200 1656 506 
z
M 2400 2772 
Q 2041 2772 1848 2508 
Q 1656 2244 1656 1747 
Q 1656 1250 1848 986 
Q 2041 722 2400 722 
Q 2759 722 2948 984 
Q 3138 1247 3138 1747 
Q 3138 2247 2948 2509 
Q 2759 2772 2400 2772 
z
" transform="scale(0.015625)"/>
      <path id="DejaVuSans-Bold-69" d="M 538 3500 
L 1656 3500 
L 1656 0 
L 538 0 
L 538 3500 
z
M 538 4863 
L 1656 4863 
L 1656 3950 
L 538 3950 
L 538 4863 
z
" transform="scale(0.015625)"/>
      <path id="DejaVuSans-Bold-6c" d="M 538 4863 
L 1656 4863 
L 1656 0 
L 538 0 
L 538 4863 
z
" transform="scale(0.015625)"/>
      <path id="DejaVuSans-Bold-6e" d="M 4056 2131 
L 4056 0 
L 2931 0 
L 2931 347 
L 2931 1631 
Q 2931 2084 2911 2256 
Q 2891 2428 2841 2509 
Q 2775 2619 2662 2680 
Q 2550 2741 2406 2741 
Q 2056 2741 1856 2470 
Q 1656 2200 1656 1722 
L 1656 0 
L 538 0 
L 538 3500 
L 1656 3500 
L 1656 2988 
Q 1909 3294 2193 3439 
Q 2478 3584 2822 3584 
Q 3428 3584 3742 3212 
Q 4056 2841 4056 2131 
z
" transform="scale(0.015625)"/>
     </defs>
     <use xlink:href="#DejaVuSans-Bold-65"/>
     <use xlink:href="#DejaVuSans-Bold-64" transform="translate(67.822266 0)"/>
     <use xlink:href="#DejaVuSans-Bold-61" transform="translate(139.404297 0)"/>
     <use xlink:href="#DejaVuSans-Bold-5f" transform="translate(206.884766 0)"/>
     <use xlink:href="#DejaVuSans-Bold-70" transform="translate(256.884766 0)"/>
     <use xlink:href="#DejaVuSans-Bold-69" transform="translate(328.466797 0)"/>
     <use xlink:href="#DejaVuSans-Bold-70" transform="translate(362.744141 0)"/>
     <use xlink:href="#DejaVuSans-Bold-65" transform="translate(434.326172 0)"/>
     <use xlink:href="#DejaVuSans-Bold-6c" transform="translate(502.148438 0)"/>
     <use xlink:href="#DejaVuSans-Bold-69" transform="translate(536.425781 0)"/>
     <use xlink:href="#DejaVuSans-Bold-6e" transform="translate(570.703125 0)"/>
     <use xlink:href="#DejaVuSans-Bold-65" transform="translate(641.894531 0)"/>
    </g>
   </g>
  </g>
 </g>
 <defs>
  <clipPath id="pfa341144d4">
   <rect x="7.2" y="23.837812" width="842.4" height="537.6"/>
  </clipPath>
 </defs>
</svg>
