<?xml version="1.0" encoding="utf-8" standalone="no"?>
<!DOCTYPE svg PUBLIC "-//W3C//DTD SVG 1.1//EN"
  "http://www.w3.org/Graphics/SVG/1.1/DTD/svg11.dtd">
<svg xmlns:xlink="http://www.w3.org/1999/xlink" width="856.8pt" height="568.637812pt" viewBox="0 0 856.8 568.637812" xmlns="http://www.w3.org/2000/svg" version="1.1">
 <metadata>
  <rdf:RDF xmlns:dc="http://purl.org/dc/elements/1.1/" xmlns:cc="http://creativecommons.org/ns#" xmlns:rdf="http://www.w3.org/1999/02/22-rdf-syntax-ns#">
   <cc:Work>
    <dc:type rdf:resource="http://purl.org/dc/dcmitype/StillImage"/>
    <dc:date>2026-01-03T04:01:07.356037</dc:date>
    <dc:format>image/svg+xml</dc:format>
    <dc:creator>
     <cc:Agent>
      <dc:title>Matplotlib v3.10.8, https://matplotlib.org/</dc:title>
     </cc:Agent>
    </dc:creator>
   </cc:Work>
  </rdf:RDF>
 </metadata>
 <defs>
  <style type="text/css">*{stroke-linejoin: round; stroke-linecap: butt}</style>
 </defs>
 <g id="figure_1">
  <g id="patch_1">
   <path d="M 0 568.637812 
L 856.8 568.637812 
L 856.8 0 
L 0 0 
z
" style="fill: #ffffff"/>
  </g>
  <g id="axes_1">
   <g id="patch_2">
    <path d="M 120.466116 484.815543 
Q 120.466116 485.813032 120.466116 485.692486 
" clip-path="url(#p6aa6d66fbf)" style="fill: none; stroke: #666666; stroke-linecap: round"/>
    <path d="M 122.466116 481.692486 
L 120.466116 485.692486 
L 118.466116 481.692486 
z
" clip-path="url(#p6aa6d66fbf)" style="fill: #666666; stroke: #666666; stroke-linecap: round"/>
   </g>
   <g id="patch_3">
    <path d="M 112.663008 499.222153 
Q 100.382998 505.128159 89.11055 510.549583 
" clip-path="url(#p6aa6d66fbf)" style="fill: none; stroke: #666666; stroke-linecap: round"/>
    <path d="M 93.582158 510.618273 
L 89.11055 510.549583 
L 91.848467 507.01351 
z
" clip-path="url(#p6aa6d66fbf)" style="fill: #666666; stroke: #666666; stroke-linecap: round"/>
   </g>
   <g id="patch_4">
    <path d="M 88.961344 514.786573 
Q 428.401412 514.786573 766.723446 514.786573 
" clip-path="url(#p6aa6d66fbf)" style="fill: none; stroke: #666666; stroke-linecap: round"/>
    <path d="M 762.723446 512.786573 
L 766.723446 514.786573 
L 762.723446 516.786573 
z
" clip-path="url(#p6aa6d66fbf)" style="fill: #666666; stroke: #666666; stroke-linecap: round"/>
   </g>
   <g id="patch_5">
    <path d="M 85.235685 507.66639 
Q 100.383437 485.810696 114.894313 464.873909 
" clip-path="url(#p6aa6d66fbf)" style="fill: none; stroke: #666666; stroke-linecap: round"/>
    <path d="M 110.971967 467.02221 
L 114.894313 464.873909 
L 114.259546 469.300767 
z
" clip-path="url(#p6aa6d66fbf)" style="fill: #666666; stroke: #666666; stroke-linecap: round"/>
   </g>
   <g id="patch_6">
    <path d="M 129.092466 457.596746 
Q 448.481323 485.810531 766.756482 513.925935 
" clip-path="url(#p6aa6d66fbf)" style="fill: none; stroke: #666666; stroke-linecap: round"/>
    <path d="M 762.947987 511.581716 
L 766.756482 513.925935 
L 762.59601 515.5662 
z
" clip-path="url(#p6aa6d66fbf)" style="fill: #666666; stroke: #666666; stroke-linecap: round"/>
   </g>
   <g id="patch_7">
    <path d="M 771.56554 507.668159 
Q 743.02796 466.493164 715.127256 426.237076 
" clip-path="url(#p6aa6d66fbf)" style="fill: none; stroke: #666666; stroke-linecap: round"/>
    <path d="M 715.762024 430.663934 
L 715.127256 426.237076 
L 719.049603 428.385377 
z
" clip-path="url(#p6aa6d66fbf)" style="fill: #666666; stroke: #666666; stroke-linecap: round"/>
   </g>
   <g id="patch_8">
    <path d="M 138.789404 430.397256 
Q 153.937156 408.541562 168.448032 387.604775 
" clip-path="url(#p6aa6d66fbf)" style="fill: none; stroke: #666666; stroke-linecap: round"/>
    <path d="M 164.525686 389.753076 
L 168.448032 387.604775 
L 167.813265 392.031633 
z
" clip-path="url(#p6aa6d66fbf)" style="fill: #666666; stroke: #666666; stroke-linecap: round"/>
   </g>
   <g id="patch_9">
    <path d="M 178.953876 386.684592 
Q 180.713487 389.223419 181.836222 390.843339 
" clip-path="url(#p6aa6d66fbf)" style="fill: none; stroke: #666666; stroke-linecap: round"/>
    <path d="M 181.201455 386.416481 
L 181.836222 390.843339 
L 177.913875 388.695038 
z
" clip-path="url(#p6aa6d66fbf)" style="fill: #666666; stroke: #666666; stroke-linecap: round"/>
   </g>
   <g id="patch_10">
    <path d="M 196.064799 399.203127 
Q 448.483884 408.541559 699.7857 417.838658 
" clip-path="url(#p6aa6d66fbf)" style="fill: none; stroke: #666666; stroke-linecap: round"/>
    <path d="M 695.862375 415.692143 
L 699.7857 417.838658 
L 695.714494 419.689409 
z
" clip-path="url(#p6aa6d66fbf)" style="fill: #666666; stroke: #666666; stroke-linecap: round"/>
   </g>
   <g id="patch_11">
    <path d="M 704.622166 411.079972 
Q 689.474414 389.224279 674.963538 368.287492 
" clip-path="url(#p6aa6d66fbf)" style="fill: none; stroke: #666666; stroke-linecap: round"/>
    <path d="M 675.598305 372.71435 
L 674.963538 368.287492 
L 678.885885 370.435793 
z
" clip-path="url(#p6aa6d66fbf)" style="fill: #666666; stroke: #666666; stroke-linecap: round"/>
   </g>
   <g id="patch_12">
    <path d="M 664.457694 353.129301 
Q 662.698083 350.590474 661.575348 348.970554 
" clip-path="url(#p6aa6d66fbf)" style="fill: none; stroke: #666666; stroke-linecap: round"/>
    <path d="M 662.210115 353.397412 
L 661.575348 348.970554 
L 665.497695 351.118855 
z
" clip-path="url(#p6aa6d66fbf)" style="fill: #666666; stroke: #666666; stroke-linecap: round"/>
   </g>
   <g id="patch_13">
    <path d="M 651.069264 333.812017 
Q 649.309653 331.273191 648.186918 329.653271 
" clip-path="url(#p6aa6d66fbf)" style="fill: none; stroke: #666666; stroke-linecap: round"/>
    <path d="M 648.821686 334.080129 
L 648.186918 329.653271 
L 652.109265 331.801572 
z
" clip-path="url(#p6aa6d66fbf)" style="fill: #666666; stroke: #666666; stroke-linecap: round"/>
   </g>
   <g id="patch_14">
    <path d="M 205.731553 372.445405 
Q 240.961703 321.614142 275.554977 271.701785 
" clip-path="url(#p6aa6d66fbf)" style="fill: none; stroke: #666666; stroke-linecap: round"/>
    <path d="M 271.632631 273.850086 
L 275.554977 271.701785 
L 274.92021 276.128643 
z
" clip-path="url(#p6aa6d66fbf)" style="fill: #666666; stroke: #666666; stroke-linecap: round"/>
   </g>
   <g id="patch_15">
    <path d="M 286.061314 270.780891 
Q 287.820925 273.319718 288.94366 274.939638 
" clip-path="url(#p6aa6d66fbf)" style="fill: none; stroke: #666666; stroke-linecap: round"/>
    <path d="M 288.308893 270.51278 
L 288.94366 274.939638 
L 285.021313 272.791337 
z
" clip-path="url(#p6aa6d66fbf)" style="fill: #666666; stroke: #666666; stroke-linecap: round"/>
   </g>
   <g id="patch_16">
    <path d="M 299.449744 290.098175 
Q 301.209355 292.637001 302.33209 294.256921 
" clip-path="url(#p6aa6d66fbf)" style="fill: none; stroke: #666666; stroke-linecap: round"/>
    <path d="M 301.697323 289.830063 
L 302.33209 294.256921 
L 298.409743 292.10862 
z
" clip-path="url(#p6aa6d66fbf)" style="fill: #666666; stroke: #666666; stroke-linecap: round"/>
   </g>
   <g id="patch_17">
    <path d="M 316.548205 302.795333 
Q 475.260421 311.955149 632.85646 321.050547 
" clip-path="url(#p6aa6d66fbf)" style="fill: none; stroke: #666666; stroke-linecap: round"/>
    <path d="M 628.97834 318.823399 
L 632.85646 321.050547 
L 628.74787 322.816754 
z
" clip-path="url(#p6aa6d66fbf)" style="fill: #666666; stroke: #666666; stroke-linecap: round"/>
   </g>
   <g id="patch_18">
    <path d="M 637.680017 314.493555 
Q 622.532265 292.637861 608.021389 271.701074 
" clip-path="url(#p6aa6d66fbf)" style="fill: none; stroke: #666666; stroke-linecap: round"/>
    <path d="M 608.656156 276.127932 
L 608.021389 271.701074 
L 611.943736 273.849375 
z
" clip-path="url(#p6aa6d66fbf)" style="fill: #666666; stroke: #666666; stroke-linecap: round"/>
   </g>
   <g id="patch_19">
    <path d="M 597.515545 256.542883 
Q 595.755934 254.004057 594.633199 252.384137 
" clip-path="url(#p6aa6d66fbf)" style="fill: none; stroke: #666666; stroke-linecap: round"/>
    <path d="M 595.267967 256.810995 
L 594.633199 252.384137 
L 598.555546 254.532438 
z
" clip-path="url(#p6aa6d66fbf)" style="fill: #666666; stroke: #666666; stroke-linecap: round"/>
   </g>
   <g id="patch_20">
    <path d="M 580.493183 245.58082 
Q 455.17821 263.661692 330.969812 281.582904 
" clip-path="url(#p6aa6d66fbf)" style="fill: none; stroke: #666666; stroke-linecap: round"/>
    <path d="M 335.214425 282.991187 
L 330.969812 281.582904 
L 334.643206 279.032184 
z
" clip-path="url(#p6aa6d66fbf)" style="fill: #666666; stroke: #666666; stroke-linecap: round"/>
   </g>
   <g id="patch_21">
    <path d="M 584.128137 237.227074 
Q 528.812757 157.416155 474.134253 78.524143 
" clip-path="url(#p6aa6d66fbf)" style="fill: none; stroke: #666666; stroke-linecap: round"/>
    <path d="M 474.76902 82.951001 
L 474.134253 78.524143 
L 478.056599 80.672444 
z
" clip-path="url(#p6aa6d66fbf)" style="fill: #666666; stroke: #666666; stroke-linecap: round"/>
   </g>
   <g id="patch_22">
    <path d="M 463.631248 77.608056 
Q 461.871637 80.146882 460.748902 81.766803 
" clip-path="url(#p6aa6d66fbf)" style="fill: none; stroke: #666666; stroke-linecap: round"/>
    <path d="M 464.671248 79.618501 
L 460.748902 81.766803 
L 461.383669 77.339945 
z
" clip-path="url(#p6aa6d66fbf)" style="fill: #666666; stroke: #666666; stroke-linecap: round"/>
   </g>
   <g id="patch_23">
    <path d="M 450.243226 96.92475 
Q 388.23432 186.393318 326.862289 274.942979 
" clip-path="url(#p6aa6d66fbf)" style="fill: none; stroke: #666666; stroke-linecap: round"/>
    <path d="M 330.784635 272.794678 
L 326.862289 274.942979 
L 327.497056 270.516121 
z
" clip-path="url(#p6aa6d66fbf)" style="fill: #666666; stroke: #666666; stroke-linecap: round"/>
   </g>
   <g id="patch_24">
    <path d="M 458.012422 97.988828 
Q 461.8712 109.123983 465.363894 119.202738 
" clip-path="url(#p6aa6d66fbf)" style="fill: none; stroke: #666666; stroke-linecap: round"/>
    <path d="M 465.943894 114.768372 
L 465.363894 119.202738 
L 462.164401 116.078118 
z
" clip-path="url(#p6aa6d66fbf)" style="fill: #666666; stroke: #666666; stroke-linecap: round"/>
   </g>
   <g id="patch_25">
    <path d="M 455.17686 98.469873 
Q 455.17686 99.467361 455.17686 99.346816 
" clip-path="url(#p6aa6d66fbf)" style="fill: none; stroke: #666666; stroke-linecap: round"/>
    <path d="M 457.17686 95.346816 
L 455.17686 99.346816 
L 453.17686 95.346816 
z
" clip-path="url(#p6aa6d66fbf)" style="fill: #666666; stroke: #666666; stroke-linecap: round"/>
   </g>
   <g id="patch_26">
    <path d="M 460.110901 116.242623 
Q 461.870512 118.781449 462.993247 120.40137 
" clip-path="url(#p6aa6d66fbf)" style="fill: none; stroke: #666666; stroke-linecap: round"/>
    <path d="M 462.35848 115.974512 
L 462.993247 120.40137 
L 459.0709 118.253068 
z
" clip-path="url(#p6aa6d66fbf)" style="fill: #666666; stroke: #666666; stroke-linecap: round"/>
   </g>
   <g id="patch_27">
    <path d="M 462.589975 134.711002 
Q 394.928445 205.710541 328.038228 275.900714 
" clip-path="url(#p6aa6d66fbf)" style="fill: none; stroke: #666666; stroke-linecap: round"/>
    <path d="M 332.245606 274.384806 
L 328.038228 275.900714 
L 329.349928 271.625268 
z
" clip-path="url(#p6aa6d66fbf)" style="fill: #666666; stroke: #666666; stroke-linecap: round"/>
   </g>
   <g id="patch_28">
    <path d="M 328.911808 278.85668 
Q 374.847068 254.00282 419.799001 229.681001 
" clip-path="url(#p6aa6d66fbf)" style="fill: none; stroke: #666666; stroke-linecap: round"/>
    <path d="M 415.329199 229.825462 
L 419.799001 229.681001 
L 417.232689 233.343519 
z
" clip-path="url(#p6aa6d66fbf)" style="fill: #666666; stroke: #666666; stroke-linecap: round"/>
   </g>
   <g id="patch_29">
    <path d="M 468.565289 156.421724 
Q 468.565289 157.419212 468.565289 157.298666 
" clip-path="url(#p6aa6d66fbf)" style="fill: none; stroke: #666666; stroke-linecap: round"/>
    <path d="M 470.565289 153.298666 
L 468.565289 157.298666 
L 466.565289 153.298666 
z
" clip-path="url(#p6aa6d66fbf)" style="fill: #666666; stroke: #666666; stroke-linecap: round"/>
   </g>
   <g id="patch_30">
    <path d="M 463.631248 174.194473 
Q 461.871637 176.7333 460.748902 178.35322 
" clip-path="url(#p6aa6d66fbf)" style="fill: none; stroke: #666666; stroke-linecap: round"/>
    <path d="M 464.671248 176.204919 
L 460.748902 178.35322 
L 461.383669 173.926362 
z
" clip-path="url(#p6aa6d66fbf)" style="fill: #666666; stroke: #666666; stroke-linecap: round"/>
   </g>
   <g id="patch_31">
    <path d="M 450.242818 193.511757 
Q 441.789125 205.709034 433.972308 216.987405 
" clip-path="url(#p6aa6d66fbf)" style="fill: none; stroke: #666666; stroke-linecap: round"/>
    <path d="M 437.894654 214.839103 
L 433.972308 216.987405 
L 434.607075 212.560547 
z
" clip-path="url(#p6aa6d66fbf)" style="fill: #666666; stroke: #666666; stroke-linecap: round"/>
   </g>
   <g id="patch_32">
    <path d="M 435.424349 219.959835 
Q 441.788699 215.368484 447.246335 211.431252 
" clip-path="url(#p6aa6d66fbf)" style="fill: none; stroke: #666666; stroke-linecap: round"/>
    <path d="M 442.832256 212.14952 
L 447.246335 211.431252 
L 445.172501 215.393476 
z
" clip-path="url(#p6aa6d66fbf)" style="fill: #666666; stroke: #666666; stroke-linecap: round"/>
   </g>
   <g id="text_1">
    <g id="patch_33">
     <path d="M 421.218756 520.273917 
L 435.584069 520.273917 
Q 437.684069 520.273917 437.684069 518.173917 
L 437.684069 511.399229 
Q 437.684069 509.299229 435.584069 509.299229 
L 421.218756 509.299229 
Q 419.118756 509.299229 419.118756 511.399229 
L 419.118756 518.173917 
Q 419.118756 520.273917 421.218756 520.273917 
z
" clip-path="url(#p6aa6d66fbf)" style="fill: #ffffff; stroke: #ffffff; stroke-linejoin: miter"/>
    </g>
    <g clip-path="url(#p6aa6d66fbf)">
     <!-- true -->
     <g transform="translate(421.218756 516.718135) scale(0.07 -0.07)">
      <defs>
       <path id="DejaVuSans-74" d="M 1172 4494 
L 1172 3500 
L 2356 3500 
L 2356 3053 
L 1172 3053 
L 1172 1153 
Q 1172 725 1289 603 
Q 1406 481 1766 481 
L 2356 481 
L 2356 0 
L 1766 0 
Q 1100 0 847 248 
Q 594 497 594 1153 
L 594 3053 
L 172 3053 
L 172 3500 
L 594 3500 
L 594 4494 
L 1172 4494 
z
" transform="scale(0.015625)"/>
       <path id="DejaVuSans-72" d="M 2631 2963 
Q 2534 3019 2420 3045 
Q 2306 3072 2169 3072 
Q 1681 3072 1420 2755 
Q 1159 2438 1159 1844 
L 1159 0 
L 581 0 
L 581 3500 
L 1159 3500 
L 1159 2956 
Q 1341 3275 1631 3429 
Q 1922 3584 2338 3584 
Q 2397 3584 2469 3576 
Q 2541 3569 2628 3553 
L 2631 2963 
z
" transform="scale(0.015625)"/>
       <path id="DejaVuSans-75" d="M 544 1381 
L 544 3500 
L 1119 3500 
L 1119 1403 
Q 1119 906 1312 657 
Q 1506 409 1894 409 
Q 2359 409 2629 706 
Q 2900 1003 2900 1516 
L 2900 3500 
L 3475 3500 
L 3475 0 
L 2900 0 
L 2900 538 
Q 2691 219 2414 64 
Q 2138 -91 1772 -91 
Q 1169 -91 856 284 
Q 544 659 544 1381 
z
M 1991 3584 
L 1991 3584 
z
" transform="scale(0.015625)"/>
       <path id="DejaVuSans-65" d="M 3597 1894 
L 3597 1613 
L 953 1613 
Q 991 1019 1311 708 
Q 1631 397 2203 397 
Q 2534 397 2845 478 
Q 3156 559 3463 722 
L 3463 178 
Q 3153 47 2828 -22 
Q 2503 -91 2169 -91 
Q 1331 -91 842 396 
Q 353 884 353 1716 
Q 353 2575 817 3079 
Q 1281 3584 2069 3584 
Q 2775 3584 3186 3129 
Q 3597 2675 3597 1894 
z
M 3022 2063 
Q 3016 2534 2758 2815 
Q 2500 3097 2075 3097 
Q 1594 3097 1305 2825 
Q 1016 2553 972 2059 
L 3022 2063 
z
" transform="scale(0.015625)"/>
      </defs>
      <use xlink:href="#DejaVuSans-74"/>
      <use xlink:href="#DejaVuSans-72" transform="translate(39.208984 0)"/>
      <use xlink:href="#DejaVuSans-75" transform="translate(80.322266 0)"/>
      <use xlink:href="#DejaVuSans-65" transform="translate(143.701172 0)"/>
     </g>
    </g>
   </g>
   <g id="text_2">
    <g id="patch_34">
     <path d="M 100.150543 495.779741 
L 109.636371 482.093265 
Q 110.832613 480.367285 109.106634 479.171043 
L 103.538553 475.311915 
Q 101.812574 474.115673 100.616331 475.841652 
L 91.130504 489.528128 
Q 89.934261 491.254108 91.660241 492.45035 
L 97.228322 496.309477 
Q 98.954301 497.50572 100.150543 495.779741 
z
" clip-path="url(#p6aa6d66fbf)" style="fill: #ffffff; stroke: #ffffff; stroke-linejoin: miter"/>
    </g>
    <g clip-path="url(#p6aa6d66fbf)">
     <!-- false -->
     <g transform="translate(97.228065 493.754228) rotate(-55.27493) scale(0.07 -0.07)">
      <defs>
       <path id="DejaVuSans-66" d="M 2375 4863 
L 2375 4384 
L 1825 4384 
Q 1516 4384 1395 4259 
Q 1275 4134 1275 3809 
L 1275 3500 
L 2222 3500 
L 2222 3053 
L 1275 3053 
L 1275 0 
L 697 0 
L 697 3053 
L 147 3053 
L 147 3500 
L 697 3500 
L 697 3744 
Q 697 4328 969 4595 
Q 1241 4863 1831 4863 
L 2375 4863 
z
" transform="scale(0.015625)"/>
       <path id="DejaVuSans-61" d="M 2194 1759 
Q 1497 1759 1228 1600 
Q 959 1441 959 1056 
Q 959 750 1161 570 
Q 1363 391 1709 391 
Q 2188 391 2477 730 
Q 2766 1069 2766 1631 
L 2766 1759 
L 2194 1759 
z
M 3341 1997 
L 3341 0 
L 2766 0 
L 2766 531 
Q 2569 213 2275 61 
Q 1981 -91 1556 -91 
Q 1019 -91 701 211 
Q 384 513 384 1019 
Q 384 1609 779 1909 
Q 1175 2209 1959 2209 
L 2766 2209 
L 2766 2266 
Q 2766 2663 2505 2880 
Q 2244 3097 1772 3097 
Q 1472 3097 1187 3025 
Q 903 2953 641 2809 
L 641 3341 
Q 956 3463 1253 3523 
Q 1550 3584 1831 3584 
Q 2591 3584 2966 3190 
Q 3341 2797 3341 1997 
z
" transform="scale(0.015625)"/>
       <path id="DejaVuSans-6c" d="M 603 4863 
L 1178 4863 
L 1178 0 
L 603 0 
L 603 4863 
z
" transform="scale(0.015625)"/>
       <path id="DejaVuSans-73" d="M 2834 3397 
L 2834 2853 
Q 2591 2978 2328 3040 
Q 2066 3103 1784 3103 
Q 1356 3103 1142 2972 
Q 928 2841 928 2578 
Q 928 2378 1081 2264 
Q 1234 2150 1697 2047 
L 1894 2003 
Q 2506 1872 2764 1633 
Q 3022 1394 3022 966 
Q 3022 478 2636 193 
Q 2250 -91 1575 -91 
Q 1294 -91 989 -36 
Q 684 19 347 128 
L 347 722 
Q 666 556 975 473 
Q 1284 391 1588 391 
Q 1994 391 2212 530 
Q 2431 669 2431 922 
Q 2431 1156 2273 1281 
Q 2116 1406 1581 1522 
L 1381 1569 
Q 847 1681 609 1914 
Q 372 2147 372 2553 
Q 372 3047 722 3315 
Q 1072 3584 1716 3584 
Q 2034 3584 2315 3537 
Q 2597 3491 2834 3397 
z
" transform="scale(0.015625)"/>
      </defs>
      <use xlink:href="#DejaVuSans-66"/>
      <use xlink:href="#DejaVuSans-61" transform="translate(35.205078 0)"/>
      <use xlink:href="#DejaVuSans-6c" transform="translate(96.484375 0)"/>
      <use xlink:href="#DejaVuSans-73" transform="translate(124.267578 0)"/>
      <use xlink:href="#DejaVuSans-65" transform="translate(176.367188 0)"/>
     </g>
    </g>
   </g>
   <g id="text_3">
    <g id="patch_35">
     <path d="M 448.852788 270.118512 
L 463.070869 268.067079 
Q 465.149345 267.767189 464.849456 265.688713 
L 463.881999 258.98346 
Q 463.582109 256.904983 461.503632 257.204872 
L 447.285551 259.256306 
Q 445.207074 259.556195 445.506964 261.634672 
L 446.474421 268.339925 
Q 446.774311 270.418402 448.852788 270.118512 
z
" clip-path="url(#p6aa6d66fbf)" style="fill: #ffffff; stroke: #ffffff; stroke-linejoin: miter"/>
    </g>
    <g clip-path="url(#p6aa6d66fbf)">
     <!-- true -->
     <g transform="translate(448.345006 266.599175) rotate(-8.210171) scale(0.07 -0.07)">
      <use xlink:href="#DejaVuSans-74"/>
      <use xlink:href="#DejaVuSans-72" transform="translate(39.208984 0)"/>
      <use xlink:href="#DejaVuSans-75" transform="translate(80.322266 0)"/>
      <use xlink:href="#DejaVuSans-65" transform="translate(143.701172 0)"/>
     </g>
    </g>
   </g>
   <g id="text_4">
    <g id="patch_36">
     <path d="M 519.559823 153.698723 
L 529.045651 167.385199 
Q 530.241893 169.111178 531.967872 167.914936 
L 537.535953 164.055809 
Q 539.261933 162.859566 538.06569 161.133587 
L 528.579863 147.447111 
Q 527.38362 145.721132 525.657641 146.917374 
L 520.08956 150.776502 
Q 518.363581 151.972744 519.559823 153.698723 
z
" clip-path="url(#p6aa6d66fbf)" style="fill: #ffffff; stroke: #ffffff; stroke-linejoin: miter"/>
    </g>
    <g clip-path="url(#p6aa6d66fbf)">
     <!-- false -->
     <g transform="translate(522.482302 151.673211) rotate(-304.72507) scale(0.07 -0.07)">
      <use xlink:href="#DejaVuSans-66"/>
      <use xlink:href="#DejaVuSans-61" transform="translate(35.205078 0)"/>
      <use xlink:href="#DejaVuSans-6c" transform="translate(96.484375 0)"/>
      <use xlink:href="#DejaVuSans-73" transform="translate(124.267578 0)"/>
      <use xlink:href="#DejaVuSans-65" transform="translate(176.367188 0)"/>
     </g>
    </g>
   </g>
   <g id="text_5">
    <g id="patch_37">
     <path d="M 384.766898 201.029248 
L 400.72178 178.009 
Q 401.918023 176.28302 400.192043 175.086778 
L 394.623962 171.22765 
Q 392.897983 170.031408 391.701741 171.757387 
L 375.746859 194.777635 
Q 374.550617 196.503615 376.276596 197.699857 
L 381.844677 201.558985 
Q 383.570656 202.755227 384.766898 201.029248 
z
" clip-path="url(#p6aa6d66fbf)" style="fill: #ffffff; stroke: #ffffff; stroke-linejoin: miter"/>
    </g>
    <g clip-path="url(#p6aa6d66fbf)">
     <!-- Proceed -->
     <g transform="translate(381.84442 199.003735) rotate(-55.27493) scale(0.07 -0.07)">
      <defs>
       <path id="DejaVuSans-50" d="M 1259 4147 
L 1259 2394 
L 2053 2394 
Q 2494 2394 2734 2622 
Q 2975 2850 2975 3272 
Q 2975 3691 2734 3919 
Q 2494 4147 2053 4147 
L 1259 4147 
z
M 628 4666 
L 2053 4666 
Q 2838 4666 3239 4311 
Q 3641 3956 3641 3272 
Q 3641 2581 3239 2228 
Q 2838 1875 2053 1875 
L 1259 1875 
L 1259 0 
L 628 0 
L 628 4666 
z
" transform="scale(0.015625)"/>
       <path id="DejaVuSans-6f" d="M 1959 3097 
Q 1497 3097 1228 2736 
Q 959 2375 959 1747 
Q 959 1119 1226 758 
Q 1494 397 1959 397 
Q 2419 397 2687 759 
Q 2956 1122 2956 1747 
Q 2956 2369 2687 2733 
Q 2419 3097 1959 3097 
z
M 1959 3584 
Q 2709 3584 3137 3096 
Q 3566 2609 3566 1747 
Q 3566 888 3137 398 
Q 2709 -91 1959 -91 
Q 1206 -91 779 398 
Q 353 888 353 1747 
Q 353 2609 779 3096 
Q 1206 3584 1959 3584 
z
" transform="scale(0.015625)"/>
       <path id="DejaVuSans-63" d="M 3122 3366 
L 3122 2828 
Q 2878 2963 2633 3030 
Q 2388 3097 2138 3097 
Q 1578 3097 1268 2742 
Q 959 2388 959 1747 
Q 959 1106 1268 751 
Q 1578 397 2138 397 
Q 2388 397 2633 464 
Q 2878 531 3122 666 
L 3122 134 
Q 2881 22 2623 -34 
Q 2366 -91 2075 -91 
Q 1284 -91 818 406 
Q 353 903 353 1747 
Q 353 2603 823 3093 
Q 1294 3584 2113 3584 
Q 2378 3584 2631 3529 
Q 2884 3475 3122 3366 
z
" transform="scale(0.015625)"/>
       <path id="DejaVuSans-64" d="M 2906 2969 
L 2906 4863 
L 3481 4863 
L 3481 0 
L 2906 0 
L 2906 525 
Q 2725 213 2448 61 
Q 2172 -91 1784 -91 
Q 1150 -91 751 415 
Q 353 922 353 1747 
Q 353 2572 751 3078 
Q 1150 3584 1784 3584 
Q 2172 3584 2448 3432 
Q 2725 3281 2906 2969 
z
M 947 1747 
Q 947 1113 1208 752 
Q 1469 391 1925 391 
Q 2381 391 2643 752 
Q 2906 1113 2906 1747 
Q 2906 2381 2643 2742 
Q 2381 3103 1925 3103 
Q 1469 3103 1208 2742 
Q 947 2381 947 1747 
z
" transform="scale(0.015625)"/>
      </defs>
      <use xlink:href="#DejaVuSans-50"/>
      <use xlink:href="#DejaVuSans-72" transform="translate(58.552734 0)"/>
      <use xlink:href="#DejaVuSans-6f" transform="translate(97.416016 0)"/>
      <use xlink:href="#DejaVuSans-63" transform="translate(158.597656 0)"/>
      <use xlink:href="#DejaVuSans-65" transform="translate(213.578125 0)"/>
      <use xlink:href="#DejaVuSans-65" transform="translate(275.101562 0)"/>
      <use xlink:href="#DejaVuSans-64" transform="translate(336.625 0)"/>
     </g>
    </g>
   </g>
   <g id="text_6">
    <g id="patch_38">
     <path d="M 445.753251 79.371424 
L 467.619462 142.470055 
Q 468.307079 144.454289 470.291312 143.766672 
L 476.692533 141.548392 
Q 478.676766 140.860775 477.98915 138.876541 
L 456.122939 75.777911 
Q 455.435322 73.793677 453.451089 74.481294 
L 447.049868 76.699574 
Q 445.065634 77.38719 445.753251 79.371424 
z
" clip-path="url(#p6aa6d66fbf)" style="fill: #ffffff; stroke: #ffffff; stroke-linejoin: miter"/>
    </g>
    <g clip-path="url(#p6aa6d66fbf)">
     <!-- Request more data -->
     <g transform="translate(449.113013 78.207131) rotate(-289.113256) scale(0.07 -0.07)">
      <defs>
       <path id="DejaVuSans-52" d="M 2841 2188 
Q 3044 2119 3236 1894 
Q 3428 1669 3622 1275 
L 4263 0 
L 3584 0 
L 2988 1197 
Q 2756 1666 2539 1819 
Q 2322 1972 1947 1972 
L 1259 1972 
L 1259 0 
L 628 0 
L 628 4666 
L 2053 4666 
Q 2853 4666 3247 4331 
Q 3641 3997 3641 3322 
Q 3641 2881 3436 2590 
Q 3231 2300 2841 2188 
z
M 1259 4147 
L 1259 2491 
L 2053 2491 
Q 2509 2491 2742 2702 
Q 2975 2913 2975 3322 
Q 2975 3731 2742 3939 
Q 2509 4147 2053 4147 
L 1259 4147 
z
" transform="scale(0.015625)"/>
       <path id="DejaVuSans-71" d="M 947 1747 
Q 947 1113 1208 752 
Q 1469 391 1925 391 
Q 2381 391 2643 752 
Q 2906 1113 2906 1747 
Q 2906 2381 2643 2742 
Q 2381 3103 1925 3103 
Q 1469 3103 1208 2742 
Q 947 2381 947 1747 
z
M 2906 525 
Q 2725 213 2448 61 
Q 2172 -91 1784 -91 
Q 1150 -91 751 415 
Q 353 922 353 1747 
Q 353 2572 751 3078 
Q 1150 3584 1784 3584 
Q 2172 3584 2448 3432 
Q 2725 3281 2906 2969 
L 2906 3500 
L 3481 3500 
L 3481 -1331 
L 2906 -1331 
L 2906 525 
z
" transform="scale(0.015625)"/>
       <path id="DejaVuSans-20" transform="scale(0.015625)"/>
       <path id="DejaVuSans-6d" d="M 3328 2828 
Q 3544 3216 3844 3400 
Q 4144 3584 4550 3584 
Q 5097 3584 5394 3201 
Q 5691 2819 5691 2113 
L 5691 0 
L 5113 0 
L 5113 2094 
Q 5113 2597 4934 2840 
Q 4756 3084 4391 3084 
Q 3944 3084 3684 2787 
Q 3425 2491 3425 1978 
L 3425 0 
L 2847 0 
L 2847 2094 
Q 2847 2600 2669 2842 
Q 2491 3084 2119 3084 
Q 1678 3084 1418 2786 
Q 1159 2488 1159 1978 
L 1159 0 
L 581 0 
L 581 3500 
L 1159 3500 
L 1159 2956 
Q 1356 3278 1631 3431 
Q 1906 3584 2284 3584 
Q 2666 3584 2933 3390 
Q 3200 3197 3328 2828 
z
" transform="scale(0.015625)"/>
      </defs>
      <use xlink:href="#DejaVuSans-52"/>
      <use xlink:href="#DejaVuSans-65" transform="translate(64.982422 0)"/>
      <use xlink:href="#DejaVuSans-71" transform="translate(126.505859 0)"/>
      <use xlink:href="#DejaVuSans-75" transform="translate(189.982422 0)"/>
      <use xlink:href="#DejaVuSans-65" transform="translate(253.361328 0)"/>
      <use xlink:href="#DejaVuSans-73" transform="translate(314.884766 0)"/>
      <use xlink:href="#DejaVuSans-74" transform="translate(366.984375 0)"/>
      <use xlink:href="#DejaVuSans-20" transform="translate(406.193359 0)"/>
      <use xlink:href="#DejaVuSans-6d" transform="translate(437.980469 0)"/>
      <use xlink:href="#DejaVuSans-6f" transform="translate(535.392578 0)"/>
      <use xlink:href="#DejaVuSans-72" transform="translate(596.574219 0)"/>
      <use xlink:href="#DejaVuSans-65" transform="translate(635.4375 0)"/>
      <use xlink:href="#DejaVuSans-20" transform="translate(696.960938 0)"/>
      <use xlink:href="#DejaVuSans-64" transform="translate(728.748047 0)"/>
      <use xlink:href="#DejaVuSans-61" transform="translate(792.224609 0)"/>
      <use xlink:href="#DejaVuSans-74" transform="translate(853.503906 0)"/>
      <use xlink:href="#DejaVuSans-61" transform="translate(892.712891 0)"/>
     </g>
    </g>
   </g>
   <g id="text_7">
    <g id="patch_39">
     <path d="M 449.689516 89.89869 
L 449.689516 109.036033 
Q 449.689516 111.136033 451.789516 111.136033 
L 458.564203 111.136033 
Q 460.664203 111.136033 460.664203 109.036033 
L 460.664203 89.89869 
Q 460.664203 87.79869 458.564203 87.79869 
L 451.789516 87.79869 
Q 449.689516 87.79869 449.689516 89.89869 
z
" clip-path="url(#p6aa6d66fbf)" style="fill: #ffffff; stroke: #ffffff; stroke-linejoin: miter"/>
    </g>
    <g clip-path="url(#p6aa6d66fbf)">
     <!-- Abort -->
     <g transform="translate(453.245297 89.89869) rotate(-270) scale(0.07 -0.07)">
      <defs>
       <path id="DejaVuSans-41" d="M 2188 4044 
L 1331 1722 
L 3047 1722 
L 2188 4044 
z
M 1831 4666 
L 2547 4666 
L 4325 0 
L 3669 0 
L 3244 1197 
L 1141 1197 
L 716 0 
L 50 0 
L 1831 4666 
z
" transform="scale(0.015625)"/>
       <path id="DejaVuSans-62" d="M 3116 1747 
Q 3116 2381 2855 2742 
Q 2594 3103 2138 3103 
Q 1681 3103 1420 2742 
Q 1159 2381 1159 1747 
Q 1159 1113 1420 752 
Q 1681 391 2138 391 
Q 2594 391 2855 752 
Q 3116 1113 3116 1747 
z
M 1159 2969 
Q 1341 3281 1617 3432 
Q 1894 3584 2278 3584 
Q 2916 3584 3314 3078 
Q 3713 2572 3713 1747 
Q 3713 922 3314 415 
Q 2916 -91 2278 -91 
Q 1894 -91 1617 61 
Q 1341 213 1159 525 
L 1159 0 
L 581 0 
L 581 4863 
L 1159 4863 
L 1159 2969 
z
" transform="scale(0.015625)"/>
      </defs>
      <use xlink:href="#DejaVuSans-41"/>
      <use xlink:href="#DejaVuSans-62" transform="translate(68.408203 0)"/>
      <use xlink:href="#DejaVuSans-6f" transform="translate(131.884766 0)"/>
      <use xlink:href="#DejaVuSans-72" transform="translate(193.066406 0)"/>
      <use xlink:href="#DejaVuSans-74" transform="translate(234.179688 0)"/>
     </g>
    </g>
   </g>
   <g id="PathCollection_1">
    <defs>
     <path id="C0_0_b019544610" d="M 0 22.36068 
C 5.930122 22.36068 11.618159 20.004617 15.811388 15.811388 
C 20.004617 11.618159 22.36068 5.930122 22.36068 -0 
C 22.36068 -5.930122 20.004617 -11.618159 15.811388 -15.811388 
C 11.618159 -20.004617 5.930122 -22.36068 0 -22.36068 
C -5.930122 -22.36068 -11.618159 -20.004617 -15.811388 -15.811388 
C -20.004617 -11.618159 -22.36068 -5.930122 -22.36068 0 
C -22.36068 5.930122 -20.004617 11.618159 -15.811388 15.811388 
C -11.618159 20.004617 -5.930122 22.36068 0 22.36068 
z
"/>
    </defs>
    <g clip-path="url(#p6aa6d66fbf)">
     <use xlink:href="#C0_0_b019544610" x="120.466116" y="476.152006" style="fill: #e8f5e9; stroke: #e8f5e9"/>
    </g>
    <g clip-path="url(#p6aa6d66fbf)">
     <use xlink:href="#C0_0_b019544610" x="120.466116" y="495.469289" style="fill: #e8f5e9; stroke: #e8f5e9"/>
    </g>
    <g clip-path="url(#p6aa6d66fbf)">
     <use xlink:href="#C0_0_b019544610" x="80.300826" y="514.786573" style="fill: #fff3e0; stroke: #fff3e0"/>
    </g>
    <g clip-path="url(#p6aa6d66fbf)">
     <use xlink:href="#C0_0_b019544610" x="120.466116" y="456.834722" style="fill: #e3f2fd; stroke: #e3f2fd"/>
    </g>
    <g clip-path="url(#p6aa6d66fbf)">
     <use xlink:href="#C0_0_b019544610" x="776.499174" y="514.786573" style="fill: #f3e5f5; stroke: #f3e5f5"/>
    </g>
    <g clip-path="url(#p6aa6d66fbf)">
     <use xlink:href="#C0_0_b019544610" x="133.854545" y="437.517439" style="fill: #e8f5e9; stroke: #e8f5e9"/>
    </g>
    <g clip-path="url(#p6aa6d66fbf)">
     <use xlink:href="#C0_0_b019544610" x="174.019835" y="379.565588" style="fill: #e8f5e9; stroke: #e8f5e9"/>
    </g>
    <g clip-path="url(#p6aa6d66fbf)">
     <use xlink:href="#C0_0_b019544610" x="187.408264" y="398.882872" style="fill: #e8f5e9; stroke: #e8f5e9"/>
    </g>
    <g clip-path="url(#p6aa6d66fbf)">
     <use xlink:href="#C0_0_b019544610" x="709.557025" y="418.200155" style="fill: #eceff1; stroke: #eceff1"/>
    </g>
    <g clip-path="url(#p6aa6d66fbf)">
     <use xlink:href="#C0_0_b019544610" x="669.391736" y="360.248305" style="fill: #e8f5e9; stroke: #e8f5e9"/>
    </g>
    <g clip-path="url(#p6aa6d66fbf)">
     <use xlink:href="#C0_0_b019544610" x="656.003306" y="340.931021" style="fill: #f3e5f5; stroke: #f3e5f5"/>
    </g>
    <g clip-path="url(#p6aa6d66fbf)">
     <use xlink:href="#C0_0_b019544610" x="200.796694" y="379.565588" style="fill: #e8f5e9; stroke: #e8f5e9"/>
    </g>
    <g clip-path="url(#p6aa6d66fbf)">
     <use xlink:href="#C0_0_b019544610" x="281.127273" y="263.661887" style="fill: #e8f5e9; stroke: #e8f5e9"/>
    </g>
    <g clip-path="url(#p6aa6d66fbf)">
     <use xlink:href="#C0_0_b019544610" x="294.515702" y="282.979171" style="fill: #e8f5e9; stroke: #e8f5e9"/>
    </g>
    <g clip-path="url(#p6aa6d66fbf)">
     <use xlink:href="#C0_0_b019544610" x="307.904132" y="302.296454" style="fill: #e8f5e9; stroke: #e8f5e9"/>
    </g>
    <g clip-path="url(#p6aa6d66fbf)">
     <use xlink:href="#C0_0_b019544610" x="642.614876" y="321.613738" style="fill: #e8f5e9; stroke: #e8f5e9"/>
    </g>
    <g clip-path="url(#p6aa6d66fbf)">
     <use xlink:href="#C0_0_b019544610" x="602.449587" y="263.661887" style="fill: #e3f2fd; stroke: #e3f2fd"/>
    </g>
    <g clip-path="url(#p6aa6d66fbf)">
     <use xlink:href="#C0_0_b019544610" x="589.061157" y="244.344604" style="fill: #fff3e0; stroke: #fff3e0"/>
    </g>
    <g clip-path="url(#p6aa6d66fbf)">
     <use xlink:href="#C0_0_b019544610" x="468.565289" y="70.489052" style="fill: #ffebee; stroke: #ffebee"/>
    </g>
    <g clip-path="url(#p6aa6d66fbf)">
     <use xlink:href="#C0_0_b019544610" x="455.17686" y="89.806336" style="fill: #fff3e0; stroke: #fff3e0"/>
    </g>
    <g clip-path="url(#p6aa6d66fbf)">
     <use xlink:href="#C0_0_b019544610" x="455.17686" y="109.123619" style="fill: #eceff1; stroke: #eceff1"/>
    </g>
    <g clip-path="url(#p6aa6d66fbf)">
     <use xlink:href="#C0_0_b019544610" x="468.565289" y="128.440903" style="fill: #e3f2fd; stroke: #e3f2fd"/>
    </g>
    <g clip-path="url(#p6aa6d66fbf)">
     <use xlink:href="#C0_0_b019544610" x="321.292562" y="282.979171" style="fill: #f3e5f5; stroke: #f3e5f5"/>
    </g>
    <g clip-path="url(#p6aa6d66fbf)">
     <use xlink:href="#C0_0_b019544610" x="468.565289" y="147.758186" style="fill: #e8f5e9; stroke: #e8f5e9"/>
    </g>
    <g clip-path="url(#p6aa6d66fbf)">
     <use xlink:href="#C0_0_b019544610" x="468.565289" y="167.07547" style="fill: #e3f2fd; stroke: #e3f2fd"/>
    </g>
    <g clip-path="url(#p6aa6d66fbf)">
     <use xlink:href="#C0_0_b019544610" x="455.17686" y="186.392753" style="fill: #e8f5e9; stroke: #e8f5e9"/>
    </g>
    <g clip-path="url(#p6aa6d66fbf)">
     <use xlink:href="#C0_0_b019544610" x="428.4" y="225.02732" style="fill: #ffebee; stroke: #ffebee"/>
    </g>
    <g clip-path="url(#p6aa6d66fbf)">
     <use xlink:href="#C0_0_b019544610" x="455.17686" y="205.710037" style="fill: #eceff1; stroke: #eceff1"/>
    </g>
   </g>
   <g id="text_8">
    <g clip-path="url(#p6aa6d66fbf)">
     <!-- load_train_data -->
     <g transform="translate(89.596741 478.248256) scale(0.08 -0.08)">
      <defs>
       <path id="DejaVuSans-5f" d="M 3263 -1063 
L 3263 -1509 
L -63 -1509 
L -63 -1063 
L 3263 -1063 
z
" transform="scale(0.015625)"/>
       <path id="DejaVuSans-69" d="M 603 3500 
L 1178 3500 
L 1178 0 
L 603 0 
L 603 3500 
z
M 603 4863 
L 1178 4863 
L 1178 4134 
L 603 4134 
L 603 4863 
z
" transform="scale(0.015625)"/>
       <path id="DejaVuSans-6e" d="M 3513 2113 
L 3513 0 
L 2938 0 
L 2938 2094 
Q 2938 2591 2744 2837 
Q 2550 3084 2163 3084 
Q 1697 3084 1428 2787 
Q 1159 2491 1159 1978 
L 1159 0 
L 581 0 
L 581 3500 
L 1159 3500 
L 1159 2956 
Q 1366 3272 1645 3428 
Q 1925 3584 2291 3584 
Q 2894 3584 3203 3211 
Q 3513 2838 3513 2113 
z
" transform="scale(0.015625)"/>
      </defs>
      <use xlink:href="#DejaVuSans-6c"/>
      <use xlink:href="#DejaVuSans-6f" transform="translate(27.783203 0)"/>
      <use xlink:href="#DejaVuSans-61" transform="translate(88.964844 0)"/>
      <use xlink:href="#DejaVuSans-64" transform="translate(150.244141 0)"/>
      <use xlink:href="#DejaVuSans-5f" transform="translate(213.720703 0)"/>
      <use xlink:href="#DejaVuSans-74" transform="translate(263.720703 0)"/>
      <use xlink:href="#DejaVuSans-72" transform="translate(302.929688 0)"/>
      <use xlink:href="#DejaVuSans-61" transform="translate(344.042969 0)"/>
      <use xlink:href="#DejaVuSans-69" transform="translate(405.322266 0)"/>
      <use xlink:href="#DejaVuSans-6e" transform="translate(433.105469 0)"/>
      <use xlink:href="#DejaVuSans-5f" transform="translate(496.484375 0)"/>
      <use xlink:href="#DejaVuSans-64" transform="translate(546.484375 0)"/>
      <use xlink:href="#DejaVuSans-61" transform="translate(609.960938 0)"/>
      <use xlink:href="#DejaVuSans-74" transform="translate(671.240234 0)"/>
      <use xlink:href="#DejaVuSans-61" transform="translate(710.449219 0)"/>
     </g>
    </g>
   </g>
   <g id="text_9">
    <g clip-path="url(#p6aa6d66fbf)">
     <!-- validate_data -->
     <g transform="translate(93.394866 497.565539) scale(0.08 -0.08)">
      <defs>
       <path id="DejaVuSans-76" d="M 191 3500 
L 800 3500 
L 1894 563 
L 2988 3500 
L 3597 3500 
L 2284 0 
L 1503 0 
L 191 3500 
z
" transform="scale(0.015625)"/>
      </defs>
      <use xlink:href="#DejaVuSans-76"/>
      <use xlink:href="#DejaVuSans-61" transform="translate(59.179688 0)"/>
      <use xlink:href="#DejaVuSans-6c" transform="translate(120.458984 0)"/>
      <use xlink:href="#DejaVuSans-69" transform="translate(148.242188 0)"/>
      <use xlink:href="#DejaVuSans-64" transform="translate(176.025391 0)"/>
      <use xlink:href="#DejaVuSans-61" transform="translate(239.501953 0)"/>
      <use xlink:href="#DejaVuSans-74" transform="translate(300.78125 0)"/>
      <use xlink:href="#DejaVuSans-65" transform="translate(339.990234 0)"/>
      <use xlink:href="#DejaVuSans-5f" transform="translate(401.513672 0)"/>
      <use xlink:href="#DejaVuSans-64" transform="translate(451.513672 0)"/>
      <use xlink:href="#DejaVuSans-61" transform="translate(514.990234 0)"/>
      <use xlink:href="#DejaVuSans-74" transform="translate(576.269531 0)"/>
      <use xlink:href="#DejaVuSans-61" transform="translate(615.478516 0)"/>
     </g>
    </g>
   </g>
   <g id="text_10">
    <g clip-path="url(#p6aa6d66fbf)">
     <!-- check_data_quality -->
     <g transform="translate(41.895826 516.882823) scale(0.08 -0.08)">
      <defs>
       <path id="DejaVuSans-68" d="M 3513 2113 
L 3513 0 
L 2938 0 
L 2938 2094 
Q 2938 2591 2744 2837 
Q 2550 3084 2163 3084 
Q 1697 3084 1428 2787 
Q 1159 2491 1159 1978 
L 1159 0 
L 581 0 
L 581 4863 
L 1159 4863 
L 1159 2956 
Q 1366 3272 1645 3428 
Q 1925 3584 2291 3584 
Q 2894 3584 3203 3211 
Q 3513 2838 3513 2113 
z
" transform="scale(0.015625)"/>
       <path id="DejaVuSans-6b" d="M 581 4863 
L 1159 4863 
L 1159 1991 
L 2875 3500 
L 3609 3500 
L 1753 1863 
L 3688 0 
L 2938 0 
L 1159 1709 
L 1159 0 
L 581 0 
L 581 4863 
z
" transform="scale(0.015625)"/>
       <path id="DejaVuSans-79" d="M 2059 -325 
Q 1816 -950 1584 -1140 
Q 1353 -1331 966 -1331 
L 506 -1331 
L 506 -850 
L 844 -850 
Q 1081 -850 1212 -737 
Q 1344 -625 1503 -206 
L 1606 56 
L 191 3500 
L 800 3500 
L 1894 763 
L 2988 3500 
L 3597 3500 
L 2059 -325 
z
" transform="scale(0.015625)"/>
      </defs>
      <use xlink:href="#DejaVuSans-63"/>
      <use xlink:href="#DejaVuSans-68" transform="translate(54.980469 0)"/>
      <use xlink:href="#DejaVuSans-65" transform="translate(118.359375 0)"/>
      <use xlink:href="#DejaVuSans-63" transform="translate(179.882812 0)"/>
      <use xlink:href="#DejaVuSans-6b" transform="translate(234.863281 0)"/>
      <use xlink:href="#DejaVuSans-5f" transform="translate(292.773438 0)"/>
      <use xlink:href="#DejaVuSans-64" transform="translate(342.773438 0)"/>
      <use xlink:href="#DejaVuSans-61" transform="translate(406.25 0)"/>
      <use xlink:href="#DejaVuSans-74" transform="translate(467.529297 0)"/>
      <use xlink:href="#DejaVuSans-61" transform="translate(506.738281 0)"/>
      <use xlink:href="#DejaVuSans-5f" transform="translate(568.017578 0)"/>
      <use xlink:href="#DejaVuSans-71" transform="translate(618.017578 0)"/>
      <use xlink:href="#DejaVuSans-75" transform="translate(681.494141 0)"/>
      <use xlink:href="#DejaVuSans-61" transform="translate(744.873047 0)"/>
      <use xlink:href="#DejaVuSans-6c" transform="translate(806.152344 0)"/>
      <use xlink:href="#DejaVuSans-69" transform="translate(833.935547 0)"/>
      <use xlink:href="#DejaVuSans-74" transform="translate(861.71875 0)"/>
      <use xlink:href="#DejaVuSans-79" transform="translate(900.927734 0)"/>
     </g>
    </g>
   </g>
   <g id="text_11">
    <g clip-path="url(#p6aa6d66fbf)">
     <!-- auto_fix_data -->
     <g transform="translate(93.567366 458.930972) scale(0.08 -0.08)">
      <defs>
       <path id="DejaVuSans-78" d="M 3513 3500 
L 2247 1797 
L 3578 0 
L 2900 0 
L 1881 1375 
L 863 0 
L 184 0 
L 1544 1831 
L 300 3500 
L 978 3500 
L 1906 2253 
L 2834 3500 
L 3513 3500 
z
" transform="scale(0.015625)"/>
      </defs>
      <use xlink:href="#DejaVuSans-61"/>
      <use xlink:href="#DejaVuSans-75" transform="translate(61.279297 0)"/>
      <use xlink:href="#DejaVuSans-74" transform="translate(124.658203 0)"/>
      <use xlink:href="#DejaVuSans-6f" transform="translate(163.867188 0)"/>
      <use xlink:href="#DejaVuSans-5f" transform="translate(225.048828 0)"/>
      <use xlink:href="#DejaVuSans-66" transform="translate(275.048828 0)"/>
      <use xlink:href="#DejaVuSans-69" transform="translate(310.253906 0)"/>
      <use xlink:href="#DejaVuSans-78" transform="translate(338.037109 0)"/>
      <use xlink:href="#DejaVuSans-5f" transform="translate(397.216797 0)"/>
      <use xlink:href="#DejaVuSans-64" transform="translate(447.216797 0)"/>
      <use xlink:href="#DejaVuSans-61" transform="translate(510.693359 0)"/>
      <use xlink:href="#DejaVuSans-74" transform="translate(571.972656 0)"/>
      <use xlink:href="#DejaVuSans-61" transform="translate(611.181641 0)"/>
     </g>
    </g>
   </g>
   <g id="text_12">
    <g clip-path="url(#p6aa6d66fbf)">
     <!-- feature_engineering -->
     <g transform="translate(736.125424 516.882823) scale(0.08 -0.08)">
      <defs>
       <path id="DejaVuSans-67" d="M 2906 1791 
Q 2906 2416 2648 2759 
Q 2391 3103 1925 3103 
Q 1463 3103 1205 2759 
Q 947 2416 947 1791 
Q 947 1169 1205 825 
Q 1463 481 1925 481 
Q 2391 481 2648 825 
Q 2906 1169 2906 1791 
z
M 3481 434 
Q 3481 -459 3084 -895 
Q 2688 -1331 1869 -1331 
Q 1566 -1331 1297 -1286 
Q 1028 -1241 775 -1147 
L 775 -588 
Q 1028 -725 1275 -790 
Q 1522 -856 1778 -856 
Q 2344 -856 2625 -561 
Q 2906 -266 2906 331 
L 2906 616 
Q 2728 306 2450 153 
Q 2172 0 1784 0 
Q 1141 0 747 490 
Q 353 981 353 1791 
Q 353 2603 747 3093 
Q 1141 3584 1784 3584 
Q 2172 3584 2450 3431 
Q 2728 3278 2906 2969 
L 2906 3500 
L 3481 3500 
L 3481 434 
z
" transform="scale(0.015625)"/>
      </defs>
      <use xlink:href="#DejaVuSans-66"/>
      <use xlink:href="#DejaVuSans-65" transform="translate(35.205078 0)"/>
      <use xlink:href="#DejaVuSans-61" transform="translate(96.728516 0)"/>
      <use xlink:href="#DejaVuSans-74" transform="translate(158.007812 0)"/>
      <use xlink:href="#DejaVuSans-75" transform="translate(197.216797 0)"/>
      <use xlink:href="#DejaVuSans-72" transform="translate(260.595703 0)"/>
      <use xlink:href="#DejaVuSans-65" transform="translate(299.458984 0)"/>
      <use xlink:href="#DejaVuSans-5f" transform="translate(360.982422 0)"/>
      <use xlink:href="#DejaVuSans-65" transform="translate(410.982422 0)"/>
      <use xlink:href="#DejaVuSans-6e" transform="translate(472.505859 0)"/>
      <use xlink:href="#DejaVuSans-67" transform="translate(535.884766 0)"/>
      <use xlink:href="#DejaVuSans-69" transform="translate(599.361328 0)"/>
      <use xlink:href="#DejaVuSans-6e" transform="translate(627.144531 0)"/>
      <use xlink:href="#DejaVuSans-65" transform="translate(690.523438 0)"/>
      <use xlink:href="#DejaVuSans-65" transform="translate(752.046875 0)"/>
      <use xlink:href="#DejaVuSans-72" transform="translate(813.570312 0)"/>
      <use xlink:href="#DejaVuSans-69" transform="translate(854.683594 0)"/>
      <use xlink:href="#DejaVuSans-6e" transform="translate(882.466797 0)"/>
      <use xlink:href="#DejaVuSans-67" transform="translate(945.845703 0)"/>
     </g>
    </g>
   </g>
   <g id="text_13">
    <g clip-path="url(#p6aa6d66fbf)">
     <!-- numeric_features -->
     <g transform="translate(98.94892 439.613689) scale(0.08 -0.08)">
      <use xlink:href="#DejaVuSans-6e"/>
      <use xlink:href="#DejaVuSans-75" transform="translate(63.378906 0)"/>
      <use xlink:href="#DejaVuSans-6d" transform="translate(126.757812 0)"/>
      <use xlink:href="#DejaVuSans-65" transform="translate(224.169922 0)"/>
      <use xlink:href="#DejaVuSans-72" transform="translate(285.693359 0)"/>
      <use xlink:href="#DejaVuSans-69" transform="translate(326.806641 0)"/>
      <use xlink:href="#DejaVuSans-63" transform="translate(354.589844 0)"/>
      <use xlink:href="#DejaVuSans-5f" transform="translate(409.570312 0)"/>
      <use xlink:href="#DejaVuSans-66" transform="translate(459.570312 0)"/>
      <use xlink:href="#DejaVuSans-65" transform="translate(494.775391 0)"/>
      <use xlink:href="#DejaVuSans-61" transform="translate(556.298828 0)"/>
      <use xlink:href="#DejaVuSans-74" transform="translate(617.578125 0)"/>
      <use xlink:href="#DejaVuSans-75" transform="translate(656.787109 0)"/>
      <use xlink:href="#DejaVuSans-72" transform="translate(720.166016 0)"/>
      <use xlink:href="#DejaVuSans-65" transform="translate(759.029297 0)"/>
      <use xlink:href="#DejaVuSans-73" transform="translate(820.552734 0)"/>
     </g>
    </g>
   </g>
   <g id="text_14">
    <g clip-path="url(#p6aa6d66fbf)">
     <!-- categorical_features -->
     <g transform="translate(133.312335 381.661838) scale(0.08 -0.08)">
      <use xlink:href="#DejaVuSans-63"/>
      <use xlink:href="#DejaVuSans-61" transform="translate(54.980469 0)"/>
      <use xlink:href="#DejaVuSans-74" transform="translate(116.259766 0)"/>
      <use xlink:href="#DejaVuSans-65" transform="translate(155.46875 0)"/>
      <use xlink:href="#DejaVuSans-67" transform="translate(216.992188 0)"/>
      <use xlink:href="#DejaVuSans-6f" transform="translate(280.46875 0)"/>
      <use xlink:href="#DejaVuSans-72" transform="translate(341.650391 0)"/>
      <use xlink:href="#DejaVuSans-69" transform="translate(382.763672 0)"/>
      <use xlink:href="#DejaVuSans-63" transform="translate(410.546875 0)"/>
      <use xlink:href="#DejaVuSans-61" transform="translate(465.527344 0)"/>
      <use xlink:href="#DejaVuSans-6c" transform="translate(526.806641 0)"/>
      <use xlink:href="#DejaVuSans-5f" transform="translate(554.589844 0)"/>
      <use xlink:href="#DejaVuSans-66" transform="translate(604.589844 0)"/>
      <use xlink:href="#DejaVuSans-65" transform="translate(639.794922 0)"/>
      <use xlink:href="#DejaVuSans-61" transform="translate(701.318359 0)"/>
      <use xlink:href="#DejaVuSans-74" transform="translate(762.597656 0)"/>
      <use xlink:href="#DejaVuSans-75" transform="translate(801.806641 0)"/>
      <use xlink:href="#DejaVuSans-72" transform="translate(865.185547 0)"/>
      <use xlink:href="#DejaVuSans-65" transform="translate(904.048828 0)"/>
      <use xlink:href="#DejaVuSans-73" transform="translate(965.572266 0)"/>
     </g>
    </g>
   </g>
   <g id="text_15">
    <g clip-path="url(#p6aa6d66fbf)">
     <!-- text_features -->
     <g transform="translate(160.990139 400.979122) scale(0.08 -0.08)">
      <use xlink:href="#DejaVuSans-74"/>
      <use xlink:href="#DejaVuSans-65" transform="translate(39.208984 0)"/>
      <use xlink:href="#DejaVuSans-78" transform="translate(98.982422 0)"/>
      <use xlink:href="#DejaVuSans-74" transform="translate(158.162109 0)"/>
      <use xlink:href="#DejaVuSans-5f" transform="translate(197.371094 0)"/>
      <use xlink:href="#DejaVuSans-66" transform="translate(247.371094 0)"/>
      <use xlink:href="#DejaVuSans-65" transform="translate(282.576172 0)"/>
      <use xlink:href="#DejaVuSans-61" transform="translate(344.099609 0)"/>
      <use xlink:href="#DejaVuSans-74" transform="translate(405.378906 0)"/>
      <use xlink:href="#DejaVuSans-75" transform="translate(444.587891 0)"/>
      <use xlink:href="#DejaVuSans-72" transform="translate(507.966797 0)"/>
      <use xlink:href="#DejaVuSans-65" transform="translate(546.830078 0)"/>
      <use xlink:href="#DejaVuSans-73" transform="translate(608.353516 0)"/>
     </g>
    </g>
   </g>
   <g id="text_16">
    <g clip-path="url(#p6aa6d66fbf)">
     <!-- combine_features -->
     <g transform="translate(673.8439 420.296405) scale(0.08 -0.08)">
      <use xlink:href="#DejaVuSans-63"/>
      <use xlink:href="#DejaVuSans-6f" transform="translate(54.980469 0)"/>
      <use xlink:href="#DejaVuSans-6d" transform="translate(116.162109 0)"/>
      <use xlink:href="#DejaVuSans-62" transform="translate(213.574219 0)"/>
      <use xlink:href="#DejaVuSans-69" transform="translate(277.050781 0)"/>
      <use xlink:href="#DejaVuSans-6e" transform="translate(304.833984 0)"/>
      <use xlink:href="#DejaVuSans-65" transform="translate(368.212891 0)"/>
      <use xlink:href="#DejaVuSans-5f" transform="translate(429.736328 0)"/>
      <use xlink:href="#DejaVuSans-66" transform="translate(479.736328 0)"/>
      <use xlink:href="#DejaVuSans-65" transform="translate(514.941406 0)"/>
      <use xlink:href="#DejaVuSans-61" transform="translate(576.464844 0)"/>
      <use xlink:href="#DejaVuSans-74" transform="translate(637.744141 0)"/>
      <use xlink:href="#DejaVuSans-75" transform="translate(676.953125 0)"/>
      <use xlink:href="#DejaVuSans-72" transform="translate(740.332031 0)"/>
      <use xlink:href="#DejaVuSans-65" transform="translate(779.195312 0)"/>
      <use xlink:href="#DejaVuSans-73" transform="translate(840.71875 0)"/>
     </g>
    </g>
   </g>
   <g id="text_17">
    <g clip-path="url(#p6aa6d66fbf)">
     <!-- feature_selection -->
     <g transform="translate(634.973611 362.344555) scale(0.08 -0.08)">
      <use xlink:href="#DejaVuSans-66"/>
      <use xlink:href="#DejaVuSans-65" transform="translate(35.205078 0)"/>
      <use xlink:href="#DejaVuSans-61" transform="translate(96.728516 0)"/>
      <use xlink:href="#DejaVuSans-74" transform="translate(158.007812 0)"/>
      <use xlink:href="#DejaVuSans-75" transform="translate(197.216797 0)"/>
      <use xlink:href="#DejaVuSans-72" transform="translate(260.595703 0)"/>
      <use xlink:href="#DejaVuSans-65" transform="translate(299.458984 0)"/>
      <use xlink:href="#DejaVuSans-5f" transform="translate(360.982422 0)"/>
      <use xlink:href="#DejaVuSans-73" transform="translate(410.982422 0)"/>
      <use xlink:href="#DejaVuSans-65" transform="translate(463.082031 0)"/>
      <use xlink:href="#DejaVuSans-6c" transform="translate(524.605469 0)"/>
      <use xlink:href="#DejaVuSans-65" transform="translate(552.388672 0)"/>
      <use xlink:href="#DejaVuSans-63" transform="translate(613.912109 0)"/>
      <use xlink:href="#DejaVuSans-74" transform="translate(668.892578 0)"/>
      <use xlink:href="#DejaVuSans-69" transform="translate(708.101562 0)"/>
      <use xlink:href="#DejaVuSans-6f" transform="translate(735.884766 0)"/>
      <use xlink:href="#DejaVuSans-6e" transform="translate(797.066406 0)"/>
     </g>
    </g>
   </g>
   <g id="text_18">
    <g clip-path="url(#p6aa6d66fbf)">
     <!-- train_models -->
     <g transform="translate(630.153931 343.027271) scale(0.08 -0.08)">
      <use xlink:href="#DejaVuSans-74"/>
      <use xlink:href="#DejaVuSans-72" transform="translate(39.208984 0)"/>
      <use xlink:href="#DejaVuSans-61" transform="translate(80.322266 0)"/>
      <use xlink:href="#DejaVuSans-69" transform="translate(141.601562 0)"/>
      <use xlink:href="#DejaVuSans-6e" transform="translate(169.384766 0)"/>
      <use xlink:href="#DejaVuSans-5f" transform="translate(232.763672 0)"/>
      <use xlink:href="#DejaVuSans-6d" transform="translate(282.763672 0)"/>
      <use xlink:href="#DejaVuSans-6f" transform="translate(380.175781 0)"/>
      <use xlink:href="#DejaVuSans-64" transform="translate(441.357422 0)"/>
      <use xlink:href="#DejaVuSans-65" transform="translate(504.833984 0)"/>
      <use xlink:href="#DejaVuSans-6c" transform="translate(566.357422 0)"/>
      <use xlink:href="#DejaVuSans-73" transform="translate(594.140625 0)"/>
     </g>
    </g>
   </g>
   <g id="text_19">
    <g clip-path="url(#p6aa6d66fbf)">
     <!-- train_rf -->
     <g transform="translate(186.434194 381.661838) scale(0.08 -0.08)">
      <use xlink:href="#DejaVuSans-74"/>
      <use xlink:href="#DejaVuSans-72" transform="translate(39.208984 0)"/>
      <use xlink:href="#DejaVuSans-61" transform="translate(80.322266 0)"/>
      <use xlink:href="#DejaVuSans-69" transform="translate(141.601562 0)"/>
      <use xlink:href="#DejaVuSans-6e" transform="translate(169.384766 0)"/>
      <use xlink:href="#DejaVuSans-5f" transform="translate(232.763672 0)"/>
      <use xlink:href="#DejaVuSans-72" transform="translate(282.763672 0)"/>
      <use xlink:href="#DejaVuSans-66" transform="translate(323.876953 0)"/>
     </g>
    </g>
   </g>
   <g id="text_20">
    <g clip-path="url(#p6aa6d66fbf)">
     <!-- train_xgb -->
     <g transform="translate(262.371023 265.758137) scale(0.08 -0.08)">
      <use xlink:href="#DejaVuSans-74"/>
      <use xlink:href="#DejaVuSans-72" transform="translate(39.208984 0)"/>
      <use xlink:href="#DejaVuSans-61" transform="translate(80.322266 0)"/>
      <use xlink:href="#DejaVuSans-69" transform="translate(141.601562 0)"/>
      <use xlink:href="#DejaVuSans-6e" transform="translate(169.384766 0)"/>
      <use xlink:href="#DejaVuSans-5f" transform="translate(232.763672 0)"/>
      <use xlink:href="#DejaVuSans-78" transform="translate(282.763672 0)"/>
      <use xlink:href="#DejaVuSans-67" transform="translate(341.943359 0)"/>
      <use xlink:href="#DejaVuSans-62" transform="translate(405.419922 0)"/>
     </g>
    </g>
   </g>
   <g id="text_21">
    <g clip-path="url(#p6aa6d66fbf)">
     <!-- train_lgb -->
     <g transform="translate(277.015702 285.075421) scale(0.08 -0.08)">
      <use xlink:href="#DejaVuSans-74"/>
      <use xlink:href="#DejaVuSans-72" transform="translate(39.208984 0)"/>
      <use xlink:href="#DejaVuSans-61" transform="translate(80.322266 0)"/>
      <use xlink:href="#DejaVuSans-69" transform="translate(141.601562 0)"/>
      <use xlink:href="#DejaVuSans-6e" transform="translate(169.384766 0)"/>
      <use xlink:href="#DejaVuSans-5f" transform="translate(232.763672 0)"/>
      <use xlink:href="#DejaVuSans-6c" transform="translate(282.763672 0)"/>
      <use xlink:href="#DejaVuSans-67" transform="translate(310.546875 0)"/>
      <use xlink:href="#DejaVuSans-62" transform="translate(374.023438 0)"/>
     </g>
    </g>
   </g>
   <g id="text_22">
    <g clip-path="url(#p6aa6d66fbf)">
     <!-- train_nn -->
     <g transform="translate(291.524132 304.392704) scale(0.08 -0.08)">
      <use xlink:href="#DejaVuSans-74"/>
      <use xlink:href="#DejaVuSans-72" transform="translate(39.208984 0)"/>
      <use xlink:href="#DejaVuSans-61" transform="translate(80.322266 0)"/>
      <use xlink:href="#DejaVuSans-69" transform="translate(141.601562 0)"/>
      <use xlink:href="#DejaVuSans-6e" transform="translate(169.384766 0)"/>
      <use xlink:href="#DejaVuSans-5f" transform="translate(232.763672 0)"/>
      <use xlink:href="#DejaVuSans-6e" transform="translate(282.763672 0)"/>
      <use xlink:href="#DejaVuSans-6e" transform="translate(346.142578 0)"/>
     </g>
    </g>
   </g>
   <g id="text_23">
    <g clip-path="url(#p6aa6d66fbf)">
     <!-- evaluate_models -->
     <g transform="translate(608.668626 323.709988) scale(0.08 -0.08)">
      <use xlink:href="#DejaVuSans-65"/>
      <use xlink:href="#DejaVuSans-76" transform="translate(61.523438 0)"/>
      <use xlink:href="#DejaVuSans-61" transform="translate(120.703125 0)"/>
      <use xlink:href="#DejaVuSans-6c" transform="translate(181.982422 0)"/>
      <use xlink:href="#DejaVuSans-75" transform="translate(209.765625 0)"/>
      <use xlink:href="#DejaVuSans-61" transform="translate(273.144531 0)"/>
      <use xlink:href="#DejaVuSans-74" transform="translate(334.423828 0)"/>
      <use xlink:href="#DejaVuSans-65" transform="translate(373.632812 0)"/>
      <use xlink:href="#DejaVuSans-5f" transform="translate(435.15625 0)"/>
      <use xlink:href="#DejaVuSans-6d" transform="translate(485.15625 0)"/>
      <use xlink:href="#DejaVuSans-6f" transform="translate(582.568359 0)"/>
      <use xlink:href="#DejaVuSans-64" transform="translate(643.75 0)"/>
      <use xlink:href="#DejaVuSans-65" transform="translate(707.226562 0)"/>
      <use xlink:href="#DejaVuSans-6c" transform="translate(768.75 0)"/>
      <use xlink:href="#DejaVuSans-73" transform="translate(796.533203 0)"/>
     </g>
    </g>
   </g>
   <g id="text_24">
    <g clip-path="url(#p6aa6d66fbf)">
     <!-- analyze_results -->
     <g transform="translate(571.575212 265.758137) scale(0.08 -0.08)">
      <defs>
       <path id="DejaVuSans-7a" d="M 353 3500 
L 3084 3500 
L 3084 2975 
L 922 459 
L 3084 459 
L 3084 0 
L 275 0 
L 275 525 
L 2438 3041 
L 353 3041 
L 353 3500 
z
" transform="scale(0.015625)"/>
      </defs>
      <use xlink:href="#DejaVuSans-61"/>
      <use xlink:href="#DejaVuSans-6e" transform="translate(61.279297 0)"/>
      <use xlink:href="#DejaVuSans-61" transform="translate(124.658203 0)"/>
      <use xlink:href="#DejaVuSans-6c" transform="translate(185.9375 0)"/>
      <use xlink:href="#DejaVuSans-79" transform="translate(213.720703 0)"/>
      <use xlink:href="#DejaVuSans-7a" transform="translate(272.900391 0)"/>
      <use xlink:href="#DejaVuSans-65" transform="translate(325.390625 0)"/>
      <use xlink:href="#DejaVuSans-5f" transform="translate(386.914062 0)"/>
      <use xlink:href="#DejaVuSans-72" transform="translate(436.914062 0)"/>
      <use xlink:href="#DejaVuSans-65" transform="translate(475.777344 0)"/>
      <use xlink:href="#DejaVuSans-73" transform="translate(537.300781 0)"/>
      <use xlink:href="#DejaVuSans-75" transform="translate(589.400391 0)"/>
      <use xlink:href="#DejaVuSans-6c" transform="translate(652.779297 0)"/>
      <use xlink:href="#DejaVuSans-74" transform="translate(680.5625 0)"/>
      <use xlink:href="#DejaVuSans-73" transform="translate(719.771484 0)"/>
     </g>
    </g>
   </g>
   <g id="text_25">
    <g clip-path="url(#p6aa6d66fbf)">
     <!-- select_model -->
     <g transform="translate(562.720532 246.440854) scale(0.08 -0.08)">
      <use xlink:href="#DejaVuSans-73"/>
      <use xlink:href="#DejaVuSans-65" transform="translate(52.099609 0)"/>
      <use xlink:href="#DejaVuSans-6c" transform="translate(113.623047 0)"/>
      <use xlink:href="#DejaVuSans-65" transform="translate(141.40625 0)"/>
      <use xlink:href="#DejaVuSans-63" transform="translate(202.929688 0)"/>
      <use xlink:href="#DejaVuSans-74" transform="translate(257.910156 0)"/>
      <use xlink:href="#DejaVuSans-5f" transform="translate(297.119141 0)"/>
      <use xlink:href="#DejaVuSans-6d" transform="translate(347.119141 0)"/>
      <use xlink:href="#DejaVuSans-6f" transform="translate(444.53125 0)"/>
      <use xlink:href="#DejaVuSans-64" transform="translate(505.712891 0)"/>
      <use xlink:href="#DejaVuSans-65" transform="translate(569.189453 0)"/>
      <use xlink:href="#DejaVuSans-6c" transform="translate(630.712891 0)"/>
     </g>
    </g>
   </g>
   <g id="text_26">
    <g clip-path="url(#p6aa6d66fbf)">
     <!-- request_approval -->
     <g transform="translate(433.900289 72.585302) scale(0.08 -0.08)">
      <defs>
       <path id="DejaVuSans-70" d="M 1159 525 
L 1159 -1331 
L 581 -1331 
L 581 3500 
L 1159 3500 
L 1159 2969 
Q 1341 3281 1617 3432 
Q 1894 3584 2278 3584 
Q 2916 3584 3314 3078 
Q 3713 2572 3713 1747 
Q 3713 922 3314 415 
Q 2916 -91 2278 -91 
Q 1894 -91 1617 61 
Q 1341 213 1159 525 
z
M 3116 1747 
Q 3116 2381 2855 2742 
Q 2594 3103 2138 3103 
Q 1681 3103 1420 2742 
Q 1159 2381 1159 1747 
Q 1159 1113 1420 752 
Q 1681 391 2138 391 
Q 2594 391 2855 752 
Q 3116 1113 3116 1747 
z
" transform="scale(0.015625)"/>
      </defs>
      <use xlink:href="#DejaVuSans-72"/>
      <use xlink:href="#DejaVuSans-65" transform="translate(38.863281 0)"/>
      <use xlink:href="#DejaVuSans-71" transform="translate(100.386719 0)"/>
      <use xlink:href="#DejaVuSans-75" transform="translate(163.863281 0)"/>
      <use xlink:href="#DejaVuSans-65" transform="translate(227.242188 0)"/>
      <use xlink:href="#DejaVuSans-73" transform="translate(288.765625 0)"/>
      <use xlink:href="#DejaVuSans-74" transform="translate(340.865234 0)"/>
      <use xlink:href="#DejaVuSans-5f" transform="translate(380.074219 0)"/>
      <use xlink:href="#DejaVuSans-61" transform="translate(430.074219 0)"/>
      <use xlink:href="#DejaVuSans-70" transform="translate(491.353516 0)"/>
      <use xlink:href="#DejaVuSans-70" transform="translate(554.830078 0)"/>
      <use xlink:href="#DejaVuSans-72" transform="translate(618.306641 0)"/>
      <use xlink:href="#DejaVuSans-6f" transform="translate(657.169922 0)"/>
      <use xlink:href="#DejaVuSans-76" transform="translate(718.351562 0)"/>
      <use xlink:href="#DejaVuSans-61" transform="translate(777.53125 0)"/>
      <use xlink:href="#DejaVuSans-6c" transform="translate(838.810547 0)"/>
     </g>
    </g>
   </g>
   <g id="text_27">
    <g clip-path="url(#p6aa6d66fbf)">
     <!-- handle_approval -->
     <g transform="translate(422.08186 91.902586) scale(0.08 -0.08)">
      <use xlink:href="#DejaVuSans-68"/>
      <use xlink:href="#DejaVuSans-61" transform="translate(63.378906 0)"/>
      <use xlink:href="#DejaVuSans-6e" transform="translate(124.658203 0)"/>
      <use xlink:href="#DejaVuSans-64" transform="translate(188.037109 0)"/>
      <use xlink:href="#DejaVuSans-6c" transform="translate(251.513672 0)"/>
      <use xlink:href="#DejaVuSans-65" transform="translate(279.296875 0)"/>
      <use xlink:href="#DejaVuSans-5f" transform="translate(340.820312 0)"/>
      <use xlink:href="#DejaVuSans-61" transform="translate(390.820312 0)"/>
      <use xlink:href="#DejaVuSans-70" transform="translate(452.099609 0)"/>
      <use xlink:href="#DejaVuSans-70" transform="translate(515.576172 0)"/>
      <use xlink:href="#DejaVuSans-72" transform="translate(579.052734 0)"/>
      <use xlink:href="#DejaVuSans-6f" transform="translate(617.916016 0)"/>
      <use xlink:href="#DejaVuSans-76" transform="translate(679.097656 0)"/>
      <use xlink:href="#DejaVuSans-61" transform="translate(738.277344 0)"/>
      <use xlink:href="#DejaVuSans-6c" transform="translate(799.556641 0)"/>
     </g>
    </g>
   </g>
   <g id="text_28">
    <g clip-path="url(#p6aa6d66fbf)">
     <!-- abort_pipeline -->
     <g transform="translate(426.656235 111.219869) scale(0.08 -0.08)">
      <use xlink:href="#DejaVuSans-61"/>
      <use xlink:href="#DejaVuSans-62" transform="translate(61.279297 0)"/>
      <use xlink:href="#DejaVuSans-6f" transform="translate(124.755859 0)"/>
      <use xlink:href="#DejaVuSans-72" transform="translate(185.9375 0)"/>
      <use xlink:href="#DejaVuSans-74" transform="translate(227.050781 0)"/>
      <use xlink:href="#DejaVuSans-5f" transform="translate(266.259766 0)"/>
      <use xlink:href="#DejaVuSans-70" transform="translate(316.259766 0)"/>
      <use xlink:href="#DejaVuSans-69" transform="translate(379.736328 0)"/>
      <use xlink:href="#DejaVuSans-70" transform="translate(407.519531 0)"/>
      <use xlink:href="#DejaVuSans-65" transform="translate(470.996094 0)"/>
      <use xlink:href="#DejaVuSans-6c" transform="translate(532.519531 0)"/>
      <use xlink:href="#DejaVuSans-69" transform="translate(560.302734 0)"/>
      <use xlink:href="#DejaVuSans-6e" transform="translate(588.085938 0)"/>
      <use xlink:href="#DejaVuSans-65" transform="translate(651.464844 0)"/>
     </g>
    </g>
   </g>
   <g id="text_29">
    <g clip-path="url(#p6aa6d66fbf)">
     <!-- end_with_recommendations -->
     <g transform="translate(412.356539 130.537153) scale(0.08 -0.08)">
      <defs>
       <path id="DejaVuSans-77" d="M 269 3500 
L 844 3500 
L 1563 769 
L 2278 3500 
L 2956 3500 
L 3675 769 
L 4391 3500 
L 4966 3500 
L 4050 0 
L 3372 0 
L 2619 2869 
L 1863 0 
L 1184 0 
L 269 3500 
z
" transform="scale(0.015625)"/>
      </defs>
      <use xlink:href="#DejaVuSans-65"/>
      <use xlink:href="#DejaVuSans-6e" transform="translate(61.523438 0)"/>
      <use xlink:href="#DejaVuSans-64" transform="translate(124.902344 0)"/>
      <use xlink:href="#DejaVuSans-5f" transform="translate(188.378906 0)"/>
      <use xlink:href="#DejaVuSans-77" transform="translate(238.378906 0)"/>
      <use xlink:href="#DejaVuSans-69" transform="translate(320.166016 0)"/>
      <use xlink:href="#DejaVuSans-74" transform="translate(347.949219 0)"/>
      <use xlink:href="#DejaVuSans-68" transform="translate(387.158203 0)"/>
      <use xlink:href="#DejaVuSans-5f" transform="translate(450.537109 0)"/>
      <use xlink:href="#DejaVuSans-72" transform="translate(500.537109 0)"/>
      <use xlink:href="#DejaVuSans-65" transform="translate(539.400391 0)"/>
      <use xlink:href="#DejaVuSans-63" transform="translate(600.923828 0)"/>
      <use xlink:href="#DejaVuSans-6f" transform="translate(655.904297 0)"/>
      <use xlink:href="#DejaVuSans-6d" transform="translate(717.085938 0)"/>
      <use xlink:href="#DejaVuSans-6d" transform="translate(814.498047 0)"/>
      <use xlink:href="#DejaVuSans-65" transform="translate(911.910156 0)"/>
      <use xlink:href="#DejaVuSans-6e" transform="translate(973.433594 0)"/>
      <use xlink:href="#DejaVuSans-64" transform="translate(1036.8125 0)"/>
      <use xlink:href="#DejaVuSans-61" transform="translate(1100.289062 0)"/>
      <use xlink:href="#DejaVuSans-74" transform="translate(1161.568359 0)"/>
      <use xlink:href="#DejaVuSans-69" transform="translate(1200.777344 0)"/>
      <use xlink:href="#DejaVuSans-6f" transform="translate(1228.560547 0)"/>
      <use xlink:href="#DejaVuSans-6e" transform="translate(1289.742188 0)"/>
      <use xlink:href="#DejaVuSans-73" transform="translate(1353.121094 0)"/>
     </g>
    </g>
   </g>
   <g id="text_30">
    <g clip-path="url(#p6aa6d66fbf)">
     <!-- prepare_deployment -->
     <g transform="translate(279.804437 285.075421) scale(0.08 -0.08)">
      <use xlink:href="#DejaVuSans-70"/>
      <use xlink:href="#DejaVuSans-72" transform="translate(63.476562 0)"/>
      <use xlink:href="#DejaVuSans-65" transform="translate(102.339844 0)"/>
      <use xlink:href="#DejaVuSans-70" transform="translate(163.863281 0)"/>
      <use xlink:href="#DejaVuSans-61" transform="translate(227.339844 0)"/>
      <use xlink:href="#DejaVuSans-72" transform="translate(288.619141 0)"/>
      <use xlink:href="#DejaVuSans-65" transform="translate(327.482422 0)"/>
      <use xlink:href="#DejaVuSans-5f" transform="translate(389.005859 0)"/>
      <use xlink:href="#DejaVuSans-64" transform="translate(439.005859 0)"/>
      <use xlink:href="#DejaVuSans-65" transform="translate(502.482422 0)"/>
      <use xlink:href="#DejaVuSans-70" transform="translate(564.005859 0)"/>
      <use xlink:href="#DejaVuSans-6c" transform="translate(627.482422 0)"/>
      <use xlink:href="#DejaVuSans-6f" transform="translate(655.265625 0)"/>
      <use xlink:href="#DejaVuSans-79" transform="translate(716.447266 0)"/>
      <use xlink:href="#DejaVuSans-6d" transform="translate(775.626953 0)"/>
      <use xlink:href="#DejaVuSans-65" transform="translate(873.039062 0)"/>
      <use xlink:href="#DejaVuSans-6e" transform="translate(934.5625 0)"/>
      <use xlink:href="#DejaVuSans-74" transform="translate(997.941406 0)"/>
     </g>
    </g>
   </g>
   <g id="text_31">
    <g clip-path="url(#p6aa6d66fbf)">
     <!-- save_model -->
     <g transform="translate(444.745914 149.854436) scale(0.08 -0.08)">
      <use xlink:href="#DejaVuSans-73"/>
      <use xlink:href="#DejaVuSans-61" transform="translate(52.099609 0)"/>
      <use xlink:href="#DejaVuSans-76" transform="translate(113.378906 0)"/>
      <use xlink:href="#DejaVuSans-65" transform="translate(172.558594 0)"/>
      <use xlink:href="#DejaVuSans-5f" transform="translate(234.082031 0)"/>
      <use xlink:href="#DejaVuSans-6d" transform="translate(284.082031 0)"/>
      <use xlink:href="#DejaVuSans-6f" transform="translate(381.494141 0)"/>
      <use xlink:href="#DejaVuSans-64" transform="translate(442.675781 0)"/>
      <use xlink:href="#DejaVuSans-65" transform="translate(506.152344 0)"/>
      <use xlink:href="#DejaVuSans-6c" transform="translate(567.675781 0)"/>
     </g>
    </g>
   </g>
   <g id="text_32">
    <g clip-path="url(#p6aa6d66fbf)">
     <!-- generate_docs -->
     <g transform="translate(439.173414 169.17172) scale(0.08 -0.08)">
      <use xlink:href="#DejaVuSans-67"/>
      <use xlink:href="#DejaVuSans-65" transform="translate(63.476562 0)"/>
      <use xlink:href="#DejaVuSans-6e" transform="translate(125 0)"/>
      <use xlink:href="#DejaVuSans-65" transform="translate(188.378906 0)"/>
      <use xlink:href="#DejaVuSans-72" transform="translate(249.902344 0)"/>
      <use xlink:href="#DejaVuSans-61" transform="translate(291.015625 0)"/>
      <use xlink:href="#DejaVuSans-74" transform="translate(352.294922 0)"/>
      <use xlink:href="#DejaVuSans-65" transform="translate(391.503906 0)"/>
      <use xlink:href="#DejaVuSans-5f" transform="translate(453.027344 0)"/>
      <use xlink:href="#DejaVuSans-64" transform="translate(503.027344 0)"/>
      <use xlink:href="#DejaVuSans-6f" transform="translate(566.503906 0)"/>
      <use xlink:href="#DejaVuSans-63" transform="translate(627.685547 0)"/>
      <use xlink:href="#DejaVuSans-73" transform="translate(682.666016 0)"/>
     </g>
    </g>
   </g>
   <g id="text_33">
    <g clip-path="url(#p6aa6d66fbf)">
     <!-- create_api_spec -->
     <g transform="translate(423.09561 188.489003) scale(0.08 -0.08)">
      <use xlink:href="#DejaVuSans-63"/>
      <use xlink:href="#DejaVuSans-72" transform="translate(54.980469 0)"/>
      <use xlink:href="#DejaVuSans-65" transform="translate(93.84375 0)"/>
      <use xlink:href="#DejaVuSans-61" transform="translate(155.367188 0)"/>
      <use xlink:href="#DejaVuSans-74" transform="translate(216.646484 0)"/>
      <use xlink:href="#DejaVuSans-65" transform="translate(255.855469 0)"/>
      <use xlink:href="#DejaVuSans-5f" transform="translate(317.378906 0)"/>
      <use xlink:href="#DejaVuSans-61" transform="translate(367.378906 0)"/>
      <use xlink:href="#DejaVuSans-70" transform="translate(428.658203 0)"/>
      <use xlink:href="#DejaVuSans-69" transform="translate(492.134766 0)"/>
      <use xlink:href="#DejaVuSans-5f" transform="translate(519.917969 0)"/>
      <use xlink:href="#DejaVuSans-73" transform="translate(569.917969 0)"/>
      <use xlink:href="#DejaVuSans-70" transform="translate(622.017578 0)"/>
      <use xlink:href="#DejaVuSans-65" transform="translate(685.494141 0)"/>
      <use xlink:href="#DejaVuSans-63" transform="translate(747.017578 0)"/>
     </g>
    </g>
   </g>
   <g id="text_34">
    <g clip-path="url(#p6aa6d66fbf)">
     <!-- final_review -->
     <g transform="translate(404.55625 227.12357) scale(0.08 -0.08)">
      <use xlink:href="#DejaVuSans-66"/>
      <use xlink:href="#DejaVuSans-69" transform="translate(35.205078 0)"/>
      <use xlink:href="#DejaVuSans-6e" transform="translate(62.988281 0)"/>
      <use xlink:href="#DejaVuSans-61" transform="translate(126.367188 0)"/>
      <use xlink:href="#DejaVuSans-6c" transform="translate(187.646484 0)"/>
      <use xlink:href="#DejaVuSans-5f" transform="translate(215.429688 0)"/>
      <use xlink:href="#DejaVuSans-72" transform="translate(265.429688 0)"/>
      <use xlink:href="#DejaVuSans-65" transform="translate(304.292969 0)"/>
      <use xlink:href="#DejaVuSans-76" transform="translate(365.816406 0)"/>
      <use xlink:href="#DejaVuSans-69" transform="translate(424.996094 0)"/>
      <use xlink:href="#DejaVuSans-65" transform="translate(452.779297 0)"/>
      <use xlink:href="#DejaVuSans-77" transform="translate(514.302734 0)"/>
     </g>
    </g>
   </g>
   <g id="text_35">
    <g clip-path="url(#p6aa6d66fbf)">
     <!-- complete -->
     <g transform="translate(436.492485 207.917537) scale(0.08 -0.08)">
      <use xlink:href="#DejaVuSans-63"/>
      <use xlink:href="#DejaVuSans-6f" transform="translate(54.980469 0)"/>
      <use xlink:href="#DejaVuSans-6d" transform="translate(116.162109 0)"/>
      <use xlink:href="#DejaVuSans-70" transform="translate(213.574219 0)"/>
      <use xlink:href="#DejaVuSans-6c" transform="translate(277.050781 0)"/>
      <use xlink:href="#DejaVuSans-65" transform="translate(304.833984 0)"/>
      <use xlink:href="#DejaVuSans-74" transform="translate(366.357422 0)"/>
      <use xlink:href="#DejaVuSans-65" transform="translate(405.566406 0)"/>
     </g>
    </g>
   </g>
   <g id="text_36">
    <!-- ml_pipeline -->
    <g transform="translate(383.507031 17.837812) scale(0.14 -0.14)">
     <defs>
      <path id="DejaVuSans-Bold-6d" d="M 3781 2919 
Q 3994 3244 4286 3414 
Q 4578 3584 4928 3584 
Q 5531 3584 5847 3212 
Q 6163 2841 6163 2131 
L 6163 0 
L 5038 0 
L 5038 1825 
Q 5041 1866 5042 1909 
Q 5044 1953 5044 2034 
Q 5044 2406 4934 2573 
Q 4825 2741 4581 2741 
Q 4263 2741 4089 2478 
Q 3916 2216 3909 1719 
L 3909 0 
L 2784 0 
L 2784 1825 
Q 2784 2406 2684 2573 
Q 2584 2741 2328 2741 
Q 2006 2741 1831 2477 
Q 1656 2213 1656 1722 
L 1656 0 
L 531 0 
L 531 3500 
L 1656 3500 
L 1656 2988 
Q 1863 3284 2130 3434 
Q 2397 3584 2719 3584 
Q 3081 3584 3359 3409 
Q 3638 3234 3781 2919 
z
" transform="scale(0.015625)"/>
      <path id="DejaVuSans-Bold-6c" d="M 538 4863 
L 1656 4863 
L 1656 0 
L 538 0 
L 538 4863 
z
" transform="scale(0.015625)"/>
      <path id="DejaVuSans-Bold-5f" d="M 3200 -916 
L 3200 -1509 
L 0 -1509 
L 0 -916 
L 3200 -916 
z
" transform="scale(0.015625)"/>
      <path id="DejaVuSans-Bold-70" d="M 1656 506 
L 1656 -1331 
L 538 -1331 
L 538 3500 
L 1656 3500 
L 1656 2988 
Q 1888 3294 2169 3439 
Q 2450 3584 2816 3584 
Q 3463 3584 3878 3070 
Q 4294 2556 4294 1747 
Q 4294 938 3878 423 
Q 3463 -91 2816 -91 
Q 2450 -91 2169 54 
Q 1888 200 1656 506 
z
M 2400 2772 
Q 2041 2772 1848 2508 
Q 1656 2244 1656 1747 
Q 1656 1250 1848 986 
Q 2041 722 2400 722 
Q 2759 722 2948 984 
Q 3138 1247 3138 1747 
Q 3138 2247 2948 2509 
Q 2759 2772 2400 2772 
z
" transform="scale(0.015625)"/>
      <path id="DejaVuSans-Bold-69" d="M 538 3500 
L 1656 3500 
L 1656 0 
L 538 0 
L 538 3500 
z
M 538 4863 
L 1656 4863 
L 1656 3950 
L 538 3950 
L 538 4863 
z
" transform="scale(0.015625)"/>
      <path id="DejaVuSans-Bold-65" d="M 4031 1759 
L 4031 1441 
L 1416 1441 
Q 1456 1047 1700 850 
Q 1944 653 2381 653 
Q 2734 653 3104 758 
Q 3475 863 3866 1075 
L 3866 213 
Q 3469 63 3072 -14 
Q 2675 -91 2278 -91 
Q 1328 -91 801 392 
Q 275 875 275 1747 
Q 275 2603 792 3093 
Q 1309 3584 2216 3584 
Q 3041 3584 3536 3087 
Q 4031 2591 4031 1759 
z
M 2881 2131 
Q 2881 2450 2695 2645 
Q 2509 2841 2209 2841 
Q 1884 2841 1681 2658 
Q 1478 2475 1428 2131 
L 2881 2131 
z
" transform="scale(0.015625)"/>
      <path id="DejaVuSans-Bold-6e" d="M 4056 2131 
L 4056 0 
L 2931 0 
L 2931 347 
L 2931 1631 
Q 2931 2084 2911 2256 
Q 2891 2428 2841 2509 
Q 2775 2619 2662 2680 
Q 2550 2741 2406 2741 
Q 2056 2741 1856 2470 
Q 1656 2200 1656 1722 
L 1656 0 
L 538 0 
L 538 3500 
L 1656 3500 
L 1656 2988 
Q 1909 3294 2193 3439 
Q 2478 3584 2822 3584 
Q 3428 3584 3742 3212 
Q 4056 2841 4056 2131 
z
" transform="scale(0.015625)"/>
     </defs>
     <use xlink:href="#DejaVuSans-Bold-6d"/>
     <use xlink:href="#DejaVuSans-Bold-6c" transform="translate(104.199219 0)"/>
     <use xlink:href="#DejaVuSans-Bold-5f" transform="translate(138.476562 0)"/>
     <use xlink:href="#DejaVuSans-Bold-70" transform="translate(188.476562 0)"/>
     <use xlink:href="#DejaVuSans-Bold-69" transform="translate(260.058594 0)"/>
     <use xlink:href="#DejaVuSans-Bold-70" transform="translate(294.335938 0)"/>
     <use xlink:href="#DejaVuSans-Bold-65" transform="translate(365.917969 0)"/>
     <use xlink:href="#DejaVuSans-Bold-6c" transform="translate(433.740234 0)"/>
     <use xlink:href="#DejaVuSans-Bold-69" transform="translate(468.017578 0)"/>
     <use xlink:href="#DejaVuSans-Bold-6e" transform="translate(502.294922 0)"/>
     <use xlink:href="#DejaVuSans-Bold-65" transform="translate(573.486328 0)"/>
    </g>
   </g>
  </g>
 </g>
 <defs>
  <clipPath id="p6aa6d66fbf">
   <rect x="7.2" y="23.837812" width="842.4" height="537.6"/>
  </clipPath>
 </defs>
</svg>
