<?xml version="1.0" encoding="utf-8" standalone="no"?>
<!DOCTYPE svg PUBLIC "-//W3C//DTD SVG 1.1//EN"
  "http://www.w3.org/Graphics/SVG/1.1/DTD/svg11.dtd">
<svg xmlns:xlink="http://www.w3.org/1999/xlink" width="856.8pt" height="568.637812pt" viewBox="0 0 856.8 568.637812" xmlns="http://www.w3.org/2000/svg" version="1.1">
 <metadata>
  <rdf:RDF xmlns:dc="http://purl.org/dc/elements/1.1/" xmlns:cc="http://creativecommons.org/ns#" xmlns:rdf="http://www.w3.org/1999/02/22-rdf-syntax-ns#">
   <cc:Work>
    <dc:type rdf:resource="http://purl.org/dc/dcmitype/StillImage"/>
    <dc:date>2026-01-03T04:01:11.219280</dc:date>
    <dc:format>image/svg+xml</dc:format>
    <dc:creator>
     <cc:Agent>
      <dc:title>Matplotlib v3.10.8, https://matplotlib.org/</dc:title>
     </cc:Agent>
    </dc:creator>
   </cc:Work>
  </rdf:RDF>
 </metadata>
 <defs>
  <style type="text/css">*{stroke-linejoin: round; stroke-linecap: butt}</style>
 </defs>
 <g id="figure_1">
  <g id="patch_1">
   <path d="M 0 568.637812 
L 856.8 568.637812 
L 856.8 0 
L 0 0 
z
" style="fill: #ffffff"/>
  </g>
  <g id="axes_1">
   <g id="patch_2">
    <path d="M 88.961344 514.786573 
Q 428.401412 514.786573 766.723446 514.786573 
" clip-path="url(#pd350c99b3b)" style="fill: none; stroke: #666666; stroke-linecap: round"/>
    <path d="M 762.723446 512.786573 
L 766.723446 514.786573 
L 762.723446 516.786573 
z
" clip-path="url(#pd350c99b3b)" style="fill: #666666; stroke: #666666; stroke-linecap: round"/>
   </g>
   <g id="patch_3">
    <path d="M 771.156913 507.967961 
Q 737.82162 465.42035 705.175857 423.752824 
" clip-path="url(#pd350c99b3b)" style="fill: none; stroke: #666666; stroke-linecap: round"/>
    <path d="M 706.068453 428.134978 
L 705.175857 423.752824 
L 709.217138 425.66804 
z
" clip-path="url(#pd350c99b3b)" style="fill: #666666; stroke: #666666; stroke-linecap: round"/>
   </g>
   <g id="patch_4">
    <path d="M 124.320773 458.601569 
Q 157.656066 416.053959 190.301829 374.386433 
" clip-path="url(#pd350c99b3b)" style="fill: none; stroke: #666666; stroke-linecap: round"/>
    <path d="M 186.260548 376.301649 
L 190.301829 374.386433 
L 189.409233 378.768587 
z
" clip-path="url(#pd350c99b3b)" style="fill: #666666; stroke: #666666; stroke-linecap: round"/>
   </g>
   <g id="patch_5">
    <path d="M 204.95368 367.5337 
Q 447.741092 391.370816 689.415819 415.098687 
" clip-path="url(#pd350c99b3b)" style="fill: none; stroke: #666666; stroke-linecap: round"/>
    <path d="M 685.630382 412.717413 
L 689.415819 415.098687 
L 685.239537 416.698272 
z
" clip-path="url(#pd350c99b3b)" style="fill: #666666; stroke: #666666; stroke-linecap: round"/>
   </g>
   <g id="patch_6">
    <path d="M 690.670074 414.251212 
Q 467.076814 366.687214 244.577118 319.355844 
" clip-path="url(#pd350c99b3b)" style="fill: none; stroke: #666666; stroke-linecap: round"/>
    <path d="M 248.073434 322.144352 
L 244.577118 319.355844 
L 248.905714 318.231896 
z
" clip-path="url(#pd350c99b3b)" style="fill: #666666; stroke: #666666; stroke-linecap: round"/>
   </g>
   <g id="patch_7">
    <path d="M 693.804196 409.238568 
Q 563.771894 243.271412 434.429121 78.184341 
" clip-path="url(#pd350c99b3b)" style="fill: none; stroke: #666666; stroke-linecap: round"/>
    <path d="M 435.321717 82.566495 
L 434.429121 78.184341 
L 438.470402 80.099556 
z
" clip-path="url(#pd350c99b3b)" style="fill: #666666; stroke: #666666; stroke-linecap: round"/>
   </g>
   <g id="patch_8">
    <path d="M 423.06187 77.302392 
Q 331.706715 193.903843 241.041091 309.62521 
" clip-path="url(#pd350c99b3b)" style="fill: none; stroke: #666666; stroke-linecap: round"/>
    <path d="M 245.082371 307.709994 
L 241.041091 309.62521 
L 241.933687 305.243056 
z
" clip-path="url(#pd350c99b3b)" style="fill: #666666; stroke: #666666; stroke-linecap: round"/>
   </g>
   <g id="patch_9">
    <path d="M 242.982469 313.92978 
Q 293.028163 292.637785 342.045063 271.783492 
" clip-path="url(#pd350c99b3b)" style="fill: none; stroke: #666666; stroke-linecap: round"/>
    <path d="M 337.581352 271.509098 
L 342.045063 271.783492 
L 339.147321 275.189824 
z
" clip-path="url(#pd350c99b3b)" style="fill: #666666; stroke: #666666; stroke-linecap: round"/>
   </g>
   <g id="patch_10">
    <path d="M 356.386889 261.136005 
Q 370.384146 243.27056 383.691873 226.285199 
" clip-path="url(#pd350c99b3b)" style="fill: none; stroke: #666666; stroke-linecap: round"/>
    <path d="M 379.650592 228.200415 
L 383.691873 226.285199 
L 382.799277 230.667353 
z
" clip-path="url(#pd350c99b3b)" style="fill: #666666; stroke: #666666; stroke-linecap: round"/>
   </g>
   <g id="patch_11">
    <path d="M 395.064575 211.769613 
Q 409.061832 193.904169 422.369558 176.918808 
" clip-path="url(#pd350c99b3b)" style="fill: none; stroke: #666666; stroke-linecap: round"/>
    <path d="M 418.328278 178.834024 
L 422.369558 176.918808 
L 421.476963 181.300962 
z
" clip-path="url(#pd350c99b3b)" style="fill: #666666; stroke: #666666; stroke-linecap: round"/>
   </g>
   <g id="patch_12">
    <path d="M 428.4 160.559214 
Q 428.4 144.53757 428.4 129.63396 
" clip-path="url(#pd350c99b3b)" style="fill: none; stroke: #666666; stroke-linecap: round"/>
    <path d="M 426.4 133.63396 
L 428.4 129.63396 
L 430.4 133.63396 
z
" clip-path="url(#pd350c99b3b)" style="fill: #666666; stroke: #666666; stroke-linecap: round"/>
   </g>
   <g id="text_1">
    <g id="patch_13">
     <path d="M 453.889513 369.492065 
L 477.980613 374.616858 
Q 480.034652 375.053804 480.471599 372.999765 
L 481.881207 366.373348 
Q 482.318154 364.319309 480.264114 363.882362 
L 456.173014 358.75757 
Q 454.118975 358.320623 453.682028 360.374663 
L 452.27242 367.001079 
Q 451.835474 369.055118 453.889513 369.492065 
z
" clip-path="url(#pd350c99b3b)" style="fill: #ffffff; stroke: #ffffff; stroke-linejoin: miter"/>
    </g>
    <g clip-path="url(#pd350c99b3b)">
     <!-- default -->
     <g transform="translate(454.629364 366.014106) rotate(-347.990737) scale(0.07 -0.07)">
      <defs>
       <path id="DejaVuSans-64" d="M 2906 2969 
L 2906 4863 
L 3481 4863 
L 3481 0 
L 2906 0 
L 2906 525 
Q 2725 213 2448 61 
Q 2172 -91 1784 -91 
Q 1150 -91 751 415 
Q 353 922 353 1747 
Q 353 2572 751 3078 
Q 1150 3584 1784 3584 
Q 2172 3584 2448 3432 
Q 2725 3281 2906 2969 
z
M 947 1747 
Q 947 1113 1208 752 
Q 1469 391 1925 391 
Q 2381 391 2643 752 
Q 2906 1113 2906 1747 
Q 2906 2381 2643 2742 
Q 2381 3103 1925 3103 
Q 1469 3103 1208 2742 
Q 947 2381 947 1747 
z
" transform="scale(0.015625)"/>
       <path id="DejaVuSans-65" d="M 3597 1894 
L 3597 1613 
L 953 1613 
Q 991 1019 1311 708 
Q 1631 397 2203 397 
Q 2534 397 2845 478 
Q 3156 559 3463 722 
L 3463 178 
Q 3153 47 2828 -22 
Q 2503 -91 2169 -91 
Q 1331 -91 842 396 
Q 353 884 353 1716 
Q 353 2575 817 3079 
Q 1281 3584 2069 3584 
Q 2775 3584 3186 3129 
Q 3597 2675 3597 1894 
z
M 3022 2063 
Q 3016 2534 2758 2815 
Q 2500 3097 2075 3097 
Q 1594 3097 1305 2825 
Q 1016 2553 972 2059 
L 3022 2063 
z
" transform="scale(0.015625)"/>
       <path id="DejaVuSans-66" d="M 2375 4863 
L 2375 4384 
L 1825 4384 
Q 1516 4384 1395 4259 
Q 1275 4134 1275 3809 
L 1275 3500 
L 2222 3500 
L 2222 3053 
L 1275 3053 
L 1275 0 
L 697 0 
L 697 3053 
L 147 3053 
L 147 3500 
L 697 3500 
L 697 3744 
Q 697 4328 969 4595 
Q 1241 4863 1831 4863 
L 2375 4863 
z
" transform="scale(0.015625)"/>
       <path id="DejaVuSans-61" d="M 2194 1759 
Q 1497 1759 1228 1600 
Q 959 1441 959 1056 
Q 959 750 1161 570 
Q 1363 391 1709 391 
Q 2188 391 2477 730 
Q 2766 1069 2766 1631 
L 2766 1759 
L 2194 1759 
z
M 3341 1997 
L 3341 0 
L 2766 0 
L 2766 531 
Q 2569 213 2275 61 
Q 1981 -91 1556 -91 
Q 1019 -91 701 211 
Q 384 513 384 1019 
Q 384 1609 779 1909 
Q 1175 2209 1959 2209 
L 2766 2209 
L 2766 2266 
Q 2766 2663 2505 2880 
Q 2244 3097 1772 3097 
Q 1472 3097 1187 3025 
Q 903 2953 641 2809 
L 641 3341 
Q 956 3463 1253 3523 
Q 1550 3584 1831 3584 
Q 2591 3584 2966 3190 
Q 3341 2797 3341 1997 
z
" transform="scale(0.015625)"/>
       <path id="DejaVuSans-75" d="M 544 1381 
L 544 3500 
L 1119 3500 
L 1119 1403 
Q 1119 906 1312 657 
Q 1506 409 1894 409 
Q 2359 409 2629 706 
Q 2900 1003 2900 1516 
L 2900 3500 
L 3475 3500 
L 3475 0 
L 2900 0 
L 2900 538 
Q 2691 219 2414 64 
Q 2138 -91 1772 -91 
Q 1169 -91 856 284 
Q 544 659 544 1381 
z
M 1991 3584 
L 1991 3584 
z
" transform="scale(0.015625)"/>
       <path id="DejaVuSans-6c" d="M 603 4863 
L 1178 4863 
L 1178 0 
L 603 0 
L 603 4863 
z
" transform="scale(0.015625)"/>
       <path id="DejaVuSans-74" d="M 1172 4494 
L 1172 3500 
L 2356 3500 
L 2356 3053 
L 1172 3053 
L 1172 1153 
Q 1172 725 1289 603 
Q 1406 481 1766 481 
L 2356 481 
L 2356 0 
L 1766 0 
Q 1100 0 847 248 
Q 594 497 594 1153 
L 594 3053 
L 172 3053 
L 172 3500 
L 594 3500 
L 594 4494 
L 1172 4494 
z
" transform="scale(0.015625)"/>
      </defs>
      <use xlink:href="#DejaVuSans-64"/>
      <use xlink:href="#DejaVuSans-65" transform="translate(63.476562 0)"/>
      <use xlink:href="#DejaVuSans-66" transform="translate(125 0)"/>
      <use xlink:href="#DejaVuSans-61" transform="translate(160.205078 0)"/>
      <use xlink:href="#DejaVuSans-75" transform="translate(221.484375 0)"/>
      <use xlink:href="#DejaVuSans-6c" transform="translate(284.863281 0)"/>
      <use xlink:href="#DejaVuSans-74" transform="translate(312.646484 0)"/>
     </g>
    </g>
   </g>
   <g id="text_2">
    <g id="patch_14">
     <path d="M 554.317377 240.101524 
L 564.587453 253.209769 
Q 565.882595 254.862829 567.535655 253.567686 
L 572.868494 249.389502 
Q 574.521553 248.09436 573.226411 246.4413 
L 562.956335 233.333055 
Q 561.661192 231.679996 560.008133 232.975138 
L 554.675294 237.153322 
Q 553.022234 238.448465 554.317377 240.101524 
z
" clip-path="url(#pd350c99b3b)" style="fill: #ffffff; stroke: #ffffff; stroke-linejoin: miter"/>
    </g>
    <g clip-path="url(#pd350c99b3b)">
     <!-- false -->
     <g transform="translate(557.116385 237.908551) rotate(-308.078065) scale(0.07 -0.07)">
      <defs>
       <path id="DejaVuSans-73" d="M 2834 3397 
L 2834 2853 
Q 2591 2978 2328 3040 
Q 2066 3103 1784 3103 
Q 1356 3103 1142 2972 
Q 928 2841 928 2578 
Q 928 2378 1081 2264 
Q 1234 2150 1697 2047 
L 1894 2003 
Q 2506 1872 2764 1633 
Q 3022 1394 3022 966 
Q 3022 478 2636 193 
Q 2250 -91 1575 -91 
Q 1294 -91 989 -36 
Q 684 19 347 128 
L 347 722 
Q 666 556 975 473 
Q 1284 391 1588 391 
Q 1994 391 2212 530 
Q 2431 669 2431 922 
Q 2431 1156 2273 1281 
Q 2116 1406 1581 1522 
L 1381 1569 
Q 847 1681 609 1914 
Q 372 2147 372 2553 
Q 372 3047 722 3315 
Q 1072 3584 1716 3584 
Q 2034 3584 2315 3537 
Q 2597 3491 2834 3397 
z
" transform="scale(0.015625)"/>
      </defs>
      <use xlink:href="#DejaVuSans-66"/>
      <use xlink:href="#DejaVuSans-61" transform="translate(35.205078 0)"/>
      <use xlink:href="#DejaVuSans-6c" transform="translate(96.484375 0)"/>
      <use xlink:href="#DejaVuSans-73" transform="translate(124.267578 0)"/>
      <use xlink:href="#DejaVuSans-65" transform="translate(176.367188 0)"/>
     </g>
    </g>
   </g>
   <g id="PathCollection_1">
    <defs>
     <path id="C0_0_f80d22333d" d="M 0 22.36068 
C 5.930122 22.36068 11.618159 20.004617 15.811388 15.811388 
C 20.004617 11.618159 22.36068 5.930122 22.36068 -0 
C 22.36068 -5.930122 20.004617 -11.618159 15.811388 -15.811388 
C 11.618159 -20.004617 5.930122 -22.36068 0 -22.36068 
C -5.930122 -22.36068 -11.618159 -20.004617 -15.811388 -15.811388 
C -20.004617 -11.618159 -22.36068 -5.930122 -22.36068 0 
C -22.36068 5.930122 -20.004617 11.618159 -15.811388 15.811388 
C -11.618159 20.004617 -5.930122 22.36068 0 22.36068 
z
"/>
    </defs>
    <g clip-path="url(#pd350c99b3b)">
     <use xlink:href="#C0_0_f80d22333d" x="80.300826" y="514.786573" style="fill: #e3f2fd; stroke: #e3f2fd"/>
    </g>
    <g clip-path="url(#pd350c99b3b)">
     <use xlink:href="#C0_0_f80d22333d" x="776.499174" y="514.786573" style="fill: #f3e5f5; stroke: #f3e5f5"/>
    </g>
    <g clip-path="url(#pd350c99b3b)">
     <use xlink:href="#C0_0_f80d22333d" x="118.978512" y="465.420182" style="fill: #e3f2fd; stroke: #e3f2fd"/>
    </g>
    <g clip-path="url(#pd350c99b3b)">
     <use xlink:href="#C0_0_f80d22333d" x="196.333884" y="366.687399" style="fill: #e3f2fd; stroke: #e3f2fd"/>
    </g>
    <g clip-path="url(#pd350c99b3b)">
     <use xlink:href="#C0_0_f80d22333d" x="699.143802" y="416.05379" style="fill: #fff3e0; stroke: #fff3e0"/>
    </g>
    <g clip-path="url(#pd350c99b3b)">
     <use xlink:href="#C0_0_f80d22333d" x="428.4" y="70.489052" style="fill: #e3f2fd; stroke: #e3f2fd"/>
    </g>
    <g clip-path="url(#pd350c99b3b)">
     <use xlink:href="#C0_0_f80d22333d" x="235.01157" y="317.321008" style="fill: #e3f2fd; stroke: #e3f2fd"/>
    </g>
    <g clip-path="url(#pd350c99b3b)">
     <use xlink:href="#C0_0_f80d22333d" x="351.044628" y="267.954617" style="fill: #e3f2fd; stroke: #e3f2fd"/>
    </g>
    <g clip-path="url(#pd350c99b3b)">
     <use xlink:href="#C0_0_f80d22333d" x="389.722314" y="218.588226" style="fill: #ffebee; stroke: #ffebee"/>
    </g>
    <g clip-path="url(#pd350c99b3b)">
     <use xlink:href="#C0_0_f80d22333d" x="428.4" y="169.221835" style="fill: #e3f2fd; stroke: #e3f2fd"/>
    </g>
    <g clip-path="url(#pd350c99b3b)">
     <use xlink:href="#C0_0_f80d22333d" x="428.4" y="119.855443" style="fill: #eceff1; stroke: #eceff1"/>
    </g>
   </g>
   <g id="text_3">
    <g clip-path="url(#pd350c99b3b)">
     <!-- formulate_hypotheses -->
     <g transform="translate(35.765201 516.882823) scale(0.08 -0.08)">
      <defs>
       <path id="DejaVuSans-6f" d="M 1959 3097 
Q 1497 3097 1228 2736 
Q 959 2375 959 1747 
Q 959 1119 1226 758 
Q 1494 397 1959 397 
Q 2419 397 2687 759 
Q 2956 1122 2956 1747 
Q 2956 2369 2687 2733 
Q 2419 3097 1959 3097 
z
M 1959 3584 
Q 2709 3584 3137 3096 
Q 3566 2609 3566 1747 
Q 3566 888 3137 398 
Q 2709 -91 1959 -91 
Q 1206 -91 779 398 
Q 353 888 353 1747 
Q 353 2609 779 3096 
Q 1206 3584 1959 3584 
z
" transform="scale(0.015625)"/>
       <path id="DejaVuSans-72" d="M 2631 2963 
Q 2534 3019 2420 3045 
Q 2306 3072 2169 3072 
Q 1681 3072 1420 2755 
Q 1159 2438 1159 1844 
L 1159 0 
L 581 0 
L 581 3500 
L 1159 3500 
L 1159 2956 
Q 1341 3275 1631 3429 
Q 1922 3584 2338 3584 
Q 2397 3584 2469 3576 
Q 2541 3569 2628 3553 
L 2631 2963 
z
" transform="scale(0.015625)"/>
       <path id="DejaVuSans-6d" d="M 3328 2828 
Q 3544 3216 3844 3400 
Q 4144 3584 4550 3584 
Q 5097 3584 5394 3201 
Q 5691 2819 5691 2113 
L 5691 0 
L 5113 0 
L 5113 2094 
Q 5113 2597 4934 2840 
Q 4756 3084 4391 3084 
Q 3944 3084 3684 2787 
Q 3425 2491 3425 1978 
L 3425 0 
L 2847 0 
L 2847 2094 
Q 2847 2600 2669 2842 
Q 2491 3084 2119 3084 
Q 1678 3084 1418 2786 
Q 1159 2488 1159 1978 
L 1159 0 
L 581 0 
L 581 3500 
L 1159 3500 
L 1159 2956 
Q 1356 3278 1631 3431 
Q 1906 3584 2284 3584 
Q 2666 3584 2933 3390 
Q 3200 3197 3328 2828 
z
" transform="scale(0.015625)"/>
       <path id="DejaVuSans-5f" d="M 3263 -1063 
L 3263 -1509 
L -63 -1509 
L -63 -1063 
L 3263 -1063 
z
" transform="scale(0.015625)"/>
       <path id="DejaVuSans-68" d="M 3513 2113 
L 3513 0 
L 2938 0 
L 2938 2094 
Q 2938 2591 2744 2837 
Q 2550 3084 2163 3084 
Q 1697 3084 1428 2787 
Q 1159 2491 1159 1978 
L 1159 0 
L 581 0 
L 581 4863 
L 1159 4863 
L 1159 2956 
Q 1366 3272 1645 3428 
Q 1925 3584 2291 3584 
Q 2894 3584 3203 3211 
Q 3513 2838 3513 2113 
z
" transform="scale(0.015625)"/>
       <path id="DejaVuSans-79" d="M 2059 -325 
Q 1816 -950 1584 -1140 
Q 1353 -1331 966 -1331 
L 506 -1331 
L 506 -850 
L 844 -850 
Q 1081 -850 1212 -737 
Q 1344 -625 1503 -206 
L 1606 56 
L 191 3500 
L 800 3500 
L 1894 763 
L 2988 3500 
L 3597 3500 
L 2059 -325 
z
" transform="scale(0.015625)"/>
       <path id="DejaVuSans-70" d="M 1159 525 
L 1159 -1331 
L 581 -1331 
L 581 3500 
L 1159 3500 
L 1159 2969 
Q 1341 3281 1617 3432 
Q 1894 3584 2278 3584 
Q 2916 3584 3314 3078 
Q 3713 2572 3713 1747 
Q 3713 922 3314 415 
Q 2916 -91 2278 -91 
Q 1894 -91 1617 61 
Q 1341 213 1159 525 
z
M 3116 1747 
Q 3116 2381 2855 2742 
Q 2594 3103 2138 3103 
Q 1681 3103 1420 2742 
Q 1159 2381 1159 1747 
Q 1159 1113 1420 752 
Q 1681 391 2138 391 
Q 2594 391 2855 752 
Q 3116 1113 3116 1747 
z
" transform="scale(0.015625)"/>
      </defs>
      <use xlink:href="#DejaVuSans-66"/>
      <use xlink:href="#DejaVuSans-6f" transform="translate(35.205078 0)"/>
      <use xlink:href="#DejaVuSans-72" transform="translate(96.386719 0)"/>
      <use xlink:href="#DejaVuSans-6d" transform="translate(135.75 0)"/>
      <use xlink:href="#DejaVuSans-75" transform="translate(233.162109 0)"/>
      <use xlink:href="#DejaVuSans-6c" transform="translate(296.541016 0)"/>
      <use xlink:href="#DejaVuSans-61" transform="translate(324.324219 0)"/>
      <use xlink:href="#DejaVuSans-74" transform="translate(385.603516 0)"/>
      <use xlink:href="#DejaVuSans-65" transform="translate(424.8125 0)"/>
      <use xlink:href="#DejaVuSans-5f" transform="translate(486.335938 0)"/>
      <use xlink:href="#DejaVuSans-68" transform="translate(536.335938 0)"/>
      <use xlink:href="#DejaVuSans-79" transform="translate(599.714844 0)"/>
      <use xlink:href="#DejaVuSans-70" transform="translate(658.894531 0)"/>
      <use xlink:href="#DejaVuSans-6f" transform="translate(722.371094 0)"/>
      <use xlink:href="#DejaVuSans-74" transform="translate(783.552734 0)"/>
      <use xlink:href="#DejaVuSans-68" transform="translate(822.761719 0)"/>
      <use xlink:href="#DejaVuSans-65" transform="translate(886.140625 0)"/>
      <use xlink:href="#DejaVuSans-73" transform="translate(947.664062 0)"/>
      <use xlink:href="#DejaVuSans-65" transform="translate(999.763672 0)"/>
      <use xlink:href="#DejaVuSans-73" transform="translate(1061.287109 0)"/>
     </g>
    </g>
   </g>
   <g id="text_4">
    <g clip-path="url(#pd350c99b3b)">
     <!-- prepare_data -->
     <g transform="translate(749.927924 516.882823) scale(0.08 -0.08)">
      <use xlink:href="#DejaVuSans-70"/>
      <use xlink:href="#DejaVuSans-72" transform="translate(63.476562 0)"/>
      <use xlink:href="#DejaVuSans-65" transform="translate(102.339844 0)"/>
      <use xlink:href="#DejaVuSans-70" transform="translate(163.863281 0)"/>
      <use xlink:href="#DejaVuSans-61" transform="translate(227.339844 0)"/>
      <use xlink:href="#DejaVuSans-72" transform="translate(288.619141 0)"/>
      <use xlink:href="#DejaVuSans-65" transform="translate(327.482422 0)"/>
      <use xlink:href="#DejaVuSans-5f" transform="translate(389.005859 0)"/>
      <use xlink:href="#DejaVuSans-64" transform="translate(439.005859 0)"/>
      <use xlink:href="#DejaVuSans-61" transform="translate(502.482422 0)"/>
      <use xlink:href="#DejaVuSans-74" transform="translate(563.761719 0)"/>
      <use xlink:href="#DejaVuSans-61" transform="translate(602.970703 0)"/>
     </g>
    </g>
   </g>
   <g id="text_5">
    <g clip-path="url(#pd350c99b3b)">
     <!-- check_assumptions -->
     <g transform="translate(79.932262 467.516432) scale(0.08 -0.08)">
      <defs>
       <path id="DejaVuSans-63" d="M 3122 3366 
L 3122 2828 
Q 2878 2963 2633 3030 
Q 2388 3097 2138 3097 
Q 1578 3097 1268 2742 
Q 959 2388 959 1747 
Q 959 1106 1268 751 
Q 1578 397 2138 397 
Q 2388 397 2633 464 
Q 2878 531 3122 666 
L 3122 134 
Q 2881 22 2623 -34 
Q 2366 -91 2075 -91 
Q 1284 -91 818 406 
Q 353 903 353 1747 
Q 353 2603 823 3093 
Q 1294 3584 2113 3584 
Q 2378 3584 2631 3529 
Q 2884 3475 3122 3366 
z
" transform="scale(0.015625)"/>
       <path id="DejaVuSans-6b" d="M 581 4863 
L 1159 4863 
L 1159 1991 
L 2875 3500 
L 3609 3500 
L 1753 1863 
L 3688 0 
L 2938 0 
L 1159 1709 
L 1159 0 
L 581 0 
L 581 4863 
z
" transform="scale(0.015625)"/>
       <path id="DejaVuSans-69" d="M 603 3500 
L 1178 3500 
L 1178 0 
L 603 0 
L 603 3500 
z
M 603 4863 
L 1178 4863 
L 1178 4134 
L 603 4134 
L 603 4863 
z
" transform="scale(0.015625)"/>
       <path id="DejaVuSans-6e" d="M 3513 2113 
L 3513 0 
L 2938 0 
L 2938 2094 
Q 2938 2591 2744 2837 
Q 2550 3084 2163 3084 
Q 1697 3084 1428 2787 
Q 1159 2491 1159 1978 
L 1159 0 
L 581 0 
L 581 3500 
L 1159 3500 
L 1159 2956 
Q 1366 3272 1645 3428 
Q 1925 3584 2291 3584 
Q 2894 3584 3203 3211 
Q 3513 2838 3513 2113 
z
" transform="scale(0.015625)"/>
      </defs>
      <use xlink:href="#DejaVuSans-63"/>
      <use xlink:href="#DejaVuSans-68" transform="translate(54.980469 0)"/>
      <use xlink:href="#DejaVuSans-65" transform="translate(118.359375 0)"/>
      <use xlink:href="#DejaVuSans-63" transform="translate(179.882812 0)"/>
      <use xlink:href="#DejaVuSans-6b" transform="translate(234.863281 0)"/>
      <use xlink:href="#DejaVuSans-5f" transform="translate(292.773438 0)"/>
      <use xlink:href="#DejaVuSans-61" transform="translate(342.773438 0)"/>
      <use xlink:href="#DejaVuSans-73" transform="translate(404.052734 0)"/>
      <use xlink:href="#DejaVuSans-73" transform="translate(456.152344 0)"/>
      <use xlink:href="#DejaVuSans-75" transform="translate(508.251953 0)"/>
      <use xlink:href="#DejaVuSans-6d" transform="translate(571.630859 0)"/>
      <use xlink:href="#DejaVuSans-70" transform="translate(669.042969 0)"/>
      <use xlink:href="#DejaVuSans-74" transform="translate(732.519531 0)"/>
      <use xlink:href="#DejaVuSans-69" transform="translate(771.728516 0)"/>
      <use xlink:href="#DejaVuSans-6f" transform="translate(799.511719 0)"/>
      <use xlink:href="#DejaVuSans-6e" transform="translate(860.693359 0)"/>
      <use xlink:href="#DejaVuSans-73" transform="translate(924.072266 0)"/>
     </g>
    </g>
   </g>
   <g id="text_6">
    <g clip-path="url(#pd350c99b3b)">
     <!-- prepare_variables -->
     <g transform="translate(160.551384 368.783649) scale(0.08 -0.08)">
      <defs>
       <path id="DejaVuSans-76" d="M 191 3500 
L 800 3500 
L 1894 563 
L 2988 3500 
L 3597 3500 
L 2284 0 
L 1503 0 
L 191 3500 
z
" transform="scale(0.015625)"/>
       <path id="DejaVuSans-62" d="M 3116 1747 
Q 3116 2381 2855 2742 
Q 2594 3103 2138 3103 
Q 1681 3103 1420 2742 
Q 1159 2381 1159 1747 
Q 1159 1113 1420 752 
Q 1681 391 2138 391 
Q 2594 391 2855 752 
Q 3116 1113 3116 1747 
z
M 1159 2969 
Q 1341 3281 1617 3432 
Q 1894 3584 2278 3584 
Q 2916 3584 3314 3078 
Q 3713 2572 3713 1747 
Q 3713 922 3314 415 
Q 2916 -91 2278 -91 
Q 1894 -91 1617 61 
Q 1341 213 1159 525 
L 1159 0 
L 581 0 
L 581 4863 
L 1159 4863 
L 1159 2969 
z
" transform="scale(0.015625)"/>
      </defs>
      <use xlink:href="#DejaVuSans-70"/>
      <use xlink:href="#DejaVuSans-72" transform="translate(63.476562 0)"/>
      <use xlink:href="#DejaVuSans-65" transform="translate(102.339844 0)"/>
      <use xlink:href="#DejaVuSans-70" transform="translate(163.863281 0)"/>
      <use xlink:href="#DejaVuSans-61" transform="translate(227.339844 0)"/>
      <use xlink:href="#DejaVuSans-72" transform="translate(288.619141 0)"/>
      <use xlink:href="#DejaVuSans-65" transform="translate(327.482422 0)"/>
      <use xlink:href="#DejaVuSans-5f" transform="translate(389.005859 0)"/>
      <use xlink:href="#DejaVuSans-76" transform="translate(439.005859 0)"/>
      <use xlink:href="#DejaVuSans-61" transform="translate(498.185547 0)"/>
      <use xlink:href="#DejaVuSans-72" transform="translate(559.464844 0)"/>
      <use xlink:href="#DejaVuSans-69" transform="translate(600.578125 0)"/>
      <use xlink:href="#DejaVuSans-61" transform="translate(628.361328 0)"/>
      <use xlink:href="#DejaVuSans-62" transform="translate(689.640625 0)"/>
      <use xlink:href="#DejaVuSans-6c" transform="translate(753.117188 0)"/>
      <use xlink:href="#DejaVuSans-65" transform="translate(780.900391 0)"/>
      <use xlink:href="#DejaVuSans-73" transform="translate(842.423828 0)"/>
     </g>
    </g>
   </g>
   <g id="text_7">
    <g clip-path="url(#pd350c99b3b)">
     <!-- assumption_check -->
     <g transform="translate(662.181302 418.15004) scale(0.08 -0.08)">
      <use xlink:href="#DejaVuSans-61"/>
      <use xlink:href="#DejaVuSans-73" transform="translate(61.279297 0)"/>
      <use xlink:href="#DejaVuSans-73" transform="translate(113.378906 0)"/>
      <use xlink:href="#DejaVuSans-75" transform="translate(165.478516 0)"/>
      <use xlink:href="#DejaVuSans-6d" transform="translate(228.857422 0)"/>
      <use xlink:href="#DejaVuSans-70" transform="translate(326.269531 0)"/>
      <use xlink:href="#DejaVuSans-74" transform="translate(389.746094 0)"/>
      <use xlink:href="#DejaVuSans-69" transform="translate(428.955078 0)"/>
      <use xlink:href="#DejaVuSans-6f" transform="translate(456.738281 0)"/>
      <use xlink:href="#DejaVuSans-6e" transform="translate(517.919922 0)"/>
      <use xlink:href="#DejaVuSans-5f" transform="translate(581.298828 0)"/>
      <use xlink:href="#DejaVuSans-63" transform="translate(631.298828 0)"/>
      <use xlink:href="#DejaVuSans-68" transform="translate(686.279297 0)"/>
      <use xlink:href="#DejaVuSans-65" transform="translate(749.658203 0)"/>
      <use xlink:href="#DejaVuSans-63" transform="translate(811.181641 0)"/>
      <use xlink:href="#DejaVuSans-6b" transform="translate(866.162109 0)"/>
     </g>
    </g>
   </g>
   <g id="text_8">
    <g clip-path="url(#pd350c99b3b)">
     <!-- suggest_alternatives -->
     <g transform="translate(386.845 72.585302) scale(0.08 -0.08)">
      <defs>
       <path id="DejaVuSans-67" d="M 2906 1791 
Q 2906 2416 2648 2759 
Q 2391 3103 1925 3103 
Q 1463 3103 1205 2759 
Q 947 2416 947 1791 
Q 947 1169 1205 825 
Q 1463 481 1925 481 
Q 2391 481 2648 825 
Q 2906 1169 2906 1791 
z
M 3481 434 
Q 3481 -459 3084 -895 
Q 2688 -1331 1869 -1331 
Q 1566 -1331 1297 -1286 
Q 1028 -1241 775 -1147 
L 775 -588 
Q 1028 -725 1275 -790 
Q 1522 -856 1778 -856 
Q 2344 -856 2625 -561 
Q 2906 -266 2906 331 
L 2906 616 
Q 2728 306 2450 153 
Q 2172 0 1784 0 
Q 1141 0 747 490 
Q 353 981 353 1791 
Q 353 2603 747 3093 
Q 1141 3584 1784 3584 
Q 2172 3584 2450 3431 
Q 2728 3278 2906 2969 
L 2906 3500 
L 3481 3500 
L 3481 434 
z
" transform="scale(0.015625)"/>
      </defs>
      <use xlink:href="#DejaVuSans-73"/>
      <use xlink:href="#DejaVuSans-75" transform="translate(52.099609 0)"/>
      <use xlink:href="#DejaVuSans-67" transform="translate(115.478516 0)"/>
      <use xlink:href="#DejaVuSans-67" transform="translate(178.955078 0)"/>
      <use xlink:href="#DejaVuSans-65" transform="translate(242.431641 0)"/>
      <use xlink:href="#DejaVuSans-73" transform="translate(303.955078 0)"/>
      <use xlink:href="#DejaVuSans-74" transform="translate(356.054688 0)"/>
      <use xlink:href="#DejaVuSans-5f" transform="translate(395.263672 0)"/>
      <use xlink:href="#DejaVuSans-61" transform="translate(445.263672 0)"/>
      <use xlink:href="#DejaVuSans-6c" transform="translate(506.542969 0)"/>
      <use xlink:href="#DejaVuSans-74" transform="translate(534.326172 0)"/>
      <use xlink:href="#DejaVuSans-65" transform="translate(573.535156 0)"/>
      <use xlink:href="#DejaVuSans-72" transform="translate(635.058594 0)"/>
      <use xlink:href="#DejaVuSans-6e" transform="translate(674.421875 0)"/>
      <use xlink:href="#DejaVuSans-61" transform="translate(737.800781 0)"/>
      <use xlink:href="#DejaVuSans-74" transform="translate(799.080078 0)"/>
      <use xlink:href="#DejaVuSans-69" transform="translate(838.289062 0)"/>
      <use xlink:href="#DejaVuSans-76" transform="translate(866.072266 0)"/>
      <use xlink:href="#DejaVuSans-65" transform="translate(925.251953 0)"/>
      <use xlink:href="#DejaVuSans-73" transform="translate(986.775391 0)"/>
     </g>
    </g>
   </g>
   <g id="text_9">
    <g clip-path="url(#pd350c99b3b)">
     <!-- run_tests -->
     <g transform="translate(216.532195 319.306008) scale(0.08 -0.08)">
      <use xlink:href="#DejaVuSans-72"/>
      <use xlink:href="#DejaVuSans-75" transform="translate(41.113281 0)"/>
      <use xlink:href="#DejaVuSans-6e" transform="translate(104.492188 0)"/>
      <use xlink:href="#DejaVuSans-5f" transform="translate(167.871094 0)"/>
      <use xlink:href="#DejaVuSans-74" transform="translate(217.871094 0)"/>
      <use xlink:href="#DejaVuSans-65" transform="translate(257.080078 0)"/>
      <use xlink:href="#DejaVuSans-73" transform="translate(318.603516 0)"/>
      <use xlink:href="#DejaVuSans-74" transform="translate(370.703125 0)"/>
      <use xlink:href="#DejaVuSans-73" transform="translate(409.912109 0)"/>
     </g>
    </g>
   </g>
   <g id="text_10">
    <g clip-path="url(#pd350c99b3b)">
     <!-- interpret_results -->
     <g transform="translate(318.204003 270.050867) scale(0.08 -0.08)">
      <use xlink:href="#DejaVuSans-69"/>
      <use xlink:href="#DejaVuSans-6e" transform="translate(27.783203 0)"/>
      <use xlink:href="#DejaVuSans-74" transform="translate(91.162109 0)"/>
      <use xlink:href="#DejaVuSans-65" transform="translate(130.371094 0)"/>
      <use xlink:href="#DejaVuSans-72" transform="translate(191.894531 0)"/>
      <use xlink:href="#DejaVuSans-70" transform="translate(233.007812 0)"/>
      <use xlink:href="#DejaVuSans-72" transform="translate(296.484375 0)"/>
      <use xlink:href="#DejaVuSans-65" transform="translate(335.347656 0)"/>
      <use xlink:href="#DejaVuSans-74" transform="translate(396.871094 0)"/>
      <use xlink:href="#DejaVuSans-5f" transform="translate(436.080078 0)"/>
      <use xlink:href="#DejaVuSans-72" transform="translate(486.080078 0)"/>
      <use xlink:href="#DejaVuSans-65" transform="translate(524.943359 0)"/>
      <use xlink:href="#DejaVuSans-73" transform="translate(586.466797 0)"/>
      <use xlink:href="#DejaVuSans-75" transform="translate(638.566406 0)"/>
      <use xlink:href="#DejaVuSans-6c" transform="translate(701.945312 0)"/>
      <use xlink:href="#DejaVuSans-74" transform="translate(729.728516 0)"/>
      <use xlink:href="#DejaVuSans-73" transform="translate(768.9375 0)"/>
     </g>
    </g>
   </g>
   <g id="text_11">
    <g clip-path="url(#pd350c99b3b)">
     <!-- review_gate -->
     <g transform="translate(365.475439 220.684476) scale(0.08 -0.08)">
      <defs>
       <path id="DejaVuSans-77" d="M 269 3500 
L 844 3500 
L 1563 769 
L 2278 3500 
L 2956 3500 
L 3675 769 
L 4391 3500 
L 4966 3500 
L 4050 0 
L 3372 0 
L 2619 2869 
L 1863 0 
L 1184 0 
L 269 3500 
z
" transform="scale(0.015625)"/>
      </defs>
      <use xlink:href="#DejaVuSans-72"/>
      <use xlink:href="#DejaVuSans-65" transform="translate(38.863281 0)"/>
      <use xlink:href="#DejaVuSans-76" transform="translate(100.386719 0)"/>
      <use xlink:href="#DejaVuSans-69" transform="translate(159.566406 0)"/>
      <use xlink:href="#DejaVuSans-65" transform="translate(187.349609 0)"/>
      <use xlink:href="#DejaVuSans-77" transform="translate(248.873047 0)"/>
      <use xlink:href="#DejaVuSans-5f" transform="translate(330.660156 0)"/>
      <use xlink:href="#DejaVuSans-67" transform="translate(380.660156 0)"/>
      <use xlink:href="#DejaVuSans-61" transform="translate(444.136719 0)"/>
      <use xlink:href="#DejaVuSans-74" transform="translate(505.416016 0)"/>
      <use xlink:href="#DejaVuSans-65" transform="translate(544.625 0)"/>
     </g>
    </g>
   </g>
   <g id="text_12">
    <g clip-path="url(#pd350c99b3b)">
     <!-- generate_report -->
     <g transform="translate(396.063125 171.206835) scale(0.08 -0.08)">
      <use xlink:href="#DejaVuSans-67"/>
      <use xlink:href="#DejaVuSans-65" transform="translate(63.476562 0)"/>
      <use xlink:href="#DejaVuSans-6e" transform="translate(125 0)"/>
      <use xlink:href="#DejaVuSans-65" transform="translate(188.378906 0)"/>
      <use xlink:href="#DejaVuSans-72" transform="translate(249.902344 0)"/>
      <use xlink:href="#DejaVuSans-61" transform="translate(291.015625 0)"/>
      <use xlink:href="#DejaVuSans-74" transform="translate(352.294922 0)"/>
      <use xlink:href="#DejaVuSans-65" transform="translate(391.503906 0)"/>
      <use xlink:href="#DejaVuSans-5f" transform="translate(453.027344 0)"/>
      <use xlink:href="#DejaVuSans-72" transform="translate(503.027344 0)"/>
      <use xlink:href="#DejaVuSans-65" transform="translate(541.890625 0)"/>
      <use xlink:href="#DejaVuSans-70" transform="translate(603.414062 0)"/>
      <use xlink:href="#DejaVuSans-6f" transform="translate(666.890625 0)"/>
      <use xlink:href="#DejaVuSans-72" transform="translate(728.072266 0)"/>
      <use xlink:href="#DejaVuSans-74" transform="translate(769.185547 0)"/>
     </g>
    </g>
   </g>
   <g id="text_13">
    <g clip-path="url(#pd350c99b3b)">
     <!-- complete -->
     <g transform="translate(409.715625 122.062943) scale(0.08 -0.08)">
      <use xlink:href="#DejaVuSans-63"/>
      <use xlink:href="#DejaVuSans-6f" transform="translate(54.980469 0)"/>
      <use xlink:href="#DejaVuSans-6d" transform="translate(116.162109 0)"/>
      <use xlink:href="#DejaVuSans-70" transform="translate(213.574219 0)"/>
      <use xlink:href="#DejaVuSans-6c" transform="translate(277.050781 0)"/>
      <use xlink:href="#DejaVuSans-65" transform="translate(304.833984 0)"/>
      <use xlink:href="#DejaVuSans-74" transform="translate(366.357422 0)"/>
      <use xlink:href="#DejaVuSans-65" transform="translate(405.566406 0)"/>
     </g>
    </g>
   </g>
   <g id="text_14">
    <!-- statistical_analysis -->
    <g transform="translate(353.608281 17.837812) scale(0.14 -0.14)">
     <defs>
      <path id="DejaVuSans-Bold-73" d="M 3272 3391 
L 3272 2541 
Q 2913 2691 2578 2766 
Q 2244 2841 1947 2841 
Q 1628 2841 1473 2761 
Q 1319 2681 1319 2516 
Q 1319 2381 1436 2309 
Q 1553 2238 1856 2203 
L 2053 2175 
Q 2913 2066 3209 1816 
Q 3506 1566 3506 1031 
Q 3506 472 3093 190 
Q 2681 -91 1863 -91 
Q 1516 -91 1145 -36 
Q 775 19 384 128 
L 384 978 
Q 719 816 1070 734 
Q 1422 653 1784 653 
Q 2113 653 2278 743 
Q 2444 834 2444 1013 
Q 2444 1163 2330 1236 
Q 2216 1309 1875 1350 
L 1678 1375 
Q 931 1469 631 1722 
Q 331 1975 331 2491 
Q 331 3047 712 3315 
Q 1094 3584 1881 3584 
Q 2191 3584 2531 3537 
Q 2872 3491 3272 3391 
z
" transform="scale(0.015625)"/>
      <path id="DejaVuSans-Bold-74" d="M 1759 4494 
L 1759 3500 
L 2913 3500 
L 2913 2700 
L 1759 2700 
L 1759 1216 
Q 1759 972 1856 886 
Q 1953 800 2241 800 
L 2816 800 
L 2816 0 
L 1856 0 
Q 1194 0 917 276 
Q 641 553 641 1216 
L 641 2700 
L 84 2700 
L 84 3500 
L 641 3500 
L 641 4494 
L 1759 4494 
z
" transform="scale(0.015625)"/>
      <path id="DejaVuSans-Bold-61" d="M 2106 1575 
Q 1756 1575 1579 1456 
Q 1403 1338 1403 1106 
Q 1403 894 1545 773 
Q 1688 653 1941 653 
Q 2256 653 2472 879 
Q 2688 1106 2688 1447 
L 2688 1575 
L 2106 1575 
z
M 3816 1997 
L 3816 0 
L 2688 0 
L 2688 519 
Q 2463 200 2181 54 
Q 1900 -91 1497 -91 
Q 953 -91 614 226 
Q 275 544 275 1050 
Q 275 1666 698 1953 
Q 1122 2241 2028 2241 
L 2688 2241 
L 2688 2328 
Q 2688 2594 2478 2717 
Q 2269 2841 1825 2841 
Q 1466 2841 1156 2769 
Q 847 2697 581 2553 
L 581 3406 
Q 941 3494 1303 3539 
Q 1666 3584 2028 3584 
Q 2975 3584 3395 3211 
Q 3816 2838 3816 1997 
z
" transform="scale(0.015625)"/>
      <path id="DejaVuSans-Bold-69" d="M 538 3500 
L 1656 3500 
L 1656 0 
L 538 0 
L 538 3500 
z
M 538 4863 
L 1656 4863 
L 1656 3950 
L 538 3950 
L 538 4863 
z
" transform="scale(0.015625)"/>
      <path id="DejaVuSans-Bold-63" d="M 3366 3391 
L 3366 2478 
Q 3138 2634 2908 2709 
Q 2678 2784 2431 2784 
Q 1963 2784 1702 2511 
Q 1441 2238 1441 1747 
Q 1441 1256 1702 982 
Q 1963 709 2431 709 
Q 2694 709 2930 787 
Q 3166 866 3366 1019 
L 3366 103 
Q 3103 6 2833 -42 
Q 2563 -91 2291 -91 
Q 1344 -91 809 395 
Q 275 881 275 1747 
Q 275 2613 809 3098 
Q 1344 3584 2291 3584 
Q 2566 3584 2833 3536 
Q 3100 3488 3366 3391 
z
" transform="scale(0.015625)"/>
      <path id="DejaVuSans-Bold-6c" d="M 538 4863 
L 1656 4863 
L 1656 0 
L 538 0 
L 538 4863 
z
" transform="scale(0.015625)"/>
      <path id="DejaVuSans-Bold-5f" d="M 3200 -916 
L 3200 -1509 
L 0 -1509 
L 0 -916 
L 3200 -916 
z
" transform="scale(0.015625)"/>
      <path id="DejaVuSans-Bold-6e" d="M 4056 2131 
L 4056 0 
L 2931 0 
L 2931 347 
L 2931 1631 
Q 2931 2084 2911 2256 
Q 2891 2428 2841 2509 
Q 2775 2619 2662 2680 
Q 2550 2741 2406 2741 
Q 2056 2741 1856 2470 
Q 1656 2200 1656 1722 
L 1656 0 
L 538 0 
L 538 3500 
L 1656 3500 
L 1656 2988 
Q 1909 3294 2193 3439 
Q 2478 3584 2822 3584 
Q 3428 3584 3742 3212 
Q 4056 2841 4056 2131 
z
" transform="scale(0.015625)"/>
      <path id="DejaVuSans-Bold-79" d="M 78 3500 
L 1197 3500 
L 2138 1125 
L 2938 3500 
L 4056 3500 
L 2584 -331 
Q 2363 -916 2067 -1148 
Q 1772 -1381 1288 -1381 
L 641 -1381 
L 641 -647 
L 991 -647 
Q 1275 -647 1404 -556 
Q 1534 -466 1606 -231 
L 1638 -134 
L 78 3500 
z
" transform="scale(0.015625)"/>
     </defs>
     <use xlink:href="#DejaVuSans-Bold-73"/>
     <use xlink:href="#DejaVuSans-Bold-74" transform="translate(59.521484 0)"/>
     <use xlink:href="#DejaVuSans-Bold-61" transform="translate(107.324219 0)"/>
     <use xlink:href="#DejaVuSans-Bold-74" transform="translate(174.804688 0)"/>
     <use xlink:href="#DejaVuSans-Bold-69" transform="translate(222.607422 0)"/>
     <use xlink:href="#DejaVuSans-Bold-73" transform="translate(256.884766 0)"/>
     <use xlink:href="#DejaVuSans-Bold-74" transform="translate(316.40625 0)"/>
     <use xlink:href="#DejaVuSans-Bold-69" transform="translate(364.208984 0)"/>
     <use xlink:href="#DejaVuSans-Bold-63" transform="translate(398.486328 0)"/>
     <use xlink:href="#DejaVuSans-Bold-61" transform="translate(457.763672 0)"/>
     <use xlink:href="#DejaVuSans-Bold-6c" transform="translate(525.244141 0)"/>
     <use xlink:href="#DejaVuSans-Bold-5f" transform="translate(559.521484 0)"/>
     <use xlink:href="#DejaVuSans-Bold-61" transform="translate(609.521484 0)"/>
     <use xlink:href="#DejaVuSans-Bold-6e" transform="translate(677.001953 0)"/>
     <use xlink:href="#DejaVuSans-Bold-61" transform="translate(748.193359 0)"/>
     <use xlink:href="#DejaVuSans-Bold-6c" transform="translate(815.673828 0)"/>
     <use xlink:href="#DejaVuSans-Bold-79" transform="translate(849.951172 0)"/>
     <use xlink:href="#DejaVuSans-Bold-73" transform="translate(915.136719 0)"/>
     <use xlink:href="#DejaVuSans-Bold-69" transform="translate(974.658203 0)"/>
     <use xlink:href="#DejaVuSans-Bold-73" transform="translate(1008.935547 0)"/>
    </g>
   </g>
  </g>
 </g>
 <defs>
  <clipPath id="pd350c99b3b">
   <rect x="7.2" y="23.837812" width="842.4" height="537.6"/>
  </clipPath>
 </defs>
</svg>
